<svg width="100%" height="100%" viewBox="0 0 2039 355" version="1.1" xmlns="http://www.w3.org/2000/svg" xmlns:xlink="http://www.w3.org/1999/xlink" xml:space="preserve" xmlns:serif="http://www.serif.com/" style="fill-rule:evenodd;clip-rule:evenodd;stroke-linejoin:round;stroke-miterlimit:2;">
    <g transform="matrix(1,0,0,1,-739.646,-1126.01)">
        <g transform="matrix(1.00816,0,0,1,-15.6862,472.879)">
            <path d="M2770.85,830.575C2770.85,732.573 2692.05,653.127 2594.84,653.127L925.229,653.127C828.02,653.127 749.217,732.573 749.217,830.575L749.217,830.576C749.217,928.578 828.02,1008.02 925.229,1008.02L2594.84,1008.02C2692.05,1008.02 2770.85,928.578 2770.85,830.576L2770.85,830.575Z" style="fill:rgb(0,39,221);"/>
            <clipPath id="_clip1">
                <path d="M2770.85,830.575C2770.85,732.573 2692.05,653.127 2594.84,653.127L925.229,653.127C828.02,653.127 749.217,732.573 749.217,830.575L749.217,830.576C749.217,928.578 828.02,1008.02 925.229,1008.02L2594.84,1008.02C2692.05,1008.02 2770.85,928.578 2770.85,830.576L2770.85,830.575Z"/>
            </clipPath>
            <g clip-path="url(#_clip1)">
                <g transform="matrix(5.92977,0,0,5.97817,-5851,-1545.46)">
                    <g transform="matrix(50,0,0,50,1121.39,415.152)">
                        <path d="M0.034,-0.354C0.034,-0.411 0.044,-0.462 0.064,-0.508C0.084,-0.554 0.111,-0.593 0.146,-0.626C0.181,-0.659 0.222,-0.684 0.269,-0.702C0.316,-0.719 0.366,-0.728 0.419,-0.728C0.474,-0.728 0.525,-0.719 0.574,-0.702C0.623,-0.684 0.663,-0.66 0.696,-0.63L0.55,-0.454C0.537,-0.471 0.52,-0.485 0.5,-0.494C0.48,-0.503 0.458,-0.507 0.433,-0.507C0.413,-0.507 0.394,-0.503 0.377,-0.497C0.36,-0.49 0.345,-0.479 0.332,-0.466C0.319,-0.453 0.308,-0.436 0.301,-0.418C0.294,-0.399 0.29,-0.377 0.29,-0.354C0.29,-0.331 0.294,-0.31 0.302,-0.292C0.309,-0.273 0.32,-0.257 0.333,-0.244C0.345,-0.231 0.361,-0.221 0.378,-0.214C0.395,-0.207 0.414,-0.203 0.433,-0.203C0.46,-0.203 0.484,-0.209 0.504,-0.22C0.523,-0.231 0.539,-0.245 0.55,-0.26L0.696,-0.085C0.664,-0.053 0.625,-0.027 0.578,-0.009C0.531,0.011 0.478,0.02 0.419,0.02C0.366,0.02 0.316,0.011 0.269,-0.007C0.222,-0.025 0.181,-0.051 0.146,-0.084C0.111,-0.117 0.084,-0.156 0.064,-0.202C0.044,-0.247 0.034,-0.298 0.034,-0.354Z" style="fill:white;fill-rule:nonzero;"/>
                    </g>
                    <g transform="matrix(50,0,0,50,1156.19,415.152)">
                        <path d="M0.498,-0.269L0.304,-0.269L0.304,0L0.066,0L0.066,-0.708L0.303,-0.708L0.303,-0.468L0.497,-0.468L0.497,-0.708L0.736,-0.708L0.736,0L0.498,0L0.498,-0.269Z" style="fill:white;fill-rule:nonzero;"/>
                    </g>
                    <g transform="matrix(50,0,0,50,1196.29,415.152)">
                        <path d="M0.066,-0.708L0.553,-0.708L0.553,-0.51L0.29,-0.51L0.29,-0.449L0.537,-0.449L0.537,-0.264L0.29,-0.264L0.29,-0.198L0.57,-0.198L0.57,0L0.066,0L0.066,-0.708Z" style="fill:white;fill-rule:nonzero;"/>
                    </g>
                    <g transform="matrix(50,0,0,50,1226.44,415.152)">
                        <path d="M0.034,-0.354C0.034,-0.411 0.044,-0.462 0.064,-0.508C0.084,-0.554 0.111,-0.593 0.146,-0.626C0.181,-0.659 0.222,-0.684 0.269,-0.702C0.316,-0.719 0.366,-0.728 0.419,-0.728C0.474,-0.728 0.525,-0.719 0.574,-0.702C0.623,-0.684 0.663,-0.66 0.696,-0.63L0.55,-0.454C0.537,-0.471 0.52,-0.485 0.5,-0.494C0.48,-0.503 0.458,-0.507 0.433,-0.507C0.413,-0.507 0.394,-0.503 0.377,-0.497C0.36,-0.49 0.345,-0.479 0.332,-0.466C0.319,-0.453 0.308,-0.436 0.301,-0.418C0.294,-0.399 0.29,-0.377 0.29,-0.354C0.29,-0.331 0.294,-0.31 0.302,-0.292C0.309,-0.273 0.32,-0.257 0.333,-0.244C0.345,-0.231 0.361,-0.221 0.378,-0.214C0.395,-0.207 0.414,-0.203 0.433,-0.203C0.46,-0.203 0.484,-0.209 0.504,-0.22C0.523,-0.231 0.539,-0.245 0.55,-0.26L0.696,-0.085C0.664,-0.053 0.625,-0.027 0.578,-0.009C0.531,0.011 0.478,0.02 0.419,0.02C0.366,0.02 0.316,0.011 0.269,-0.007C0.222,-0.025 0.181,-0.051 0.146,-0.084C0.111,-0.117 0.084,-0.156 0.064,-0.202C0.044,-0.247 0.034,-0.298 0.034,-0.354Z" style="fill:white;fill-rule:nonzero;"/>
                    </g>
                    <g transform="matrix(0.167275,0,0,0.167275,987.904,259.57)">
                        <path d="M1734.57,861.956L1777.98,818.167L1851.35,930.099L1780.24,930.099L1734.57,861.956ZM1723.14,930.099L1667,930.099L1723.14,873.474L1723.14,930.099ZM1653.8,916.784L1653.8,718.471L1722.85,718.471L1722.85,797.685L1806.52,718.471L1850.43,718.471L1723.91,846.066L1723.74,845.806L1723.14,845.806L1723.14,846.844L1653.8,916.784Z" style="fill:rgb(144,255,127);fill-rule:nonzero;"/>
                    </g>
                    <g transform="matrix(50,0,0,50,1261.24,415.152)">
                        <path d="M0.768,-0.708L0.066,0L0.066,-0.708L0.297,-0.708L0.297,-0.443L0.576,-0.708L0.768,-0.708Z" style="fill:rgb(35,255,0);fill-rule:nonzero;"/>
                    </g>
                    <g transform="matrix(50,0,0,50,1298.79,415.152)">
                        <path d="M0.263,-0.708L0.516,-0.708L0.792,0L0.533,0L0.496,-0.104L0.271,-0.104L0.236,0L-0.016,0L0.263,-0.708ZM0.386,-0.461L0.328,-0.286L0.443,-0.286L0.386,-0.461Z" style="fill:white;fill-rule:nonzero;"/>
                    </g>
                    <g transform="matrix(50,0,0,50,1336.69,415.152)">
                        <path d="M0.384,0.02C0.329,0.02 0.281,0.012 0.24,-0.003C0.199,-0.018 0.164,-0.039 0.137,-0.066C0.11,-0.093 0.089,-0.124 0.076,-0.161C0.063,-0.197 0.056,-0.236 0.056,-0.278L0.056,-0.708L0.294,-0.708L0.294,-0.304C0.294,-0.27 0.302,-0.244 0.319,-0.225C0.335,-0.206 0.358,-0.196 0.388,-0.196C0.418,-0.196 0.441,-0.206 0.458,-0.225C0.474,-0.244 0.482,-0.27 0.482,-0.304L0.482,-0.708L0.719,-0.708L0.719,-0.278C0.719,-0.236 0.712,-0.197 0.698,-0.161C0.683,-0.124 0.662,-0.093 0.634,-0.066C0.606,-0.039 0.571,-0.018 0.53,-0.003C0.488,0.012 0.439,0.02 0.384,0.02Z" style="fill:white;fill-rule:nonzero;"/>
                    </g>
                    <g transform="matrix(50,0,0,50,1375.44,415.152)">
                        <path d="M0.419,0L0.181,0L0.181,-0.507L0.007,-0.507L0.007,-0.708L0.593,-0.708L0.593,-0.507L0.419,-0.507L0.419,0Z" style="fill:white;fill-rule:nonzero;"/>
                    </g>
                    <g transform="matrix(0.167275,0,0,0.167275,980.674,259.57)">
                        <path d="M2657.87,712.546C2719.56,712.546 2769.64,762.627 2769.64,824.312C2769.64,885.996 2719.56,936.077 2657.87,936.077C2596.19,936.077 2546.11,885.996 2546.11,824.312C2546.11,762.627 2596.19,712.546 2657.87,712.546ZM2657.87,778.065C2683.39,778.065 2704.12,798.787 2704.12,824.312C2704.12,849.836 2683.39,870.558 2657.87,870.558C2632.35,870.558 2611.62,849.836 2611.62,824.312C2611.62,798.787 2632.35,778.065 2657.87,778.065Z" style="fill:white;"/>
                    </g>
                </g>
            </g>
        </g>
    </g>
</svg>
