<?xml version="1.0" encoding="UTF-8" standalone="no"?><!DOCTYPE svg PUBLIC "-//W3C//DTD SVG 1.1//EN" "http://www.w3.org/Graphics/SVG/1.1/DTD/svg11.dtd"><svg width="100%" height="100%" viewBox="0 0 24 24" version="1.1" xmlns="http://www.w3.org/2000/svg" xmlns:xlink="http://www.w3.org/1999/xlink" xml:space="preserve" xmlns:serif="http://www.serif.com/" style="fill-rule:evenodd;clip-rule:evenodd;stroke-linejoin:round;stroke-miterlimit:2;"><path d="M24,4.8l-4.8,-4.8l-14.4,-0l-4.8,4.8l0,14.4l4.8,4.8l14.4,0l4.8,-4.8l0,-14.4Zm-0.65,0.269l0,13.862c-0,-0 -4.419,4.419 -4.419,4.419c-0,0 -13.862,0 -13.862,0c0,-0 -4.419,-4.419 -4.419,-4.419c-0,-0 -0,-13.862 -0,-13.862c0,0 4.419,-4.419 4.419,-4.419c0,-0 13.862,-0 13.862,-0l4.419,4.419Z" style="fill:#56f9fe;"/></svg>