<?xml version="1.0" encoding="UTF-8" standalone="no"?>
<!DOCTYPE svg PUBLIC "-//W3C//DTD SVG 1.1//EN" "http://www.w3.org/Graphics/SVG/1.1/DTD/svg11.dtd">
<svg width="100%" height="100%" viewBox="0 0 426 120" version="1.1" xmlns="http://www.w3.org/2000/svg" xmlns:xlink="http://www.w3.org/1999/xlink" xml:space="preserve" xmlns:serif="http://www.serif.com/" style="fill-rule:evenodd;clip-rule:evenodd;stroke-linejoin:round;stroke-miterlimit:2;">
    <g transform="matrix(1,0,0,1,-919.531,-3398.82)">
        <g transform="matrix(1.8399,0,0,1.55321,1.65905,-1317.32)">
            <g transform="matrix(0.543508,0,0,0.643828,465.641,871.738)">
                <g transform="matrix(1.05824,0,0,1.05824,43.0769,-174.175)">
                    <ellipse cx="218.088" cy="3407.95" rx="201.02" ry="46.935" style="fill:rgb(88,88,88);"/>
                </g>
                <g transform="matrix(0.994926,0,0,0.994926,54.9032,29.2497)">
                    <ellipse cx="218.088" cy="3407.95" rx="201.02" ry="46.935" style="fill:rgb(107,107,107);"/>
                </g>
                <g transform="matrix(0.994035,0,0,0.994035,-0.427667,-46.488)">
                    <rect x="72.747" y="3475.63" width="402.4" height="9.967" style="fill:rgb(107,107,107);"/>
                </g>
                <g transform="matrix(0.994926,0,0,0.994926,54.9032,18.1798)">
                    <ellipse cx="218.088" cy="3407.95" rx="201.02" ry="46.935" style="fill:rgb(138,138,138);"/>
                </g>
            </g>
        </g>
    </g>
</svg>
