<?xml version="1.0" encoding="UTF-8" standalone="no"?><!DOCTYPE svg PUBLIC "-//W3C//DTD SVG 1.1//EN" "http://www.w3.org/Graphics/SVG/1.1/DTD/svg11.dtd"><svg width="100%" height="100%" viewBox="0 0 151 225" version="1.1" xmlns="http://www.w3.org/2000/svg" xmlns:xlink="http://www.w3.org/1999/xlink" xml:space="preserve" xmlns:serif="http://www.serif.com/" style="fill-rule:evenodd;clip-rule:evenodd;stroke-linejoin:round;stroke-miterlimit:2;"><rect x="0" y="-0" width="150.015" height="225" style="fill:none;"/><clipPath id="_clip1"><rect x="0" y="-0" width="150.015" height="225"/></clipPath><g clip-path="url(#_clip1)"><g opacity="0.1"><g><path d="M138.083,225.255c4.637,-0 9.102,-3.805 9.964,-8.491c0.861,-4.687 -2.204,-8.491 -6.841,-8.491c-4.637,-0 -9.101,3.804 -9.963,8.491c-0.862,4.686 2.203,8.491 6.84,8.491Z" style="fill:#888;"/><path d="M142.059,203.637c4.637,0 9.101,-3.804 9.963,-8.491c0.862,-4.686 -2.203,-8.491 -6.84,-8.491c-4.637,0 -9.101,3.805 -9.963,8.491c-0.862,4.687 2.203,8.491 6.84,8.491Z" style="fill:#888;"/><path d="M146.035,182.02c4.637,-0 9.101,-3.805 9.963,-8.491c0.862,-4.686 -2.203,-8.491 -6.84,-8.491c-4.637,0 -9.102,3.805 -9.964,8.491c-0.861,4.686 2.203,8.491 6.841,8.491Z" style="fill:#888;"/><path d="M150.01,160.402c4.637,0 9.101,-3.804 9.963,-8.49c0.862,-4.687 -2.203,-8.491 -6.84,-8.491c-4.637,-0 -9.101,3.804 -9.963,8.491c-0.862,4.686 2.203,8.49 6.84,8.49Z" style="fill:#888;"/><path d="M153.986,138.785c4.637,0 9.101,-3.805 9.963,-8.491c0.862,-4.686 -2.203,-8.491 -6.84,-8.491c-4.637,0 -9.102,3.805 -9.964,8.491c-0.861,4.686 2.204,8.491 6.841,8.491Z" style="fill:#888;"/><path d="M157.961,117.168c4.637,-0 9.102,-3.805 9.963,-8.491c0.862,-4.686 -2.203,-8.491 -6.84,-8.491c-4.637,0 -9.101,3.805 -9.963,8.491c-0.862,4.686 2.203,8.491 6.84,8.491Z" style="fill:#888;"/></g><g><path d="M115.05,234.579c4.423,0 8.682,-3.629 9.504,-8.099c0.822,-4.47 -2.102,-8.099 -6.525,-8.099c-4.423,-0 -8.682,3.629 -9.504,8.099c-0.822,4.47 2.102,8.099 6.525,8.099Z" style="fill:#888;"/><path d="M118.842,213.959c4.423,-0 8.682,-3.629 9.504,-8.099c0.822,-4.47 -2.102,-8.1 -6.525,-8.1c-4.423,0 -8.681,3.63 -9.503,8.1c-0.823,4.47 2.101,8.099 6.524,8.099Z" style="fill:#888;"/><path d="M122.634,193.339c4.423,-0 8.682,-3.629 9.504,-8.1c0.822,-4.47 -2.102,-8.099 -6.525,-8.099c-4.423,0 -8.681,3.629 -9.503,8.099c-0.822,4.471 2.101,8.1 6.524,8.1Z" style="fill:#888;"/><path d="M126.427,172.718c4.423,0 8.681,-3.629 9.503,-8.099c0.822,-4.47 -2.101,-8.099 -6.524,-8.099c-4.424,-0 -8.682,3.629 -9.504,8.099c-0.822,4.47 2.101,8.099 6.525,8.099Z" style="fill:#888;"/><path d="M130.219,152.098c4.423,0 8.681,-3.629 9.503,-8.099c0.822,-4.47 -2.101,-8.099 -6.524,-8.099c-4.423,-0 -8.682,3.629 -9.504,8.099c-0.822,4.47 2.102,8.099 6.525,8.099Z" style="fill:#888;"/><path d="M134.011,131.478c4.423,-0 8.681,-3.629 9.504,-8.099c0.822,-4.47 -2.102,-8.1 -6.525,-8.1c-4.423,0 -8.682,3.63 -9.504,8.1c-0.822,4.47 2.102,8.099 6.525,8.099Z" style="fill:#888;"/><path d="M137.803,110.858c4.423,-0 8.682,-3.629 9.504,-8.1c0.822,-4.47 -2.102,-8.099 -6.525,-8.099c-4.423,0 -8.681,3.629 -9.504,8.099c-0.822,4.471 2.102,8.1 6.525,8.1Z" style="fill:#888;"/><path d="M141.595,90.237c4.423,0 8.682,-3.629 9.504,-8.099c0.822,-4.47 -2.102,-8.099 -6.525,-8.099c-4.423,-0 -8.681,3.629 -9.503,8.099c-0.822,4.47 2.101,8.099 6.524,8.099Z" style="fill:#888;"/><path d="M145.387,69.617c4.424,0 8.682,-3.629 9.504,-8.099c0.822,-4.47 -2.101,-8.099 -6.525,-8.099c-4.423,-0 -8.681,3.629 -9.503,8.099c-0.822,4.47 2.101,8.099 6.524,8.099Z" style="fill:#888;"/><path d="M149.18,48.997c4.423,-0 8.681,-3.629 9.503,-8.099c0.822,-4.47 -2.101,-8.1 -6.524,-8.1c-4.424,0 -8.682,3.63 -9.504,8.1c-0.822,4.47 2.102,8.099 6.525,8.099Z" style="fill:#888;"/><path d="M152.972,28.377c4.423,-0 8.681,-3.629 9.503,-8.1c0.823,-4.47 -2.101,-8.099 -6.524,-8.099c-4.423,0 -8.682,3.629 -9.504,8.099c-0.822,4.471 2.102,8.1 6.525,8.1Z" style="fill:#888;"/><path d="M156.764,7.756c4.423,0 8.682,-3.629 9.504,-8.099c0.822,-4.47 -2.102,-8.099 -6.525,-8.099c-4.423,0 -8.682,3.629 -9.504,8.099c-0.822,4.47 2.102,8.099 6.525,8.099Z" style="fill:#888;"/></g><g><path d="M96.871,222.853c4.219,0 8.281,-3.461 9.065,-7.725c0.785,-4.264 -2.004,-7.726 -6.223,-7.726c-4.219,0 -8.281,3.462 -9.066,7.726c-0.784,4.264 2.005,7.725 6.224,7.725Z" style="fill:#888;"/><path d="M100.488,203.184c4.22,0 8.282,-3.461 9.066,-7.725c0.784,-4.264 -2.005,-7.726 -6.224,-7.726c-4.219,0 -8.281,3.462 -9.065,7.726c-0.784,4.264 2.004,7.725 6.223,7.725Z" style="fill:#888;"/><path d="M104.106,183.515c4.219,0 8.281,-3.462 9.065,-7.725c0.784,-4.264 -2.005,-7.726 -6.224,-7.726c-4.219,-0 -8.281,3.462 -9.065,7.726c-0.784,4.263 2.005,7.725 6.224,7.725Z" style="fill:#888;"/><path d="M107.723,163.846c4.219,0 8.281,-3.462 9.065,-7.726c0.784,-4.263 -2.004,-7.725 -6.223,-7.725c-4.22,-0 -8.282,3.462 -9.066,7.725c-0.784,4.264 2.005,7.726 6.224,7.726Z" style="fill:#888;"/><path d="M111.34,144.177c4.219,-0 8.281,-3.462 9.066,-7.726c0.784,-4.264 -2.005,-7.725 -6.224,-7.725c-4.219,-0 -8.281,3.461 -9.065,7.725c-0.785,4.264 2.004,7.726 6.223,7.726Z" style="fill:#888;"/><path d="M114.958,124.508c4.219,-0 8.281,-3.462 9.065,-7.726c0.784,-4.264 -2.005,-7.726 -6.224,-7.726c-4.219,0 -8.281,3.462 -9.065,7.726c-0.784,4.264 2.004,7.726 6.224,7.726Z" style="fill:#888;"/><path d="M118.575,104.839c4.219,-0 8.281,-3.462 9.065,-7.726c0.784,-4.264 -2.004,-7.726 -6.224,-7.726c-4.219,0 -8.281,3.462 -9.065,7.726c-0.784,4.264 2.005,7.726 6.224,7.726Z" style="fill:#888;"/><path d="M122.192,85.17c4.219,-0 8.281,-3.462 9.065,-7.726c0.785,-4.264 -2.004,-7.726 -6.223,-7.726c-4.219,0 -8.281,3.462 -9.066,7.726c-0.784,4.264 2.005,7.726 6.224,7.726Z" style="fill:#888;"/><path d="M125.809,65.5c4.219,0 8.281,-3.461 9.066,-7.725c0.784,-4.264 -2.005,-7.726 -6.224,-7.726c-4.219,0 -8.281,3.462 -9.065,7.726c-0.785,4.264 2.004,7.725 6.223,7.725Z" style="fill:#888;"/><path d="M129.427,45.831c4.219,0 8.281,-3.461 9.065,-7.725c0.784,-4.264 -2.005,-7.726 -6.224,-7.726c-4.219,-0 -8.281,3.462 -9.065,7.726c-0.784,4.264 2.004,7.725 6.224,7.725Z" style="fill:#888;"/><path d="M133.044,26.162c4.219,0 8.281,-3.462 9.065,-7.726c0.784,-4.263 -2.004,-7.725 -6.224,-7.725c-4.219,-0 -8.281,3.462 -9.065,7.725c-0.784,4.264 2.005,7.726 6.224,7.726Z" style="fill:#888;"/><path d="M136.661,6.493c4.219,0 8.281,-3.462 9.065,-7.726c0.785,-4.264 -2.004,-7.725 -6.223,-7.725c-4.219,-0 -8.281,3.461 -9.066,7.725c-0.784,4.264 2.005,7.726 6.224,7.726Z" style="fill:#888;"/></g><g><path d="M79.531,211.669c4.024,-0 7.899,-3.302 8.647,-7.37c0.748,-4.067 -1.912,-7.369 -5.937,-7.369c-4.024,0 -7.899,3.302 -8.647,7.369c-0.748,4.068 1.912,7.37 5.937,7.37Z" style="fill:#888;"/><path d="M82.981,192.907c4.025,-0 7.899,-3.302 8.647,-7.37c0.748,-4.067 -1.912,-7.369 -5.936,-7.369c-4.025,0 -7.899,3.302 -8.647,7.369c-0.748,4.068 1.912,7.37 5.936,7.37Z" style="fill:#888;"/><path d="M86.432,174.145c4.024,-0 7.899,-3.302 8.647,-7.369c0.748,-4.068 -1.912,-7.37 -5.937,-7.37c-4.024,0 -7.899,3.302 -8.647,7.37c-0.748,4.067 1.912,7.369 5.937,7.369Z" style="fill:#888;"/><path d="M89.882,155.383c4.025,-0 7.899,-3.302 8.647,-7.369c0.748,-4.068 -1.912,-7.37 -5.936,-7.37c-4.025,0 -7.899,3.302 -8.647,7.37c-0.748,4.067 1.912,7.369 5.936,7.369Z" style="fill:#888;"/><path d="M93.333,136.621c4.024,0 7.899,-3.302 8.647,-7.369c0.748,-4.067 -1.912,-7.37 -5.937,-7.37c-4.024,0 -7.899,3.303 -8.647,7.37c-0.748,4.067 1.912,7.369 5.937,7.369Z" style="fill:#888;"/><path d="M96.783,117.859c4.025,0 7.899,-3.302 8.647,-7.369c0.748,-4.067 -1.912,-7.369 -5.936,-7.369c-4.025,-0 -7.9,3.302 -8.648,7.369c-0.748,4.067 1.912,7.369 5.937,7.369Z" style="fill:#888;"/><path d="M100.233,99.097c4.025,0 7.9,-3.302 8.648,-7.369c0.748,-4.067 -1.913,-7.369 -5.937,-7.369c-4.025,-0 -7.899,3.302 -8.647,7.369c-0.748,4.067 1.912,7.369 5.936,7.369Z" style="fill:#888;"/><path d="M103.684,80.335c4.024,0 7.899,-3.302 8.647,-7.369c0.748,-4.067 -1.912,-7.369 -5.937,-7.369c-4.024,-0 -7.899,3.302 -8.647,7.369c-0.748,4.067 1.912,7.369 5.937,7.369Z" style="fill:#888;"/><path d="M107.134,61.574c4.025,-0 7.899,-3.303 8.647,-7.37c0.748,-4.067 -1.912,-7.369 -5.936,-7.369c-4.025,-0 -7.899,3.302 -8.647,7.369c-0.748,4.067 1.912,7.37 5.936,7.37Z" style="fill:#888;"/><path d="M110.585,42.812c4.024,-0 7.899,-3.302 8.647,-7.37c0.748,-4.067 -1.912,-7.369 -5.937,-7.369c-4.024,-0 -7.899,3.302 -8.647,7.369c-0.748,4.068 1.912,7.37 5.937,7.37Z" style="fill:#888;"/><path d="M114.035,24.05c4.025,-0 7.899,-3.302 8.647,-7.37c0.748,-4.067 -1.912,-7.369 -5.936,-7.369c-4.025,0 -7.9,3.302 -8.648,7.369c-0.748,4.068 1.913,7.37 5.937,7.37Z" style="fill:#888;"/><path d="M117.486,5.288c4.024,-0 7.899,-3.302 8.647,-7.369c0.748,-4.068 -1.912,-7.37 -5.937,-7.37c-4.024,0 -7.899,3.302 -8.647,7.37c-0.748,4.067 1.912,7.369 5.937,7.369Z" style="fill:#888;"/></g><g><path d="M62.99,201c3.839,-0 7.535,-3.15 8.249,-7.03c0.713,-3.879 -1.824,-7.029 -5.663,-7.029c-3.839,-0 -7.535,3.15 -8.248,7.029c-0.714,3.88 1.824,7.03 5.662,7.03Z" style="fill:#888;"/><path d="M66.282,183.103c3.839,0 7.535,-3.15 8.248,-7.029c0.713,-3.88 -1.824,-7.03 -5.663,-7.03c-3.839,0 -7.535,3.15 -8.248,7.03c-0.714,3.879 1.824,7.029 5.663,7.029Z" style="fill:#888;"/><path d="M69.573,165.207c3.839,-0 7.535,-3.15 8.248,-7.03c0.714,-3.879 -1.824,-7.029 -5.663,-7.029c-3.838,-0 -7.534,3.15 -8.248,7.029c-0.713,3.88 1.824,7.03 5.663,7.03Z" style="fill:#888;"/><path d="M72.864,147.31c3.839,0 7.535,-3.15 8.249,-7.029c0.713,-3.88 -1.824,-7.03 -5.663,-7.03c-3.839,0 -7.535,3.15 -8.249,7.03c-0.713,3.879 1.824,7.029 5.663,7.029Z" style="fill:#888;"/><path d="M76.156,129.414c3.838,-0 7.534,-3.15 8.248,-7.03c0.713,-3.879 -1.824,-7.029 -5.663,-7.029c-3.839,-0 -7.535,3.15 -8.248,7.029c-0.714,3.88 1.824,7.03 5.663,7.03Z" style="fill:#888;"/><path d="M79.447,111.517c3.839,0 7.535,-3.15 8.248,-7.029c0.714,-3.88 -1.824,-7.03 -5.663,-7.03c-3.839,0 -7.535,3.15 -8.248,7.03c-0.714,3.879 1.824,7.029 5.663,7.029Z" style="fill:#888;"/><path d="M82.738,93.621c3.839,-0 7.535,-3.15 8.248,-7.03c0.714,-3.879 -1.824,-7.029 -5.662,-7.029c-3.839,-0 -7.535,3.15 -8.249,7.029c-0.713,3.88 1.824,7.03 5.663,7.03Z" style="fill:#888;"/><path d="M86.029,75.724c3.839,0 7.535,-3.15 8.249,-7.029c0.713,-3.88 -1.824,-7.03 -5.663,-7.03c-3.839,0 -7.535,3.15 -8.249,7.03c-0.713,3.879 1.824,7.029 5.663,7.029Z" style="fill:#888;"/><path d="M89.321,57.828c3.838,-0 7.534,-3.15 8.248,-7.03c0.713,-3.879 -1.824,-7.029 -5.663,-7.029c-3.839,-0 -7.535,3.15 -8.248,7.029c-0.714,3.88 1.824,7.03 5.663,7.03Z" style="fill:#888;"/><path d="M92.612,39.931c3.839,0 7.535,-3.15 8.248,-7.029c0.714,-3.88 -1.824,-7.03 -5.663,-7.03c-3.839,0 -7.534,3.15 -8.248,7.03c-0.713,3.879 1.824,7.029 5.663,7.029Z" style="fill:#888;"/><path d="M95.903,22.035c3.839,-0 7.535,-3.15 8.248,-7.03c0.714,-3.879 -1.824,-7.029 -5.662,-7.029c-3.839,-0 -7.535,3.15 -8.249,7.029c-0.713,3.88 1.824,7.03 5.663,7.03Z" style="fill:#888;"/><path d="M99.194,4.138c3.839,0 7.535,-3.15 8.249,-7.029c0.713,-3.88 -1.824,-7.03 -5.663,-7.03c-3.839,0 -7.535,3.15 -8.248,7.03c-0.714,3.879 1.824,7.029 5.662,7.029Z" style="fill:#888;"/></g><g><path d="M47.213,190.823c3.662,-0 7.187,-3.005 7.868,-6.705c0.68,-3.701 -1.74,-6.705 -5.402,-6.705c-3.662,-0 -7.187,3.004 -7.868,6.705c-0.68,3.7 1.74,6.705 5.402,6.705Z" style="fill:#888;"/><path d="M50.352,173.752c3.662,-0 7.188,-3.005 7.868,-6.705c0.681,-3.701 -1.74,-6.705 -5.401,-6.705c-3.662,-0 -7.188,3.004 -7.868,6.705c-0.681,3.7 1.74,6.705 5.401,6.705Z" style="fill:#888;"/><path d="M53.492,156.681c3.662,-0 7.187,-3.005 7.868,-6.705c0.68,-3.701 -1.74,-6.706 -5.402,-6.706c-3.662,0 -7.187,3.005 -7.868,6.706c-0.68,3.7 1.74,6.705 5.402,6.705Z" style="fill:#888;"/><path d="M56.631,139.61c3.662,-0 7.188,-3.005 7.868,-6.705c0.681,-3.701 -1.74,-6.706 -5.402,-6.706c-3.661,0 -7.187,3.005 -7.867,6.706c-0.681,3.7 1.739,6.705 5.401,6.705Z" style="fill:#888;"/><path d="M59.771,122.539c3.662,-0 7.187,-3.005 7.868,-6.705c0.68,-3.701 -1.74,-6.706 -5.402,-6.706c-3.662,0 -7.187,3.005 -7.868,6.706c-0.68,3.7 1.74,6.705 5.402,6.705Z" style="fill:#888;"/><path d="M62.91,105.468c3.662,-0 7.187,-3.005 7.868,-6.705c0.681,-3.701 -1.74,-6.706 -5.402,-6.706c-3.661,0 -7.187,3.005 -7.867,6.706c-0.681,3.7 1.739,6.705 5.401,6.705Z" style="fill:#888;"/><path d="M66.05,88.397c3.661,-0 7.187,-3.005 7.867,-6.705c0.681,-3.701 -1.739,-6.706 -5.401,-6.706c-3.662,0 -7.187,3.005 -7.868,6.706c-0.681,3.7 1.74,6.705 5.402,6.705Z" style="fill:#888;"/><path d="M69.189,71.326c3.662,-0 7.187,-3.005 7.868,-6.705c0.681,-3.701 -1.74,-6.706 -5.402,-6.706c-3.661,0 -7.187,3.005 -7.868,6.706c-0.68,3.7 1.74,6.705 5.402,6.705Z" style="fill:#888;"/><path d="M72.329,54.255c3.661,-0 7.187,-3.005 7.867,-6.705c0.681,-3.701 -1.739,-6.706 -5.401,-6.706c-3.662,0 -7.187,3.005 -7.868,6.706c-0.681,3.7 1.74,6.705 5.402,6.705Z" style="fill:#888;"/><path d="M75.468,37.184c3.662,-0 7.187,-3.005 7.868,-6.705c0.68,-3.701 -1.74,-6.706 -5.402,-6.706c-3.662,0 -7.187,3.005 -7.868,6.706c-0.68,3.7 1.74,6.705 5.402,6.705Z" style="fill:#888;"/><path d="M78.607,20.113c3.662,-0 7.188,-3.005 7.868,-6.706c0.681,-3.7 -1.739,-6.705 -5.401,-6.705c-3.662,0 -7.188,3.005 -7.868,6.705c-0.681,3.701 1.74,6.706 5.401,6.706Z" style="fill:#888;"/><path d="M81.747,3.042c3.662,-0 7.187,-3.005 7.868,-6.706c0.68,-3.7 -1.74,-6.705 -5.402,-6.705c-3.662,0 -7.187,3.005 -7.868,6.705c-0.68,3.701 1.74,6.706 5.402,6.706Z" style="fill:#888;"/></g><g><path d="M32.163,181.115c3.493,0 6.856,-2.865 7.505,-6.395c0.649,-3.53 -1.66,-6.396 -5.152,-6.396c-3.493,-0 -6.856,2.866 -7.505,6.396c-0.65,3.53 1.659,6.395 5.152,6.395Z" style="fill:#888;"/><path d="M35.158,164.832c3.493,-0 6.855,-2.866 7.505,-6.396c0.649,-3.53 -1.66,-6.396 -5.153,-6.396c-3.493,0 -6.856,2.866 -7.505,6.396c-0.649,3.53 1.66,6.396 5.153,6.396Z" style="fill:#888;"/><path d="M38.152,148.548c3.493,0 6.856,-2.866 7.505,-6.396c0.65,-3.53 -1.659,-6.396 -5.152,-6.396c-3.493,0 -6.856,2.866 -7.505,6.396c-0.649,3.53 1.659,6.396 5.152,6.396Z" style="fill:#888;"/><path d="M41.147,132.265c3.493,-0 6.856,-2.866 7.505,-6.396c0.649,-3.53 -1.66,-6.396 -5.152,-6.396c-3.493,-0 -6.856,2.866 -7.505,6.396c-0.65,3.53 1.659,6.396 5.152,6.396Z" style="fill:#888;"/><path d="M44.142,115.981c3.493,-0 6.855,-2.866 7.505,-6.396c0.649,-3.53 -1.66,-6.396 -5.153,-6.396c-3.493,0 -6.856,2.866 -7.505,6.396c-0.649,3.53 1.66,6.396 5.153,6.396Z" style="fill:#888;"/><path d="M47.136,99.697c3.493,0 6.856,-2.866 7.505,-6.396c0.649,-3.53 -1.659,-6.395 -5.152,-6.395c-3.493,-0 -6.856,2.865 -7.505,6.395c-0.649,3.53 1.659,6.396 5.152,6.396Z" style="fill:#888;"/><path d="M50.131,83.414c3.493,-0 6.856,-2.866 7.505,-6.396c0.649,-3.53 -1.66,-6.396 -5.153,-6.396c-3.492,-0 -6.855,2.866 -7.504,6.396c-0.65,3.53 1.659,6.396 5.152,6.396Z" style="fill:#888;"/><path d="M53.126,67.13c3.493,0 6.855,-2.866 7.505,-6.396c0.649,-3.53 -1.66,-6.396 -5.153,-6.396c-3.493,0 -6.856,2.866 -7.505,6.396c-0.649,3.53 1.66,6.396 5.153,6.396Z" style="fill:#888;"/><path d="M56.12,50.847c3.493,-0 6.856,-2.866 7.505,-6.396c0.649,-3.53 -1.659,-6.396 -5.152,-6.396c-3.493,-0 -6.856,2.866 -7.505,6.396c-0.649,3.53 1.659,6.396 5.152,6.396Z" style="fill:#888;"/><path d="M59.115,34.563c3.493,-0 6.856,-2.866 7.505,-6.396c0.649,-3.53 -1.66,-6.396 -5.153,-6.396c-3.492,0 -6.855,2.866 -7.505,6.396c-0.649,3.53 1.66,6.396 5.153,6.396Z" style="fill:#888;"/><path d="M62.11,18.279c3.492,0 6.855,-2.866 7.505,-6.396c0.649,-3.53 -1.66,-6.396 -5.153,-6.396c-3.493,0 -6.856,2.866 -7.505,6.396c-0.649,3.53 1.66,6.396 5.153,6.396Z" style="fill:#888;"/><path d="M65.104,1.996c3.493,-0 6.856,-2.866 7.505,-6.396c0.649,-3.53 -1.659,-6.396 -5.152,-6.396c-3.493,-0 -6.856,2.866 -7.505,6.396c-0.649,3.53 1.659,6.396 5.152,6.396Z" style="fill:#888;"/></g><g><path d="M17.807,171.856c3.332,-0 6.54,-2.734 7.159,-6.101c0.619,-3.367 -1.583,-6.101 -4.915,-6.101c-3.331,0 -6.539,2.734 -7.158,6.101c-0.62,3.367 1.583,6.101 4.914,6.101Z" style="fill:#888;"/><path d="M20.664,156.323c3.332,0 6.54,-2.733 7.159,-6.101c0.619,-3.367 -1.583,-6.101 -4.915,-6.101c-3.332,0 -6.54,2.734 -7.159,6.101c-0.619,3.368 1.583,6.101 4.915,6.101Z" style="fill:#888;"/><path d="M23.52,140.791c3.332,-0 6.54,-2.734 7.159,-6.101c0.62,-3.367 -1.583,-6.101 -4.915,-6.101c-3.331,-0 -6.539,2.734 -7.158,6.101c-0.62,3.367 1.583,6.101 4.914,6.101Z" style="fill:#888;"/><path d="M26.377,125.258c3.332,0 6.54,-2.734 7.159,-6.101c0.619,-3.367 -1.583,-6.101 -4.915,-6.101c-3.332,0 -6.54,2.734 -7.159,6.101c-0.619,3.367 1.583,6.101 4.915,6.101Z" style="fill:#888;"/><path d="M29.234,109.726c3.331,-0 6.539,-2.734 7.158,-6.101c0.62,-3.367 -1.583,-6.101 -4.914,-6.101c-3.332,-0 -6.54,2.734 -7.159,6.101c-0.62,3.367 1.583,6.101 4.915,6.101Z" style="fill:#888;"/><path d="M32.09,94.193c3.332,0 6.54,-2.734 7.159,-6.101c0.619,-3.367 -1.583,-6.101 -4.915,-6.101c-3.332,0 -6.54,2.734 -7.159,6.101c-0.619,3.367 1.583,6.101 4.915,6.101Z" style="fill:#888;"/><path d="M34.947,78.661c3.331,-0 6.539,-2.734 7.158,-6.101c0.62,-3.367 -1.583,-6.101 -4.914,-6.101c-3.332,-0 -6.54,2.734 -7.159,6.101c-0.619,3.367 1.583,6.101 4.915,6.101Z" style="fill:#888;"/><path d="M37.803,63.128c3.332,0 6.54,-2.734 7.159,-6.101c0.619,-3.367 -1.583,-6.101 -4.915,-6.101c-3.332,0 -6.539,2.734 -7.159,6.101c-0.619,3.367 1.583,6.101 4.915,6.101Z" style="fill:#888;"/><path d="M40.66,47.595c3.331,0 6.539,-2.733 7.158,-6.1c0.62,-3.368 -1.583,-6.101 -4.914,-6.101c-3.332,-0 -6.54,2.733 -7.159,6.101c-0.619,3.367 1.583,6.1 4.915,6.1Z" style="fill:#888;"/><path d="M43.516,32.063c3.332,-0 6.54,-2.734 7.159,-6.101c0.619,-3.367 -1.583,-6.101 -4.915,-6.101c-3.332,0 -6.539,2.734 -7.159,6.101c-0.619,3.367 1.583,6.101 4.915,6.101Z" style="fill:#888;"/><path d="M46.373,16.53c3.331,0 6.539,-2.733 7.158,-6.1c0.62,-3.368 -1.583,-6.101 -4.914,-6.101c-3.332,-0 -6.54,2.733 -7.159,6.101c-0.619,3.367 1.583,6.1 4.915,6.1Z" style="fill:#888;"/><path d="M49.229,0.998c3.332,-0 6.54,-2.734 7.159,-6.101c0.619,-3.367 -1.583,-6.101 -4.915,-6.101c-3.332,0 -6.539,2.734 -7.159,6.101c-0.619,3.367 1.583,6.101 4.915,6.101Z" style="fill:#888;"/></g><g><path d="M4.114,163.023c3.178,0 6.238,-2.607 6.829,-5.819c0.59,-3.212 -1.51,-5.82 -4.689,-5.82c-3.178,0 -6.237,2.608 -6.828,5.82c-0.591,3.212 1.51,5.819 4.688,5.819Z" style="fill:#888;"/><path d="M6.839,148.207c3.178,0 6.238,-2.607 6.828,-5.819c0.591,-3.212 -1.51,-5.82 -4.688,-5.82c-3.178,0 -6.238,2.608 -6.828,5.82c-0.591,3.212 1.51,5.819 4.688,5.819Z" style="fill:#888;"/><path d="M9.563,133.391c3.179,0 6.238,-2.608 6.829,-5.819c0.591,-3.212 -1.51,-5.82 -4.688,-5.82c-3.178,0 -6.238,2.608 -6.829,5.82c-0.59,3.211 1.51,5.819 4.688,5.819Z" style="fill:#888;"/><path d="M12.288,118.575c3.178,-0 6.238,-2.608 6.829,-5.82c0.591,-3.211 -1.51,-5.819 -4.688,-5.819c-3.178,-0 -6.238,2.608 -6.829,5.819c-0.591,3.212 1.51,5.82 4.688,5.82Z" style="fill:#888;"/><path d="M15.013,103.759c3.178,-0 6.238,-2.608 6.829,-5.82c0.59,-3.212 -1.51,-5.819 -4.689,-5.819c-3.178,-0 -6.237,2.607 -6.828,5.819c-0.591,3.212 1.51,5.82 4.688,5.82Z" style="fill:#888;"/><path d="M17.738,88.943c3.178,-0 6.238,-2.608 6.828,-5.82c0.591,-3.212 -1.51,-5.819 -4.688,-5.819c-3.178,-0 -6.238,2.607 -6.828,5.819c-0.591,3.212 1.51,5.82 4.688,5.82Z" style="fill:#888;"/><path d="M20.463,74.127c3.178,-0 6.237,-2.608 6.828,-5.82c0.591,-3.212 -1.51,-5.819 -4.688,-5.819c-3.178,-0 -6.238,2.607 -6.829,5.819c-0.59,3.212 1.51,5.82 4.689,5.82Z" style="fill:#888;"/><path d="M23.187,59.311c3.178,-0 6.238,-2.608 6.829,-5.82c0.591,-3.212 -1.51,-5.819 -4.688,-5.819c-3.178,-0 -6.238,2.607 -6.829,5.819c-0.59,3.212 1.51,5.82 4.688,5.82Z" style="fill:#888;"/><path d="M25.912,44.494c3.178,0 6.238,-2.607 6.829,-5.819c0.59,-3.212 -1.51,-5.82 -4.688,-5.82c-3.179,0 -6.238,2.608 -6.829,5.82c-0.591,3.212 1.51,5.819 4.688,5.819Z" style="fill:#888;"/><path d="M28.637,29.678c3.178,0 6.238,-2.607 6.828,-5.819c0.591,-3.212 -1.51,-5.82 -4.688,-5.82c-3.178,0 -6.238,2.608 -6.828,5.82c-0.591,3.212 1.51,5.819 4.688,5.819Z" style="fill:#888;"/><path d="M31.362,14.862c3.178,0 6.238,-2.607 6.828,-5.819c0.591,-3.212 -1.51,-5.82 -4.688,-5.82c-3.178,0 -6.238,2.608 -6.828,5.82c-0.591,3.212 1.51,5.819 4.688,5.819Z" style="fill:#888;"/><path d="M34.086,0.046c3.179,0 6.238,-2.607 6.829,-5.819c0.591,-3.212 -1.51,-5.82 -4.688,-5.82c-3.178,0 -6.238,2.608 -6.829,5.82c-0.59,3.212 1.51,5.819 4.688,5.819Z" style="fill:#888;"/></g><g><path d="M-5.929,136.498c2.899,-0 5.691,-2.379 6.23,-5.309c0.538,-2.93 -1.378,-5.309 -4.277,-5.309c-2.9,-0 -5.691,2.379 -6.23,5.309c-0.539,2.93 1.378,5.309 4.277,5.309Z" style="fill:#888;"/><path d="M-3.443,122.982c2.899,-0 5.69,-2.379 6.229,-5.309c0.539,-2.931 -1.377,-5.309 -4.277,-5.309c-2.899,-0 -5.69,2.378 -6.229,5.309c-0.539,2.93 1.377,5.309 4.277,5.309Z" style="fill:#888;"/><path d="M-0.958,109.465c2.9,0 5.691,-2.379 6.23,-5.309c0.539,-2.93 -1.377,-5.309 -4.277,-5.309c-2.899,0 -5.691,2.379 -6.229,5.309c-0.539,2.93 1.377,5.309 4.276,5.309Z" style="fill:#888;"/><path d="M1.528,95.949c2.9,-0 5.691,-2.379 6.23,-5.309c0.539,-2.93 -1.378,-5.309 -4.277,-5.309c-2.899,-0 -5.691,2.379 -6.23,5.309c-0.539,2.93 1.378,5.309 4.277,5.309Z" style="fill:#888;"/><path d="M4.014,82.432c2.899,0 5.691,-2.379 6.23,-5.309c0.538,-2.93 -1.378,-5.309 -4.277,-5.309c-2.9,0 -5.691,2.379 -6.23,5.309c-0.539,2.93 1.378,5.309 4.277,5.309Z" style="fill:#888;"/><path d="M6.5,68.916c2.899,-0 5.69,-2.379 6.229,-5.309c0.539,-2.93 -1.377,-5.309 -4.277,-5.309c-2.899,-0 -5.69,2.379 -6.229,5.309c-0.539,2.93 1.377,5.309 4.277,5.309Z" style="fill:#888;"/><path d="M8.985,55.399c2.9,0 5.691,-2.378 6.23,-5.309c0.539,-2.93 -1.377,-5.309 -4.277,-5.309c-2.899,0 -5.691,2.379 -6.229,5.309c-0.539,2.931 1.377,5.309 4.276,5.309Z" style="fill:#888;"/><path d="M11.471,41.883c2.9,-0 5.691,-2.379 6.23,-5.309c0.539,-2.93 -1.378,-5.309 -4.277,-5.309c-2.899,-0 -5.691,2.379 -6.23,5.309c-0.539,2.93 1.378,5.309 4.277,5.309Z" style="fill:#888;"/><path d="M13.957,28.367c2.899,-0 5.691,-2.379 6.23,-5.309c0.538,-2.931 -1.378,-5.309 -4.277,-5.309c-2.9,-0 -5.691,2.378 -6.23,5.309c-0.539,2.93 1.378,5.309 4.277,5.309Z" style="fill:#888;"/><path d="M16.443,14.85c2.899,0 5.69,-2.379 6.229,-5.309c0.539,-2.93 -1.377,-5.309 -4.277,-5.309c-2.899,0 -5.69,2.379 -6.229,5.309c-0.539,2.93 1.377,5.309 4.277,5.309Z" style="fill:#888;"/><path d="M18.928,1.334c2.9,-0 5.691,-2.379 6.23,-5.309c0.539,-2.93 -1.377,-5.309 -4.277,-5.309c-2.899,-0 -5.691,2.379 -6.229,5.309c-0.539,2.93 1.377,5.309 4.276,5.309Z" style="fill:#888;"/></g><g><path d="M-6.104,64.97c2.765,0 5.428,-2.269 5.942,-5.064c0.514,-2.795 -1.314,-5.064 -4.08,-5.064c-2.765,0 -5.428,2.269 -5.942,5.064c-0.514,2.795 1.314,5.064 4.08,5.064Z" style="fill:#888;"/><path d="M-3.733,52.077c2.765,0 5.428,-2.269 5.942,-5.064c0.514,-2.795 -1.314,-5.064 -4.08,-5.064c-2.765,0 -5.428,2.269 -5.942,5.064c-0.514,2.795 1.314,5.064 4.08,5.064Z" style="fill:#888;"/><path d="M-1.362,39.184c2.766,0 5.428,-2.269 5.942,-5.064c0.514,-2.795 -1.314,-5.064 -4.079,-5.064c-2.766,0 -5.429,2.269 -5.943,5.064c-0.514,2.795 1.314,5.064 4.08,5.064Z" style="fill:#888;"/><path d="M1.009,26.291c2.766,0 5.428,-2.269 5.942,-5.064c0.514,-2.795 -1.314,-5.064 -4.079,-5.064c-2.766,0 -5.429,2.269 -5.943,5.064c-0.514,2.795 1.314,5.064 4.08,5.064Z" style="fill:#888;"/><path d="M3.38,13.398c2.766,0 5.428,-2.269 5.942,-5.064c0.514,-2.795 -1.314,-5.064 -4.079,-5.064c-2.766,0 -5.428,2.269 -5.943,5.064c-0.514,2.795 1.314,5.064 4.08,5.064Z" style="fill:#888;"/><path d="M5.751,0.506c2.766,-0 5.428,-2.27 5.942,-5.065c0.514,-2.795 -1.314,-5.064 -4.079,-5.064c-2.766,0 -5.428,2.269 -5.942,5.064c-0.514,2.795 1.314,5.065 4.079,5.065Z" style="fill:#888;"/></g></g><path d="M74.032,17.551l0.673,52.048l3.528,-43.53l-2.185,43.618l7.461,-51.515l-6.127,51.69l9.179,-42.697l-7.859,42.96l14.121,-50.1l-12.821,50.448l14.674,-41.134l-13.399,41.567l20.539,-47.828l-19.296,48.343l19.917,-38.867l-18.71,39.462l26.607,-44.738l-25.441,45.411l24.82,-35.934l-23.701,36.682l32.218,-40.883l-31.15,41.702l29.298,-32.387l-28.287,33.274l37.28,-36.327l-36.328,37.279l33.275,-28.286l-32.387,29.298l41.701,-31.151l-40.882,32.219l36.682,-23.701l-35.934,24.82l45.411,-25.441l-44.739,26.606l39.462,-18.71l-38.866,19.917l48.343,-19.296l-47.828,20.54l41.566,-13.399l-41.134,14.673l50.449,-12.821l-50.1,14.121l42.96,-7.859l-42.698,9.179l51.691,-6.126l-51.515,7.461l43.618,-2.185l-43.53,3.528l52.048,0.673l-52.048,0.672l43.53,3.528l-43.618,-2.185l51.515,7.461l-51.691,-6.126l42.698,9.179l-42.96,-7.859l50.1,14.121l-50.449,-12.821l41.134,14.673l-41.566,-13.399l47.828,20.54l-48.343,-19.296l38.866,19.917l-39.462,-18.71l44.739,26.606l-45.411,-25.441l35.934,24.82l-36.682,-23.701l40.882,32.219l-41.701,-31.151l32.387,29.298l-33.275,-28.286l36.328,37.279l-37.28,-36.327l28.287,33.274l-29.298,-32.387l31.15,41.702l-32.218,-40.883l23.701,36.682l-24.82,-35.934l25.441,45.411l-26.607,-44.738l18.71,39.462l-19.917,-38.867l19.296,48.343l-20.539,-47.828l13.399,41.567l-14.674,-41.134l12.821,50.448l-14.121,-50.1l7.859,42.96l-9.179,-42.697l6.127,51.69l-7.461,-51.515l2.185,43.619l-3.528,-43.531l-0.673,52.048l-0.673,-52.048l-3.527,43.531l2.184,-43.619l-7.461,51.515l6.127,-51.69l-9.179,42.697l7.859,-42.96l-14.121,50.1l12.821,-50.448l-14.674,41.134l13.399,-41.567l-20.539,47.828l19.296,-48.343l-19.917,38.867l18.71,-39.462l-26.607,44.738l25.441,-45.411l-24.82,35.934l23.701,-36.682l-32.218,40.883l31.151,-41.702l-29.298,32.387l28.286,-33.274l-37.279,36.327l36.327,-37.279l-33.275,28.286l32.388,-29.298l-41.702,31.151l40.882,-32.219l-36.682,23.701l35.935,-24.82l-45.411,25.441l44.738,-26.606l-39.462,18.71l38.866,-19.917l-48.343,19.296l47.828,-20.54l-41.566,13.399l41.134,-14.673l-50.449,12.821l50.1,-14.121l-42.959,7.859l42.697,-9.179l-51.69,6.126l51.514,-7.461l-43.618,2.185l43.53,-3.528l-52.047,-0.672l52.047,-0.673l-43.53,-3.528l43.618,2.185l-51.514,-7.461l51.69,6.126l-42.697,-9.179l42.959,7.859l-50.1,-14.121l50.449,12.821l-41.134,-14.673l41.566,13.399l-47.828,-20.54l48.343,19.296l-38.866,-19.917l39.462,18.71l-44.738,-26.606l45.411,25.441l-35.935,-24.82l36.682,23.701l-40.882,-32.219l41.702,31.151l-32.388,-29.298l33.275,28.286l-36.327,-37.279l37.279,36.327l-28.286,-33.274l29.298,32.387l-31.151,-41.702l32.218,40.883l-23.701,-36.682l24.82,35.934l-25.441,-45.411l26.607,44.738l-18.71,-39.462l19.917,38.867l-19.296,-48.343l20.539,47.828l-13.399,-41.567l14.674,41.134l-12.821,-50.448l14.121,50.1l-7.859,-42.96l9.179,42.697l-6.127,-51.69l7.461,51.515l-2.184,-43.618l3.527,43.53l0.673,-52.048Z" style="fill:#2500ff;fill-opacity:0.2;"/><path d="M151.713,173.584c-0,-1.77 -1.269,-3.207 -2.833,-3.207c-49.186,-27.924 -98.372,-24.918 -147.558,-0c-1.563,-0 -2.832,1.437 -2.832,3.207l-0,75.137c-0,1.77 1.269,3.207 2.832,3.207l147.558,-0c1.564,-0 2.833,-1.437 2.833,-3.207l-0,-75.137Z" style="fill-opacity:0.29;"/><path d="M150.015,-23.465c-0,-0.989 -1.241,-1.791 -2.77,-1.791l-144.287,-0c-1.529,-0 -2.77,0.802 -2.77,1.791l-0,53.023c-0,0.988 1.241,1.79 2.77,1.79l144.287,0c1.529,0 2.77,-0.802 2.77,-1.79l-0,-53.023Z" style="fill-opacity:0.29;"/></g></svg>