<?xml version="1.0" encoding="UTF-8" standalone="no"?><!DOCTYPE svg PUBLIC "-//W3C//DTD SVG 1.1//EN" "http://www.w3.org/Graphics/SVG/1.1/DTD/svg11.dtd"><svg width="100%" height="100%" viewBox="0 0 21 21" version="1.1" xmlns="http://www.w3.org/2000/svg" xmlns:xlink="http://www.w3.org/1999/xlink" xml:space="preserve" xmlns:serif="http://www.serif.com/" style="fill-rule:evenodd;clip-rule:evenodd;stroke-linejoin:round;stroke-miterlimit:2;"><path d="M20.201,5.05c-0,-2.787 -2.263,-5.05 -5.051,-5.05l-10.1,0c-2.787,0 -5.05,2.263 -5.05,5.05l-0,10.1c-0,2.788 2.263,5.051 5.05,5.051l10.1,-0c2.788,-0 5.051,-2.263 5.051,-5.051l-0,-10.1Z" style="fill:none;"/><clipPath id="_clip1"><path d="M20.201,5.05c-0,-2.787 -2.263,-5.05 -5.051,-5.05l-10.1,0c-2.787,0 -5.05,2.263 -5.05,5.05l-0,10.1c-0,2.788 2.263,5.051 5.05,5.051l10.1,-0c2.788,-0 5.051,-2.263 5.051,-5.051l-0,-10.1Z"/></clipPath><g clip-path="url(#_clip1)"><path d="M10.086,9.067l-1.582,-1.627l0.307,-0.316c0.037,-0.039 0.056,-0.092 0.05,-0.146c-0.005,-0.054 -0.034,-0.102 -0.078,-0.131c-0.18,-0.122 -0.398,-0.196 -0.651,-0.223c-0.217,-0.024 -0.433,0.055 -0.587,0.214c-0.021,0.02 -0.042,0.043 -0.065,0.066l-0.29,-0.297c-0.006,-0.01 -0.013,-0.019 -0.021,-0.027c-0.008,-0.008 -0.017,-0.015 -0.026,-0.022l-0.484,-0.497c-0.006,-0.01 -0.013,-0.019 -0.021,-0.027c-0.008,-0.008 -0.017,-0.016 -0.026,-0.022l-0.456,-0.47c0.018,-0.162 -0.033,-0.331 -0.154,-0.455c-0.209,-0.216 -0.549,-0.216 -0.759,-0c0,-0 -0.48,0.493 -0.48,0.493c-0.209,0.216 -0.209,0.566 0,0.781c0.124,0.127 0.293,0.179 0.454,0.156l0.452,0.465c0.006,0.01 0.013,0.019 0.021,0.027c0.008,0.008 0.017,0.015 0.026,0.022l0.484,0.497c0.006,0.01 0.013,0.019 0.021,0.027c0.008,0.008 0.017,0.016 0.026,0.022l0.289,0.298l-0.029,0.03c-0.135,0.138 -0.211,0.326 -0.212,0.522c-0.003,0.348 0.088,0.608 0.263,0.772c0.069,0.065 0.175,0.062 0.241,-0.005l0.259,-0.267l1.582,1.628l-3.585,3.688c-0.032,0.032 -0.05,0.076 -0.051,0.122l-0.036,1.295c-0.001,0.05 0.018,0.098 0.052,0.133c0.035,0.035 0.082,0.054 0.131,0.051l1.234,-0.062c0.044,-0.002 0.085,-0.021 0.115,-0.052l3.586,-3.688l3.633,3.737c0.032,0.033 0.074,0.052 0.119,0.053l1.259,0.036c0.049,0.002 0.096,-0.018 0.13,-0.053c0.033,-0.036 0.051,-0.085 0.049,-0.135l-0.06,-1.27c-0.002,-0.044 -0.02,-0.086 -0.051,-0.118l-3.634,-3.737l1.631,-1.677l0.307,0.316c0.037,0.038 0.089,0.057 0.141,0.052c0.053,-0.006 0.1,-0.036 0.128,-0.081c0.118,-0.186 0.191,-0.409 0.217,-0.67c0.023,-0.223 -0.053,-0.445 -0.208,-0.604c-0.02,-0.021 -0.042,-0.043 -0.065,-0.067l0.29,-0.298c0.009,-0.006 0.017,-0.013 0.025,-0.022c0.009,-0.008 0.016,-0.017 0.022,-0.026l0.484,-0.498c0.009,-0.006 0.017,-0.014 0.025,-0.022c0.008,-0.008 0.016,-0.017 0.022,-0.026l0.456,-0.47c0.158,0.019 0.322,-0.033 0.443,-0.158c0.21,-0.215 0.21,-0.565 0,-0.78c0,-0 -0.48,-0.494 -0.48,-0.494c-0.209,-0.215 -0.549,-0.215 -0.759,0c-0.123,0.127 -0.174,0.301 -0.152,0.467l-0.451,0.464c-0.01,0.007 -0.018,0.014 -0.026,0.022c-0.008,0.009 -0.015,0.018 -0.022,0.027l-0.483,0.498c-0.01,0.006 -0.018,0.013 -0.026,0.022c-0.008,0.008 -0.015,0.017 -0.022,0.026l-0.289,0.298l-0.029,-0.031c-0.135,-0.138 -0.318,-0.216 -0.508,-0.217c-0.339,-0.004 -0.591,0.09 -0.751,0.27c-0.063,0.071 -0.06,0.18 0.006,0.248l0.259,0.267l-1.63,1.676Zm1.199,1.741l-0.358,0.368l3.094,3.183c0.068,0.07 0.068,0.183 -0,0.253c-0.068,0.07 -0.179,0.07 -0.247,0l-3.094,-3.182l-0.348,0.358l3.585,3.687c-0,0 1.002,0.029 1.002,0.029c-0,0 -0.048,-1.007 -0.048,-1.007l-3.586,-3.689Zm-2.398,0l-3.537,3.638c0,0 -0.028,1.03 -0.028,1.03c0,0 0.979,-0.049 0.979,-0.049l3.538,-3.639l-0.358,-0.368l-3.045,3.133c-0.068,0.07 -0.179,0.07 -0.247,-0c-0.068,-0.07 -0.068,-0.184 0,-0.254l3.046,-3.133l-0.348,-0.358Zm0.841,0.358l0.358,0.368l0.348,-0.358l-0.358,-0.368l-0.348,0.358Zm0.595,-0.611l0.357,0.368l0.358,-0.368l-0.358,-0.369l-0.357,0.369Zm-1.19,-0l0.348,0.358l0.348,-0.358l-0.348,-0.358l-0.348,0.358Zm1.794,-0.622l0.358,0.368l1.63,-1.677l-0.358,-0.368l-1.63,1.677Zm-1.199,0.01l0.348,0.358l0.358,-0.368l-0.348,-0.358l-0.358,0.368Zm-0.493,-0l-1.582,-1.628l-0.348,0.358l1.582,1.628l0.348,-0.358Zm0.604,-0.622l-1.582,-1.627l-0.358,0.368l1.582,1.627l0.358,-0.368Zm0.493,0l0.348,0.358l1.631,-1.677l-0.348,-0.358l-1.631,1.677Zm-2.198,-2.008l0.259,-0.266c-0.09,-0.033 -0.19,-0.055 -0.297,-0.066c-0,-0 -0,-0 -0.001,-0c-0.112,-0.013 -0.224,0.028 -0.304,0.11c0,0 0,0 0,0c-0.267,0.275 -0.787,0.81 -1.038,1.068c0,-0 0,-0 0,-0c-0.069,0.071 -0.109,0.169 -0.109,0.27c-0,0 -0,0.001 -0,0.001c-0.002,0.142 0.013,0.264 0.053,0.361l0,0l1.437,-1.478l0,-0Zm5.151,1.185l0.259,0.266c0.032,-0.093 0.053,-0.195 0.064,-0.306c-0,0 -0,-0 -0,-0c0.012,-0.116 -0.027,-0.231 -0.107,-0.313c-0,-0 -0,-0 -0,-0c-0.267,-0.275 -0.787,-0.81 -1.038,-1.068c0,0 0,0 0,0c-0.07,-0.072 -0.164,-0.112 -0.263,-0.113c-0,0 -0.001,0 -0.001,0c-0.138,-0.001 -0.256,0.014 -0.351,0.055l0,0l1.437,1.478l0,0.001Zm-6.048,-1.345l-0.189,-0.195l-0.459,0.472l0.189,0.196c0.145,-0.15 0.31,-0.319 0.459,-0.473Zm6.203,0.422l0.19,-0.195l-0.459,-0.472l-0.19,0.195c0.145,0.149 0.31,0.318 0.459,0.472Zm-7.382,-0.691l0.284,0.293l0.459,-0.472l-0.284,-0.293l-0.459,0.472Zm7.644,-0.522l-0.285,0.292l0.459,0.472l0.285,-0.292l-0.459,-0.472Zm-8.166,-0.015l0.275,0.284l0.459,-0.473l-0.275,-0.283l-0.459,0.472Zm8.688,-0.522l-0.276,0.283l0.459,0.472l0.276,-0.283l-0.459,-0.472Zm-8.488,-0.465c0.063,0.065 0.063,0.17 0,0.234c0,0 -0.48,0.494 -0.48,0.494c-0.062,0.064 -0.164,0.064 -0.227,-0c-0.062,-0.065 -0.062,-0.17 0,-0.234c0,-0 0.48,-0.494 0.48,-0.494c0.063,-0.064 0.165,-0.064 0.227,0Zm9.447,0.671c-0.062,0.064 -0.164,0.064 -0.227,-0c0,-0 -0.48,-0.494 -0.48,-0.494c-0.062,-0.064 -0.062,-0.169 0,-0.233c0.063,-0.065 0.165,-0.065 0.227,-0c0,-0 0.48,0.493 0.48,0.493c0.063,0.065 0.063,0.169 0,0.234Z" style="fill:#fff;"/></g></svg>