<?xml version="1.0" encoding="UTF-8" standalone="no"?><!DOCTYPE svg PUBLIC "-//W3C//DTD SVG 1.1//EN" "http://www.w3.org/Graphics/SVG/1.1/DTD/svg11.dtd"><svg width="100%" height="100%" viewBox="0 0 21 21" version="1.1" xmlns="http://www.w3.org/2000/svg" xmlns:xlink="http://www.w3.org/1999/xlink" xml:space="preserve" xmlns:serif="http://www.serif.com/" style="fill-rule:evenodd;clip-rule:evenodd;stroke-linejoin:round;stroke-miterlimit:2;"><path d="M20.201,5.05c-0,-2.787 -2.263,-5.05 -5.051,-5.05l-10.1,0c-2.787,0 -5.05,2.263 -5.05,5.05l-0,10.1c-0,2.788 2.263,5.051 5.05,5.051l10.1,-0c2.788,-0 5.051,-2.263 5.051,-5.051l-0,-10.1Z" style="fill:none;"/><clipPath id="_clip1"><path d="M20.201,5.05c-0,-2.787 -2.263,-5.05 -5.051,-5.05l-10.1,0c-2.787,0 -5.05,2.263 -5.05,5.05l-0,10.1c-0,2.788 2.263,5.051 5.05,5.051l10.1,-0c2.788,-0 5.051,-2.263 5.051,-5.051l-0,-10.1Z"/></clipPath><g clip-path="url(#_clip1)"><path d="M10.106,5.049l-3.558,7.702l3.558,2.937l3.558,-2.937l-3.558,-7.702Zm-0.03,1.542c0.229,1.314 0.611,2.583 1.496,3.704c-0.735,0.206 -1.247,0.606 -1.496,1.235c-0.285,-0.626 -0.813,-1.009 -1.496,-1.235c0.759,-1.113 1.201,-2.374 1.496,-3.704Z" style="fill:#fff;"/></g></svg>