<?xml version="1.0" encoding="UTF-8" standalone="no"?><!DOCTYPE svg PUBLIC "-//W3C//DTD SVG 1.1//EN" "http://www.w3.org/Graphics/SVG/1.1/DTD/svg11.dtd"><svg width="100%" height="100%" viewBox="0 0 21 21" version="1.1" xmlns="http://www.w3.org/2000/svg" xmlns:xlink="http://www.w3.org/1999/xlink" xml:space="preserve" xmlns:serif="http://www.serif.com/" style="fill-rule:evenodd;clip-rule:evenodd;stroke-linejoin:round;stroke-miterlimit:2;"><path d="M20.201,5.05c-0,-2.787 -2.263,-5.05 -5.051,-5.05l-10.1,-0c-2.787,-0 -5.05,2.263 -5.05,5.05l-0,10.1c-0,2.788 2.263,5.051 5.05,5.051l10.1,-0c2.788,-0 5.051,-2.263 5.051,-5.051l-0,-10.1Z" style="fill:none;"/><clipPath id="_clip1"><path d="M20.201,5.05c-0,-2.787 -2.263,-5.05 -5.051,-5.05l-10.1,-0c-2.787,-0 -5.05,2.263 -5.05,5.05l-0,10.1c-0,2.788 2.263,5.051 5.05,5.051l10.1,-0c2.788,-0 5.051,-2.263 5.051,-5.051l-0,-10.1Z"/></clipPath><g clip-path="url(#_clip1)"><g><path d="M16.823,5.74c0,-0.317 -0.15,-0.616 -0.405,-0.804c-0.255,-0.189 -0.584,-0.245 -0.888,-0.152l-4.123,1.264c-0.42,0.128 -0.707,0.516 -0.707,0.956l0,6.63c0,0.505 0.376,0.93 0.877,0.992l4.124,0.51c0.284,0.035 0.57,-0.053 0.785,-0.243c0.214,-0.19 0.337,-0.463 0.337,-0.749l0,-8.404Zm-1,-0l0,8.404l-4.123,-0.51l0,-6.63l4.123,-1.264Z" style="fill:#fff;"/><path d="M5.116,4.784c-0.303,-0.093 -0.632,-0.037 -0.887,0.152c-0.255,0.188 -0.406,0.487 -0.406,0.804l0,8.404c0,0.286 0.123,0.559 0.338,0.749c0.215,0.19 0.501,0.278 0.785,0.243l4.124,-0.51c0.501,-0.062 0.877,-0.487 0.877,-0.992l-0,-6.63c-0,-0.44 -0.287,-0.828 -0.707,-0.956l-4.124,-1.264Zm-0.293,0.956l0,8.404l4.124,-0.51l-0,-6.63l-4.124,-1.264Z" style="fill:#fff;"/></g></g></svg>