<?xml version="1.0" encoding="UTF-8" standalone="no"?><!DOCTYPE svg PUBLIC "-//W3C//DTD SVG 1.1//EN" "http://www.w3.org/Graphics/SVG/1.1/DTD/svg11.dtd"><svg width="100%" height="100%" viewBox="0 0 21 21" version="1.1" xmlns="http://www.w3.org/2000/svg" xmlns:xlink="http://www.w3.org/1999/xlink" xml:space="preserve" xmlns:serif="http://www.serif.com/" style="fill-rule:evenodd;clip-rule:evenodd;stroke-linejoin:round;stroke-miterlimit:2;"><path d="M20.201,5.05c-0,-2.787 -2.263,-5.05 -5.051,-5.05l-10.1,0c-2.787,0 -5.05,2.263 -5.05,5.05l-0,10.1c-0,2.788 2.263,5.051 5.05,5.051l10.1,-0c2.788,-0 5.051,-2.263 5.051,-5.051l-0,-10.1Z" style="fill:none;"/><clipPath id="_clip1"><path d="M20.201,5.05c-0,-2.787 -2.263,-5.05 -5.051,-5.05l-10.1,0c-2.787,0 -5.05,2.263 -5.05,5.05l-0,10.1c-0,2.788 2.263,5.051 5.05,5.051l10.1,-0c2.788,-0 5.051,-2.263 5.051,-5.051l-0,-10.1Z"/></clipPath><g clip-path="url(#_clip1)"><g><g><path d="M5.424,10.023c-0.002,-0.022 -0.003,-0.043 -0.003,-0.065c0,-1.354 0.394,-2.408 1.043,-3.206c0.944,-1.161 2.466,-1.796 4.279,-1.923c0.5,-0.035 0.934,0.343 0.969,0.843c0.035,0.5 -0.342,0.934 -0.842,0.969c-1.256,0.088 -2.343,0.452 -2.997,1.256c-0.415,0.511 -0.636,1.195 -0.636,2.061c0,0.022 -0.001,0.043 -0.002,0.065l0.967,-0l-1.885,1.778l-1.885,-1.778l0.992,-0Zm7.204,-0.456l-0.967,0l1.885,-1.777l1.886,1.777l-0.992,0c0.001,0.022 0.002,0.044 0.002,0.066c-0,1.353 -0.394,2.407 -1.043,3.206c-0.943,1.16 -2.466,1.795 -4.279,1.922c-0.5,0.035 -0.934,-0.343 -0.969,-0.843c-0.035,-0.499 0.342,-0.934 0.842,-0.969c1.256,-0.088 2.344,-0.452 2.997,-1.256c0.415,-0.511 0.636,-1.195 0.636,-2.06c0,-0.022 0.001,-0.044 0.002,-0.066Z" style="fill:#fff;"/></g></g></g></svg>