<?xml version="1.0" encoding="UTF-8" standalone="no"?><!DOCTYPE svg PUBLIC "-//W3C//DTD SVG 1.1//EN" "http://www.w3.org/Graphics/SVG/1.1/DTD/svg11.dtd"><svg width="100%" height="100%" viewBox="0 0 21 21" version="1.1" xmlns="http://www.w3.org/2000/svg" xmlns:xlink="http://www.w3.org/1999/xlink" xml:space="preserve" xmlns:serif="http://www.serif.com/" style="fill-rule:evenodd;clip-rule:evenodd;stroke-linejoin:round;stroke-miterlimit:2;"><path d="M20.201,5.05c-0,-2.787 -2.263,-5.05 -5.051,-5.05l-10.1,0c-2.787,0 -5.05,2.263 -5.05,5.05l-0,10.1c-0,2.788 2.263,5.051 5.05,5.051l10.1,-0c2.788,-0 5.051,-2.263 5.051,-5.051l-0,-10.1Z" style="fill:none;"/><clipPath id="_clip1"><path d="M20.201,5.05c-0,-2.787 -2.263,-5.05 -5.051,-5.05l-10.1,0c-2.787,0 -5.05,2.263 -5.05,5.05l-0,10.1c-0,2.788 2.263,5.051 5.05,5.051l10.1,-0c2.788,-0 5.051,-2.263 5.051,-5.051l-0,-10.1Z"/></clipPath><g clip-path="url(#_clip1)"><path d="M7.123,12.079l0,-0.012c0,0.004 0,0.008 0,0.012Zm5.661,1.313c-0.067,0.16 -0.147,0.313 -0.239,0.46c0.002,-0.003 0.004,-0.007 0.006,-0.01l1.366,1.366c-0,-0 1.002,0.028 1.002,0.028c-0,-0 -0.048,-0.979 -0.048,-0.979l-1.835,-1.835l-0.001,0.011c-0.022,0.2 -0.061,0.396 -0.117,0.586l1.103,1.103c0.068,0.068 0.068,0.179 -0,0.247c-0.068,0.068 -0.179,0.068 -0.247,-0l-0.986,-0.986l-0.004,0.009Zm-5.643,-0.975c-0,-0 -1.791,1.79 -1.791,1.79c0,0 -0.028,1.002 -0.028,1.002c0,-0 0.979,-0.048 0.979,-0.048l1.323,-1.323l-0.005,-0.007c-0.09,-0.147 -0.169,-0.302 -0.236,-0.461l-0.001,-0.005l-0.946,0.946c-0.068,0.068 -0.179,0.068 -0.247,-0c-0.068,-0.068 -0.068,-0.179 0,-0.247l1.065,-1.064l-0.002,-0.004c-0.053,-0.189 -0.091,-0.382 -0.111,-0.579Zm5.172,-0.35c0.001,0.844 -0.405,1.637 -1.086,2.126l-1.138,0.818l-1.138,-0.818c-0.682,-0.489 -1.087,-1.282 -1.087,-2.126l0,-2.349c0.778,0.067 1.556,-0.115 2.225,-0.519c0.668,0.404 1.447,0.586 2.224,0.519l0,2.349Zm-4.495,2.054l0.001,0.001l-0.001,-0.001Zm-0.006,-0.009l-0,0.001l-0,-0.001Zm4.578,-0.032l-0.001,0.001l0.001,-0.001l0,0Zm0.007,-0.009l-0.001,0.001l0,-0.001l0.001,-0Zm0.007,-0.009l-0.002,0.001l0.001,-0l0.001,-0.001Zm0.006,-0.01l-0.001,0.002l0.001,-0l0,-0.002Zm0.007,-0.008l-0.001,0.001l0,-0l0.001,-0.001Zm0.031,-0.045l-0.001,0.002l0.001,-0.002l0,0Zm0.007,-0.009l-0.002,0.002l0.001,-0.002l0.001,-0Zm0.007,-0.01l-0.002,0.003l0.001,-0.002l0.001,-0.001Zm0.006,-0.009l-0.002,0.002l0.001,-0.001l0.001,-0.001Zm0.006,-0.01l-0.001,0.003l0,-0.001l0.001,-0.002Zm0.006,-0.009l-0.001,0.002l0,-0l0.001,-0.002Zm0.024,-0.035l-0.001,0.002l0.001,-0.002l0,-0Zm0.007,-0.01l-0.003,0.003l0.002,-0.002l0.001,-0.001Zm0.006,-0.01l-0.002,0.003l0.001,-0.002l0.001,-0.001Zm0.006,-0.01l-0.002,0.004l0.001,-0.002l0.001,-0.002Zm0.007,-0.01l-0.003,0.004l0.001,-0.001l0.002,-0.003Zm0.006,-0.01l-0.003,0.004l0.001,-0.001l0.002,-0.003Zm0.006,-0.01l-0.003,0.005l0.001,-0.001l0.002,-0.004Zm-4.907,0l0.001,0l-0.001,0Zm-0.006,-0.009l0.001,0l-0.001,-0Zm5.164,-0.476l-0,0l0,-0Zm0.005,-0.011l-0,0l-0,-0Zm0.004,-0.012l0,0.001l0,-0.001Zm0.005,-0.011l-0,0.001l-0,-0.001Zm0.005,-0.011l-0.001,0.001l0,-0.001l0.001,-0Zm0.004,-0.011l-0,0.001l-0,-0.001l0,-0Zm0.004,-0.012l-0,0.002l0,-0.001l0,-0.001Zm0.005,-0.011l-0.001,0.002l0.001,-0.001l-0,-0.001Zm0.004,-0.011l-0,0.001l0,-0.001l0,-0Zm0.005,-0.012l-0.001,0.002l0,-0.001l0.001,-0.001Zm0.004,-0.011l-0.001,0.002l0.001,-0.001l-0,-0.001Zm0.004,-0.011l-0,0.001l-0,-0l0,-0.001Zm0.004,-0.012l-0,0.002l0,-0.001l0,-0.001Zm0.005,-0.011l-0.001,0.002l0,-0.001l0.001,-0.001Zm0.004,-0.011l-0.001,0.001l0,-0l0.001,-0.001Zm0.004,-0.012l-0.001,0.002l0,-0.001l0.001,-0.001Zm0.004,-0.011l-0.001,0.001l0,-0l0.001,-0.001Zm0.004,-0.012l-0.001,0.002l0,-0.001l0.001,-0.001Zm0.004,-0.011l-0.001,0.002l0,-0.001l0.001,-0.001Zm0.004,-0.011l-0.001,0.001l0,-0l0.001,-0.001Zm0.004,-0.012l-0.001,0.002l0,-0.001l0.001,-0.001Zm0.003,-0.011l-0,0.001l-0,-0l0,-0.001Zm0.004,-0.012l-0,0.002l-0,-0.001l0,-0.001Zm0.004,-0.011l-0.001,0.001l0.001,-0l-0,-0.001Zm0.004,-0.012l-0.001,0.002l0,-0.001l0.001,-0.001Zm0.003,-0.011l-0,0.001l-0,-0l0,-0.001Zm0.004,-0.012l-0.001,0.001l0.001,-0.001Zm0.004,-0.012l-0.001,0.002l0.001,-0.002Zm0.003,-0.011l-0,0.001l0,-0.001Zm0.004,-0.012l-0.001,0.002l0.001,-0.002Zm0.003,-0.012l-0,0.002l0,-0.002Zm0.122,-0.619l-0,0.004l0,-0.003l0,-0.001Zm0.001,-0.012l-0,0.005l0,-0.003l0,-0.002Zm0.002,-0.012l-0.001,0.006l0,-0.003l0.001,-0.003Zm0.001,-0.012l-0.001,0.006l0,-0.002l0.001,-0.004Zm0.001,-0.012l-0.001,0.006l0,-0.001l0.001,-0.005Zm-5.906,0l-0,0.001l-0,-0.001l-0,0Zm5.907,-0.013l-0.001,0.008l0,-0.001l0.001,-0.007Zm-5.908,0.002l-0,0.002l-0,-0.003l-0,0.001Zm5.909,-0.018l-0.001,0.012c0.001,-0.004 0.001,-0.008 0.001,-0.012Zm-5.91,0.008l-0,0.001l-0,-0.003l-0,0.002Zm-0.001,-0.011l0,0l-0,-0.002l0,0.002Zm5.912,-0.008l-0.001,0.007l0.001,-0.006l0,-0.001Zm0.001,-0.012l-0.001,0.007l0.001,-0.005l-0,-0.002Zm0.001,-0.012l-0.001,0.007l0.001,-0.004l-0,-0.003Zm-5.916,-0.001l-0,0.002l-0,-0.002l-0,0Zm5.917,-0.011l-0.001,0.007l0,-0.003l0.001,-0.004Zm-5.918,0l0,0.003l-0,-0.004l-0,0.001Zm5.918,-0.013l-0,0.008l-0,-0.002l0,-0.006Zm-5.919,0.002l0,0.003l0,-0.005l0,0.002Zm5.92,-0.015l-0,0.009l-0,-0.001l0,-0.008Zm-5.92,0.004l-0,0.003l-0.001,-0.005l0.001,0.002Zm5.921,-0.019l-0.001,0.012c0,-0.004 0.001,-0.008 0.001,-0.012Zm-5.922,0.009l0,0.001l-0,-0.005l0,0.004Zm-0.001,-0.011l0,0l0,-0.006l0,0.006Zm5.923,-0.01l0,0.009l0,-0.008l0,-0.001Zm0.001,-0.012l-0,0.008l-0,-0.006l0,-0.002Zm-5.925,-0l0.001,0.007l-0.001,-0.008l0,0.001Zm5.926,-0.012l-0.001,0.007l0,-0.004l0.001,-0.003Zm-5.926,0.001l0,0.005l-0,-0.006l-0,0.001Zm5.926,-0.013l-0,0.007l-0,-0.003l0,-0.004Zm-5.927,0.002l0.001,0.004l-0.001,-0.006l0,0.002Zm5.927,-0.014l0,0.007l0,-0.002l0,-0.005Zm-5.927,0.003l0,0.003l-0,-0.006l0,0.003Zm5.928,-0.016l-0,0.008l-0,-0.001l-0,-0.007Zm-5.928,0.005l-0,0.002l-0,-0.007l-0,0.005Zm5.928,-0.021l-0,0.012c0,-0.004 0,-0.008 0,-0.012Zm-5.929,0.01l0,0.002l0,-0.009l0,0.007Zm-0,-0.022c-0,0.004 0,0.008 0,0.012l-0,-0.012Zm5.93,0l-0.001,0.011l0.001,-0.01l-0,-0.001Zm-5.93,-0.011l-0,0.008l-0,-0.009l-0,0.001Zm5.93,-0.001l-0,0.008l-0,-0.006l-0,-0.002Zm0,-0.012l-0,0.008l-0,-0.005l0,-0.003Zm-5.931,0.002l0.001,0.006l-0.001,-0.008l0,0.002Zm5.931,-0.014l0,0.008l0,-0.004l0,-0.004Zm-5.931,0.003l0,0.004l0,-0.007l0,0.003Zm5.931,-0.015l0,0.007l0,-0.002l0,-0.005Zm-5.931,0.004l0,0.003l0,-0.007l0,0.004Zm5.931,-0.017l0,0.008l0,-0.001l0,-0.007Zm-5.931,0.006l0,0.002l0,-0.008l0,0.006Zm0.116,-3.072l-0.001,0.001l0.001,-0.002l-0,0.001Zm0.003,-0.003l-0.001,0.001l0.002,-0.002l-0.001,0.001Zm5.693,-0.001l0.001,0.002l0,-0.001l-0.001,-0.001Zm-5.687,-0.004c-0.001,0.001 -0.003,0.002 -0.004,0.003l0.004,-0.003Zm5.682,0l0.003,0.002l-0.002,-0.001l-0.001,-0.001Zm-0.004,-0.004l0.003,0.003l-0.001,-0.001l-0.002,-0.002Zm-5.675,0.001l-0.003,0.002l0.003,-0.003l-0,0.001Zm5.671,-0.004l0.004,0.003l-0.003,-0.002l-0.001,-0.001Zm-5.668,0.001l-0.002,0.001l0.003,-0.002l-0.001,0.001Zm0.019,-0.015c-0.004,0.003 -0.009,0.007 -0.013,0.01l-0.004,0.003c0.001,-0.001 0.003,-0.002 0.004,-0.003c0.004,-0.003 0.009,-0.007 0.013,-0.01Zm5.645,0.01l0.003,0.003l-0.001,-0.001l-0.002,-0.002Zm-4.533,-0.018l-0.732,-0.733l-0.348,0.348l0.343,0.344l-0.016,-0.003c0.25,0.047 0.503,0.062 0.753,0.044Zm3.383,-0.002c0.25,0.02 0.503,0.008 0.754,-0.038l0.393,-0.393l-0.358,-0.358l-0.789,0.789Zm-3.369,0.001l-0.014,0.001l0.016,-0.001l0.008,-0.001l-0.01,0.001Zm4.489,-0.002l0.003,0.001l-0.003,-0.001l-0.002,-0.002l0.002,0.002Zm-1.149,-0.001c0.007,0 0.013,0.001 0.019,0.001l-0.003,0c-0.005,-0 -0.009,-0.001 -0.014,-0.001l-0.002,-0Zm-3.315,0.001l-0.009,0.001l0.005,-0.001l0.004,-0Zm0.016,-0.001l-0.009,0l0.008,-0l0.009,-0.001l-0.008,0.001Zm3.281,-0.002l0.006,0.001l-0.012,-0.002l0.006,0.001Zm-3.258,-0.001l-0.009,0.001l0.003,-0l0.006,-0.001Zm-1.138,-0.017c-0.01,0.005 -0.021,0.011 -0.031,0.017c0.012,-0.007 0.024,-0.014 0.036,-0.02l-0.005,0.003Zm4.377,0.016l0.011,0.001l-0.012,-0.001l-0.013,-0.001l0.014,0.001Zm-3.222,-0l-0.01,0.001l0.006,-0.001l0.004,-0Zm0.014,-0.002l-0.007,0.001l0.008,-0.001l0.007,-0.001l-0.008,0.001Zm3.189,0l0.004,0.001l-0.011,-0.002l0.007,0.001Zm-0.019,-0.002l0.008,0.001l-0.011,-0.001l0.003,0Zm-3.146,-0l-0.009,0.001l0.005,-0.001l0.004,-0Zm3.128,-0.002l0.013,0.002l-0.012,-0.002l-0.01,-0.001l0.009,0.001Zm-3.111,-0l-0.009,0.001l0.006,-0.001l0.005,-0.001l-0.002,0.001Zm3.092,-0.002l0.005,0l-0.01,-0.001l0.005,0.001Zm-3.07,-0.001l-0.009,0.001l0.003,-0l0.006,-0.001Zm3.051,-0.002l0.008,0.001l-0.009,-0.001l-0.008,-0.001l0.009,0.001Zm-3.034,-0l-0.01,0.001l0.006,-0.001l0.004,-0Zm0.015,-0.002l-0.008,0.001l0.007,-0.001l0.008,-0.002l-0.007,0.002Zm3.001,-0l0.003,0l-0.009,-0.001l0.006,0.001Zm-0.019,-0.003l0.006,0.001l-0.009,-0.002l0.003,0.001Zm-2.959,-0.001l-0.009,0.002l0.004,-0.001l0.005,-0.001Zm2.941,-0.002l0.008,0.001l-0.008,-0.001l-0.008,-0.001l0.008,0.001Zm-2.924,-0l-0.01,0.001l0.006,-0.001l0.004,-0Zm4.218,0l-0.004,-0.002l-0.005,-0.002c0.003,0.001 0.006,0.003 0.009,0.004Zm-4.205,-0.002l-0.008,0.001l0.01,-0.002l0.008,-0.001l-0.01,0.002Zm2.892,-0.001l0.004,0.001l-0.009,-0.002l0.005,0.001Zm-0.018,-0.003l0.006,0.001l-0.009,-0.001l-0.005,-0.001l0.008,0.001Zm-2.849,-0.001l-0.009,0.002l0.005,-0.001l0.004,-0.001Zm0.016,-0.002l-0.01,0.001l0.008,-0.001l0.014,-0.002l-0.012,0.002Zm2.814,0l0.003,0.001l-0.01,-0.002l0.007,0.001Zm-0.018,-0.003l0.005,0.001l-0.01,-0.002l0.005,0.001Zm-2.772,-0.001l-0.011,0.001l0.004,-0l0.007,-0.001Zm3.825,-0.001l-0.01,0.001l0.009,-0.001l0.006,-0.001l-0.005,0.001Zm-5.159,-0.004l-0.005,0.002c-0.003,0.001 -0.006,0.002 -0.009,0.003c0.005,-0.001 0.009,-0.003 0.014,-0.005Zm4.087,0.003l0.009,0.001l-0.009,-0.002l-0.009,-0.001l0.009,0.002Zm-2.738,-0.001l-0.01,0.002l0.006,-0.001l0.004,-0.001Zm0.014,-0.003l-0.011,0.002l0.012,-0.002l0.011,-0.002l-0.012,0.002Zm3.816,0.001l-0.005,0.001l0.003,-0.001l0.002,-0Zm-4.924,0l0.001,0l-0.015,-0.002l0.014,0.002Zm3.814,-0.001l0.004,0.001l-0.01,-0.002l0.006,0.001Zm1.36,0.001l-0.002,-0.001l0.002,0.001Zm-0.231,-0.004l-0.004,0.001l0.002,-0l0.002,-0.001Zm-1.175,-0.006l0.011,0.002c0.004,0.001 0.009,0.002 0.013,0.003l0.01,0.002c-0.011,-0.002 -0.023,-0.005 -0.034,-0.007Zm-3.787,0.007l0.001,-0l-0.014,-0.003l0.013,0.003Zm1.153,-0.003l-0.012,0.002l0.005,-0.001l0.007,-0.001Zm0.028,-0.006c-0.005,0.001 -0.009,0.002 -0.014,0.003l-0.003,0.001c0.007,-0.002 0.013,-0.003 0.019,-0.004l-0.002,0Zm3.799,0.004l-0.002,0.001l0.001,-0l0.001,-0.001Zm-4.998,0.001l-0.019,-0.004c0.006,0.001 0.013,0.003 0.019,0.004Zm5.169,-0.005c0.007,0.001 0.013,0.003 0.02,0.005c-0.005,-0.002 -0.01,-0.003 -0.015,-0.004l-0.005,-0.001Zm-1.374,-0l0.007,0.001l-0.012,-0.002l0.005,0.001Zm-3.95,-0.003c-0.006,0.001 -0.012,0.002 -0.018,0.003c0.006,-0.001 0.012,-0.002 0.018,-0.003Zm3.914,-0.005c0.006,0.001 0.012,0.003 0.018,0.004l-0.001,-0c-0.004,-0.001 -0.009,-0.002 -0.013,-0.003l-0.004,-0.001Zm-1.962,-0.187c-0.011,0.005 -0.021,0.01 -0.031,0.014l-1.1,-1.099l-0.358,0.358l0.917,0.917l-0.013,0.002c0.201,-0.043 0.397,-0.107 0.585,-0.192Zm3.352,0.191l0.002,0.001l-0.002,-0.001l-0.002,0l0.002,0Zm-5.292,-0.001c-0.002,0 -0.004,0 -0.005,0.001c0.001,-0.001 0.003,-0.001 0.005,-0.001Zm5.272,-0.001c0.002,0 0.004,0 0.006,0.001c-0.002,-0.001 -0.004,-0.001 -0.006,-0.001Zm-0.052,-0.001c-0.006,-0 -0.013,0 -0.02,0.001c0.007,-0.001 0.014,-0.001 0.02,-0.001Zm-5.21,0.001c0.003,-0 0.007,-0.001 0.01,-0.001l-0.005,0l-0.005,0.001Zm0.059,-0.001l0.003,0l-0.003,0Zm5.162,-0.001c0.011,0 0.022,0 0.034,0.001c-0.012,-0.001 -0.023,-0.001 -0.034,-0.001Zm-5.18,0l0.002,0l-0.002,0l-0,0l0,0Zm3.842,-0.002l0.97,-0.97l-0.348,-0.348l-1.146,1.145l-0.008,-0.003c0.172,0.075 0.35,0.134 0.532,0.176Zm-0.545,-0.182l0.007,0.003l-0.007,-0.003l-0.005,-0.002l0.005,0.002Zm-1.398,-0.007l-0.01,0.004l0.011,-0.005l0.009,-0.003l-0.01,0.004Zm1.381,-0.001l0.004,0.002l-0.007,-0.003l0.003,0.001Zm-1.35,-0.014l0.01,-0.004c-0.01,0.005 -0.02,0.009 -0.029,0.014l0.009,-0.005c0.004,-0.001 0.007,-0.003 0.01,-0.005Zm1.333,0.007l0.003,0.001l-0.007,-0.003l0.004,0.002Zm-2.628,-1.444l0.259,-0.258c-0.09,-0.032 -0.19,-0.053 -0.297,-0.064c-0,-0 -0,-0 -0.001,-0c-0.112,-0.012 -0.224,0.027 -0.304,0.107c0,0 0,0 0,0c-0.267,0.267 -0.787,0.787 -1.038,1.038c0,-0 0,-0 0,-0c-0.069,0.07 -0.109,0.164 -0.109,0.263c-0,0 -0,0 -0,0.001c-0.002,0.138 0.013,0.256 0.053,0.351l0,-0l1.437,-1.437l0,-0.001Zm2.611,1.436l0.004,0.002l-0.005,-0.003l-0.003,-0.001l0.004,0.002Zm-1.295,-0.008l-0.009,0.004l0.01,-0.005l0.008,-0.003l-0.009,0.004Zm1.278,-0.001l0.003,0.002l-0.006,-0.003l0.003,0.001Zm-1.247,-0.014l0.009,-0.005c-0.009,0.005 -0.019,0.01 -0.028,0.014l0.009,-0.004c0.003,-0.002 0.007,-0.004 0.01,-0.005Zm1.23,0.006l0.002,0.001l-0.006,-0.002l0.004,0.001Zm-0.017,-0.008l0.003,0.002l-0.004,-0.002l-0.001,-0.001l0.002,0.001Zm2.591,-0.258l0.259,0.258c0.032,-0.09 0.053,-0.189 0.064,-0.297c-0,0 -0,-0 -0,-0.001c0.012,-0.112 -0.027,-0.224 -0.107,-0.304c-0,0 -0,0 -0,0c-0.267,-0.267 -0.787,-0.787 -1.038,-1.038c0,0 0,0 0,0c-0.07,-0.069 -0.164,-0.109 -0.263,-0.109c-0,-0 -0.001,-0 -0.001,-0c-0.138,-0.001 -0.256,0.013 -0.351,0.053l0,0l1.437,1.437l0,0.001Zm-3.783,0.25l-0.008,0.004l0.008,-0.004l0.007,-0.004l-0.007,0.004Zm1.175,-0l0.002,0.001l-0.005,-0.003l0.003,0.002Zm-1.145,-0.016l0.009,-0.004c-0.009,0.004 -0.019,0.009 -0.028,0.014l0.009,-0.005c0.003,-0.001 0.007,-0.003 0.01,-0.005Zm1.128,0.007l0.001,0.001l-0.004,-0.003l0.003,0.002Zm-0.017,-0.009l0.003,0.002l-0.004,-0.002l0.001,0Zm-1.09,-0.009l-0.008,0.004l0.007,-0.003l0.008,-0.004l-0.007,0.003Zm1.073,0.001l0.003,0.001l-0.005,-0.003l0.002,0.002Zm-1.053,-0.011l-0.009,0.004l0.005,-0.002l0.004,-0.002Zm1.036,0.002l0.002,0l-0.005,-0.002l0.003,0.002Zm-1.026,-0.008l-0.006,0.004l0.009,-0.005l0.005,-0.003l-0.008,0.004Zm1.01,-0.001l0.003,0.001l-0.005,-0.002l0.002,0.001Zm-0.99,-0.01l-0.007,0.004l0.007,-0.003l0.006,-0.004l-0.006,0.003Zm0.973,0.001l0.002,0.001l-0.005,-0.003l0.003,0.002Zm-0.953,-0.011l-0.008,0.004l0.004,-0.003l0.004,-0.001Zm0.936,0.001l0.002,0.001l-0.005,-0.002l0.003,0.001Zm-0.926,-0.007l-0.002,0.001l0.005,-0.003l0.005,-0.003l-0.008,0.005Zm0.91,-0.002l0.003,0.002l-0.005,-0.003l0.002,0.001Zm-0.89,-0.01l-0.006,0.004l0.005,-0.003l0.006,-0.003l-0.005,0.002Zm0.873,0.001l0.003,0.001l-0.006,-0.003l0.003,0.002Zm-0.854,-0.012l-0.007,0.004l0.004,-0.002l0.003,-0.002Zm0.838,0.002l0.003,0.002l-0.002,-0.001l-0.006,-0.003l0.005,0.002Zm-3.273,-1.466l-0.189,-0.19l-0.459,0.459l0.189,0.19c0.145,-0.146 0.31,-0.31 0.459,-0.459Zm6.203,0.409l0.19,-0.189l-0.459,-0.459l-0.19,0.189c0.145,0.146 0.31,0.31 0.459,0.459Zm-7.382,-0.671l0.284,0.284l0.459,-0.459l-0.284,-0.284l-0.459,0.459Zm7.644,-0.508l-0.285,0.284l0.459,0.459l0.285,-0.284l-0.459,-0.459Zm-8.166,-0.014l0.275,0.276l0.459,-0.46l-0.275,-0.275l-0.459,0.459Zm8.688,-0.508l-0.276,0.275l0.459,0.459l0.276,-0.275l-0.459,-0.459Zm-8.488,-0.451c0.063,0.062 0.063,0.164 0,0.227c0,-0 -0.48,0.48 -0.48,0.48c-0.062,0.062 -0.164,0.062 -0.227,-0c-0.062,-0.063 -0.062,-0.165 0,-0.228c0,0 0.48,-0.479 0.48,-0.479c0.063,-0.063 0.165,-0.063 0.227,-0Zm9.447,0.651c-0.062,0.063 -0.164,0.063 -0.227,0c0,0 -0.48,-0.479 -0.48,-0.479c-0.062,-0.063 -0.062,-0.165 0,-0.228c0.063,-0.062 0.165,-0.062 0.227,0c0,0 0.48,0.48 0.48,0.48c0.063,0.063 0.063,0.165 0,0.227Zm-2.129,6.053l0,-0l0,-0.012l0,0.012Zm-5.931,-2.79l0,2.652l-2.068,2.068c-0.032,0.032 -0.05,0.074 -0.051,0.119l-0.036,1.259c-0.001,0.049 0.018,0.096 0.052,0.13c0.035,0.034 0.082,0.052 0.131,0.049l1.234,-0.06c0.044,-0.002 0.085,-0.02 0.115,-0.051l1.325,-1.325c0.196,0.254 0.429,0.481 0.695,0.672l1.354,0.969c0.129,0.092 0.302,0.092 0.43,0l1.353,-0.969c0.265,-0.19 0.497,-0.416 0.693,-0.669l1.369,1.37c0.032,0.032 0.074,0.05 0.119,0.051l1.259,0.036c0.049,0.001 0.096,-0.018 0.13,-0.053c0.033,-0.034 0.051,-0.082 0.049,-0.13l-0.06,-1.235c-0.002,-0.043 -0.02,-0.084 -0.051,-0.114l-2.111,-2.111l0,-2.658c0.001,-0.104 -0.041,-0.202 -0.115,-0.272l0.223,-0.223l0.307,0.307c0.037,0.038 0.089,0.056 0.141,0.051c0.053,-0.006 0.1,-0.035 0.128,-0.079c0.118,-0.18 0.191,-0.398 0.217,-0.651c0.023,-0.217 -0.053,-0.433 -0.208,-0.587c-0.02,-0.021 -0.042,-0.042 -0.065,-0.065l0.29,-0.29c0.009,-0.006 0.017,-0.013 0.025,-0.021c0.009,-0.008 0.016,-0.017 0.022,-0.026l0.484,-0.484c0.009,-0.006 0.017,-0.013 0.025,-0.021c0.008,-0.008 0.016,-0.017 0.022,-0.026l0.456,-0.456c0.158,0.018 0.322,-0.033 0.443,-0.154c0.21,-0.209 0.21,-0.549 0,-0.759c0,0 -0.48,-0.48 -0.48,-0.48c-0.209,-0.209 -0.549,-0.209 -0.759,0c-0.123,0.124 -0.174,0.293 -0.152,0.454l-0.451,0.452c-0.01,0.006 -0.018,0.013 -0.026,0.021c-0.008,0.008 -0.015,0.017 -0.022,0.026l-0.483,0.484c-0.01,0.006 -0.018,0.013 -0.026,0.021c-0.008,0.008 -0.015,0.017 -0.022,0.026l-0.289,0.289l-0.029,-0.029c-0.135,-0.135 -0.318,-0.211 -0.508,-0.212c-0.339,-0.003 -0.591,0.088 -0.751,0.263c-0.063,0.069 -0.06,0.175 0.006,0.241l0.259,0.259l-1.225,1.225l0.007,0.004c-0.068,-0.039 -0.133,-0.082 -0.198,-0.127c-0.126,-0.089 -0.295,-0.089 -0.422,0c-0.064,0.045 -0.129,0.087 -0.195,0.126c0,-0 -1.179,-1.18 -1.179,-1.18l0.307,-0.307c0.037,-0.037 0.056,-0.089 0.05,-0.142c-0.005,-0.052 -0.034,-0.099 -0.078,-0.128c-0.18,-0.117 -0.398,-0.19 -0.651,-0.216c-0.217,-0.023 -0.433,0.053 -0.587,0.208c-0.021,0.02 -0.042,0.042 -0.065,0.065l-0.29,-0.29c-0.006,-0.009 -0.013,-0.018 -0.021,-0.026c-0.008,-0.008 -0.017,-0.015 -0.026,-0.021l-0.484,-0.484c-0.006,-0.009 -0.013,-0.018 -0.021,-0.026c-0.008,-0.008 -0.017,-0.015 -0.026,-0.021l-0.456,-0.456c0.018,-0.158 -0.033,-0.322 -0.154,-0.443c-0.209,-0.21 -0.549,-0.21 -0.759,-0c0,-0 -0.48,0.479 -0.48,0.479c-0.209,0.21 -0.209,0.55 0,0.759c0.124,0.124 0.293,0.175 0.454,0.152l0.452,0.452c0.006,0.009 0.013,0.018 0.021,0.026c0.008,0.008 0.017,0.015 0.026,0.021l0.484,0.484c0.006,0.009 0.013,0.018 0.021,0.026c0.008,0.008 0.017,0.015 0.026,0.021l0.289,0.29l-0.029,0.029c-0.135,0.135 -0.211,0.317 -0.212,0.508c-0.003,0.339 0.088,0.591 0.263,0.751c0.069,0.062 0.175,0.06 0.241,-0.006l0.259,-0.259l0.178,0.178c-0.072,0.07 -0.113,0.167 -0.113,0.269Zm0.259,-0.357l-0.004,0.002c0.007,-0.003 0.014,-0.005 0.021,-0.007c-0.005,0.002 -0.011,0.003 -0.017,0.005Zm0.174,-0.011c0.004,0 0.007,0.001 0.011,0.002l-0.005,-0.001l-0.006,-0.001Zm-0.02,-0.003c0.003,0 0.007,0.001 0.01,0.001l-0.005,-0.001c-0.004,-0 -0.007,-0 -0.011,-0.001l0.006,0.001Z" style="fill:#fff;"/></g></svg>