<?xml version="1.0" encoding="UTF-8" standalone="no"?><!DOCTYPE svg PUBLIC "-//W3C//DTD SVG 1.1//EN" "http://www.w3.org/Graphics/SVG/1.1/DTD/svg11.dtd"><svg width="100%" height="100%" viewBox="0 0 21 21" version="1.1" xmlns="http://www.w3.org/2000/svg" xmlns:xlink="http://www.w3.org/1999/xlink" xml:space="preserve" xmlns:serif="http://www.serif.com/" style="fill-rule:evenodd;clip-rule:evenodd;stroke-linejoin:round;stroke-miterlimit:2;"><path d="M20.201,5.05c-0,-2.787 -2.263,-5.05 -5.051,-5.05l-10.1,-0c-2.787,-0 -5.05,2.263 -5.05,5.05l-0,10.1c-0,2.788 2.263,5.051 5.05,5.051l10.1,-0c2.788,-0 5.051,-2.263 5.051,-5.051l-0,-10.1Z" style="fill:none;"/><clipPath id="_clip1"><path d="M20.201,5.05c-0,-2.787 -2.263,-5.05 -5.051,-5.05l-10.1,-0c-2.787,-0 -5.05,2.263 -5.05,5.05l-0,10.1c-0,2.788 2.263,5.051 5.05,5.051l10.1,-0c2.788,-0 5.051,-2.263 5.051,-5.051l-0,-10.1Z"/></clipPath><g clip-path="url(#_clip1)"><path d="M12.575,7.625l0,-3.025c0,-0.607 -0.492,-1.1 -1.1,-1.1l-2.75,0c-0.607,0 -1.1,0.493 -1.1,1.1l0,3.025c0,0 -3.025,0 -3.025,0c-0.607,0 -1.1,0.493 -1.1,1.1l0,2.75c0,0.608 0.493,1.1 1.1,1.1l3.025,0c0,0 0,3.025 0,3.025c0,0.608 0.493,1.1 1.1,1.1l2.75,0c0.608,0 1.1,-0.492 1.1,-1.1l0,-3.025c0,0 3.025,0 3.025,0c0.608,0 1.1,-0.492 1.1,-1.1l0,-2.75c0,-0.607 -0.492,-1.1 -1.1,-1.1l-3.025,0Zm-1.1,1.1l0,-4.125l-2.75,0l0,4.125l-4.125,0l0,2.75l4.125,0l0,4.125l2.75,0l0,-4.125l4.125,0l0,-2.75l-4.125,0Z" style="fill:#fff;"/></g></svg>