<?xml version="1.0" encoding="UTF-8" standalone="no"?><!DOCTYPE svg PUBLIC "-//W3C//DTD SVG 1.1//EN" "http://www.w3.org/Graphics/SVG/1.1/DTD/svg11.dtd"><svg width="100%" height="100%" viewBox="0 0 21 21" version="1.1" xmlns="http://www.w3.org/2000/svg" xmlns:xlink="http://www.w3.org/1999/xlink" xml:space="preserve" xmlns:serif="http://www.serif.com/" style="fill-rule:evenodd;clip-rule:evenodd;stroke-linejoin:round;stroke-miterlimit:2;"><path d="M20.201,5.05c-0,-2.787 -2.263,-5.05 -5.051,-5.05l-10.1,-0c-2.787,-0 -5.05,2.263 -5.05,5.05l-0,10.1c-0,2.788 2.263,5.051 5.05,5.051l10.1,-0c2.788,-0 5.051,-2.263 5.051,-5.051l-0,-10.1Z" style="fill:none;"/><clipPath id="_clip1"><path d="M20.201,5.05c-0,-2.787 -2.263,-5.05 -5.051,-5.05l-10.1,-0c-2.787,-0 -5.05,2.263 -5.05,5.05l-0,10.1c-0,2.788 2.263,5.051 5.05,5.051l10.1,-0c2.788,-0 5.051,-2.263 5.051,-5.051l-0,-10.1Z"/></clipPath><g clip-path="url(#_clip1)"><path d="M10.407,5.938c0.147,-0.448 0.381,-0.742 0.673,-0.917c0.296,-0.178 0.658,-0.236 1.073,-0.19c0.74,0.084 1.669,0.51 2.675,1.092c0.112,0.065 0.151,0.209 0.086,0.322c-0.065,0.112 -0.209,0.151 -0.322,0.086c-0.939,-0.544 -1.801,-0.954 -2.492,-1.032c-0.3,-0.033 -0.563,-0.003 -0.777,0.125c-0.209,0.125 -0.364,0.343 -0.468,0.662c0.44,0.167 0.864,0.394 1.273,0.679l-0.369,1.093c0.943,0.769 1.545,1.941 1.545,3.252c0,2.315 -1.88,4.196 -4.195,4.196c-2.316,-0 -4.196,-1.881 -4.196,-4.196c-0,-2.18 1.666,-3.974 3.793,-4.177l0.401,-1.188c0.448,0.011 0.881,0.076 1.3,0.193Zm-1.298,1.447c2.055,-0 3.724,1.669 3.724,3.725c0,2.056 -1.669,3.725 -3.724,3.725c-2.056,-0 -3.725,-1.669 -3.725,-3.725c-0,-2.056 1.669,-3.725 3.725,-3.725Zm0.154,0.562c-0.578,-0.019 -1.077,0.045 -1.51,0.198c-0.171,0.061 -0.329,0.138 -0.477,0.228c-0.155,0.094 -0.297,0.203 -0.424,0.328c-0.102,0.1 -0.194,0.211 -0.275,0.331c-0.115,0.171 -0.211,0.36 -0.287,0.566c-0.069,0.187 -0.123,0.386 -0.159,0.6c-0.047,0.281 -0.066,0.58 -0.061,0.907c-0.003,0.03 0.02,0.058 0.05,0.06c0.031,0.003 0.058,-0.02 0.061,-0.05c0.084,-0.437 0.211,-0.812 0.365,-1.147c0.101,-0.22 0.219,-0.415 0.35,-0.594c0.089,-0.123 0.185,-0.236 0.289,-0.342c0.129,-0.134 0.268,-0.257 0.426,-0.365c0.154,-0.105 0.32,-0.2 0.503,-0.281c0.335,-0.148 0.714,-0.261 1.155,-0.327c0.031,-0.002 0.054,-0.028 0.053,-0.059c-0.002,-0.031 -0.029,-0.054 -0.059,-0.053Zm5.245,-1.096l-0,0.868c-0,0.13 0.105,0.236 0.235,0.236c0.13,-0 0.236,-0.106 0.236,-0.236l-0,-0.868c-0,-0.13 -0.106,-0.235 -0.236,-0.235c-0.13,-0 -0.235,0.105 -0.235,0.235Zm-5.299,0.064l0.229,-0.679c0.756,0.071 1.463,0.317 2.127,0.723l-0,0l-0.206,0.61c-0.624,-0.398 -1.36,-0.635 -2.15,-0.654Zm4.854,-0.433l-0.613,0.613c-0.092,0.092 -0.092,0.241 -0,0.333c0.092,0.092 0.241,0.092 0.333,0l0.613,-0.613c0.092,-0.092 0.092,-0.242 0,-0.333c-0.092,-0.092 -0.241,-0.092 -0.333,-0Zm1.021,0.317l0.613,0.613c0.092,0.092 0.241,0.092 0.333,0c0.092,-0.092 0.092,-0.241 0,-0.333l-0.613,-0.613c-0.092,-0.092 -0.242,-0.092 -0.333,-0c-0.092,0.092 -0.092,0.241 -0,0.333Zm0.369,-0.445l0.868,0c0.13,0 0.236,-0.105 0.236,-0.235c-0,-0.13 -0.106,-0.236 -0.236,-0.236l-0.868,0c-0.13,0 -0.235,0.106 -0.235,0.236c-0,0.13 0.105,0.235 0.235,0.235Zm-0.052,-0.575l0.613,-0.614c0.092,-0.092 0.092,-0.241 0,-0.333c-0.092,-0.092 -0.241,-0.092 -0.333,0l-0.613,0.614c-0.092,0.091 -0.092,0.241 -0,0.333c0.092,0.091 0.241,0.091 0.333,-0Zm-0.445,-0.37l0,-0.868c0,-0.13 -0.105,-0.235 -0.235,-0.235c-0.13,-0 -0.236,0.105 -0.236,0.235l0,0.868c0,0.13 0.106,0.235 0.236,0.235c0.13,0 0.235,-0.105 0.235,-0.235Z" style="fill:#fff;"/></g></svg>