<?xml version="1.0" encoding="UTF-8" standalone="no"?><!DOCTYPE svg PUBLIC "-//W3C//DTD SVG 1.1//EN" "http://www.w3.org/Graphics/SVG/1.1/DTD/svg11.dtd"><svg width="100%" height="100%" viewBox="0 0 21 21" version="1.1" xmlns="http://www.w3.org/2000/svg" xmlns:xlink="http://www.w3.org/1999/xlink" xml:space="preserve" xmlns:serif="http://www.serif.com/" style="fill-rule:evenodd;clip-rule:evenodd;stroke-linejoin:round;stroke-miterlimit:2;"><path d="M20.201,5.05c-0,-2.787 -2.263,-5.05 -5.051,-5.05l-10.1,0c-2.787,0 -5.05,2.263 -5.05,5.05l-0,10.1c-0,2.788 2.263,5.051 5.05,5.051l10.1,-0c2.788,-0 5.051,-2.263 5.051,-5.051l-0,-10.1Z" style="fill:none;"/><clipPath id="_clip1"><path d="M20.201,5.05c-0,-2.787 -2.263,-5.05 -5.051,-5.05l-10.1,0c-2.787,0 -5.05,2.263 -5.05,5.05l-0,10.1c-0,2.788 2.263,5.051 5.05,5.051l10.1,-0c2.788,-0 5.051,-2.263 5.051,-5.051l-0,-10.1Z"/></clipPath><g clip-path="url(#_clip1)"><path d="M14.305,5.775c-0.13,-0.105 -0.3,-0.145 -0.462,-0.109c-1.188,0.248 -2.427,-0.005 -3.422,-0.699c-0.189,-0.131 -0.439,-0.131 -0.627,-0c-0.996,0.694 -2.236,0.947 -3.423,0.699c-0.164,-0.036 -0.334,0.004 -0.463,0.109c-0.13,0.105 -0.203,0.262 -0.203,0.429l-0,4.099c-0.002,1.599 0.772,3.105 2.074,4.033l2.008,1.431c0.192,0.135 0.449,0.135 0.638,-0l2.009,-1.431c1.301,-0.928 2.075,-2.434 2.074,-4.033l-0,-4.099c0.001,-0.167 -0.074,-0.324 -0.203,-0.429Zm-0.897,4.528c0.001,1.244 -0.601,2.414 -1.613,3.136l-1.689,1.206l-1.689,-1.206c-1.012,-0.722 -1.612,-1.892 -1.612,-3.136l-0,-3.465c1.154,0.098 2.309,-0.171 3.301,-0.767c0.992,0.596 2.148,0.865 3.302,0.767l-0,3.465Zm-0.455,0.008c0.001,1.072 -0.517,2.08 -1.39,2.704l-1.457,1.039l0,-7.392c0,0.104 1.852,0.843 2.847,0.66l-0,2.989Z" style="fill:#fff;"/></g></svg>