<?xml version="1.0" encoding="UTF-8" standalone="no"?><!DOCTYPE svg PUBLIC "-//W3C//DTD SVG 1.1//EN" "http://www.w3.org/Graphics/SVG/1.1/DTD/svg11.dtd"><svg width="100%" height="100%" viewBox="0 0 21 21" version="1.1" xmlns="http://www.w3.org/2000/svg" xmlns:xlink="http://www.w3.org/1999/xlink" xml:space="preserve" xmlns:serif="http://www.serif.com/" style="fill-rule:evenodd;clip-rule:evenodd;stroke-linejoin:round;stroke-miterlimit:2;"><path d="M20.201,5.05c-0,-2.787 -2.263,-5.05 -5.051,-5.05l-10.1,-0c-2.787,-0 -5.05,2.263 -5.05,5.05l-0,10.1c-0,2.788 2.263,5.051 5.05,5.051l10.1,-0c2.788,-0 5.051,-2.263 5.051,-5.051l-0,-10.1Z" style="fill:none;"/><clipPath id="_clip1"><path d="M20.201,5.05c-0,-2.787 -2.263,-5.05 -5.051,-5.05l-10.1,-0c-2.787,-0 -5.05,2.263 -5.05,5.05l-0,10.1c-0,2.788 2.263,5.051 5.05,5.051l10.1,-0c2.788,-0 5.051,-2.263 5.051,-5.051l-0,-10.1Z"/></clipPath><g clip-path="url(#_clip1)"><path d="M6.2,6.2c-2.14,2.14 -2.133,5.626 0.021,7.78c2.154,2.153 5.64,2.161 7.78,0.021c2.14,-2.14 2.132,-5.626 -0.021,-7.78c-2.154,-2.154 -5.64,-2.161 -7.78,-0.021Zm7.442,1.003c1.486,1.807 1.393,4.476 -0.285,6.154c-1.678,1.678 -4.347,1.771 -6.154,0.285l6.439,-6.439Zm-0.644,-0.644l-6.439,6.439c-1.486,-1.807 -1.393,-4.476 0.285,-6.154c1.678,-1.678 4.347,-1.771 6.154,-0.285Z" style="fill:#fff;"/></g></svg>