<?xml version="1.0" encoding="UTF-8" standalone="no"?><!DOCTYPE svg PUBLIC "-//W3C//DTD SVG 1.1//EN" "http://www.w3.org/Graphics/SVG/1.1/DTD/svg11.dtd"><svg width="100%" height="100%" viewBox="0 0 21 21" version="1.1" xmlns="http://www.w3.org/2000/svg" xmlns:xlink="http://www.w3.org/1999/xlink" xml:space="preserve" xmlns:serif="http://www.serif.com/" style="fill-rule:evenodd;clip-rule:evenodd;stroke-linecap:round;stroke-linejoin:round;stroke-miterlimit:1.5;"><path d="M20.201,5.05c-0,-2.787 -2.263,-5.05 -5.051,-5.05l-10.1,0c-2.787,0 -5.05,2.263 -5.05,5.05l-0,10.1c-0,2.788 2.263,5.051 5.05,5.051l10.1,-0c2.788,-0 5.051,-2.263 5.051,-5.051l-0,-10.1Z" style="fill:none;"/><clipPath id="_clip1"><path d="M20.201,5.05c-0,-2.787 -2.263,-5.05 -5.051,-5.05l-10.1,0c-2.787,0 -5.05,2.263 -5.05,5.05l-0,10.1c-0,2.788 2.263,5.051 5.05,5.051l10.1,-0c2.788,-0 5.051,-2.263 5.051,-5.051l-0,-10.1Z"/></clipPath><g clip-path="url(#_clip1)"><g id="outline"><path d="M7.717,14.769c-0.124,-0.108 -0.242,-0.226 -0.356,-0.35c-0.048,-0.053 -0.129,-0.057 -0.182,-0.009c-0.052,0.048 -0.056,0.129 -0.008,0.182c0.12,0.132 0.246,0.256 0.377,0.371c0.053,0.046 0.134,0.041 0.181,-0.012c0.047,-0.054 0.042,-0.135 -0.012,-0.182Zm5.055,-0.412c-0.109,0.125 -0.224,0.242 -0.344,0.352c-0.052,0.048 -0.056,0.129 -0.008,0.182c0.048,0.052 0.129,0.056 0.182,0.008c0.126,-0.116 0.248,-0.24 0.363,-0.372c0.047,-0.053 0.042,-0.135 -0.011,-0.181c-0.054,-0.047 -0.135,-0.042 -0.182,0.011Zm-5.872,-0.532c-0.091,-0.138 -0.177,-0.282 -0.257,-0.431c-0.034,-0.063 -0.112,-0.086 -0.174,-0.053c-0.063,0.034 -0.086,0.112 -0.053,0.174c0.084,0.157 0.174,0.308 0.27,0.452c0.039,0.06 0.119,0.076 0.178,0.037c0.059,-0.04 0.075,-0.119 0.036,-0.179Zm6.574,-0.504c-0.078,0.15 -0.162,0.296 -0.251,0.435c-0.038,0.06 -0.021,0.14 0.039,0.178c0.06,0.038 0.139,0.021 0.178,-0.039c0.093,-0.146 0.181,-0.298 0.262,-0.456c0.033,-0.063 0.008,-0.141 -0.055,-0.173c-0.063,-0.033 -0.141,-0.008 -0.173,0.055Zm-7.142,-0.614c-0.059,-0.156 -0.111,-0.315 -0.158,-0.479c-0.019,-0.068 -0.091,-0.107 -0.159,-0.088c-0.068,0.019 -0.108,0.091 -0.088,0.159c0.048,0.17 0.103,0.337 0.164,0.499c0.025,0.066 0.099,0.1 0.166,0.075c0.066,-0.025 0.1,-0.1 0.075,-0.166Zm7.594,-0.558c-0.044,0.164 -0.095,0.324 -0.151,0.48c-0.024,0.067 0.011,0.141 0.077,0.165c0.067,0.024 0.141,-0.011 0.165,-0.078c0.059,-0.162 0.111,-0.329 0.158,-0.5c0.018,-0.069 -0.023,-0.139 -0.091,-0.158c-0.069,-0.019 -0.139,0.022 -0.158,0.091Zm-7.915,-0.659c-0.026,-0.164 -0.046,-0.331 -0.06,-0.501c-0.006,-0.07 -0.068,-0.123 -0.139,-0.117c-0.071,0.006 -0.124,0.068 -0.118,0.138c0.015,0.177 0.036,0.35 0.063,0.521c0.011,0.07 0.077,0.118 0.147,0.107c0.07,-0.012 0.118,-0.078 0.107,-0.148Zm8.123,-0.583c-0.012,0.169 -0.03,0.337 -0.054,0.501c-0.011,0.07 0.038,0.136 0.108,0.146c0.071,0.011 0.136,-0.038 0.146,-0.108c0.025,-0.171 0.044,-0.345 0.056,-0.522c0.005,-0.07 -0.048,-0.132 -0.119,-0.137c-0.071,-0.005 -0.132,0.049 -0.137,0.12Zm-8.203,-0.674c0.005,-0.17 0.017,-0.338 0.034,-0.504c0.008,-0.07 -0.044,-0.134 -0.114,-0.141c-0.071,-0.008 -0.134,0.044 -0.142,0.114c-0.018,0.172 -0.03,0.347 -0.035,0.523c-0.002,0.071 0.054,0.13 0.125,0.132c0.071,0.003 0.13,-0.053 0.132,-0.124Zm8.173,-0.586c0.019,0.165 0.033,0.333 0.04,0.503c0.003,0.071 0.063,0.126 0.134,0.123c0.071,-0.003 0.126,-0.063 0.123,-0.134c-0.007,-0.177 -0.022,-0.351 -0.042,-0.523c-0.008,-0.07 -0.072,-0.12 -0.143,-0.112c-0.07,0.008 -0.121,0.072 -0.112,0.143Zm-8.016,-0.664c0.038,-0.166 0.081,-0.328 0.131,-0.487c0.021,-0.067 -0.017,-0.14 -0.085,-0.161c-0.067,-0.021 -0.14,0.017 -0.161,0.085c-0.051,0.165 -0.097,0.334 -0.136,0.506c-0.015,0.07 0.028,0.139 0.097,0.154c0.07,0.016 0.139,-0.028 0.154,-0.097Zm7.746,-0.566c0.052,0.158 0.098,0.32 0.137,0.485c0.017,0.069 0.086,0.112 0.155,0.095c0.069,-0.016 0.112,-0.086 0.095,-0.155c-0.041,-0.172 -0.089,-0.34 -0.142,-0.505c-0.023,-0.067 -0.095,-0.104 -0.163,-0.082c-0.067,0.022 -0.104,0.095 -0.082,0.162Zm-7.345,-0.626c0.07,-0.154 0.147,-0.303 0.229,-0.447c0.036,-0.061 0.014,-0.14 -0.047,-0.175c-0.062,-0.036 -0.141,-0.014 -0.176,0.047c-0.086,0.151 -0.166,0.307 -0.24,0.468c-0.03,0.065 -0.001,0.141 0.063,0.171c0.065,0.029 0.141,0.001 0.171,-0.064Zm6.829,-0.518c0.085,0.142 0.164,0.29 0.236,0.443c0.031,0.064 0.108,0.092 0.172,0.061c0.064,-0.03 0.091,-0.107 0.061,-0.171c-0.077,-0.161 -0.159,-0.315 -0.248,-0.465c-0.036,-0.061 -0.115,-0.081 -0.176,-0.045c-0.061,0.037 -0.081,0.116 -0.045,0.177Zm-6.18,-0.553c0.104,-0.133 0.214,-0.259 0.329,-0.377c0.05,-0.051 0.049,-0.133 -0.002,-0.182c-0.051,-0.05 -0.132,-0.049 -0.182,0.002c-0.121,0.125 -0.237,0.258 -0.347,0.398c-0.044,0.056 -0.035,0.137 0.021,0.18c0.056,0.044 0.137,0.035 0.181,-0.021Zm5.415,-0.436c0.117,0.116 0.229,0.24 0.336,0.371c0.045,0.055 0.126,0.064 0.181,0.019c0.055,-0.045 0.063,-0.126 0.018,-0.181c-0.112,-0.138 -0.23,-0.269 -0.354,-0.391c-0.051,-0.05 -0.132,-0.05 -0.182,0c-0.05,0.051 -0.05,0.132 0.001,0.182Zm-4.519,-0.43c0.136,-0.098 0.276,-0.185 0.422,-0.263c0.062,-0.034 0.086,-0.112 0.052,-0.174c-0.033,-0.063 -0.111,-0.086 -0.174,-0.053c-0.155,0.083 -0.305,0.177 -0.45,0.281c-0.058,0.041 -0.071,0.122 -0.03,0.179c0.041,0.058 0.122,0.071 0.18,0.03Zm3.516,-0.301c0.147,0.074 0.29,0.159 0.427,0.254c0.059,0.04 0.139,0.025 0.179,-0.033c0.04,-0.059 0.026,-0.139 -0.033,-0.179c-0.147,-0.101 -0.3,-0.192 -0.457,-0.271c-0.063,-0.032 -0.14,-0.007 -0.173,0.056c-0.032,0.064 -0.006,0.141 0.057,0.173Zm-2.406,-0.242c0.158,-0.045 0.32,-0.078 0.484,-0.099c0.071,-0.009 0.121,-0.073 0.112,-0.144c-0.009,-0.07 -0.074,-0.12 -0.144,-0.111c-0.178,0.022 -0.352,0.058 -0.523,0.107c-0.068,0.019 -0.108,0.091 -0.088,0.159c0.019,0.068 0.09,0.108 0.159,0.088Zm1.225,-0.108c0.165,0.016 0.328,0.046 0.487,0.087c0.069,0.018 0.139,-0.024 0.156,-0.092c0.018,-0.069 -0.023,-0.139 -0.092,-0.157c-0.171,-0.044 -0.347,-0.076 -0.525,-0.094c-0.071,-0.007 -0.134,0.044 -0.141,0.115c-0.007,0.07 0.044,0.133 0.115,0.141Z" style="fill:#fff;"/><path d="M10.869,15.714c-0.269,0.068 -0.546,0.103 -0.83,0.103c-0.251,0 -0.497,-0.028 -0.737,-0.081" style="fill:none;stroke:#fff;stroke-width:0.13px;stroke-dasharray:0.26,0.39,0,0;"/><path d="M5.547,5.074l0.082,0.718l0.306,-0.281l-0.173,0.377l0.708,-0.144l-0.658,0.3l0.362,0.203l-0.412,-0.048l0.355,0.629l-0.488,-0.532l-0.082,0.406l-0.081,-0.406l-0.488,0.532l0.355,-0.629l-0.412,0.048l0.362,-0.203l-0.658,-0.3l0.708,0.144l-0.173,-0.377l0.306,0.281l0.081,-0.718Z" style="fill:#fff;"/><path d="M14.631,5.803l0.082,0.717l0.305,-0.28l-0.172,0.377l0.707,-0.144l-0.657,0.3l0.362,0.203l-0.412,-0.048l0.355,0.629l-0.488,-0.532l-0.082,0.406l-0.082,-0.406l-0.488,0.532l0.356,-0.629l-0.412,0.048l0.361,-0.203l-0.657,-0.3l0.708,0.144l-0.173,-0.377l0.305,0.28l0.082,-0.717Z" style="fill:#fff;"/><path d="M14.522,13.914l0.081,0.718l0.306,-0.281l-0.173,0.377l0.708,-0.144l-0.657,0.3l0.361,0.203l-0.412,-0.048l0.355,0.629l-0.488,-0.532l-0.081,0.406l-0.082,-0.406l-0.488,0.532l0.355,-0.629l-0.412,0.048l0.362,-0.203l-0.658,-0.3l0.708,0.144l-0.173,-0.377l0.306,0.281l0.082,-0.718Z" style="fill:#fff;"/><path d="M10.974,6.493l-0.036,-0.589l-0.322,0.278c-0.167,-0.091 -0.363,-0.144 -0.572,-0.144c-0.206,0 -0.4,0.051 -0.566,0.141l-0.318,-0.275l-0.035,0.574c-0.125,0.165 -0.199,0.366 -0.199,0.583c0,0.564 0.5,1.024 1.118,1.024c0.616,-0 1.119,-0.46 1.119,-1.024c-0,-0.21 -0.07,-0.406 -0.189,-0.568Zm-0.93,-0.126c0.428,-0 0.79,0.302 0.79,0.694c-0,0.392 -0.362,0.695 -0.79,0.695c-0.429,0 -0.789,-0.303 -0.789,-0.695c0,-0.392 0.36,-0.694 0.789,-0.694Z" style="fill:#fff;"/><path d="M12.59,8.811c-0.164,-0.27 -0.457,-0.437 -0.773,-0.438l-3.511,0c-0.316,0.001 -0.609,0.168 -0.773,0.438l-0.642,1.071c-0.177,0.292 -0.172,0.66 0.012,0.948l1.023,1.607c0.033,0.052 0.091,0.083 0.152,0.083c0.039,0 0.077,-0.012 0.108,-0.036l0.329,-0.246l-0.793,3.488c-0.003,0.013 -0.004,0.026 -0.004,0.04c-0,0.099 0.081,0.18 0.18,0.18l1.082,0c0.083,0 0.156,-0.058 0.175,-0.139l0.689,-2.926l0.435,-0l0.689,2.926c0.019,0.081 0.092,0.139 0.175,0.139l1.082,0c0.099,0 0.18,-0.081 0.18,-0.18c0,-0.014 -0.001,-0.027 -0.004,-0.04l-0.793,-3.488l0.329,0.246c0.031,0.024 0.069,0.036 0.108,0.036c0.061,0 0.119,-0.031 0.152,-0.083l1.023,-1.607c0.184,-0.288 0.189,-0.656 0.012,-0.948l-0.642,-1.071Zm0.325,1.825l-0.918,1.443l-0.433,-0.325l0.814,-1.302c0.033,-0.053 0.036,-0.12 0.008,-0.176l-0.36,-0.721c-0.031,-0.061 -0.093,-0.1 -0.161,-0.1l-0.541,0c-0.099,0 -0.181,0.082 -0.181,0.181l0,2.161c0,0.011 0.001,0.022 0.003,0.033l-0,0.003c0,0.002 0.001,0.004 0.001,0.007l0.852,3.745l-0.713,0l-0.688,-2.926c-0.02,-0.081 -0.093,-0.139 -0.176,-0.139l-0.721,0c-0.083,0 -0.157,0.058 -0.176,0.139l-0.688,2.926l-0.713,0l0.851,-3.745c0.001,-0.003 0.001,-0.005 0.002,-0.007l-0,-0.003c0.002,-0.011 0.003,-0.022 0.003,-0.033l-0,-2.161c-0,-0.099 -0.082,-0.181 -0.181,-0.181l-0.541,0c-0.068,0 -0.13,0.039 -0.161,0.1l-0.36,0.721c-0.028,0.056 -0.025,0.123 0.008,0.176l0.814,1.302l-0.433,0.325l-0.919,-1.443c-0.11,-0.172 -0.113,-0.393 -0.007,-0.569l0.642,-1.07c0.098,-0.163 0.275,-0.262 0.464,-0.263l3.511,0c0.189,0.001 0.366,0.1 0.464,0.263l0.642,1.07c0.106,0.176 0.103,0.397 -0.008,0.569Zm-1.411,0.534l-0,-1.354l0.249,-0l0.266,0.531l-0.515,0.823Zm-2.885,0l-0.515,-0.823l0.266,-0.531l0.249,-0l0,1.354Z" style="fill:#fff;fill-rule:nonzero;"/><circle cx="14.749" cy="12.881" r="0.361" style="fill:#fff;"/><circle cx="5.013" cy="8.373" r="0.361" style="fill:#fff;"/><circle cx="12.946" cy="5.669" r="0.361" style="fill:#fff;"/><circle cx="5.554" cy="14.143" r="0.361" style="fill:#fff;"/></g></g></svg>