<?xml version="1.0" encoding="UTF-8" standalone="no"?><!DOCTYPE svg PUBLIC "-//W3C//DTD SVG 1.1//EN" "http://www.w3.org/Graphics/SVG/1.1/DTD/svg11.dtd"><svg width="100%" height="100%" viewBox="0 0 21 21" version="1.1" xmlns="http://www.w3.org/2000/svg" xmlns:xlink="http://www.w3.org/1999/xlink" xml:space="preserve" xmlns:serif="http://www.serif.com/" style="fill-rule:evenodd;clip-rule:evenodd;stroke-linejoin:round;stroke-miterlimit:2;"><path d="M20.201,5.05c-0,-2.787 -2.263,-5.05 -5.051,-5.05l-10.1,-0c-2.787,-0 -5.05,2.263 -5.05,5.05l-0,10.1c-0,2.788 2.263,5.051 5.05,5.051l10.1,-0c2.788,-0 5.051,-2.263 5.051,-5.051l-0,-10.1Z" style="fill:none;"/><clipPath id="_clip1"><path d="M20.201,5.05c-0,-2.787 -2.263,-5.05 -5.051,-5.05l-10.1,-0c-2.787,-0 -5.05,2.263 -5.05,5.05l-0,10.1c-0,2.788 2.263,5.051 5.05,5.051l10.1,-0c2.788,-0 5.051,-2.263 5.051,-5.051l-0,-10.1Z"/></clipPath><g clip-path="url(#_clip1)"><path d="M14.711,11.856c-0,0 -0.314,0.56 -0.314,0.799c-0,0.174 0.14,0.314 0.314,0.314c0.173,0 0.314,-0.14 0.314,-0.314c-0,-0.239 -0.314,-0.799 -0.314,-0.799Zm-0.387,-4.86c-0.077,-0.058 -0.161,-0.106 -0.252,-0.144c-0.321,-0.135 -0.682,-0.116 -0.983,0.041c-0.004,0.002 -0.059,0.03 -0.11,0.064c-0.054,0.035 -0.106,0.077 -0.109,0.079c-0.142,0.122 -0.254,0.275 -0.327,0.445c-0.225,-0.133 -0.489,-0.203 -0.764,-0.191c-0.081,0.003 -0.161,0.013 -0.24,0.029c-0.329,0.067 -0.614,0.246 -0.816,0.496c-0.202,-0.25 -0.487,-0.429 -0.816,-0.496c-0.079,-0.016 -0.159,-0.026 -0.24,-0.029c-0.272,-0.012 -0.532,0.056 -0.755,0.186c-0.076,-0.175 -0.193,-0.33 -0.341,-0.453c-0.015,-0.013 -0.032,-0.024 -0.049,-0.033c-0.327,-0.243 -0.759,-0.297 -1.137,-0.138c-0.095,0.039 -0.183,0.091 -0.262,0.152c-0.047,-0.046 -0.098,-0.09 -0.151,-0.131c-0,-0 -0.001,-0 -0.001,-0c-0.24,-0.186 -0.469,-0.254 -0.655,-0.225c-0.133,0.022 -0.258,0.086 -0.364,0.216c-0.067,-0.019 -0.138,-0.027 -0.214,-0.023c-0,-0 -0,-0 -0,-0c-0.24,0.012 -0.438,0.192 -0.472,0.43c-0.108,0.758 0.063,1.268 0.557,1.422c0.108,0.706 0.352,1.381 0.812,2.007c0.001,0 0.001,0 0.001,0.001c0.08,0.107 0.212,0.161 0.344,0.14c0.132,-0.022 0.241,-0.115 0.283,-0.242c0,-0 0,-0.001 0.001,-0.001c0.096,-0.298 0.172,-0.617 0.232,-0.954c0.201,0.042 0.44,0.053 0.724,0.033c0.055,0.129 0.147,0.241 0.267,0.318c0.002,0.002 0.005,0.004 0.007,0.005c0.4,0.244 1.04,0.34 2.037,0.281c0.068,-0.004 0.133,-0.02 0.192,-0.046c0.059,0.026 0.124,0.042 0.192,0.046c0.997,0.059 1.637,-0.037 2.037,-0.281c0.002,-0.001 0.005,-0.003 0.007,-0.005c0.121,-0.078 0.213,-0.189 0.267,-0.318c0.281,0.02 0.518,0.01 0.718,-0.029c0.059,0.335 0.136,0.653 0.231,0.95c0.001,0 0.001,0.001 0.001,0.001c0.042,0.127 0.151,0.22 0.283,0.242c0.132,0.021 0.264,-0.033 0.344,-0.14c0,-0.001 0,-0.001 0.001,-0.001c0.459,-0.624 0.702,-1.296 0.811,-1.999c0.118,-0.034 0.216,-0.088 0.298,-0.157c0.275,-0.229 0.378,-0.677 0.293,-1.273c-0.034,-0.238 -0.232,-0.418 -0.472,-0.43c-0,-0 -0,-0 -0.001,-0c-0.086,-0.004 -0.165,0.006 -0.239,0.031c-0.108,-0.135 -0.236,-0.202 -0.371,-0.224c-0.186,-0.029 -0.415,0.039 -0.655,0.225c-0.001,-0 -0.001,-0 -0.001,-0c-0.05,0.038 -0.098,0.08 -0.143,0.123Zm-7.408,3.543c0.002,0.001 0.004,0.001 0.007,0.001l-0.002,-0c-0.001,-0 -0.003,-0 -0.004,-0l-0.001,-0.001Zm0.024,-0.002c-0.002,0.001 -0.005,0.002 -0.008,0.002c-0.003,0.001 -0.005,0.001 -0.008,0.001l-0.001,0c0.003,0 0.006,-0 0.009,-0.001c0.003,-0 0.006,-0.001 0.008,-0.002Zm-0.04,-0.002c0.001,0 0.002,0 0.003,0.001c-0.001,-0.001 -0.002,-0.001 -0.003,-0.001Zm8.387,-3.428c0.125,0.241 0.119,0.929 0.057,1.329l0.094,-0.008c-0.03,0.004 -0.062,0.007 -0.096,0.008c-0.063,0.565 -0.07,0.59 -0.005,0.038c-0.038,0.245 -0.094,0.486 -0.152,0.716c-0.052,0.015 -0.103,0.033 -0.151,0.053c-0.093,0.037 -0.188,-0.073 -0.281,-0.033c-0.065,0.028 -0.124,0.067 -0.159,0.131c-0.028,0.052 -0.044,0.111 -0.086,0.154c-0.071,0.07 -0.244,0.237 -0.294,-0.088l0.001,-0.003c0.17,-0.643 0.355,-1.398 0.255,-2.115l-0,-0.004l-0,-0.001c0.055,-0.061 0.117,-0.118 0.184,-0.169c0.261,-0.202 0.504,-0.256 0.633,-0.008Zm-4.564,1.456l0,-0c0.048,0.437 0.021,0.883 -0.016,1.294l-0.001,0.009l-0,0.004c-0.044,0.061 -0.113,0.102 -0.193,0.107c-0.91,0.053 -1.495,-0.016 -1.86,-0.238c-0.098,-0.063 -0.163,-0.165 -0.179,-0.28c0.004,0.031 0.012,0.061 0.024,0.089c0.014,-0.507 0.065,-1.048 0.257,-1.533l0.001,-0.003l0.001,-0.003c0.21,-0.269 0.541,-0.43 0.897,-0.414c0.065,0.003 0.128,0.01 0.191,0.023c0.455,0.092 0.803,0.458 0.873,0.916c0.002,0.011 0.003,0.021 0.005,0.032l0,-0.003Zm1.981,-0.534l0,0.001c0.184,0.467 0.239,0.983 0.257,1.472l0.001,0.008c-0.026,0.093 -0.086,0.175 -0.169,0.229c-0.365,0.222 -0.95,0.291 -1.86,0.238c-0.029,-0.002 -0.056,-0.009 -0.082,-0.019l0,-0.002c-0.002,-0.001 -0.005,-0.002 -0.007,-0.003c0.002,0.001 0.005,0.002 0.007,0.003c0.05,-0.543 0.09,-1.156 -0.025,-1.733l-0,-0.004c0.147,-0.305 0.431,-0.531 0.775,-0.601c0.063,-0.013 0.126,-0.02 0.191,-0.023c0.365,-0.016 0.703,0.153 0.912,0.434Zm-1.922,1.886c0.002,0.002 0.003,0.003 0.005,0.005c0.002,0.001 0.004,0.003 0.006,0.004c-0.004,-0.003 -0.008,-0.006 -0.011,-0.009Zm-0.007,-0.006c0,0.001 0.001,0.001 0.001,0.002c0.001,0 0.001,0.001 0.002,0.001l-0.003,-0.003Zm-0.013,-0.012c0,0 0.001,0 0.001,0c0,0.001 0,0.001 0,0.001l-0.001,-0.001Zm-0.002,-0.003c-0,0 0,0.001 0,0.001c0.001,0 0.001,0.001 0.001,0.001l-0.001,-0.002Zm-0.006,-0.007c0,0.001 0.001,0.002 0.001,0.002c0.001,0.001 0.001,0.001 0.002,0.002c-0.001,-0.001 -0.002,-0.002 -0.003,-0.004Zm-0.01,-0.011l-0,-0.001c0,0.001 0.001,0.001 0.002,0.002c-0.001,-0 -0.001,-0.001 -0.002,-0.001Zm-0.007,-0.011l-0,-0l0.003,0.005l-0.003,-0.005Zm-0.004,-0.006l0.003,0.006l0,-0l-0.003,-0.006Zm-0.008,-0.013l0,0l0.002,0.003l-0,0.001l-0.002,-0.005l-0,0.001Zm2.238,-0.345l0.001,-0.002l-0.001,0.002Zm0.002,-0.005l0.001,-0.006c-0,0.002 -0.001,0.004 -0.001,0.006l-0.001,0.001l0,0.001l0.001,-0.002Zm0.006,-0.03c-0.001,0.003 -0.001,0.006 -0.001,0.008c-0.001,0.003 -0.002,0.005 -0.002,0.008c0.001,-0.005 0.002,-0.01 0.003,-0.016Zm0.001,-0.006l-0,0.002l-0,-0.002Zm-4.499,-0.005l0.001,0.003l-0.001,-0.005l0,0.002Zm-0,-0.006l-0,0.002l-0.001,-0.005l0.001,0.003Zm-0.001,-0.005c-0,-0.002 -0,-0.004 -0.001,-0.006l0.001,0.006Zm4.504,-0.028l0,-0.001l0,-0.001l0,-0.001l0,0.003Zm0.002,-0.025l-0,0.004l-0,-0.003l0,-0.001Zm1.357,-1.944l-0,0.001c0.055,0.623 -0.097,1.266 -0.246,1.829l-0.004,0.014l0,-0c-0.238,0.097 -0.554,0.113 -0.978,0.069l0,-0.001c-0.027,-0.529 -0.108,-1.081 -0.341,-1.568l-0.001,-0.002l-0,-0.001l0.007,-0.031c0.025,-0.107 0.069,-0.209 0.129,-0.299c0.054,-0.081 0.158,-0.175 0.179,-0.197c0.179,-0.176 0.583,-0.25 0.874,-0.128c0.158,0.066 0.289,0.177 0.381,0.314Zm-1.355,1.92l0.001,-0.021l-0.002,0.033l0,-0.006l0.001,-0.006Zm-5.989,-2.059l-0.001,0.002l-0.002,0.022c-0.059,0.468 0.003,0.95 0.099,1.406c-0.135,0.054 -0.15,0.293 -0.137,0.573c-0.114,-0.117 -0.227,-0.116 -0.34,-0.014c-0.116,-0.188 -0.238,-0.259 -0.364,-0.232c-0.15,-0.612 -0.262,-1.292 -0.105,-1.927c-0,0 0.008,-0.025 0.011,-0.031c0.15,-0.236 0.371,-0.194 0.633,0.008c0.076,0.058 0.144,0.123 0.206,0.193Zm1.7,0.473l-0,0c-0.202,0.421 -0.288,0.893 -0.325,1.357c-0.153,-0.05 -0.43,-0.053 -0.698,-0.053c-0.137,0.001 -0.232,-0.073 -0.286,-0.221c-0.02,-0.052 -0.063,-0.094 -0.116,-0.113c-0.008,-0.004 -0.017,-0.006 -0.025,-0.009c-0.091,-0.422 -0.152,-0.867 -0.111,-1.302l-0,-0.003l0,-0.001c0.091,-0.132 0.219,-0.238 0.373,-0.303c0.291,-0.122 0.626,-0.073 0.871,0.127c-0,0 -0,0 0.002,-0.002c0.155,0.128 0.263,0.303 0.309,0.499l0.006,0.024Zm-2.607,0.652l0.002,0l-0.004,0l0.002,0Zm-0.011,-0.001l0.003,0.001l-0.005,-0.001l0.002,0Zm-0.104,-1.222l-0,0c-0.08,0.395 -0.065,0.804 -0.006,1.202c0.032,0.01 0.067,0.016 0.105,0.02c-0.484,-0.05 -0.59,-0.483 -0.5,-1.118c0.013,-0.093 0.091,-0.164 0.185,-0.168c0.082,-0.004 0.154,0.019 0.216,0.064Zm9.469,1.218l0.061,-0.013c0.06,-0.397 0.075,-0.805 -0.003,-1.198l-0.001,-0.001c0.064,-0.049 0.138,-0.074 0.224,-0.07c0.094,0.004 0.171,0.075 0.184,0.168c0.089,0.619 -0.011,1.047 -0.465,1.114Zm-1.091,-0.988l-0.002,0.002l-0.001,0.002l0.003,-0.004l-0,-0Zm0.101,-0.131c-0.002,0.002 -0.004,0.005 -0.007,0.008c-0.002,0.002 -0.004,0.005 -0.007,0.008c0.005,-0.006 0.009,-0.011 0.014,-0.016Zm0.011,-0.012l-0.003,0.003l0.007,-0.008c-0.001,0.002 -0.003,0.003 -0.004,0.005Zm-7.547,3.242c-0.002,-0.001 -0.003,-0.001 -0.005,-0.002c0.002,0.001 0.004,0.002 0.007,0.002l-0.002,-0Zm0.032,-0.003l-0.002,0.001l0.002,-0.001Zm0.01,-0.006l-0.001,0.001l0.001,-0.001Z" style="fill:#fff;"/></g></svg>