<?xml version="1.0" encoding="UTF-8" standalone="no"?>
<!DOCTYPE svg PUBLIC "-//W3C//DTD SVG 1.1//EN" "http://www.w3.org/Graphics/SVG/1.1/DTD/svg11.dtd">
<svg width="100%" height="100%" viewBox="0 0 57 57" version="1.1" xmlns="http://www.w3.org/2000/svg" xmlns:xlink="http://www.w3.org/1999/xlink" xml:space="preserve" xmlns:serif="http://www.serif.com/" style="fill-rule:evenodd;clip-rule:evenodd;stroke-linejoin:round;stroke-miterlimit:2;">
    <g transform="matrix(0.5,0,0,0.5,-229.134,-730.255)">
        <g transform="matrix(1,0,0,1,-2065.2,1497.4)">
            <g transform="matrix(-2.467,-3.02121e-16,3.02121e-16,-2.467,8521.83,934.633)">
                <circle cx="2408.41" cy="370.776" r="20.107" style="fill:rgb(243,165,15);"/>
                <clipPath id="_clip1">
                    <circle cx="2408.41" cy="370.776" r="20.107"/>
                </clipPath>
                <g clip-path="url(#_clip1)">
                    <g transform="matrix(-0.225369,2.75997e-17,-1.31093e-17,-0.107046,2490.15,430.673)">
                        <path d="M358.433,470.659C359.916,461.142 362.27,454.901 365.219,451.17C368.2,447.399 371.847,446.161 376.035,447.153C383.497,448.92 392.867,457.974 403.012,470.331C404.147,471.713 404.535,474.774 403.879,477.163C403.222,479.552 401.768,480.369 400.634,478.987C391.164,467.453 382.469,458.739 375.504,457.09C372.477,456.374 369.82,457.016 367.665,459.741C365.564,462.399 363.999,467.011 362.945,473.79C367.387,477.338 371.663,482.164 375.78,488.212L372.06,511.407C381.571,527.743 387.649,552.615 387.649,580.453C387.649,629.619 368.689,669.536 345.337,669.536C321.984,669.536 303.024,629.619 303.024,580.453C303.024,534.173 319.823,496.089 341.273,491.779L345.319,466.556C349.839,466.781 354.209,468.162 358.433,470.659ZM345.337,501.371C366.068,501.371 382.899,536.806 382.899,580.453C382.899,624.1 366.068,659.536 345.337,659.536C324.605,659.536 307.774,624.1 307.774,580.453C307.774,536.806 324.605,501.371 345.337,501.371ZM346.89,513.313C341.067,512.905 336.031,514.252 331.67,517.503C329.941,518.792 328.346,520.438 326.856,522.343C325.294,524.34 323.863,526.665 322.58,529.321C321.555,531.443 320.624,533.783 319.807,536.333C318.642,539.968 317.678,543.981 316.913,548.361C316.219,552.333 315.674,556.55 315.309,561.097C314.831,567.064 314.645,573.417 314.691,580.343C314.663,580.995 314.892,581.573 315.202,581.631C315.511,581.69 315.786,581.209 315.814,580.557C316.658,571.293 317.937,563.328 319.489,556.22C320.511,551.54 321.702,547.402 323.02,543.596C323.922,540.991 324.893,538.589 325.934,536.33C327.242,533.494 328.642,530.874 330.233,528.588C331.786,526.357 333.456,524.349 335.309,522.623C338.686,519.477 342.506,517.073 346.952,515.683C347.263,515.646 347.501,515.086 347.484,514.432C347.466,513.778 347.2,513.277 346.89,513.313ZM399.783,490.043L399.783,508.463C399.783,511.223 400.847,513.463 402.158,513.463C403.469,513.463 404.533,511.223 404.533,508.463L404.533,490.043C404.533,487.283 403.469,485.043 402.158,485.043C400.847,485.043 399.783,487.283 399.783,490.043ZM346.348,491.397L348.66,476.978C356.278,478.483 363.413,483.704 370.106,492.336L370.106,492.337L368.031,505.273C361.736,496.828 354.313,491.791 346.348,491.397ZM395.302,482.189L389.115,495.215C388.188,497.166 388.188,500.334 389.115,502.286C390.042,504.237 391.547,504.237 392.474,502.286L398.66,489.261C399.587,487.309 399.587,484.141 398.66,482.189C397.733,480.238 396.228,480.238 395.302,482.189ZM405.59,488.924L411.776,501.949C412.703,503.9 414.208,503.9 415.135,501.949C416.062,499.998 416.062,496.829 415.135,494.878L408.948,481.853C408.022,479.902 406.517,479.902 405.59,481.853C404.663,483.804 404.663,486.973 405.59,488.924ZM409.32,479.489L418.069,479.489C419.38,479.489 420.444,477.248 420.444,474.489C420.444,471.729 419.38,469.489 418.069,469.489L409.32,469.489C408.009,469.489 406.945,471.729 406.945,474.489C406.945,477.248 408.009,479.489 409.32,479.489ZM408.789,467.264L414.975,454.239C415.902,452.287 415.902,449.119 414.975,447.167C414.048,445.216 412.543,445.216 411.617,447.167L405.43,460.193C404.503,462.144 404.503,465.312 405.43,467.264C406.357,469.215 407.862,469.215 408.789,467.264ZM404.307,459.41L404.307,440.99C404.307,438.231 403.243,435.99 401.932,435.99C400.621,435.99 399.557,438.231 399.557,440.99L399.557,459.41C399.557,462.17 400.621,464.41 401.932,464.41C403.243,464.41 404.307,462.17 404.307,459.41Z" style="fill:white;"/>
                    </g>
                </g>
                <path d="M2408.41,349.047C2396.41,349.047 2386.68,358.783 2386.68,370.776C2386.68,382.768 2396.41,392.505 2408.41,392.505C2420.4,392.505 2430.14,382.768 2430.14,370.776C2430.14,358.783 2420.4,349.047 2408.41,349.047ZM2408.41,350.669C2419.5,350.669 2428.51,359.678 2428.51,370.776C2428.51,381.874 2419.5,390.883 2408.41,390.883C2397.31,390.883 2388.3,381.874 2388.3,370.776C2388.3,359.678 2397.31,350.669 2408.41,350.669Z" style="fill:white;"/>
            </g>
        </g>
    </g>
</svg>
