<?xml version="1.0" encoding="UTF-8" standalone="no"?>
<!DOCTYPE svg PUBLIC "-//W3C//DTD SVG 1.1//EN" "http://www.w3.org/Graphics/SVG/1.1/DTD/svg11.dtd">
<svg width="100%" height="100%" viewBox="0 0 57 57" version="1.1" xmlns="http://www.w3.org/2000/svg" xmlns:xlink="http://www.w3.org/1999/xlink" xml:space="preserve" xmlns:serif="http://www.serif.com/" style="fill-rule:evenodd;clip-rule:evenodd;stroke-linejoin:round;stroke-miterlimit:2;">
    <g transform="matrix(0.5,0,0,0.5,-142.524,-730.255)">
        <g transform="matrix(1,0,0,1,-2065.2,1497.4)">
            <g transform="matrix(-2.467,-3.02121e-16,3.02121e-16,-2.467,8348.61,934.633)">
                <circle cx="2408.41" cy="370.776" r="20.107" style="fill:rgb(255,44,0);"/>
                <clipPath id="_clip1">
                    <circle cx="2408.41" cy="370.776" r="20.107"/>
                </clipPath>
                <g clip-path="url(#_clip1)">
                    <g transform="matrix(-1,1.22465e-16,-1.22465e-16,-1,4817.48,481.593)">
                        <path d="M2398.49,100.231C2392.68,106.039 2392.7,115.5 2398.55,121.346C2404.39,127.192 2413.86,127.212 2419.66,121.404C2425.47,115.596 2425.45,106.134 2419.61,100.288C2413.76,94.442 2404.3,94.423 2398.49,100.231ZM2418.69,102.952C2422.72,107.857 2422.47,115.102 2417.91,119.656C2413.36,124.21 2406.12,124.462 2401.21,120.43L2418.69,102.952ZM2416.94,101.205L2399.46,118.682C2395.43,113.778 2395.68,106.532 2400.24,101.979C2404.79,97.425 2412.04,97.172 2416.94,101.205Z" style="fill:white;"/>
                    </g>
                </g>
                <path d="M2408.41,349.047C2396.41,349.047 2386.68,358.783 2386.68,370.776C2386.68,382.768 2396.41,392.505 2408.41,392.505C2420.4,392.505 2430.14,382.768 2430.14,370.776C2430.14,358.783 2420.4,349.047 2408.41,349.047ZM2408.41,350.669C2419.5,350.669 2428.51,359.678 2428.51,370.776C2428.51,381.874 2419.5,390.883 2408.41,390.883C2397.31,390.883 2388.3,381.874 2388.3,370.776C2388.3,359.678 2397.31,350.669 2408.41,350.669Z" style="fill:white;"/>
            </g>
        </g>
    </g>
</svg>
