<?xml version="1.0" encoding="UTF-8" standalone="no"?><!DOCTYPE svg PUBLIC "-//W3C//DTD SVG 1.1//EN" "http://www.w3.org/Graphics/SVG/1.1/DTD/svg11.dtd"><svg width="100%" height="100%" viewBox="0 0 28 70" version="1.1" xmlns="http://www.w3.org/2000/svg" xmlns:xlink="http://www.w3.org/1999/xlink" xml:space="preserve" xmlns:serif="http://www.serif.com/" style="fill-rule:evenodd;clip-rule:evenodd;stroke-linejoin:round;stroke-miterlimit:2;"><rect x="0" y="0" width="27.5" height="70" style="fill:none;"/><g><g><path d="M13.587,28.665c2.266,-3.355 6.799,-3.355 9.065,-1.677c2.267,1.677 2.267,5.032 0,8.387c-1.586,2.516 -5.666,5.033 -9.065,6.71c-3.4,-1.677 -7.479,-4.194 -9.066,-6.71c-2.266,-3.355 -2.266,-6.71 0,-8.387c2.266,-1.678 6.799,-1.678 9.066,1.677Z" style="fill-opacity:0.49;"/><path d="M13.587,26.397c-2.988,-2.671 -7.529,-2.413 -9.958,-0.615c-2.818,2.086 -3.171,6.248 -0.36,10.419c1.706,2.685 6.019,5.436 9.654,7.229c0.418,0.207 0.909,0.207 1.327,0c3.636,-1.794 7.951,-4.546 9.66,-7.237c2.805,-4.166 2.451,-8.326 -0.366,-10.411c-2.429,-1.798 -6.97,-2.056 -9.957,0.615Zm-0,2.268c2.266,-3.355 6.799,-3.355 9.065,-1.677c2.267,1.677 2.267,5.032 0,8.387c-1.586,2.516 -5.666,5.033 -9.065,6.71c-3.4,-1.677 -7.479,-4.194 -9.066,-6.71c-2.266,-3.355 -2.266,-6.71 0,-8.387c2.266,-1.678 6.799,-1.678 9.066,1.677Z" style="fill:#fff;"/></g></g></svg>