<?xml version="1.0" encoding="UTF-8" standalone="no"?><!DOCTYPE svg PUBLIC "-//W3C//DTD SVG 1.1//EN" "http://www.w3.org/Graphics/SVG/1.1/DTD/svg11.dtd"><svg width="100%" height="100%" viewBox="0 0 28 70" version="1.1" xmlns="http://www.w3.org/2000/svg" xmlns:xlink="http://www.w3.org/1999/xlink" xml:space="preserve" xmlns:serif="http://www.serif.com/" style="fill-rule:evenodd;clip-rule:evenodd;stroke-linejoin:round;stroke-miterlimit:2;"><rect x="0" y="0" width="27.5" height="70" style="fill:none;"/><g><g><path d="M8.662,24.878l-7.544,7.544c-0.736,0.736 -0.736,1.932 0,2.669l7.544,7.543l-0,18.931c-0,0.203 0.077,0.397 0.216,0.544l3.928,4.155c0.151,0.161 0.363,0.25 0.583,0.248c0.221,-0.002 0.43,-0.096 0.578,-0.26l3.769,-4.155c0.132,-0.146 0.205,-0.335 0.205,-0.532l0,-18.622l7.852,-7.852c0.737,-0.737 0.737,-1.933 0,-2.669l-7.852,-7.852l0,-5.763l1.975,0c0.238,0 0.464,-0.107 0.614,-0.293c0.15,-0.185 0.209,-0.428 0.16,-0.661c-0.202,-0.959 -0.667,-1.889 -1.397,-2.785c-0.622,-0.771 -1.559,-1.219 -2.55,-1.219c-0.131,0 -0.27,0 -0.418,0l-0,-1.858c0.009,-0.049 0.014,-0.1 0.014,-0.151c0,-0.052 -0.005,-0.102 -0.014,-0.151l-0,-3.106c0.009,-0.049 0.014,-0.1 0.014,-0.151c0,-0.052 -0.005,-0.103 -0.014,-0.152l-0,-2.93c0.566,-0.446 0.93,-1.138 0.93,-1.914c-0,-1.344 -1.092,-2.436 -2.436,-2.436c-0,0 -3.08,0 -3.08,0c-1.345,0 -2.436,1.092 -2.436,2.436c-0,0.794 0.38,1.499 0.968,1.944l-0,2.9c-0.01,0.049 -0.015,0.1 -0.015,0.152c0,0.051 0.005,0.102 0.015,0.151l-0,3.106c-0.01,0.049 -0.015,0.099 -0.015,0.151c0,0.051 0.005,0.102 0.015,0.151l-0,1.857l-0.189,0c-0.865,0 -1.695,0.342 -2.309,0.95c-1.097,1.077 -1.616,2.177 -1.565,3.255c0.02,0.422 0.368,0.754 0.791,0.754l1.663,0l-0,6.071Zm1.583,19.339l-0,17.034c-0,-0 3.124,3.305 3.124,3.305c0,-0 2.989,-3.296 2.989,-3.296l0,-16.734l-1.568,1.568c-0.211,0.211 -0.461,0.362 -0.728,0.445l-0,11.561c-0,0.436 -0.355,0.791 -0.792,0.791c-0.437,0 -0.791,-0.355 -0.791,-0.791l-0,-11.732c-0.129,-0.072 -0.248,-0.165 -0.358,-0.274l-1.876,-1.877Zm3.357,-21.823c-0.14,-0.056 -0.307,-0.028 -0.42,0.085l-11.003,11.004c-0.151,0.151 -0.151,0.396 0,0.547l11.003,11.003l0.093,0.062c0.144,0.084 0.331,0.062 0.455,-0.062l11.003,-11.003c0.151,-0.151 0.151,-0.396 -0,-0.547l-11.003,-11.004l-0.128,-0.085Zm-1.123,-1.249l-0,-2.338l-2.234,0l-0,4.488l1.876,-1.876c0.11,-0.109 0.229,-0.202 0.358,-0.274Zm3.879,1.842l0,-4.18l-2.296,0l-0,2.167c0.267,0.083 0.517,0.233 0.728,0.445l1.568,1.568Zm0.795,-5.763l1.66,0c-0.188,-0.392 -0.438,-0.778 -0.747,-1.157c-0.001,-0.001 -0.002,-0.002 -0.003,-0.003c-0.322,-0.4 -0.807,-0.632 -1.32,-0.632c-0,0 -0.001,0 -0.001,0c-1.713,-0.001 -5.053,-0.001 -6.66,-0.001c-0,-0 -0,-0 -0,-0c-0.448,-0 -0.878,0.177 -1.196,0.492c-0.001,0.002 -0.002,0.003 -0.003,0.004c-0.448,0.439 -0.78,0.867 -0.956,1.297l9.226,0Zm-2.382,-3.375l0,-1.218l-2.946,0l-0,1.217c0.931,0 1.985,0 2.946,0.001Zm-2.946,-4.626l-0,1.825l2.946,0l0,-1.825l-2.946,0Zm-0,-3.351l-0,1.768l2.946,0l0,-1.768l-2.946,0Zm3.723,-2.436c-0,0.403 -0.327,0.729 -0.729,0.729c-0,0 -3.08,0 -3.08,0c-0.403,0 -0.729,-0.326 -0.729,-0.729c-0,-0.402 0.326,-0.729 0.729,-0.729l3.08,0c0.402,0 0.729,0.327 0.729,0.729Z" style="fill:#fff;"/><path d="M13.73,22.72c-0.152,-0.151 -0.397,-0.151 -0.548,-0l-11.003,11.003c-0.151,0.151 -0.151,0.396 0,0.547l11.003,11.003c0.151,0.152 0.396,0.152 0.548,0l11.003,-11.003c0.151,-0.151 0.151,-0.396 -0,-0.547l-11.003,-11.003Z" style="fill-opacity:0.5;"/></g></g></svg>