<?xml version="1.0" encoding="UTF-8" standalone="no"?>
<!DOCTYPE svg PUBLIC "-//W3C//DTD SVG 1.1//EN" "http://www.w3.org/Graphics/SVG/1.1/DTD/svg11.dtd">
<svg width="100%" height="100%" viewBox="0 0 57 57" version="1.1" xmlns="http://www.w3.org/2000/svg" xmlns:xlink="http://www.w3.org/1999/xlink" xml:space="preserve" xmlns:serif="http://www.serif.com/" style="fill-rule:evenodd;clip-rule:evenodd;stroke-linejoin:round;stroke-miterlimit:2;">
    <g transform="matrix(0.5,0,0,0.5,-55.9138,-730.255)">
        <g transform="matrix(1,0,0,1,-2065.2,1497.4)">
            <g transform="matrix(-2.467,-3.02121e-16,3.02121e-16,-2.467,8175.39,934.633)">
                <circle cx="2408.41" cy="370.776" r="20.107" style="fill:rgb(191,0,255);"/>
                <clipPath id="_clip1">
                    <circle cx="2408.41" cy="370.776" r="20.107"/>
                </clipPath>
                <g clip-path="url(#_clip1)">
                    <g transform="matrix(1,0,0,1,1.08646,-1.01303)">
                        <g transform="matrix(-0.608167,7.4479e-17,-8.63138e-17,-0.704806,3870.63,450.377)">
                            <path d="M2425.86,99.363C2425.86,98.999 2425.66,98.655 2425.32,98.438C2424.97,98.222 2424.54,98.157 2424.13,98.264L2410.33,101.915C2409.76,102.063 2409.38,102.509 2409.38,103.015L2409.38,122.171C2409.38,122.752 2409.89,123.241 2410.55,123.312L2424.36,124.785C2424.74,124.826 2425.12,124.724 2425.41,124.506C2425.69,124.287 2425.86,123.974 2425.86,123.644L2425.86,99.363ZM2424.52,99.363L2424.52,123.644L2410.72,122.171L2410.72,103.015L2424.52,99.363Z" style="fill:white;"/>
                        </g>
                        <g transform="matrix(0.608167,-7.4479e-17,-8.63138e-17,-0.704806,944.005,450.377)">
                            <path d="M2424.13,98.264C2424.54,98.157 2424.97,98.222 2425.32,98.438C2425.66,98.655 2425.86,98.999 2425.86,99.363L2425.86,123.644C2425.86,123.974 2425.69,124.287 2425.41,124.506C2425.12,124.724 2424.74,124.826 2424.36,124.785L2410.55,123.312C2409.89,123.241 2409.38,122.752 2409.38,122.171L2409.38,103.015C2409.38,102.509 2409.76,102.063 2410.33,101.915L2424.13,98.264ZM2424.52,99.363L2424.52,123.644L2410.72,122.171L2410.72,103.015L2424.52,99.363Z" style="fill:white;"/>
                        </g>
                    </g>
                </g>
                <path d="M2408.41,349.047C2396.41,349.047 2386.68,358.783 2386.68,370.776C2386.68,382.768 2396.41,392.505 2408.41,392.505C2420.4,392.505 2430.14,382.768 2430.14,370.776C2430.14,358.783 2420.4,349.047 2408.41,349.047ZM2408.41,350.669C2419.5,350.669 2428.51,359.678 2428.51,370.776C2428.51,381.874 2419.5,390.883 2408.41,390.883C2397.31,390.883 2388.3,381.874 2388.3,370.776C2388.3,359.678 2397.31,350.669 2408.41,350.669Z" style="fill:white;"/>
            </g>
        </g>
    </g>
</svg>
