<?xml version="1.0" encoding="UTF-8" standalone="no"?>
<!DOCTYPE svg PUBLIC "-//W3C//DTD SVG 1.1//EN" "http://www.w3.org/Graphics/SVG/1.1/DTD/svg11.dtd">
<svg width="100%" height="100%" viewBox="0 0 57 57" version="1.1" xmlns="http://www.w3.org/2000/svg" xmlns:xlink="http://www.w3.org/1999/xlink" xml:space="preserve" xmlns:serif="http://www.serif.com/" style="fill-rule:evenodd;clip-rule:evenodd;stroke-linejoin:round;stroke-miterlimit:2;">
    <g transform="matrix(0.5,0,0,0.5,-402.354,-730.255)">
        <g transform="matrix(1,0,0,1,-2065.2,1497.4)">
            <g transform="matrix(-2.467,-3.02121e-16,3.02121e-16,-2.467,8868.27,934.633)">
                <circle cx="2408.41" cy="370.776" r="20.107" style="fill:rgb(77,77,77);"/>
                <clipPath id="_clip1">
                    <circle cx="2408.41" cy="370.776" r="20.107"/>
                </clipPath>
                <g clip-path="url(#_clip1)">
                    <g transform="matrix(-5.52096e-17,0.832847,0.994567,2.53007e-32,1128.08,-278.328)">
                        <path d="M779.856,1291.77L779.856,1300.15L764.452,1287.25L779.856,1274.35L779.856,1282.74L794.47,1282.74L794.47,1291.77L779.856,1291.77Z" style="fill:white;"/>
                    </g>
                </g>
                <path d="M2408.41,349.047C2396.41,349.047 2386.68,358.783 2386.68,370.776C2386.68,382.768 2396.41,392.505 2408.41,392.505C2420.4,392.505 2430.14,382.768 2430.14,370.776C2430.14,358.783 2420.4,349.047 2408.41,349.047ZM2408.41,350.669C2419.5,350.669 2428.51,359.678 2428.51,370.776C2428.51,381.874 2419.5,390.883 2408.41,390.883C2397.31,390.883 2388.3,381.874 2388.3,370.776C2388.3,359.678 2397.31,350.669 2408.41,350.669Z" style="fill:white;"/>
            </g>
        </g>
    </g>
</svg>
