<?xml version="1.0" encoding="UTF-8" standalone="no"?><!DOCTYPE svg PUBLIC "-//W3C//DTD SVG 1.1//EN" "http://www.w3.org/Graphics/SVG/1.1/DTD/svg11.dtd"><svg width="100%" height="100%" viewBox="0 0 17 17" version="1.1" xmlns="http://www.w3.org/2000/svg" xmlns:xlink="http://www.w3.org/1999/xlink" xml:space="preserve" xmlns:serif="http://www.serif.com/" style="fill-rule:evenodd;clip-rule:evenodd;stroke-linejoin:round;stroke-miterlimit:2;"><path d="M8.419,-0c4.646,-0 8.419,3.772 8.419,8.419c-0,4.646 -3.773,8.419 -8.419,8.419c-4.647,-0 -8.419,-3.773 -8.419,-8.419c0,-4.647 3.772,-8.419 8.419,-8.419Zm-0,0.631c4.298,0 7.788,3.49 7.788,7.788c-0,4.298 -3.49,7.788 -7.788,7.788c-4.298,-0 -7.788,-3.49 -7.788,-7.788c0,-4.298 3.49,-7.788 7.788,-7.788Zm-6.793,7.626c-0.056,-0.21 0.069,-0.427 0.28,-0.484l1.248,-0.334c0.211,-0.057 0.428,0.068 0.484,0.279c0.057,0.211 -0.068,0.428 -0.279,0.484l-1.249,0.335c-0.211,0.056 -0.427,-0.069 -0.484,-0.28Zm0.19,1.764c-0.109,-0.189 -0.045,-0.431 0.144,-0.54l1.12,-0.646c0.189,-0.11 0.431,-0.045 0.54,0.144c0.109,0.189 0.044,0.431 -0.145,0.54l-1.119,0.647c-0.189,0.109 -0.431,0.044 -0.54,-0.145Zm0.083,-3.516c0,-0.218 0.177,-0.396 0.396,-0.396l1.292,0c0.219,0 0.396,0.178 0.396,0.396c-0,0.218 -0.177,0.395 -0.396,0.395l-1.292,0c-0.219,0 -0.396,-0.177 -0.396,-0.395Zm0.556,5.17c-0.154,-0.154 -0.154,-0.404 0,-0.559l0.914,-0.914c0.155,-0.154 0.405,-0.154 0.56,0c0.154,0.155 0.154,0.405 -0,0.559l-0.914,0.914c-0.155,0.155 -0.405,0.155 -0.56,0Zm0.543,-7.085l0.055,0.003l0.048,0.01l1.249,0.335c0.047,0.012 0.091,0.033 0.129,0.061l0.054,0.047l0.04,0.05l0.024,0.04l0.019,0.041c0.029,0.076 0.036,0.161 0.013,0.245c-0.044,0.163 -0.184,0.275 -0.343,0.291l-0.037,0.002c-0.035,0 -0.069,-0.004 -0.104,-0.014l-1.249,-0.334c-0.21,-0.057 -0.336,-0.273 -0.279,-0.484l0.023,-0.064c0.065,-0.14 0.205,-0.229 0.358,-0.229Zm0.503,8.518c-0.189,-0.109 -0.253,-0.351 -0.144,-0.54l0.646,-1.12c0.109,-0.189 0.351,-0.253 0.54,-0.144c0.189,0.109 0.254,0.351 0.145,0.54l-0.646,1.119c-0.11,0.189 -0.351,0.254 -0.541,0.145Zm1.515,-8.409c-0.008,-0.003 -0.015,-0.007 -0.022,-0.011l-1.119,-0.646c-0.189,-0.11 -0.254,-0.351 -0.145,-0.541c0.102,-0.176 0.319,-0.244 0.501,-0.164l0.039,0.02l1.13,0.653l0.049,0.035c0.142,0.122 0.182,0.331 0.085,0.498c-0.073,0.127 -0.207,0.198 -0.343,0.198l-0.008,-0c-0.03,-0.001 -0.06,-0.005 -0.09,-0.013l-0.072,-0.026l-0.005,-0.003Zm-0.133,9.522c-0.211,-0.057 -0.336,-0.274 -0.28,-0.484l0.335,-1.249c0.056,-0.211 0.273,-0.336 0.484,-0.28c0.211,0.057 0.336,0.274 0.279,0.485l-0.334,1.248c-0.057,0.211 -0.273,0.336 -0.484,0.28Zm3.536,-9.609c2.101,-0 3.807,1.706 3.807,3.807c0,2.101 -1.706,3.807 -3.807,3.807c-2.101,0 -3.807,-1.706 -3.807,-3.807c-0,-2.101 1.706,-3.807 3.807,-3.807Zm-3.313,-1.669c-0.095,-0.152 -0.076,-0.355 0.056,-0.488c0.083,-0.082 0.193,-0.121 0.301,-0.115l0.064,0.009l0.074,0.024l0.069,0.039c0.018,0.013 0.035,0.027 0.051,0.043l0.914,0.914l0.048,0.058l0.031,0.053c0.069,0.147 0.043,0.327 -0.079,0.449c-0.088,0.088 -0.207,0.125 -0.322,0.113l-0.069,-0.014l-0.072,-0.029l-0.066,-0.043l-0.03,-0.027l-0.914,-0.914l-0.045,-0.055c-0.004,-0.005 -0.008,-0.011 -0.011,-0.017Zm3.313,2.62c1.576,0 2.855,1.28 2.855,2.856c0,1.576 -1.279,2.855 -2.855,2.855c-1.576,0 -2.856,-1.279 -2.856,-2.855c0,-1.576 1.28,-2.856 2.856,-2.856Zm-1.914,9.375c-0.218,0 -0.396,-0.177 -0.396,-0.395l0,-1.293c0,-0.218 0.178,-0.395 0.396,-0.395c0.218,0 0.395,0.177 0.395,0.395l0,1.293c0,0.218 -0.177,0.395 -0.395,0.395Zm4.158,-6.512l0,-0c0,1.239 -1.005,2.244 -2.244,2.244c-1.24,0 -2.245,-1.005 -2.245,-2.244l0.001,-0l-0.001,-0.007c0,-1.239 1.006,-2.245 2.245,-2.245c1.239,0 2.244,1.006 2.244,2.245l0,0.007Zm-3.337,-4.939c-0.003,-0.004 -0.005,-0.008 -0.008,-0.012l-0.646,-1.119c-0.109,-0.189 -0.044,-0.431 0.145,-0.54c0.132,-0.076 0.289,-0.068 0.409,0.008l0.008,0.005c0.049,0.033 0.091,0.077 0.123,0.131l0.646,1.12l0.017,0.033c0.084,0.183 0.017,0.404 -0.162,0.507c-0.149,0.086 -0.332,0.064 -0.456,-0.043l-0.054,-0.057l-0.022,-0.033Zm2.776,4.939l0,-0.007c0,-0.929 -0.754,-1.684 -1.683,-1.684c-0.929,0 -1.684,0.755 -1.684,1.684l0.001,0.007l0.561,-0c-0,0.62 0.502,1.122 1.122,1.122c0.62,0 1.122,-0.502 1.122,-1.122l0.561,-0Zm-1.845,6.786c-0.21,0.056 -0.427,-0.069 -0.484,-0.28l-0.334,-1.249c-0.057,-0.21 0.068,-0.427 0.279,-0.484c0.211,-0.056 0.428,0.069 0.484,0.28l0.335,1.248c0.056,0.211 -0.069,0.428 -0.28,0.485Zm0.162,-7.569c0.428,0 0.775,0.348 0.775,0.776c0,0.428 -0.347,0.775 -0.775,0.775c-0.428,0 -0.776,-0.347 -0.776,-0.775c0,-0.428 0.348,-0.776 0.776,-0.776Zm0.015,-5.942c0.042,-0.034 0.091,-0.06 0.146,-0.075c0.211,-0.056 0.428,0.069 0.485,0.28l0.334,1.248c0.04,0.149 -0.011,0.301 -0.119,0.398l-0.058,0.043c-0.003,0.002 -0.006,0.003 -0.009,0.005c-0.029,0.016 -0.06,0.029 -0.093,0.038c-0.211,0.057 -0.428,-0.068 -0.485,-0.279l-0.334,-1.249c-0.025,-0.091 -0.015,-0.183 0.021,-0.263l0.033,-0.06l0.044,-0.055l0.035,-0.031Zm1.587,13.321c-0.189,0.109 -0.431,0.044 -0.54,-0.145l-0.646,-1.119c-0.11,-0.189 -0.045,-0.431 0.144,-0.54c0.189,-0.109 0.431,-0.045 0.54,0.144l0.647,1.12c0.109,0.189 0.044,0.431 -0.145,0.54Zm0.312,-13.123c0.218,0 0.395,0.177 0.395,0.396l0,1.292c0,0.219 -0.177,0.396 -0.395,0.396c-0.218,-0 -0.395,-0.177 -0.395,-0.396l-0,-1.292c-0,-0.219 0.177,-0.396 0.395,-0.396Zm1.342,12.483c-0.154,0.155 -0.404,0.155 -0.559,0l-0.914,-0.914c-0.154,-0.154 -0.154,-0.404 0,-0.559c0.155,-0.154 0.405,-0.154 0.559,0l0.914,0.914c0.155,0.155 0.155,0.405 0,0.559Zm0.28,-11.765c0.211,0.056 0.336,0.273 0.28,0.484l-0.335,1.249c-0.056,0.211 -0.273,0.336 -0.484,0.279c-0.211,-0.056 -0.336,-0.273 -0.28,-0.484l0.335,-1.249c0.056,-0.21 0.273,-0.336 0.484,-0.279Zm1.153,10.719c-0.109,0.189 -0.351,0.254 -0.54,0.145l-1.12,-0.646c-0.189,-0.11 -0.253,-0.351 -0.144,-0.54c0.109,-0.19 0.351,-0.254 0.54,-0.145l1.119,0.646c0.189,0.109 0.254,0.351 0.145,0.54Zm0.228,-9.606c0.189,0.109 0.254,0.351 0.145,0.54l-0.646,1.119c-0.11,0.189 -0.351,0.254 -0.54,0.145c-0.19,-0.109 -0.254,-0.351 -0.145,-0.54l0.646,-1.119c0.109,-0.189 0.351,-0.254 0.54,-0.145Zm0.885,8.225c-0.057,0.211 -0.274,0.336 -0.484,0.28l-1.249,-0.335c-0.211,-0.056 -0.336,-0.273 -0.28,-0.484c0.057,-0.211 0.274,-0.336 0.485,-0.28l1.248,0.335c0.211,0.056 0.336,0.273 0.28,0.484Zm0.161,-6.793c0.155,0.155 0.155,0.405 0,0.559l-0.914,0.914c-0.154,0.155 -0.404,0.155 -0.559,0c-0.154,-0.154 -0.154,-0.404 0,-0.559l0.914,-0.914c0.155,-0.154 0.405,-0.154 0.559,0Zm0.556,5.171c0,0.218 -0.177,0.395 -0.395,0.395l-1.293,0c-0.218,0 -0.395,-0.177 -0.395,-0.395c0,-0.218 0.177,-0.395 0.395,-0.395l1.293,-0c0.218,-0 0.395,0.177 0.395,0.395Zm0.084,-3.516c0.109,0.189 0.044,0.431 -0.145,0.54l-1.119,0.646c-0.189,0.109 -0.431,0.044 -0.54,-0.145c-0.109,-0.189 -0.045,-0.43 0.144,-0.54l1.12,-0.646c0.189,-0.109 0.431,-0.044 0.54,0.145Zm0.19,1.763c0.056,0.211 -0.069,0.428 -0.28,0.485l-1.249,0.334c-0.21,0.057 -0.427,-0.069 -0.484,-0.279c-0.056,-0.211 0.069,-0.428 0.28,-0.485l1.248,-0.334c0.211,-0.057 0.428,0.068 0.485,0.279Z"/></svg>