<?xml version="1.0" encoding="UTF-8" standalone="no"?><!DOCTYPE svg PUBLIC "-//W3C//DTD SVG 1.1//EN" "http://www.w3.org/Graphics/SVG/1.1/DTD/svg11.dtd"><svg width="100%" height="100%" viewBox="0 0 24 24" version="1.1" xmlns="http://www.w3.org/2000/svg" xmlns:xlink="http://www.w3.org/1999/xlink" xml:space="preserve" xmlns:serif="http://www.serif.com/" style="fill-rule:evenodd;clip-rule:evenodd;stroke-linejoin:round;stroke-miterlimit:2;"><path d="M12,24l-12,-12.001l12,-11.999l12,11.999l-12,12.001Zm0.479,-1.834l2.43,-2.431l-2.43,-14.431l-0,16.862Zm-3.17,-2.213l2.212,2.213l-0,-15.35l-2.212,13.137Zm-4.16,-4.16l3.328,3.329l2.521,-14.974l-5.849,11.645Zm10.592,3.111l3.28,-3.28l-5.765,-11.477l2.485,14.757Zm-12.957,-5.475l1.651,1.651l5.066,-10.087l-6.717,8.436Zm16.951,1.481l1.622,-1.623l-6.604,-8.294l4.982,9.917Zm-18.38,-2.911l0.747,0.748l5.842,-7.336l-6.589,6.588Zm15.95,-5.34l4.734,5.946l0.606,-0.606l-5.34,-5.34Z" style="fill-rule:nonzero;"/></svg>