<?xml version="1.0" encoding="UTF-8" standalone="no"?><!DOCTYPE svg PUBLIC "-//W3C//DTD SVG 1.1//EN" "http://www.w3.org/Graphics/SVG/1.1/DTD/svg11.dtd"><svg width="100%" height="100%" viewBox="0 0 19 18" version="1.1" xmlns="http://www.w3.org/2000/svg" xmlns:xlink="http://www.w3.org/1999/xlink" xml:space="preserve" xmlns:serif="http://www.serif.com/" style="fill-rule:evenodd;clip-rule:evenodd;stroke-linejoin:round;stroke-miterlimit:2;"><path d="M5.546,9.294l-5.546,-0c-0,-2.466 0.979,-4.83 2.723,-6.573c3.627,-3.628 9.518,-3.628 13.145,-0c1.744,1.743 2.723,4.107 2.723,6.573l-5.639,-0l0,2.77l2.134,0c0.213,0 0.386,0.173 0.386,0.386l-0,1.433c0.358,0.168 0.606,0.532 0.606,0.953c0,0.579 -0.471,1.051 -1.051,1.051c-0.58,0 -1.052,-0.472 -1.052,-1.051c0,-0.466 0.304,-0.862 0.724,-1l0,-1l-2.133,0c-0.213,0 -0.386,-0.172 -0.386,-0.386l0,-3.156l-1.002,-0l0,6.663c0.408,0.144 0.702,0.534 0.702,0.991c-0,0.58 -0.472,1.052 -1.052,1.052c-0.58,0 -1.051,-0.472 -1.051,-1.052c-0,-0.429 0.259,-0.8 0.629,-0.963l-0,-6.691l-0,-0c-0,-0.295 -0.117,-0.577 -0.326,-0.785c-0.433,-0.434 -1.136,-0.434 -1.569,-0c-0.209,0.208 -0.326,0.49 -0.326,0.785l-0.001,-0l-0,6.691c0.37,0.163 0.629,0.534 0.629,0.963c-0,0.58 -0.472,1.052 -1.052,1.052c-0.58,0 -1.051,-0.472 -1.051,-1.052c-0,-0.457 0.293,-0.847 0.701,-0.991l0,-6.663l-1.093,-0l-0,3.156c-0,0.214 -0.173,0.386 -0.386,0.386l-2.133,0l-0,1c0.42,0.138 0.724,0.534 0.724,1c-0,0.579 -0.472,1.051 -1.052,1.051c-0.579,0 -1.051,-0.472 -1.051,-1.051c-0,-0.421 0.248,-0.785 0.606,-0.953l0,-1.433c0,-0.213 0.173,-0.386 0.386,-0.386l2.134,0l-0,-2.77Zm-4.345,1.343c-0,-0.214 0.173,-0.386 0.386,-0.386l2.831,-0c0.213,-0 0.386,0.172 0.386,0.386c0,0.213 -0.173,0.386 -0.386,0.386l-2.831,-0c-0.213,-0 -0.386,-0.173 -0.386,-0.386Zm8.481,-0c0,-0.212 -0.172,-0.384 -0.384,-0.384c-0.211,-0 -0.384,0.172 -0.384,0.384c0,0.211 0.173,0.384 0.384,0.384c0.212,-0 0.384,-0.173 0.384,-0.384Zm7.717,-0c-0,-0.212 -0.172,-0.383 -0.383,-0.383l-2.807,0c-0.211,0 -0.383,0.171 -0.383,0.383c0,0.211 0.172,0.382 0.383,0.382l2.807,0c0.211,0 0.383,-0.171 0.383,-0.382Zm-7.717,-1.601c0,-0.211 -0.172,-0.384 -0.384,-0.384c-0.211,0 -0.384,0.173 -0.384,0.384c0,0.212 0.173,0.384 0.384,0.384c0.212,0 0.384,-0.172 0.384,-0.384Zm2.395,-0.838c-0.383,-1.242 -1.496,-2.14 -2.809,-2.14c-1.314,-0 -2.426,0.898 -2.809,2.14c0.555,0 0.922,0 0.922,0c0.096,-0.168 0.215,-0.324 0.355,-0.464c0.861,-0.861 2.258,-0.861 3.119,0c0.14,0.14 0.258,0.296 0.355,0.464l0.867,0Zm0.8,0l4.545,0l-0,0c-0.239,-1.77 -1.051,-3.425 -2.328,-4.703c-3.2,-3.2 -8.397,-3.2 -11.597,0c-1.277,1.278 -2.089,2.933 -2.328,4.703c-0,0 2.651,0 4.49,0c0.404,-1.693 1.867,-2.946 3.609,-2.946c1.742,-0 3.204,1.253 3.609,2.946Zm-10.686,-0.687c0,-0.213 0.173,-0.386 0.386,-0.386l1.841,0c0.213,0 0.386,0.173 0.386,0.386c0,0.213 -0.173,0.386 -0.386,0.386l-1.841,0c-0.213,0 -0.386,-0.173 -0.386,-0.386Zm13.877,-0.013c-0,-0.211 -0.172,-0.382 -0.383,-0.382l-1.825,-0c-0.211,-0 -0.383,0.171 -0.383,0.382c0,0.212 0.172,0.383 0.383,0.383l1.825,-0c0.211,-0 0.383,-0.171 0.383,-0.383Zm-13.298,-1.081c-0,-0.214 0.173,-0.386 0.386,-0.386l1.262,-0c0.213,-0 0.386,0.172 0.386,0.386c0,0.213 -0.173,0.386 -0.386,0.386l-1.262,-0c-0.213,-0 -0.386,-0.173 -0.386,-0.386Zm12.724,-0.004c0,-0.211 -0.171,-0.382 -0.383,-0.382l-1.251,-0c-0.211,-0 -0.383,0.171 -0.383,0.382c0,0.212 0.172,0.383 0.383,0.383l1.251,-0c0.212,-0 0.383,-0.171 0.383,-0.383Z"/></svg>