<?xml version="1.0" encoding="UTF-8" standalone="no"?><!DOCTYPE svg PUBLIC "-//W3C//DTD SVG 1.1//EN" "http://www.w3.org/Graphics/SVG/1.1/DTD/svg11.dtd"><svg width="100%" height="100%" viewBox="0 0 17 24" version="1.1" xmlns="http://www.w3.org/2000/svg" xmlns:xlink="http://www.w3.org/1999/xlink" xml:space="preserve" xmlns:serif="http://www.serif.com/" style="fill-rule:evenodd;clip-rule:evenodd;stroke-linejoin:round;stroke-miterlimit:2;"><path d="M6.339,1.258c-1.695,3.299 -4.16,8.096 -5.073,9.872c-0.28,0.546 -0.28,1.194 0,1.74c0.913,1.776 3.378,6.573 5.073,9.872c0.397,0.772 1.192,1.258 2.061,1.258c0.868,-0 1.664,-0.486 2.061,-1.258c1.695,-3.299 4.16,-8.096 5.073,-9.872c0.28,-0.546 0.28,-1.194 -0,-1.74c-0.913,-1.776 -3.378,-6.573 -5.073,-9.872c-0.397,-0.772 -1.193,-1.258 -2.061,-1.258c-0.869,0 -1.664,0.486 -2.061,1.258Zm0.683,0.351c0.266,-0.516 0.797,-0.841 1.378,-0.841c0.58,0 1.112,0.325 1.378,0.841c1.695,3.299 4.16,8.096 5.072,9.872c0.168,0.326 0.168,0.712 0,1.038c-0.912,1.776 -3.377,6.573 -5.072,9.872c-0.266,0.516 -0.798,0.841 -1.378,0.841c-0.581,-0 -1.112,-0.325 -1.378,-0.841c-1.695,-3.299 -4.16,-8.096 -5.073,-9.872c-0.167,-0.326 -0.167,-0.712 0,-1.038l5.073,-9.872Zm-6.361,13.471c-0.238,0.005 -0.47,-0.122 -0.587,-0.348c-0.166,-0.317 -0.043,-0.709 0.274,-0.874c0.317,-0.166 0.709,-0.043 0.875,0.274c0.117,0.226 0.089,0.489 -0.051,0.682l3.485,6.676c0.238,-0.004 0.47,0.123 0.588,0.348c0.165,0.317 0.042,0.709 -0.275,0.875c-0.317,0.165 -0.709,0.042 -0.874,-0.275c-0.118,-0.225 -0.09,-0.488 0.05,-0.681l-3.485,-6.677Zm14.904,-0.266c-0.14,-0.193 -0.169,-0.456 -0.051,-0.682c0.166,-0.317 0.557,-0.44 0.874,-0.274c0.318,0.165 0.441,0.557 0.275,0.874c-0.117,0.226 -0.349,0.353 -0.588,0.348l-3.484,6.677c0.14,0.193 0.168,0.456 0.05,0.681c-0.165,0.317 -0.557,0.44 -0.874,0.275c-0.317,-0.166 -0.44,-0.558 -0.275,-0.875c0.118,-0.225 0.35,-0.352 0.588,-0.348l3.485,-6.676Zm-6.756,7.505l-0.05,-20.562c-0.001,-0.212 -0.173,-0.384 -0.385,-0.383c-0.212,0.001 -0.384,0.173 -0.383,0.385l0.05,20.562c0,0.212 0.173,0.383 0.385,0.383c0.212,-0.001 0.384,-0.173 0.383,-0.385Zm0.549,-0.396l4.835,-9.678l-4.835,-2.481l-0,12.159Zm-2.055,-19.825l0,7.108l-4.775,2.45l4.775,-9.558Zm4.777,0.421c-0.238,0.004 -0.47,-0.123 -0.588,-0.349c-0.165,-0.317 -0.042,-0.708 0.275,-0.874c0.317,-0.165 0.709,-0.042 0.874,0.275c0.118,0.225 0.09,0.488 -0.05,0.681l3.484,6.677c0.239,-0.005 0.471,0.122 0.588,0.348c0.166,0.317 0.043,0.709 -0.275,0.874c-0.317,0.166 -0.708,0.042 -0.874,-0.275c-0.118,-0.225 -0.089,-0.488 0.051,-0.681l-3.485,-6.676Zm-7.934,-0.267c-0.14,-0.193 -0.168,-0.456 -0.05,-0.681c0.165,-0.317 0.557,-0.44 0.874,-0.275c0.317,0.166 0.44,0.557 0.275,0.874c-0.118,0.226 -0.35,0.353 -0.588,0.349l-3.485,6.676c0.14,0.193 0.168,0.456 0.051,0.681c-0.166,0.317 -0.558,0.441 -0.875,0.275c-0.317,-0.165 -0.44,-0.557 -0.274,-0.874c0.117,-0.226 0.349,-0.353 0.587,-0.348l3.485,-6.677Z"/></svg>