<?xml version="1.0" encoding="UTF-8" standalone="no"?><!DOCTYPE svg PUBLIC "-//W3C//DTD SVG 1.1//EN" "http://www.w3.org/Graphics/SVG/1.1/DTD/svg11.dtd"><svg width="100%" height="100%" viewBox="0 0 23 24" version="1.1" xmlns="http://www.w3.org/2000/svg" xmlns:xlink="http://www.w3.org/1999/xlink" xml:space="preserve" xmlns:serif="http://www.serif.com/" style="fill-rule:evenodd;clip-rule:evenodd;stroke-linejoin:round;stroke-miterlimit:2;"><path d="M10.951,0.595c0.156,-0.35 0.508,-0.595 0.915,-0.595c0.552,-0 1.001,0.449 1.001,1.001c-0,0.552 -0.449,1.001 -1.001,1.001c-0.373,-0 -0.698,-0.205 -0.87,-0.508c-5.599,0.247 -10.096,4.907 -10.096,10.551c0,5.628 4.473,10.279 10.051,10.548c0.156,-0.35 0.508,-0.595 0.915,-0.595c0.552,0 1.001,0.449 1.001,1.001c-0,0.552 -0.449,1.001 -1.001,1.001c-0.371,-0 -0.695,-0.203 -0.868,-0.504c-2.907,-0.115 -5.623,-1.31 -7.68,-3.387c-2.14,-2.16 -3.318,-5.024 -3.318,-8.064c0,-3.041 1.178,-5.905 3.318,-8.065c2.046,-2.065 4.744,-3.258 7.633,-3.385Zm-1.733,18.648c-0.246,0 -0.446,0.2 -0.446,0.447l-0,1.458c-0,0.247 0.2,0.447 0.446,0.447c0.247,-0 0.446,-0.2 0.446,-0.447l0,-1.458c0,-0.247 -0.199,-0.447 -0.446,-0.447Zm1.265,-0.668c-0.246,0 -0.446,0.2 -0.446,0.446l-0,2.127c-0,0.247 0.2,0.447 0.446,0.447c0.246,-0 0.446,-0.2 0.446,-0.447l0,-2.127c0,-0.246 -0.2,-0.446 -0.446,-0.446Zm1.326,-1.145c-0.247,0 -0.447,0.2 -0.447,0.446l0,3.272c0,0.247 0.2,0.447 0.447,0.447c0.246,-0 0.446,-0.2 0.446,-0.447l-0,-3.272c-0,-0.246 -0.2,-0.446 -0.446,-0.446Zm6.117,1.6l-1.67,-0c-0.249,-0 -0.45,-0.202 -0.45,-0.45l-0,-2.487l-9.642,-0c-0.248,-0 -0.45,-0.202 -0.45,-0.45c-0,-0.249 0.202,-0.45 0.45,-0.45l10.092,-0c0.249,-0 0.45,0.201 0.45,0.45l0,2.487l1.166,-0c0.16,-0.49 0.622,-0.845 1.165,-0.845c0.676,0 1.226,0.55 1.226,1.226c-0,0.676 -0.55,1.226 -1.226,1.226c-0.491,0 -0.915,-0.29 -1.111,-0.707Zm1.111,-0.966c-0.247,-0 -0.448,0.2 -0.448,0.447c0,0.247 0.201,0.448 0.448,0.448c0.247,-0 0.447,-0.201 0.447,-0.448c0,-0.247 -0.2,-0.447 -0.447,-0.447Zm1.34,-5.046c0.19,-0.432 0.622,-0.734 1.123,-0.734c0.676,0 1.226,0.55 1.226,1.226c-0,0.676 -0.55,1.226 -1.226,1.226c-0.533,-0 -0.988,-0.342 -1.156,-0.818l-17.53,0c-0.249,0 -0.45,-0.202 -0.45,-0.45c-0,-0.249 0.201,-0.45 0.45,-0.45l17.563,-0Zm1.123,0.044c-0.247,0 -0.448,0.201 -0.448,0.448c0,0.247 0.201,0.448 0.448,0.448c0.247,-0 0.447,-0.201 0.447,-0.448c0,-0.247 -0.2,-0.448 -0.447,-0.448Zm-1.027,-3.908c-0.451,-0.181 -0.771,-0.624 -0.771,-1.139c0,-0.676 0.55,-1.226 1.226,-1.226c0.676,0 1.226,0.55 1.226,1.226c-0,0.525 -0.333,0.975 -0.798,1.149c0.005,0.027 0.008,0.055 0.008,0.084l-0,2.134c-0,0.248 -0.202,0.45 -0.45,0.45l-15.939,-0c-0.248,-0 -0.45,-0.202 -0.45,-0.45c0,-0.249 0.202,-0.45 0.45,-0.45l15.488,-0l0,-1.684c0,-0.032 0.004,-0.064 0.01,-0.094Zm-5.264,-5.069c-0.445,-0.184 -0.758,-0.623 -0.758,-1.134c-0,-0.676 0.55,-1.226 1.226,-1.226c0.675,0 1.225,0.55 1.225,1.226c0,0.524 -0.33,0.972 -0.792,1.147l-0,5.198c-0,0.248 -0.202,0.45 -0.451,0.45l-8.838,-0c-0.249,-0 -0.45,-0.202 -0.45,-0.45c-0,-0.249 0.201,-0.45 0.45,-0.45l8.388,-0l0,-4.761Zm5.719,3.482c-0.247,0 -0.448,0.201 -0.448,0.448c0,0.247 0.201,0.447 0.448,0.447c0.246,0 0.447,-0.2 0.447,-0.447c0,-0.247 -0.201,-0.448 -0.447,-0.448Zm-9.093,-1.115c-0.248,0 -0.45,-0.201 -0.45,-0.45l0,-3.301c0,-0.248 0.202,-0.45 0.45,-0.45c0.249,0 0.45,0.202 0.45,0.45l0,3.301c0,0.249 -0.201,0.45 -0.45,0.45Zm-1.337,-1.155c-0.249,0 -0.45,-0.201 -0.45,-0.45l0,-2.146c0,-0.248 0.201,-0.45 0.45,-0.45c0.249,0 0.45,0.202 0.45,0.45l0,2.146c0,0.249 -0.201,0.45 -0.45,0.45Zm-1.276,-0.674c-0.248,0 -0.45,-0.202 -0.45,-0.45l-0,-1.472c-0,-0.248 0.202,-0.45 0.45,-0.45c0.249,0 0.45,0.202 0.45,0.45l0,1.472c0,0.248 -0.201,0.45 -0.45,0.45Zm6.455,-2.119c-0.247,-0 -0.448,0.201 -0.448,0.447c0,0.247 0.201,0.448 0.448,0.448c0.246,-0 0.447,-0.201 0.447,-0.448c0,-0.246 -0.201,-0.447 -0.447,-0.447Z"/></svg>