<?xml version="1.0" encoding="UTF-8" standalone="no"?><!DOCTYPE svg PUBLIC "-//W3C//DTD SVG 1.1//EN" "http://www.w3.org/Graphics/SVG/1.1/DTD/svg11.dtd"><svg width="100%" height="100%" viewBox="0 0 31 24" version="1.1" xmlns="http://www.w3.org/2000/svg" xmlns:xlink="http://www.w3.org/1999/xlink" xml:space="preserve" xmlns:serif="http://www.serif.com/" style="fill-rule:evenodd;clip-rule:evenodd;stroke-linejoin:round;stroke-miterlimit:2;"><path d="M15.032,24c-4.945,0 -8.968,-4.023 -8.968,-8.968c0,-4.945 4.023,-8.968 8.968,-8.968c4.945,-0 8.968,4.023 8.968,8.968c0,4.945 -4.023,8.968 -8.968,8.968Zm7.256,-12.011l-6.706,9.064l-0,1.828c4.083,-0.283 7.318,-3.696 7.318,-7.849c-0,-1.078 -0.218,-2.106 -0.612,-3.043Zm-14.511,0c-0.395,0.937 -0.612,1.965 -0.612,3.043c-0,4.153 3.235,7.566 7.317,7.849l-0,-1.828l-6.705,-9.064Zm7.805,0.675l-0,6.539l4.838,-6.539l-4.838,0Zm-5.937,0l4.837,6.539l-0,-6.539l-4.837,0Zm-8.474,2.542c-0.001,-0.058 -0.005,-0.116 -0.005,-0.174c0,-7.645 6.221,-13.865 13.866,-13.865c7.645,-0 13.866,6.22 13.866,13.865c-0,0.058 -0.004,0.116 -0.005,0.174l1.166,0c0.001,-0.058 0.005,-0.116 0.005,-0.174c-0,-8.289 -6.743,-15.032 -15.032,-15.032c-8.289,0 -15.032,6.743 -15.032,15.032c-0,0.058 0.004,0.116 0.005,0.174l1.166,0Zm2.987,0c-0,-0.058 -0.005,-0.116 -0.005,-0.174c0,-5.998 4.881,-10.878 10.879,-10.878c5.998,-0 10.878,4.88 10.878,10.878c0,0.058 -0.003,0.116 -0.004,0.174l1.166,0c0.001,-0.058 0.004,-0.116 0.004,-0.174c0,-6.642 -5.403,-12.044 -12.044,-12.044c-6.641,-0 -12.045,5.402 -12.045,12.044c0,0.058 0.004,0.116 0.005,0.174l1.166,0Zm11.424,-8.023l-0,4.381l6.511,-0c-1.207,-2.448 -3.651,-4.182 -6.511,-4.381Zm-1.1,0c-2.86,0.199 -5.304,1.932 -6.511,4.381l6.511,-0l-0,-4.381Z" style="fill-rule:nonzero;"/></svg>