<?xml version="1.0" encoding="UTF-8" standalone="no"?><!DOCTYPE svg PUBLIC "-//W3C//DTD SVG 1.1//EN" "http://www.w3.org/Graphics/SVG/1.1/DTD/svg11.dtd"><svg width="100%" height="100%" viewBox="0 0 24 24" version="1.1" xmlns="http://www.w3.org/2000/svg" xmlns:xlink="http://www.w3.org/1999/xlink" xml:space="preserve" xmlns:serif="http://www.serif.com/" style="fill-rule:evenodd;clip-rule:evenodd;stroke-linejoin:round;stroke-miterlimit:2;"><path d="M18.069,12.238c-0.023,2.356 -1.328,3.99 -3.555,5.067c0.1,0.174 0.19,0.34 0.288,0.501c0.188,0.311 0.384,0.617 0.57,0.929c0.304,0.508 0.598,1.021 0.904,1.528c0.196,0.327 0.416,0.641 0.603,0.972c0.08,0.141 4.557,2.765 4.557,2.765c-0,0 -0.222,-4.577 -0.274,-4.661c-0.154,-0.243 -0.305,-0.488 -0.455,-0.734c-0.273,-0.446 -0.547,-0.891 -0.817,-1.338c-0.178,-0.295 -0.345,-0.596 -0.526,-0.889c-0.321,-0.522 -0.66,-1.034 -0.969,-1.562c-0.135,-0.23 -0.124,-0.533 0.145,-0.704c0.275,-0.175 0.521,-0.18 0.781,0.006c0.347,0.249 0.724,0.423 1.149,0.528c0.637,0.157 1.249,0.095 1.845,-0.141c0.12,-0.047 0.226,-0.122 0.343,-0.175c0.342,-0.154 0.595,-0.401 0.811,-0.676c0.245,-0.31 0.389,-0.661 0.477,-1.037c0.095,-0.406 0.058,-0.805 -0.064,-1.19c-0.158,-0.5 -0.484,-0.912 -0.916,-1.256c-0.309,-0.246 -0.67,-0.419 -1.05,-0.501c-0.366,-0.079 -0.766,-0.069 -1.147,-0.045c-0.418,0.025 -0.803,0.177 -1.144,0.41c-0.313,0.215 -0.613,0.463 -1.039,0.179c-0.178,-0.118 -0.298,-0.521 -0.187,-0.691c0.436,-0.667 0.869,-1.335 1.293,-2.009c0.229,-0.364 0.431,-0.742 0.654,-1.11c0.245,-0.402 0.75,-1.201 0.75,-1.201l-0.131,-4.303l-3.977,2.157c-0,0 -1.63,2.711 -2.436,4.052c2.21,1.133 3.54,2.759 3.517,5.129Zm-12.138,-0c0.023,2.356 1.328,3.99 3.555,5.067c-0.1,0.174 -0.19,0.34 -0.288,0.501c-0.188,0.311 -0.384,0.617 -0.57,0.929c-0.304,0.508 -0.598,1.021 -0.904,1.528c-0.196,0.327 -0.416,0.641 -0.603,0.972c-0.08,0.141 -4.557,2.765 -4.557,2.765c0,0 0.222,-4.577 0.274,-4.661c0.154,-0.243 0.305,-0.488 0.455,-0.734c0.273,-0.446 0.547,-0.891 0.817,-1.338c0.178,-0.295 0.345,-0.596 0.526,-0.889c0.321,-0.522 0.66,-1.034 0.969,-1.562c0.135,-0.23 0.124,-0.533 -0.145,-0.704c-0.275,-0.175 -0.521,-0.18 -0.781,0.006c-0.347,0.249 -0.724,0.423 -1.149,0.528c-0.637,0.157 -1.249,0.095 -1.845,-0.141c-0.12,-0.047 -0.226,-0.122 -0.343,-0.175c-0.342,-0.154 -0.595,-0.401 -0.811,-0.676c-0.245,-0.31 -0.389,-0.661 -0.477,-1.037c-0.095,-0.406 -0.058,-0.805 0.064,-1.19c0.158,-0.5 0.484,-0.912 0.916,-1.256c0.309,-0.246 0.67,-0.419 1.05,-0.501c0.366,-0.079 0.766,-0.069 1.147,-0.045c0.418,0.025 0.803,0.177 1.144,0.41c0.313,0.215 0.613,0.463 1.039,0.179c0.178,-0.118 0.298,-0.521 0.187,-0.691c-0.436,-0.667 -0.869,-1.335 -1.293,-2.009c-0.229,-0.364 -0.431,-0.742 -0.654,-1.11c-0.245,-0.402 -0.75,-1.201 -0.75,-1.201l0.131,-4.303l3.977,2.157c0,0 1.63,2.711 2.436,4.052c-2.21,1.133 -3.54,2.759 -3.517,5.129Zm7.925,6.287c-0.179,-0.299 -0.356,-0.597 -0.521,-0.874c-0.36,0.044 -0.694,0.123 -1.027,0.118c-0.511,-0.01 -1.021,-0.079 -1.533,-0.117c-0.052,-0.004 -0.136,0.015 -0.157,0.049c-0.137,0.218 -0.258,0.443 -0.388,0.664c-0.123,0.21 -0.25,0.417 -0.371,0.619c0.699,1.216 1.395,2.428 2.113,3.677c0.045,-0.075 0.075,-0.12 0.101,-0.167c0.108,-0.192 0.212,-0.386 0.322,-0.577c0.134,-0.232 0.272,-0.463 0.41,-0.694c0.122,-0.205 0.245,-0.41 0.369,-0.614c0.131,-0.215 0.267,-0.427 0.396,-0.643c0.131,-0.219 0.243,-0.449 0.386,-0.661c0.144,-0.211 0.161,-0.378 0.014,-0.591c-0.042,-0.061 -0.077,-0.126 -0.114,-0.189Zm4.043,-2.969c-0.543,0.814 -1.305,1.502 -2.261,2.072c0.14,0.225 0.28,0.45 0.416,0.677c0.303,0.507 0.597,1.019 0.902,1.525c0.17,0.283 0.357,0.557 0.526,0.84c0.49,0.328 1.979,1.216 3.079,1.867c-0.055,-1.07 -0.127,-2.403 -0.171,-2.911c-0.121,-0.193 -0.241,-0.388 -0.36,-0.582c-0.274,-0.448 -0.549,-0.895 -0.819,-1.343c-0.177,-0.293 -0.343,-0.592 -0.523,-0.883c-0.26,-0.422 -0.531,-0.839 -0.789,-1.262Zm-11.798,0c-0.258,0.423 -0.529,0.84 -0.789,1.262c-0.18,0.291 -0.346,0.59 -0.522,0.882c-0.271,0.449 -0.546,0.896 -0.82,1.343c-0.119,0.195 -0.239,0.391 -0.36,0.583c-0.044,0.508 -0.116,1.841 -0.171,2.911c1.1,-0.651 2.589,-1.539 3.079,-1.867c0.169,-0.283 0.356,-0.557 0.526,-0.84c0.305,-0.506 0.599,-1.018 0.902,-1.526c0.136,-0.227 0.277,-0.451 0.416,-0.676c-0.956,-0.57 -1.718,-1.258 -2.261,-2.072Zm4.979,2.947c-0.055,0.096 -0.109,0.192 -0.165,0.287l-0.121,0.204l1.179,2.051l0.15,-0.252c0.124,-0.208 0.248,-0.415 0.374,-0.621c0.129,-0.212 0.264,-0.422 0.391,-0.637c0.107,-0.178 0.202,-0.362 0.31,-0.539l-0.272,-0.457c-0.214,0.031 -0.423,0.055 -0.632,0.052c-0.405,-0.007 -0.81,-0.051 -1.214,-0.088Zm1.494,-2.171c2.021,-0.243 3.535,-1.623 3.97,-3.064l-9.13,-0c0.725,2.402 2.95,3.33 5.16,3.064Zm2.616,-2.242l-6.494,-0c0.848,1.18 2.329,1.6 3.785,1.425c1.144,-0.138 2.104,-0.701 2.709,-1.425Zm3.613,-0.942c0.328,-0.039 0.646,0.059 0.976,0.296c0.265,0.19 0.553,0.322 0.878,0.402c0.474,0.117 0.927,0.067 1.37,-0.108c0.109,-0.043 0.204,-0.113 0.309,-0.16c0.218,-0.099 0.373,-0.266 0.512,-0.442c0.167,-0.212 0.26,-0.455 0.321,-0.712c0.059,-0.253 0.029,-0.502 -0.048,-0.743c-0.109,-0.346 -0.346,-0.622 -0.645,-0.86c-0.213,-0.169 -0.463,-0.29 -0.725,-0.346c-0.298,-0.065 -0.623,-0.049 -0.934,-0.029c-0.275,0.016 -0.525,0.121 -0.748,0.274c-0.402,0.276 -0.802,0.512 -1.275,0.446c0.054,0.345 0.079,0.705 0.075,1.08l0,0c-0.003,0.311 -0.025,0.612 -0.066,0.902Zm-13.597,-1.982c-0.473,0.066 -0.873,-0.17 -1.275,-0.446c-0.223,-0.153 -0.473,-0.258 -0.748,-0.274c-0.311,-0.02 -0.636,-0.036 -0.934,0.029c-0.262,0.056 -0.512,0.177 -0.725,0.346c-0.299,0.238 -0.536,0.514 -0.645,0.86c-0.077,0.241 -0.107,0.49 -0.048,0.743c0.061,0.257 0.154,0.5 0.321,0.712c0.139,0.176 0.294,0.343 0.511,0.441c0.106,0.048 0.201,0.118 0.309,0.161c0.444,0.175 0.897,0.225 1.371,0.108c0.325,-0.08 0.613,-0.212 0.878,-0.403c0.33,-0.236 0.648,-0.334 0.976,-0.295c-0.041,-0.29 -0.063,-0.591 -0.066,-0.902l-0,0c-0.004,-0.375 0.021,-0.735 0.075,-1.08Zm2.035,1.141l1.587,-0c-0.04,-0.481 0.176,-1.414 0.72,-2.012c0.546,-0.598 1.238,-0.914 2.07,-0.988c0.933,-0.083 1.797,0.085 2.503,0.676c0.75,0.628 1.106,1.363 1.034,2.324l1.606,-0c0.013,-1.922 -0.807,-3.12 -2.513,-3.969c-1.641,-0.817 -3.328,-0.766 -4.885,0.172c-1.465,0.884 -2.192,2.355 -2.122,3.797Zm5.937,-1.551c-0.602,-0.427 -1.617,-0.535 -2.311,-0.058c-0.581,0.399 -0.92,1.128 -0.754,1.609l3.759,-0c0.177,-0.481 -0.146,-1.162 -0.694,-1.551Zm-0.389,0.728l-0.066,-0.051c-0.368,-0.261 -0.988,-0.342 -1.412,-0.051c-0.045,0.031 -0.087,0.065 -0.127,0.102l1.605,0Zm7.5,-6.512l-0.084,-2.73l-2.651,1.438l-1.879,3.124c0.924,0.573 1.669,1.246 2.207,2.035c0.384,-0.588 0.765,-1.178 1.138,-1.772c0.227,-0.36 0.427,-0.735 0.648,-1.099c0.167,-0.273 0.452,-0.728 0.621,-0.996Zm-11.964,1.832l-1.879,-3.124l-2.651,-1.438l-0.084,2.73c0.169,0.268 0.455,0.723 0.621,0.996c0.221,0.364 0.421,0.739 0.648,1.099c0.373,0.594 0.754,1.184 1.138,1.772c0.538,-0.789 1.283,-1.462 2.207,-2.035Zm2.146,-0.193c0.07,0.123 0.154,0.169 0.336,0.127c0.313,-0.073 0.642,-0.108 0.965,-0.12c0.559,-0.022 1.121,-0.024 1.676,0.135c0.144,-0.303 0.281,-0.593 0.422,-0.888c-1.262,-0.447 -2.513,-0.447 -3.786,-0.046c0.003,0.04 -0.006,0.075 0.008,0.101c0.124,0.231 0.247,0.463 0.379,0.691Zm3.325,-4.962c-0,-0.91 -0.807,-1.649 -1.798,-1.649c-0.991,0 -1.797,0.74 -1.797,1.649c-0,0.909 0.806,1.649 1.797,1.649c0.991,-0 1.798,-0.74 1.798,-1.649Zm-0.8,-0c-0,0.483 -0.471,0.826 -0.998,0.826c-0.527,0 -0.997,-0.343 -0.997,-0.826c-0,-0.483 0.47,-0.827 0.997,-0.827c0.527,0 0.998,0.343 0.998,0.827Z"/></svg>