<?xml version="1.0" encoding="UTF-8" standalone="no"?><!DOCTYPE svg PUBLIC "-//W3C//DTD SVG 1.1//EN" "http://www.w3.org/Graphics/SVG/1.1/DTD/svg11.dtd"><svg width="100%" height="100%" viewBox="0 0 20 24" version="1.1" xmlns="http://www.w3.org/2000/svg" xmlns:xlink="http://www.w3.org/1999/xlink" xml:space="preserve" xmlns:serif="http://www.serif.com/" style="fill-rule:evenodd;clip-rule:evenodd;stroke-linejoin:round;stroke-miterlimit:2;"><path d="M0.026,18.668c-0.059,0.12 -0.014,0.265 0.103,0.33l9.04,4.971c0.073,0.04 0.16,0.041 0.234,0.004l9.405,-4.826c0.047,-0.024 0.086,-0.062 0.109,-0.11l0.073,-0.145c0.035,-0.07 0.035,-0.152 -0,-0.223l-9.259,-18.531c-0.043,-0.085 -0.129,-0.138 -0.223,-0.138c-0.095,0 -0.181,0.053 -0.223,0.138l-9.259,18.53Zm0.553,0.009l8.714,4.792l9.184,-4.712l-8.969,-17.951l-8.929,17.871Zm1.824,-1.828c-0.222,0.271 -0.221,0.66 0.002,0.929c2.356,2.852 4.746,4.226 7.103,4.227c2.356,0.001 4.747,-1.369 7.104,-4.227c0.213,-0.26 0.223,-0.631 0.023,-0.901c-2.369,-3.2 -4.782,-4.578 -7.151,-4.501c-2.348,0.076 -4.733,1.604 -7.081,4.473Zm0.565,0.463c2.18,-2.663 4.36,-4.135 6.54,-4.205c2.18,-0.071 4.36,1.261 6.54,4.205c-4.36,5.287 -8.72,5.277 -13.08,0Zm6.54,-3.488c-1.969,0 -3.556,1.56 -3.556,3.466c-0,1.906 1.587,3.465 3.556,3.465c1.969,0 3.556,-1.559 3.556,-3.465c0,-1.906 -1.587,-3.466 -3.556,-3.466Zm0,0.731c1.559,0 2.825,1.226 2.825,2.735c-0,1.509 -1.266,2.734 -2.825,2.734c-1.559,0 -2.825,-1.225 -2.825,-2.734c0,-1.509 1.266,-2.735 2.825,-2.735Zm0,1.368c0.78,-0 1.412,0.612 1.412,1.367c0,0.754 -0.632,1.367 -1.412,1.367c-0.78,-0 -1.412,-0.613 -1.412,-1.367c-0,-0.755 0.632,-1.367 1.412,-1.367Zm0,0.731c0.37,-0 0.681,0.278 0.681,0.636c0,0.358 -0.311,0.636 -0.681,0.636c-0.37,-0 -0.681,-0.278 -0.681,-0.636c-0,-0.358 0.311,-0.636 0.681,-0.636Zm-6.271,-1.398l6.271,-12.528l6.271,12.529c0,-0 -0.266,-0.323 -0.691,-0.837c-1.397,-1.691 -3.485,-2.659 -5.679,-2.633c-2.193,0.025 -4.258,1.041 -5.616,2.764c-0.345,0.436 -0.556,0.705 -0.556,0.705Zm10.371,-2.938l-4.1,-8.19l-4.087,8.164c1.188,-0.717 2.56,-1.116 3.981,-1.132c1.501,-0.017 2.955,0.393 4.206,1.158Zm-4.286,-6.962l-0,3.314c-0,0.815 -0.456,1.561 -1.181,1.933c-0.883,0.453 -1.938,0.995 -1.938,0.995l3.119,-6.242Zm0.358,-0l-0,3.316c-0,0.814 0.455,1.559 1.179,1.931c0.884,0.453 1.939,0.995 1.939,0.995l-3.118,-6.242Z"/></svg>