<?xml version="1.0" encoding="UTF-8" standalone="no"?><!DOCTYPE svg PUBLIC "-//W3C//DTD SVG 1.1//EN" "http://www.w3.org/Graphics/SVG/1.1/DTD/svg11.dtd"><svg width="100%" height="100%" viewBox="0 0 15 24" version="1.1" xmlns="http://www.w3.org/2000/svg" xmlns:xlink="http://www.w3.org/1999/xlink" xml:space="preserve" xmlns:serif="http://www.serif.com/" style="fill-rule:evenodd;clip-rule:evenodd;stroke-linejoin:round;stroke-miterlimit:2;"><path d="M5.315,1.216c-1.709,3.325 -4.194,8.161 -5.114,9.951c-0.268,0.523 -0.268,1.143 0,1.666c0.92,1.79 3.405,6.626 5.114,9.951c0.384,0.747 1.152,1.216 1.992,1.216c0.839,-0 1.607,-0.469 1.991,-1.216c1.709,-3.325 4.194,-8.161 5.114,-9.951c0.268,-0.523 0.268,-1.143 -0,-1.666c-0.92,-1.79 -3.405,-6.626 -5.114,-9.951c-0.384,-0.747 -1.152,-1.216 -1.991,-1.216c-0.84,0 -1.608,0.469 -1.992,1.216Zm0.517,0.265c0.284,-0.553 0.853,-0.9 1.475,-0.9c0.621,-0 1.19,0.347 1.474,0.9c1.709,3.325 4.194,8.162 5.114,9.952c0.183,0.356 0.183,0.778 0,1.134c-0.92,1.79 -3.405,6.627 -5.114,9.952c-0.284,0.553 -0.853,0.9 -1.474,0.9c-0.622,0 -1.191,-0.347 -1.475,-0.9c-1.709,-3.325 -4.194,-8.162 -5.114,-9.952c-0.183,-0.356 -0.183,-0.778 -0,-1.134c0.92,-1.79 3.405,-6.627 5.114,-9.952Zm1.951,20.921l-0.05,-20.728c-0.001,-0.213 -0.175,-0.386 -0.388,-0.386c-0.214,0.001 -0.387,0.175 -0.387,0.388l0.051,20.728c0.001,0.214 0.174,0.387 0.388,0.386c0.214,-0 0.387,-0.174 0.386,-0.388Zm0.5,-0.399l4.852,-9.711l-0.038,-0.076l-4.814,-2.47l-0,12.257Zm-1.923,-0l-4.852,-9.711l0.038,-0.076l4.814,-2.47l-0,12.257Zm1.923,-19.985l-0,7.165l4.814,2.47l-4.814,-9.635Zm-1.923,-0l-0,7.165l-4.814,2.47l4.814,-9.635Z"/></svg>