<?xml version="1.0" encoding="UTF-8" standalone="no"?><!DOCTYPE svg PUBLIC "-//W3C//DTD SVG 1.1//EN" "http://www.w3.org/Graphics/SVG/1.1/DTD/svg11.dtd"><svg width="100%" height="100%" viewBox="0 0 24 24" version="1.1" xmlns="http://www.w3.org/2000/svg" xmlns:xlink="http://www.w3.org/1999/xlink" xml:space="preserve" xmlns:serif="http://www.serif.com/" style="fill-rule:evenodd;clip-rule:evenodd;stroke-linejoin:round;stroke-miterlimit:2;"><path d="M12,0c-6.623,0 -12,5.377 -12,12c0,6.623 5.377,12 12,12c6.623,0 12,-5.377 12,-12c-0,-6.623 -5.377,-12 -12,-12Zm0,0.774c6.196,0 11.226,5.03 11.226,11.226c-0,6.196 -5.03,11.226 -11.226,11.226c-6.196,-0 -11.226,-5.03 -11.226,-11.226c0,-6.196 5.03,-11.226 11.226,-11.226Zm0,2.113c-5.029,0 -9.113,4.084 -9.113,9.113c0,5.029 4.084,9.113 9.113,9.113c5.029,-0 9.113,-4.084 9.113,-9.113c-0,-5.029 -4.084,-9.113 -9.113,-9.113Zm0,0.775c4.602,-0 8.338,3.736 8.338,8.338c0,4.602 -3.736,8.338 -8.338,8.338c-4.602,0 -8.338,-3.736 -8.338,-8.338c-0,-4.602 3.736,-8.338 8.338,-8.338Zm-0,1.395c-3.832,-0 -6.943,3.111 -6.943,6.943c-0,3.832 3.111,6.943 6.943,6.943c3.832,0 6.943,-3.111 6.943,-6.943c0,-3.832 -3.111,-6.943 -6.943,-6.943Zm-0,0.774c3.405,0 6.169,2.764 6.169,6.169c-0,3.405 -2.764,6.169 -6.169,6.169c-3.405,-0 -6.169,-2.764 -6.169,-6.169c0,-3.405 2.764,-6.169 6.169,-6.169Zm0,0.856c-2.932,-0 -5.313,2.381 -5.313,5.313c-0,2.932 2.381,5.313 5.313,5.313c2.932,0 5.313,-2.381 5.313,-5.313c0,-2.932 -2.381,-5.313 -5.313,-5.313Zm0,0.774c2.505,0 4.539,2.034 4.539,4.539c-0,2.505 -2.034,4.539 -4.539,4.539c-2.505,-0 -4.539,-2.034 -4.539,-4.539c0,-2.505 2.034,-4.539 4.539,-4.539Zm-0,0.451c-2.256,-0 -4.088,1.832 -4.088,4.088c-0,2.256 1.832,4.088 4.088,4.088c2.256,0 4.088,-1.832 4.088,-4.088c0,-2.256 -1.832,-4.088 -4.088,-4.088Zm0,0.774c1.829,-0 3.314,1.485 3.314,3.314c0,1.829 -1.485,3.314 -3.314,3.314c-1.829,0 -3.314,-1.485 -3.314,-3.314c-0,-1.829 1.485,-3.314 3.314,-3.314Zm0,0.146c-1.748,-0 -3.168,1.42 -3.168,3.168c-0,1.748 1.42,3.168 3.168,3.168c1.748,0 3.168,-1.42 3.168,-3.168c0,-1.748 -1.42,-3.168 -3.168,-3.168Zm0,1.466c0.94,-0 1.702,0.762 1.702,1.702c0,0.94 -0.762,1.702 -1.702,1.702c-0.94,0 -1.702,-0.762 -1.702,-1.702c-0,-0.94 0.762,-1.702 1.702,-1.702Z"/></svg>