<?xml version="1.0" encoding="UTF-8" standalone="no"?><!DOCTYPE svg PUBLIC "-//W3C//DTD SVG 1.1//EN" "http://www.w3.org/Graphics/SVG/1.1/DTD/svg11.dtd"><svg width="100%" height="100%" viewBox="0 0 21 24" version="1.1" xmlns="http://www.w3.org/2000/svg" xmlns:xlink="http://www.w3.org/1999/xlink" xml:space="preserve" xmlns:serif="http://www.serif.com/" style="fill-rule:evenodd;clip-rule:evenodd;stroke-linejoin:round;stroke-miterlimit:2;"><path d="M10.392,24l-10.392,-6l0,-5.46l15.39,8.575l-4.998,2.885Zm-9.275,-6.645l9.275,5.355l2.733,-1.578l-12.008,-6.691l0,2.914Zm16.194,2.65l-17.311,-9.645l0,-4.36l10.392,-6l10.393,6l-0,12l-3.474,2.005Zm-11.904,-15.837l-4.29,2.477l0,3.058l16.185,9.018l2.365,-1.366l0,-5.241l-14.26,-7.946Zm13.796,3.495l-9.275,-5.355l-2.733,1.578l12.008,6.69l0,-2.913Z" style="fill-rule:nonzero;"/></svg>