<?xml version="1.0" encoding="UTF-8" standalone="no"?><!DOCTYPE svg PUBLIC "-//W3C//DTD SVG 1.1//EN" "http://www.w3.org/Graphics/SVG/1.1/DTD/svg11.dtd"><svg width="100%" height="100%" viewBox="0 0 21 19" version="1.1" xmlns="http://www.w3.org/2000/svg" xmlns:xlink="http://www.w3.org/1999/xlink" xml:space="preserve" xmlns:serif="http://www.serif.com/" style="fill-rule:evenodd;clip-rule:evenodd;stroke-linejoin:round;stroke-miterlimit:2;"><path d="M3.024,1.23c-1.936,1.937 -3.024,4.563 -3.024,7.302c0,5.699 4.627,10.325 10.326,10.325c5.699,0 10.326,-4.626 10.326,-10.325c-0,-2.739 -1.088,-5.365 -3.025,-7.302l-3.651,3.651c0.969,0.968 1.513,2.281 1.513,3.651c-0,2.849 -2.314,5.162 -5.163,5.162c-2.85,0 -5.163,-2.313 -5.163,-5.162c-0,-1.37 0.544,-2.683 1.512,-3.651l-3.651,-3.651Zm0.038,1.452l2.257,2.257c-0.747,1.04 -1.156,2.295 -1.156,3.593c-0,3.401 2.761,6.162 6.163,6.162c3.401,0 6.163,-2.761 6.163,-6.162c-0,-1.298 -0.409,-2.553 -1.156,-3.593c-0,-0 2.256,-2.257 2.256,-2.257c1.329,1.65 2.063,3.712 2.063,5.85c-0,5.147 -4.179,9.325 -9.326,9.325c-5.147,0 -9.326,-4.178 -9.326,-9.325c-0,-2.138 0.734,-4.2 2.062,-5.85l0,0Zm4.576,3.161c-0.713,0.713 -1.114,1.68 -1.114,2.689c0,2.098 1.704,3.801 3.802,3.801c2.098,0 3.801,-1.703 3.801,-3.801c0,-1.009 -0.4,-1.976 -1.113,-2.689l-1.344,1.345c0.356,0.356 0.557,0.839 0.557,1.344c-0,1.049 -0.852,1.9 -1.901,1.9c-1.049,0 -1.901,-0.851 -1.901,-1.9c-0,-0.505 0.2,-0.988 0.557,-1.344l-1.344,-1.345Zm2.688,-1.013l-5.329,-4.83l10.657,0l-5.328,4.83Zm-0,-1.35l-2.736,-2.48c-0,-0 5.472,-0 5.472,-0l-2.736,2.48Z"/></svg>