<?xml version="1.0" encoding="UTF-8" standalone="no"?>
<!DOCTYPE svg PUBLIC "-//W3C//DTD SVG 1.1//EN" "http://www.w3.org/Graphics/SVG/1.1/DTD/svg11.dtd">
<svg width="100%" height="100%" viewBox="0 0 34 22" version="1.1" xmlns="http://www.w3.org/2000/svg" xmlns:xlink="http://www.w3.org/1999/xlink" xml:space="preserve" xmlns:serif="http://www.serif.com/" style="fill-rule:evenodd;clip-rule:evenodd;stroke-linejoin:round;stroke-miterlimit:2;">
    <g transform="matrix(0.5,0,0,0.5,-894.435,-790.036)">
        <g transform="matrix(2.10535,0,0,1,1145.6,165.848)">
            <g transform="matrix(0.47498,0,0,1,-544.139,1264.66)">
                <path d="M1822.87,153.466C1819.36,151.005 1815.09,149.56 1810.48,149.56C1798.55,149.56 1788.87,159.243 1788.87,171.17C1788.87,183.098 1798.55,192.781 1810.48,192.781C1815.09,192.781 1819.36,191.336 1822.87,188.875C1826.38,191.336 1830.65,192.781 1835.26,192.781C1847.19,192.781 1856.87,183.098 1856.87,171.17C1856.87,159.243 1847.19,149.56 1835.26,149.56C1830.65,149.56 1826.38,151.005 1822.87,153.466ZM1819.71,156.171C1817.03,154.515 1813.86,153.56 1810.48,153.56C1800.76,153.56 1792.87,161.451 1792.87,171.17C1792.87,180.89 1800.76,188.781 1810.48,188.781C1813.86,188.781 1817.03,187.826 1819.71,186.17C1815.96,182.282 1813.65,176.993 1813.65,171.17C1813.65,165.348 1815.96,160.059 1819.71,156.171ZM1826.03,186.17C1828.72,187.826 1831.88,188.781 1835.26,188.781C1844.98,188.781 1852.87,180.89 1852.87,171.17C1852.87,161.451 1844.98,153.56 1835.26,153.56C1831.88,153.56 1828.72,154.515 1826.03,156.171C1829.78,160.059 1832.09,165.348 1832.09,171.17C1832.09,176.993 1829.78,182.282 1826.03,186.17ZM1822.87,158.66C1826.09,161.852 1828.09,166.28 1828.09,171.17C1828.09,176.061 1826.09,180.489 1822.87,183.681C1819.65,180.489 1817.65,176.061 1817.65,171.17C1817.65,166.28 1819.65,161.852 1822.87,158.66Z" style="fill:rgb(255,0,146);"/>
            </g>
        </g>
    </g>
</svg>
