<?xml version="1.0" encoding="UTF-8" standalone="no"?>
<!DOCTYPE svg PUBLIC "-//W3C//DTD SVG 1.1//EN" "http://www.w3.org/Graphics/SVG/1.1/DTD/svg11.dtd">
<svg width="100%" height="100%" viewBox="0 0 28 30" version="1.1" xmlns="http://www.w3.org/2000/svg" xmlns:xlink="http://www.w3.org/1999/xlink" xml:space="preserve" xmlns:serif="http://www.serif.com/" style="fill-rule:evenodd;clip-rule:evenodd;stroke-linejoin:round;stroke-miterlimit:2;">
    <g transform="matrix(0.5,0,0,0.5,-897.695,-560.193)">
        <g transform="matrix(2.10535,0,0,1,1145.6,165.848)">
            <g transform="matrix(0.0549726,0,0,0.115737,377.753,905.224)">
                <path d="M-945.173,504.836C-945.698,514.87 -949.906,524.415 -957.037,531.605C-964.76,539.393 -975.274,543.773 -986.243,543.773C-986.243,543.773 -1055.11,543.773 -1055.11,543.773C-1077.98,543.773 -1096.53,525.258 -1096.58,502.388C-1096.58,501.689 -1096.66,501.216 -1096.83,500.943C-1097.18,495.388 -1098.52,489.804 -1100.95,484.435C-1108.51,467.726 -1117.24,448.444 -1121.71,438.566C-1124.03,433.437 -1128.29,429.44 -1133.56,427.455C-1138.83,425.469 -1144.66,425.657 -1149.79,427.978C-1161.69,433.363 -1186.65,444.656 -1198.55,450.041C-1203.68,452.361 -1207.68,456.624 -1209.66,461.892C-1211.61,467.05 -1211.47,472.759 -1209.27,477.805L-1209.25,477.853L-1209.22,477.917L-1209.14,478.128L-1209.14,478.128L-1208.35,479.874C-1194.53,511.062 -1182.24,535.974 -1174.71,559.091C-1167.37,581.638 -1164.67,602.38 -1170.05,625.868C-1170.91,629.633 -1168.56,633.391 -1164.79,634.254C-1161.02,635.117 -1157.27,632.761 -1156.4,628.995C-1149.9,600.617 -1153.94,575.869 -1163.88,548.02C-1152.08,553.081 -1138.27,553.355 -1125.65,547.645C-1125.3,547.486 -1124.95,547.327 -1124.6,547.168C-1115.67,543.129 -1108.61,536.669 -1103.82,528.912C-1094.41,546.092 -1076.12,557.773 -1055.11,557.773C-1033.44,557.773 -1007.93,557.773 -986.243,557.773C-971.541,557.773 -957.449,551.902 -947.097,541.464C-943.445,537.782 -940.366,533.64 -937.927,529.166C-933.151,536.81 -926.14,543.173 -917.312,547.168C-916.961,547.327 -916.609,547.486 -916.258,547.645C-903.873,553.249 -890.347,553.089 -878.701,548.29C-879.725,551.053 -880.687,553.793 -881.59,556.508C-890.479,583.236 -893.657,607.66 -886.743,632.903C-880.88,654.312 -867.689,676.408 -843.96,700.987C-839.096,706.085 -834.918,711.718 -831.492,717.747L-837.434,717.747C-845.166,717.747 -851.434,724.015 -851.434,731.747L-851.434,760.083C-851.434,767.815 -845.166,774.083 -837.434,774.083L-820.213,774.083L-820.213,807.766L-837.434,807.766C-845.166,807.766 -851.434,814.034 -851.434,821.766L-851.434,850.102C-851.434,857.834 -845.166,864.102 -837.434,864.102L-820.213,864.102L-820.213,878.405C-820.213,890.403 -824.979,901.911 -833.464,910.395C-841.948,918.879 -853.455,923.646 -865.454,923.646L-893.411,923.646C-897.275,923.646 -900.411,926.782 -900.411,930.646C-900.411,934.509 -897.275,937.646 -893.411,937.646L-865.454,937.646C-849.742,937.646 -834.674,931.404 -823.564,920.294C-812.454,909.185 -806.213,894.116 -806.213,878.405L-806.213,864.102L-796.434,864.102C-788.702,864.102 -782.434,857.834 -782.434,850.102L-782.434,821.766C-782.434,814.034 -788.702,807.766 -796.434,807.766L-806.213,807.766L-806.213,774.083L-796.434,774.083C-788.702,774.083 -782.434,767.815 -782.434,760.083L-782.434,731.747C-782.434,724.015 -788.702,717.747 -796.434,717.747L-815.742,717.747C-820.262,708.095 -826.354,699.157 -833.843,691.31C-833.852,691.3 -833.862,691.29 -833.871,691.28C-855.566,668.812 -867.881,648.774 -873.24,629.205C-879.422,606.636 -876.253,584.823 -868.306,560.926C-864.607,549.805 -859.885,538.259 -854.511,526.037L-853.525,523.997L-832.77,478.128C-830.45,472.999 -830.261,467.159 -832.247,461.892C-834.233,456.624 -838.229,452.361 -843.358,450.041C-855.258,444.656 -880.217,433.363 -892.117,427.978C-897.246,425.657 -903.087,425.469 -908.354,427.455C-913.621,429.44 -917.884,433.437 -920.205,438.566C-924.674,448.444 -933.399,467.726 -940.96,484.435C-943.958,491.061 -945.306,498.015 -945.173,504.836ZM-1226.96,717.747L-1243.33,717.747C-1251.06,717.747 -1257.33,724.015 -1257.33,731.747L-1257.33,760.083C-1257.33,767.815 -1251.06,774.083 -1243.33,774.083L-1236.39,774.083L-1236.39,807.766L-1243.33,807.766C-1251.06,807.766 -1257.33,814.034 -1257.33,821.766L-1257.33,850.102C-1257.33,857.834 -1251.06,864.102 -1243.33,864.102L-1236.39,864.102L-1236.39,878.405C-1236.39,894.116 -1230.15,909.185 -1219.04,920.294C-1207.93,931.404 -1192.86,937.646 -1177.15,937.646L-926.721,937.646C-922.857,937.646 -919.721,934.509 -919.721,930.646C-919.721,926.782 -922.857,923.646 -926.721,923.646L-1177.15,923.646C-1189.15,923.646 -1200.66,918.879 -1209.14,910.395C-1217.63,901.911 -1222.39,890.403 -1222.39,878.405L-1222.39,864.102L-1202.33,864.102C-1194.6,864.102 -1188.33,857.834 -1188.33,850.102L-1188.33,821.766C-1188.33,814.034 -1194.6,807.766 -1202.33,807.766L-1222.39,807.766L-1222.39,774.083L-1202.33,774.083C-1194.6,774.083 -1188.33,767.815 -1188.33,760.083L-1188.33,731.747C-1188.33,724.015 -1194.6,717.747 -1202.33,717.747L-1211.24,717.747C-1207.86,711.769 -1203.75,706.179 -1198.96,701.109C-1193.5,695.363 -1188.61,689.717 -1184.26,684.165C-1181.88,681.124 -1182.41,676.72 -1185.45,674.337C-1188.49,671.954 -1192.89,672.487 -1195.28,675.528C-1199.37,680.753 -1203.97,686.063 -1209.12,691.471C-1209.12,691.478 -1209.13,691.485 -1209.14,691.492C-1216.51,699.303 -1222.51,708.178 -1226.96,717.747ZM-902.197,821.766C-902.197,814.034 -908.465,807.766 -916.197,807.766L-1123.4,807.766C-1131.13,807.766 -1137.4,814.034 -1137.4,821.766L-1137.4,850.102C-1137.4,857.834 -1131.13,864.102 -1123.4,864.102L-916.197,864.102C-908.465,864.102 -902.197,857.834 -902.197,850.102L-902.197,821.766ZM-820.213,821.766L-837.434,821.766L-837.434,850.102L-820.213,850.102L-820.213,821.766ZM-1236.39,821.766L-1243.33,821.766L-1243.33,850.102L-1236.39,850.102L-1236.39,821.766ZM-916.197,821.766L-1123.4,821.766L-1123.4,850.102L-916.197,850.102L-916.197,821.766ZM-1222.39,821.766L-1222.39,850.102L-1202.33,850.102L-1202.33,821.766L-1222.39,821.766ZM-806.213,821.766L-806.213,850.102L-796.434,850.102L-796.434,821.766L-806.213,821.766ZM-902.197,731.747C-902.197,724.015 -908.465,717.747 -916.197,717.747L-1123.4,717.747C-1131.13,717.747 -1137.4,724.015 -1137.4,731.747L-1137.4,760.083C-1137.4,767.815 -1131.13,774.083 -1123.4,774.083L-916.197,774.083C-908.465,774.083 -902.197,767.815 -902.197,760.083L-902.197,731.747ZM-825.1,731.747L-837.434,731.747L-837.434,760.083L-820.218,760.083C-820.238,750.343 -821.913,740.771 -825.1,731.747ZM-1232.29,731.747L-1243.33,731.747L-1243.33,760.083L-1236.39,760.083L-1236.39,760.064C-1236.39,750.395 -1234.99,740.865 -1232.29,731.747ZM-916.197,731.747L-1123.4,731.747L-1123.4,760.083L-916.197,760.083L-916.197,731.747ZM-1217.58,731.747C-1220.74,740.77 -1222.39,750.335 -1222.39,760.064L-1222.39,760.083L-1202.33,760.083L-1202.33,731.747L-1217.58,731.747ZM-810.382,731.747C-807.656,740.868 -806.232,750.405 -806.218,760.083L-796.434,760.083L-796.434,731.747L-810.382,731.747ZM-929.768,627.123C-929.768,614.103 -940.339,603.533 -953.358,603.533C-955.155,603.533 -956.934,603.878 -958.6,604.551L-1019.97,629.328C-1019.97,629.328 -1083.19,604.501 -1083.19,604.501C-1084.82,603.861 -1086.56,603.533 -1088.31,603.533C-1101.33,603.533 -1111.9,614.103 -1111.9,627.123C-1111.9,638.381 -1104.88,644.863 -1093.8,649.589C-1093.67,649.647 -1093.53,649.702 -1093.39,649.755L-1024.54,676.619C-1021.2,677.921 -1017.49,677.895 -1014.18,676.546L-948.15,649.708C-936.284,645.019 -929.768,638.491 -929.768,627.123ZM-943.768,627.123C-943.768,621.83 -948.065,617.533 -953.358,617.533L-1019.89,644.397L-1088.31,617.533C-1093.6,617.533 -1097.9,621.83 -1097.9,627.123C-1097.9,632.416 -1093.51,634.491 -1088.31,636.713L-1019.45,663.577L-953.358,636.713C-947.823,634.533 -943.768,632.416 -943.768,627.123ZM-845.048,470.846C-844.757,469.517 -844.86,468.123 -845.347,466.83C-846.023,465.037 -847.383,463.586 -849.129,462.796C-861.029,457.411 -885.989,446.118 -897.889,440.733C-899.635,439.943 -901.623,439.879 -903.416,440.555C-905.209,441.231 -906.66,442.591 -907.45,444.337C-911.919,454.215 -920.644,473.498 -928.204,490.206C-929.986,494.145 -930.941,498.247 -931.113,502.32L-931.145,504.287C-931.056,516.887 -923.774,528.877 -911.54,534.413C-911.189,534.572 -910.838,534.731 -910.487,534.89C-894.215,542.252 -875.149,535.497 -867.048,519.809C-860.422,504.677 -852.852,488.513 -845.048,470.846ZM-1195.32,474.722L-1196.42,472.253C-1197.18,470.536 -1197.23,468.589 -1196.56,466.83C-1195.89,465.037 -1194.53,463.586 -1192.78,462.796C-1180.88,457.411 -1155.92,446.118 -1144.02,440.733C-1142.28,439.943 -1140.29,439.879 -1138.5,440.555C-1136.7,441.231 -1135.25,442.591 -1134.46,444.337C-1129.99,454.215 -1121.27,473.498 -1113.71,490.206C-1106.1,507.015 -1113.56,526.807 -1130.37,534.413C-1130.72,534.572 -1131.07,534.731 -1131.42,534.89C-1148.23,542.495 -1168.03,535.035 -1175.63,518.226L-1195.32,474.722Z" style="fill:rgb(34,0,255);"/>
            </g>
        </g>
    </g>
</svg>
