<?xml version="1.0" encoding="UTF-8" standalone="no"?><!DOCTYPE svg PUBLIC "-//W3C//DTD SVG 1.1//EN" "http://www.w3.org/Graphics/SVG/1.1/DTD/svg11.dtd"><svg width="100%" height="100%" viewBox="0 0 79 125" version="1.1" xmlns="http://www.w3.org/2000/svg" xmlns:xlink="http://www.w3.org/1999/xlink" xml:space="preserve" xmlns:serif="http://www.serif.com/" style="fill-rule:evenodd;clip-rule:evenodd;stroke-linejoin:round;stroke-miterlimit:2;"><g><path d="M39.228,0c-2.831,29.813 -41.319,62.613 -39.139,89.732c1.736,21.591 17.475,35.268 39.137,35.268c21.661,0 39.358,-13.607 39.358,-35.268c0,-26.404 -36.134,-60.052 -39.356,-89.732Z" style="fill:#ff0400;"/><clipPath id="_clip1"><path d="M39.228,0c-2.831,29.813 -41.319,62.613 -39.139,89.732c1.736,21.591 17.475,35.268 39.137,35.268c21.661,0 39.358,-13.607 39.358,-35.268c0,-26.404 -36.134,-60.052 -39.356,-89.732Z"/></clipPath><g clip-path="url(#_clip1)"><path d="M65.152,76.601c0.402,13.897 -5.584,26.142 -16.519,36.438c18.637,-5.194 25.526,-16.853 16.519,-36.438Z" style="fill:#fff;"/></g></g></svg>