<?xml version="1.0" encoding="UTF-8" standalone="no"?>
<!DOCTYPE svg PUBLIC "-//W3C//DTD SVG 1.1//EN" "http://www.w3.org/Graphics/SVG/1.1/DTD/svg11.dtd">
<svg width="100%" height="100%" viewBox="0 0 31 29" version="1.1" xmlns="http://www.w3.org/2000/svg" xmlns:xlink="http://www.w3.org/1999/xlink" xml:space="preserve" xmlns:serif="http://www.serif.com/" style="fill-rule:evenodd;clip-rule:evenodd;stroke-linejoin:round;stroke-miterlimit:2;">
    <g transform="matrix(0.5,0,0,0.5,-896.426,-619.796)">
        <g transform="matrix(2.10535,0,0,1,1145.6,165.848)">
            <g transform="matrix(0.515096,0,0,1.08446,672.309,147.326)">
                <path d="M-668.637,860.474C-668.199,860.797 -667.742,861.104 -667.283,861.4C-665.405,862.611 -663.694,863.567 -663.694,863.567C-663.362,863.853 -662.887,863.905 -662.5,863.698L-660.26,862.048C-659.993,861.938 -659.865,861.633 -659.974,861.365C-660.084,861.098 -660.39,860.97 -660.657,861.08L-662.599,861.592C-663.041,861.034 -663.942,859.914 -664.98,858.73C-665.371,858.284 -665.775,857.841 -666.194,857.426C-667.681,855.953 -669.1,854.77 -669.1,854.77C-669.696,854.256 -670.532,854.124 -671.257,854.43C-671.982,854.736 -672.471,855.426 -672.519,856.212L-673.284,869.057C-674.711,871.057 -675.843,873.249 -676.637,875.579C-677.484,878.065 -677.949,880.708 -677.949,883.453C-677.98,890.149 -675.282,896.316 -670.725,900.934C-668.515,903.175 -665.924,905.181 -662.906,906.434C-662.024,906.8 -661.116,907.086 -660.167,907.284C-658.021,907.733 -655.885,907.825 -653.604,907.697C-653.317,907.735 -653.054,907.534 -653.016,907.248C-652.978,906.961 -653.179,906.698 -653.466,906.66C-655.472,905.994 -657.2,905.059 -658.977,904.077C-659.718,903.668 -660.421,903.237 -661.148,902.827C-663.579,901.455 -665.856,899.923 -667.734,897.999C-671.521,894.119 -673.897,889.049 -673.923,883.453C-673.922,881.164 -673.543,878.958 -672.826,876.888C-672.092,874.77 -671.003,872.799 -669.639,871.02C-669.394,870.697 -669.25,870.309 -669.226,869.905L-668.637,860.474ZM-699.059,860.474C-698.622,860.797 -698.164,861.104 -697.705,861.4C-695.827,862.611 -694.116,863.567 -694.116,863.567C-693.784,863.853 -693.309,863.905 -692.923,863.698L-690.682,862.048C-690.415,861.938 -690.287,861.633 -690.397,861.365C-690.506,861.098 -690.812,860.97 -691.079,861.08L-693.022,861.592C-693.463,861.034 -694.364,859.914 -695.402,858.73C-695.794,858.284 -696.197,857.841 -696.616,857.426C-698.103,855.953 -699.523,854.77 -699.523,854.77C-700.119,854.256 -700.955,854.124 -701.68,854.43C-702.405,854.736 -702.894,855.426 -702.942,856.212L-703.707,869.057C-705.133,871.057 -706.266,873.249 -707.06,875.579C-707.907,878.065 -708.372,880.708 -708.371,883.453C-708.402,890.149 -705.704,896.316 -701.147,900.934C-698.937,903.175 -696.346,905.181 -693.329,906.434C-692.446,906.8 -691.539,907.086 -690.59,907.284C-688.443,907.733 -686.307,907.825 -684.026,907.697C-683.74,907.735 -683.476,907.534 -683.438,907.248C-683.4,906.961 -683.602,906.698 -683.888,906.66C-685.895,905.994 -687.623,905.059 -689.399,904.077C-690.141,903.668 -690.844,903.237 -691.571,902.827C-694.002,901.455 -696.279,899.923 -698.156,897.999C-701.944,894.119 -704.319,889.049 -704.345,883.453C-704.345,881.164 -703.965,878.958 -703.248,876.888C-702.514,874.77 -701.425,872.799 -700.062,871.02C-699.817,870.697 -699.673,870.309 -699.648,869.905L-699.059,860.474ZM-683.364,860.474C-682.927,860.797 -682.469,861.104 -682.01,861.4C-680.132,862.611 -678.421,863.567 -678.421,863.567C-678.089,863.853 -677.614,863.905 -677.228,863.698L-674.987,862.048C-674.72,861.938 -674.592,861.633 -674.702,861.365C-674.811,861.098 -675.117,860.97 -675.384,861.08L-677.327,861.592C-677.768,861.034 -678.669,859.914 -679.707,858.73C-680.099,858.284 -680.502,857.841 -680.921,857.426C-682.408,855.953 -683.828,854.77 -683.828,854.77C-684.424,854.256 -685.26,854.124 -685.985,854.43C-686.71,854.736 -687.199,855.426 -687.247,856.212L-688.012,869.057C-689.438,871.057 -690.571,873.249 -691.365,875.579C-692.212,878.065 -692.677,880.708 -692.676,883.453C-692.707,890.149 -690.009,896.316 -685.452,900.934C-683.242,903.175 -680.652,905.181 -677.634,906.434C-676.751,906.8 -675.844,907.086 -674.895,907.284C-672.748,907.733 -670.612,907.825 -668.331,907.697C-668.045,907.735 -667.781,907.534 -667.743,907.248C-667.705,906.961 -667.907,906.698 -668.193,906.66C-670.2,905.994 -671.928,905.059 -673.704,904.077C-674.446,903.668 -675.149,903.237 -675.876,902.827C-678.307,901.455 -680.584,899.923 -682.461,897.999C-686.249,894.119 -688.624,889.049 -688.65,883.453C-688.65,881.164 -688.27,878.958 -687.553,876.888C-686.819,874.77 -685.73,872.799 -684.367,871.02C-684.122,870.697 -683.978,870.309 -683.953,869.905L-683.364,860.474Z" style="fill:rgb(128,0,255);"/>
            </g>
        </g>
    </g>
</svg>
