<?xml version="1.0" encoding="UTF-8" standalone="no"?>
<!DOCTYPE svg PUBLIC "-//W3C//DTD SVG 1.1//EN" "http://www.w3.org/Graphics/SVG/1.1/DTD/svg11.dtd">
<svg width="100%" height="100%" viewBox="0 0 34 34" version="1.1" xmlns="http://www.w3.org/2000/svg" xmlns:xlink="http://www.w3.org/1999/xlink" xml:space="preserve" xmlns:serif="http://www.serif.com/" style="fill-rule:evenodd;clip-rule:evenodd;stroke-linejoin:round;stroke-miterlimit:2;">
    <g transform="matrix(0.5,0,0,0.5,-894.435,-196.585)">
        <g transform="matrix(2.10535,0,0,1,1145.6,165.848)">
            <g transform="matrix(0.47498,0,0,1,-544.139,90.1523)">
                <path d="M1822.87,137.17C1804.11,137.17 1788.87,152.405 1788.87,171.17C1788.87,189.936 1804.11,205.17 1822.87,205.17C1841.64,205.17 1856.87,189.936 1856.87,171.17C1856.87,152.405 1841.64,137.17 1822.87,137.17ZM1822.87,141.17C1839.43,141.17 1852.87,154.613 1852.87,171.17C1852.87,187.728 1839.43,201.17 1822.87,201.17C1806.31,201.17 1792.87,187.728 1792.87,171.17C1792.87,154.613 1806.31,141.17 1822.87,141.17ZM1820.01,187.897L1831.7,168.389L1824.64,168.37L1832.97,154.444L1820.11,155.142L1812.77,174.343L1822.23,174.499L1820.01,187.897Z" style="fill:rgb(255,218,0);"/>
            </g>
        </g>
    </g>
</svg>
