<?xml version="1.0" encoding="UTF-8" standalone="no"?><!DOCTYPE svg PUBLIC "-//W3C//DTD SVG 1.1//EN" "http://www.w3.org/Graphics/SVG/1.1/DTD/svg11.dtd"><svg width="100%" height="100%" viewBox="0 0 83 125" version="1.1" xmlns="http://www.w3.org/2000/svg" xmlns:xlink="http://www.w3.org/1999/xlink" xml:space="preserve" xmlns:serif="http://www.serif.com/" style="fill-rule:evenodd;clip-rule:evenodd;stroke-linejoin:round;stroke-miterlimit:2;"><path d="M35.709,124.663c-11.169,-0.584 -28.167,-3.942 -34.3,-24.619c-2.602,-8.71 -1.572,-18.101 2.855,-26.04c6.536,-11.652 15.226,-23.814 -0.882,-29.401c3.606,-6.18 11.682,-5.663 20.165,-4.538c-11.965,-20.844 8.315,-51.387 34.312,-35.788c-10.379,0.987 -13.384,9.211 -9.874,17.115c4.512,10.162 18.507,21.749 27.839,37.415c6.187,10.387 6.306,20.549 6.152,28.465c-0.402,20.621 -17.781,34.626 -35.953,37.115c-1.878,0.4 -3.86,0.613 -5.938,0.613c-1.554,-0 -3.012,-0.117 -4.376,-0.337Zm10.314,-0.276c17.594,-3.745 25.725,-23.891 14.234,-38.181c-2.81,7.021 -8.215,9.938 -17.029,7.465c13.39,-13.112 6.918,-26.833 -5.957,-38.737c5.929,10.507 -0.803,22.354 -13.063,32.248c-8.925,7.202 -9.111,34.154 11.501,37.481c1.475,0.077 2.849,0.106 4.082,0.12c2.072,0.023 4.158,-0.111 6.232,-0.396Z" style="fill:#ff5931;"/></svg>