<?xml version="1.0" encoding="UTF-8" standalone="no"?>
<!DOCTYPE svg PUBLIC "-//W3C//DTD SVG 1.1//EN" "http://www.w3.org/Graphics/SVG/1.1/DTD/svg11.dtd">
<svg width="100%" height="100%" viewBox="0 0 30 30" version="1.1" xmlns="http://www.w3.org/2000/svg" xmlns:xlink="http://www.w3.org/1999/xlink" xml:space="preserve" xmlns:serif="http://www.serif.com/" style="fill-rule:evenodd;clip-rule:evenodd;stroke-linejoin:round;stroke-miterlimit:2;">
    <g transform="matrix(0.5,0,0,0.5,-896.435,-500.585)">
        <g transform="matrix(2.10535,0,0,1,1145.6,165.848)">
            <g transform="matrix(4.18484,0,0,8.81057,307.438,835.323)">
                <path d="M4.076,6.244C4.076,6.065 4.005,5.893 3.878,5.766C3.751,5.639 3.578,5.567 3.399,5.567C3.219,5.567 3.047,5.639 2.92,5.766C2.793,5.893 2.722,6.065 2.722,6.244L2.722,6.532C2.722,6.636 2.806,6.721 2.91,6.721L3.888,6.721C3.992,6.721 4.076,6.636 4.076,6.532L4.076,6.244ZM3.888,6.244C3.888,6.115 3.836,5.99 3.745,5.899C3.653,5.807 3.529,5.756 3.399,5.756C3.269,5.756 3.145,5.807 3.053,5.899C2.962,5.99 2.91,6.115 2.91,6.244L2.91,6.532L3.888,6.532L3.888,6.244ZM5.306,5.912C5.348,5.968 5.41,6.003 5.479,6.01C5.548,6.017 5.617,5.995 5.669,5.949C6.391,5.305 6.81,4.381 6.81,3.405C6.81,1.526 5.284,0 3.405,0C1.526,0 0,1.526 0,3.405C0,4.381 0.419,5.305 1.141,5.949C1.193,5.994 1.262,6.016 1.33,6.009C1.399,6.002 1.462,5.967 1.503,5.912C1.505,5.911 1.506,5.91 1.507,5.909C1.586,5.805 1.571,5.657 1.473,5.571C0.857,5.023 0.502,4.236 0.502,3.405C0.502,1.802 1.802,0.502 3.405,0.502C5.007,0.502 6.308,1.802 6.308,3.405C6.308,4.236 5.952,5.023 5.338,5.571C5.24,5.658 5.225,5.804 5.304,5.908C5.304,5.91 5.305,5.911 5.306,5.912ZM3.399,4.637C3.149,4.637 2.947,4.839 2.947,5.089C2.947,5.338 3.149,5.541 3.399,5.541C3.648,5.541 3.851,5.338 3.851,5.089C3.851,4.839 3.648,4.637 3.399,4.637ZM3.399,4.825C3.545,4.825 3.663,4.943 3.663,5.089C3.663,5.234 3.545,5.353 3.399,5.353C3.253,5.353 3.135,5.234 3.135,5.089C3.135,4.943 3.253,4.825 3.399,4.825ZM4.624,5.013C4.661,5.062 4.718,5.094 4.779,5.099C4.841,5.105 4.902,5.085 4.948,5.043C5.395,4.619 5.653,4.028 5.653,3.405C5.653,2.164 4.646,1.157 3.405,1.157C2.164,1.157 1.157,2.164 1.157,3.405C1.157,4.028 1.415,4.619 1.863,5.041C1.909,5.082 1.969,5.102 2.03,5.097C2.091,5.091 2.147,5.06 2.184,5.011C2.187,5.012 2.188,5.01 2.189,5.009C2.258,4.918 2.246,4.789 2.161,4.712C1.803,4.375 1.598,3.903 1.598,3.405C1.598,2.408 2.408,1.598 3.405,1.598C4.402,1.598 5.212,2.408 5.212,3.405C5.212,3.903 5.007,4.375 4.65,4.714C4.567,4.79 4.555,4.918 4.623,5.008C4.622,5.01 4.623,5.012 4.624,5.013ZM4.013,4.207C4.038,4.24 4.075,4.26 4.116,4.263C4.156,4.267 4.197,4.252 4.226,4.224C4.439,4.007 4.562,3.714 4.562,3.405C4.562,2.766 4.044,2.247 3.405,2.247C2.766,2.247 2.247,2.766 2.247,3.405C2.247,3.714 2.37,4.007 2.585,4.222C2.614,4.25 2.654,4.264 2.694,4.261C2.734,4.258 2.771,4.238 2.795,4.206C2.798,4.205 2.8,4.203 2.802,4.201C2.845,4.143 2.839,4.062 2.787,4.011C2.627,3.852 2.537,3.634 2.537,3.405C2.537,2.926 2.926,2.537 3.405,2.537C3.884,2.537 4.273,2.926 4.273,3.405C4.273,3.634 4.183,3.852 4.024,4.013C3.973,4.063 3.967,4.143 4.01,4.199C4.01,4.203 4.011,4.205 4.013,4.207Z" style="fill:rgb(0,255,206);"/>
            </g>
        </g>
    </g>
</svg>
