<?xml version="1.0" encoding="UTF-8" standalone="no"?>
<!DOCTYPE svg PUBLIC "-//W3C//DTD SVG 1.1//EN" "http://www.w3.org/Graphics/SVG/1.1/DTD/svg11.dtd">
<svg width="100%" height="100%" viewBox="0 0 27 30" version="1.1" xmlns="http://www.w3.org/2000/svg" xmlns:xlink="http://www.w3.org/1999/xlink" xml:space="preserve" xmlns:serif="http://www.serif.com/" style="fill-rule:evenodd;clip-rule:evenodd;stroke-linejoin:round;stroke-miterlimit:2;">
    <g transform="matrix(0.5,0,0,0.5,-897.956,-440.585)">
        <g transform="matrix(2.10535,0,0,1,1145.6,165.848)">
            <g transform="matrix(0.0556616,0,0,0.117187,307.438,715.323)">
                <path d="M486.051,303.876C486.051,274.437 471.786,247.707 448.086,231.413C477.041,196.028 466.863,140.451 427.64,117.328C436.672,74.9 397.026,35.6 354.69,44.948C346.114,-2.691 283.587,-16.435 255.885,23.146C228.163,-16.455 165.643,-2.663 157.081,44.948C114.738,35.6 75.099,74.906 84.131,117.329C44.9,140.456 34.737,196.035 63.684,231.414C9.192,267.937 14.771,353.147 73.624,382.274C71.869,402.785 78.548,423.452 91.967,439.033C102.37,451.151 116.248,459.728 131.571,463.622C148.81,520.204 225.667,529.408 255.886,479.239C286.126,529.433 362.978,520.174 380.202,463.623C415.932,455.153 441.845,418.914 438.148,382.275C467.49,367.292 486.051,337.311 486.051,303.876ZM197.241,492.214C174.12,492.214 154.062,475.786 149.549,453.151C148.733,449.057 145.461,445.9 141.341,445.229C112.7,440.651 92.116,415.274 93.421,386.264L160.302,386.264L172.443,407.293C167.951,412.542 165.234,419.355 165.234,426.789C166.881,466.615 223.633,466.607 225.278,426.789C225.475,408.255 207.927,393.718 189.768,397.271L174.747,371.253C172.96,368.156 169.655,366.249 166.081,366.249L86.537,366.249C64.775,356.75 49.838,336.953 46.459,313.882L67.462,313.882C79.06,345.221 125.152,337.715 125.79,303.875C125.149,270.029 79.054,262.534 67.462,293.868L46.455,293.868C49.563,272.516 62.539,253.974 81.968,243.706L145.348,243.706L157.488,264.735C139.267,286.079 157.967,318.797 185.786,313.751L200.808,339.769C202.595,342.865 205.9,344.772 209.474,344.772L245.877,344.772L245.877,443.578C245.877,470.396 224.059,492.214 197.241,492.214ZM423.952,366.792C423.798,366.847 423.645,366.904 423.492,366.966C409.887,372.505 394.558,373.428 380.374,369.607C375.032,368.179 369.547,371.346 368.118,376.684C366.687,382.022 369.857,387.51 375.195,388.94C389.23,392.717 404.297,392.929 418.396,389.549C418.015,417.317 398.086,440.603 370.691,445.185C370.598,445.198 370.506,445.211 370.413,445.226C362.436,446.534 354.166,446.123 346.344,444.029C341.008,442.6 335.519,445.767 334.089,451.106C332.658,456.445 335.827,461.932 341.166,463.362C346.582,464.813 352.143,465.668 357.738,465.917C334.051,510.601 266.523,494.596 265.89,443.577L265.89,301.079C265.362,287.801 246.4,287.811 245.876,301.079L245.876,324.758L215.25,324.758L203.109,303.73C221.332,282.385 202.63,249.667 174.81,254.713L159.789,228.695C158.002,225.599 154.697,223.692 151.123,223.692L83.549,223.692C56.301,196.963 64.037,149.324 98.162,132.396L121.597,132.396L133.739,153.424C117.163,172.506 131.038,203.046 156.551,202.942C169.597,202.942 180.726,194.577 184.857,182.929L245.877,182.929L245.877,211.012C246.405,224.29 265.367,224.28 265.891,211.012L265.891,54.696C267.532,9.836 331.046,7.983 335.471,52.453C326.493,57.819 319.069,65.347 313.779,74.509C311.015,79.296 312.655,85.416 317.442,88.179C322.143,90.918 328.334,89.346 331.112,84.516C335.439,77.021 341.88,71.146 349.74,67.523C349.847,67.474 349.953,67.422 350.058,67.369C382.961,52.44 418.285,84.543 406.591,118.725C406.545,118.842 406.501,118.96 406.459,119.081C403.169,128.483 396.605,136.404 387.979,141.385C383.192,144.149 381.552,150.268 384.316,155.056C387.094,159.886 393.284,161.457 397.986,158.719C407.303,153.34 414.994,145.645 420.363,136.472C448.252,155.426 453.133,197.05 429.981,221.832C426.97,220.657 423.893,219.648 420.779,218.814C415.438,217.383 409.954,220.552 408.523,225.89C407.092,231.228 410.26,236.716 415.599,238.146C419.792,239.27 423.899,240.805 427.803,242.708C427.946,242.777 428.089,242.843 428.233,242.905C480.367,268.275 477.647,345.082 423.952,366.792ZM195.255,416.783C200.774,416.783 205.263,421.272 205.263,426.79C204.714,440.065 185.796,440.064 185.249,426.79C185.249,421.271 189.737,416.783 195.255,416.783ZM337.489,325.643C326.363,328.624 317.064,335.759 311.305,345.734C305.546,355.709 304.016,367.331 306.997,378.456C308.408,383.838 314.058,386.968 319.253,385.532C324.592,384.102 327.76,378.614 326.329,373.275C322.867,361.345 330.605,347.943 342.668,344.976C355.358,341.029 350.439,322.713 337.489,325.643ZM85.762,303.876C85.762,298.358 90.252,293.869 95.77,293.869C109.045,294.418 109.041,313.336 95.77,313.883C90.252,313.883 85.762,309.394 85.762,303.876ZM180.299,294.24C174.781,294.24 170.293,289.751 170.293,284.233C170.842,270.956 189.76,270.961 190.307,284.233C190.307,289.751 185.817,294.24 180.299,294.24ZM368.515,191.95C364.606,188.043 358.269,188.043 354.361,191.95C334.602,210.91 334.603,245.021 354.361,263.981C358.27,267.889 364.606,267.889 368.515,263.981C372.423,260.073 372.423,253.736 368.515,249.828C356.519,238.318 356.52,217.612 368.515,206.103C372.423,202.195 372.423,195.858 368.515,191.95ZM255.884,246.039C250.358,246.039 245.877,250.522 245.877,256.049C246.404,269.324 265.367,269.319 265.891,256.049L265.891,256.042C265.891,250.515 261.41,246.039 255.884,246.039ZM156.551,162.914C162.069,162.914 166.558,167.404 166.558,172.922C166.008,186.197 147.092,186.193 146.543,172.922C146.543,167.404 151.034,162.914 156.551,162.914ZM144.604,63.702C150.686,63.702 156.549,64.984 162.025,67.513C165.125,68.944 168.738,68.697 171.613,66.858C174.487,65.018 176.226,61.84 176.226,58.427L176.226,54.696C178.144,8.484 243.975,8.52 245.877,54.696L245.877,90.742L230.39,90.742C218.792,59.403 172.7,66.909 172.062,100.749C172.703,134.595 218.798,142.09 230.39,110.756L245.877,110.756L245.877,162.915L184.858,162.915C180.32,149.505 165.547,140.533 151.064,143.403L136.042,117.385C134.255,114.289 130.95,112.382 127.376,112.382L103.569,112.382C99.052,87.324 119.108,63.457 144.604,63.702ZM356.476,122.411C360.384,118.503 360.384,112.166 356.476,108.259C352.567,104.351 346.231,104.351 342.323,108.259C330.814,120.252 310.106,120.252 298.598,108.259C294.689,104.351 288.353,104.351 284.445,108.259C280.537,112.166 280.537,118.503 284.445,122.411C303.403,142.17 337.518,142.169 356.476,122.411ZM212.091,100.749C212.091,106.267 207.602,110.756 202.084,110.756C188.808,110.207 188.812,91.289 202.084,90.742C207.602,90.742 212.091,95.231 212.091,100.749Z" style="fill:rgb(1,255,9);"/>
            </g>
        </g>
    </g>
</svg>
