<?xml version="1.0" encoding="UTF-8" standalone="no"?>
<!DOCTYPE svg PUBLIC "-//W3C//DTD SVG 1.1//EN" "http://www.w3.org/Graphics/SVG/1.1/DTD/svg11.dtd">
<svg width="100%" height="100%" viewBox="0 0 68 68" version="1.1" xmlns="http://www.w3.org/2000/svg" xmlns:xlink="http://www.w3.org/1999/xlink" xml:space="preserve" xmlns:serif="http://www.serif.com/" style="fill-rule:evenodd;clip-rule:evenodd;stroke-linejoin:round;stroke-miterlimit:2;">
    <g transform="matrix(1,0,0,1,-1788.87,-137.17)">
        <g transform="matrix(2.10535,0,0,1,1145.6,165.848)">
            <g transform="matrix(0.47498,0,0,1,-544.139,-165.848)">
                <path d="M1822.87,137.17C1804.11,137.17 1788.87,152.405 1788.87,171.17C1788.87,189.936 1804.11,205.17 1822.87,205.17C1841.64,205.17 1856.87,189.936 1856.87,171.17C1856.87,152.405 1841.64,137.17 1822.87,137.17ZM1822.87,141.17C1839.43,141.17 1852.87,154.613 1852.87,171.17C1852.87,187.728 1839.43,201.17 1822.87,201.17C1806.31,201.17 1792.87,187.728 1792.87,171.17C1792.87,154.613 1806.31,141.17 1822.87,141.17ZM1822.87,159.249C1818.23,155.08 1811.16,155.464 1807.38,158.261C1802.94,161.549 1802.38,168.112 1806.81,174.689C1809.47,178.876 1816.2,183.171 1821.86,185.968C1822.5,186.282 1823.24,186.282 1823.88,185.968C1829.56,183.166 1836.3,178.858 1838.95,174.655C1843.36,168.107 1842.8,161.548 1838.36,158.261C1834.58,155.464 1827.51,155.08 1822.87,159.249ZM1822.87,162.858C1826.4,157.631 1833.46,157.631 1836.99,160.245C1840.53,162.858 1840.53,168.086 1836.99,173.313C1834.52,177.233 1828.17,181.154 1822.87,183.767C1817.57,181.154 1811.22,177.233 1808.75,173.313C1805.21,168.086 1805.21,162.858 1808.75,160.245C1812.28,157.631 1819.34,157.631 1822.87,162.858Z" style="fill:rgb(255,85,0);"/>
            </g>
        </g>
    </g>
</svg>
