<?xml version="1.0" encoding="UTF-8" standalone="no"?>
<!DOCTYPE svg PUBLIC "-//W3C//DTD SVG 1.1//EN" "http://www.w3.org/Graphics/SVG/1.1/DTD/svg11.dtd">
<svg width="100%" height="100%" viewBox="0 0 34 34" version="1.1" xmlns="http://www.w3.org/2000/svg" xmlns:xlink="http://www.w3.org/1999/xlink" xml:space="preserve" xmlns:serif="http://www.serif.com/" style="fill-rule:evenodd;clip-rule:evenodd;stroke-linejoin:round;stroke-miterlimit:2;">
    <g transform="matrix(0.5,0,0,0.5,-894.435,-132.585)">
        <g transform="matrix(2.10535,0,0,1,1145.6,165.848)">
            <g transform="matrix(0.47498,0,0,1,-544.139,-37.8477)">
                <path d="M1822.87,137.17C1804.11,137.17 1788.87,152.405 1788.87,171.17C1788.87,189.936 1804.11,205.17 1822.87,205.17C1841.64,205.17 1856.87,189.936 1856.87,171.17C1856.87,152.405 1841.64,137.17 1822.87,137.17ZM1822.87,141.17C1839.43,141.17 1852.87,154.613 1852.87,171.17C1852.87,187.728 1839.43,201.17 1822.87,201.17C1806.31,201.17 1792.87,187.728 1792.87,171.17C1792.87,154.613 1806.31,141.17 1822.87,141.17ZM1834.92,159.069C1834.53,158.761 1834.03,158.64 1833.55,158.746C1830.03,159.479 1826.35,158.732 1823.4,156.687C1822.85,156.301 1822.1,156.301 1821.55,156.687C1818.6,158.732 1814.92,159.479 1811.4,158.746C1810.91,158.64 1810.41,158.761 1810.03,159.069C1809.64,159.378 1809.43,159.841 1809.43,160.333L1809.43,172.408C1809.42,177.119 1811.72,181.555 1815.57,184.29L1821.53,188.504C1822.09,188.905 1822.86,188.905 1823.42,188.504L1829.37,184.29C1833.23,181.555 1835.52,177.119 1835.52,172.408L1835.52,160.333C1835.52,159.841 1835.3,159.378 1834.92,159.069ZM1832.26,172.408C1832.26,176.073 1830.48,179.52 1827.48,181.647L1822.47,185.201L1817.47,181.647C1814.47,179.52 1812.69,176.073 1812.69,172.408L1812.69,162.199C1816.11,162.488 1819.53,161.697 1822.47,159.942C1825.41,161.697 1828.84,162.488 1832.26,162.199L1832.26,172.408ZM1830.91,172.432C1830.91,175.59 1829.38,178.561 1826.79,180.398L1822.47,183.46L1822.47,161.683C1822.47,161.987 1827.96,164.166 1830.91,163.626L1830.91,172.432Z" style="fill:rgb(0,241,255);fill-rule:nonzero;"/>
            </g>
        </g>
    </g>
</svg>
