<?xml version="1.0" encoding="UTF-8" standalone="no"?><!DOCTYPE svg PUBLIC "-//W3C//DTD SVG 1.1//EN" "http://www.w3.org/Graphics/SVG/1.1/DTD/svg11.dtd"><svg width="100%" height="100%" viewBox="0 0 96 125" version="1.1" xmlns="http://www.w3.org/2000/svg" xmlns:xlink="http://www.w3.org/1999/xlink" xml:space="preserve" xmlns:serif="http://www.serif.com/" style="fill-rule:evenodd;clip-rule:evenodd;stroke-linejoin:round;stroke-miterlimit:2;"><path d="M11.031,82.15c0.037,0.049 2.278,2.969 2.278,2.969c5.831,7.639 9.043,17.139 9.043,26.75l0,11.274c0,1.025 0.832,1.857 1.857,1.857c1.025,0 1.856,-0.832 1.856,-1.857l-0,-11.274c-0,-10.421 -3.482,-20.721 -9.806,-29.003c0,-0 -2.245,-2.936 -2.287,-2.981c-4.272,-5.602 -10.259,-17.335 -10.259,-24.371c-0,-4.401 0.418,-8.825 1.242,-13.149l0.731,-3.826c0.72,-3.776 4.266,-6.39 8.07,-5.952c8.815,1.015 17.755,1.025 26.573,0.031c3.958,-0.446 7.641,2.268 8.387,6.181l0.036,0.189c0.404,2.12 -0.078,4.244 -1.358,5.982c-1.285,1.743 -3.179,2.837 -5.334,3.08c-4.698,0.529 -9.47,0.81 -14.205,0.833l-1.187,0c-0.696,0 -1.332,0.39 -1.65,1.008c-0.318,0.618 -0.264,1.363 0.14,1.929c0.347,0.486 0.907,0.775 1.504,0.778c0.4,0.001 0.8,0.001 1.202,-0.001l2.233,0c1.288,0 2.574,0.12 3.821,0.359c3.271,0.62 6.374,2.063 8.975,4.175c4.789,3.879 7.535,9.637 7.535,15.797c0,1.026 0.831,1.857 1.856,1.857c1.025,0 1.857,-0.831 1.857,-1.857c0,-7.286 -3.248,-14.095 -8.909,-18.681c-1.126,-0.914 -2.332,-1.722 -3.598,-2.416c0.281,-0.029 0.561,-0.06 0.842,-0.092c3.148,-0.355 6.03,-2.019 7.907,-4.567c0.987,-1.339 1.654,-2.874 1.981,-4.478c1.885,3.822 5.822,6.459 10.363,6.459l0.848,0c4.742,0 8.825,-2.875 10.601,-6.974c2.119,2.483 5.268,4.061 8.78,4.061l0.848,-0c3.021,-0 5.774,-1.168 7.835,-3.075l-0,15.974c-0,7.479 -1.441,14.779 -4.283,21.697c-2.843,6.918 -6.951,13.123 -12.208,18.441c-1.99,2.013 -3.086,4.679 -3.086,7.51l0,16.356c0,1.025 0.831,1.857 1.856,1.857c1.026,-0 1.857,-0.832 1.857,-1.857l0,-16.356c0,-1.847 0.714,-3.587 2.012,-4.899c5.601,-5.665 9.976,-12.273 13.003,-19.641c3.027,-7.367 4.562,-15.143 4.562,-23.108l-0.001,-41.295c0,-6.601 -5.37,-11.971 -11.971,-11.971c-3.334,-0 -6.354,1.372 -8.527,3.58c-1.16,-5.396 -5.965,-9.453 -11.702,-9.453c-4.251,0 -7.99,2.23 -10.114,5.58c-2.125,-3.35 -5.863,-5.58 -10.115,-5.58c-5.459,0 -10.073,3.675 -11.507,8.679c-2.185,-2.327 -5.286,-3.785 -8.722,-3.785c-6.601,0 -11.971,5.37 -11.971,11.972l0,12.189c-4.286,0.883 -7.824,4.285 -8.683,8.789l-0.731,3.825c-0.867,4.554 -1.308,9.211 -1.308,13.845c0,7.851 6.266,20.397 11.031,26.636Zm60.378,-44.544c0,4.319 -3.514,7.835 -7.834,7.835l-0.847,-0c-4.32,-0 -7.835,-3.516 -7.835,-7.835l0,-25.635c0,-4.553 3.705,-8.258 8.258,-8.258c4.554,-0 8.258,3.705 8.258,8.258l0,25.635Zm12.395,4.921l-0.848,0c-4.319,0 -7.834,-3.515 -7.834,-7.834l-0,-16.849c-0,-4.554 3.705,-8.258 8.259,-8.258c4.553,0 8.258,3.704 8.258,8.258l-0,16.849c-0,4.319 -3.515,7.834 -7.835,7.834Zm-43.891,-13.599c-1.745,0.197 -3.496,0.351 -5.249,0.466l0,-17.423c0,-4.553 3.704,-8.258 8.258,-8.258c4.554,-0 8.258,3.705 8.258,8.258l-0,22.842c-2.164,-3.958 -6.585,-6.414 -11.267,-5.885Zm-25.478,-0.002l-0,-12.06c-0,-4.554 3.704,-8.258 8.258,-8.258c4.553,-0 8.258,3.704 8.258,8.258l-0,12.711c-5.512,0.183 -11.038,-0.033 -16.516,-0.651Z" style="fill:#fff;fill-rule:nonzero;"/></svg>