<?xml version="1.0" encoding="UTF-8" standalone="no"?><!DOCTYPE svg PUBLIC "-//W3C//DTD SVG 1.1//EN" "http://www.w3.org/Graphics/SVG/1.1/DTD/svg11.dtd"><svg width="100%" height="100%" viewBox="0 0 101 125" version="1.1" xmlns="http://www.w3.org/2000/svg" xmlns:xlink="http://www.w3.org/1999/xlink" xml:space="preserve" xmlns:serif="http://www.serif.com/" style="fill-rule:evenodd;clip-rule:evenodd;stroke-linejoin:round;stroke-miterlimit:2;"><path d="M33.04,13.461c-4.345,0.288 -7.78,3.909 -7.78,8.326c-0,4.417 3.435,8.039 7.78,8.326l0,6.82c-7.959,2.889 -14.982,7.737 -20.482,13.961c-0.969,1.097 -3.375,5.029 -4.032,6.004c-5.383,7.992 -8.526,17.612 -8.526,27.961c0,15.703 7.234,29.731 18.55,38.923c0.969,0.788 2.181,1.218 3.43,1.218l56.301,-0c1.25,-0 2.461,-0.43 3.431,-1.218c11.315,-9.192 18.549,-23.22 18.549,-38.923c0,-10.349 -3.143,-19.969 -8.526,-27.961c-0.657,-0.975 -3.063,-4.907 -4.032,-6.004c-5.5,-6.224 -12.523,-11.072 -20.482,-13.961l-0,-6.82c4.345,-0.287 7.781,-3.909 7.781,-8.326c-0,-4.417 -3.436,-8.038 -7.781,-8.326l-0,-8.02c-0,-3.005 -2.436,-5.441 -5.441,-5.441l-23.299,-0c-3.005,-0 -5.441,2.436 -5.441,5.441l0,8.02Zm54.182,46.476c4.798,7.123 7.599,15.698 7.599,24.922c-0,14 -6.452,26.505 -16.54,34.7l-56.301,0c-10.088,-8.195 -16.539,-20.7 -16.539,-34.7c-0,-9.224 2.8,-17.799 7.598,-24.922l74.183,-0Zm-55.186,17.91l-4.923,-2.843c-0.332,1.298 -1.336,2.382 -2.72,2.753c-2.045,0.548 -4.15,-0.667 -4.698,-2.712c-0.548,-2.045 0.667,-4.15 2.712,-4.698c0.361,-0.096 0.723,-0.138 1.079,-0.129c-0.186,-0.304 -0.331,-0.639 -0.427,-0.999c-0.548,-2.045 0.667,-4.15 2.712,-4.698c2.045,-0.548 4.15,0.668 4.698,2.712c0.37,1.385 -0.067,2.797 -1.024,3.733l5.107,2.948c3.596,-4.377 9.05,-7.17 15.151,-7.17c6.059,-0 11.48,2.755 15.074,7.078l4.948,-2.856c-0.958,-0.936 -1.395,-2.348 -1.024,-3.733c0.548,-2.044 2.653,-3.26 4.697,-2.712c2.045,0.548 3.26,2.653 2.713,4.698c-0.097,0.36 -0.242,0.695 -0.428,0.999c0.356,-0.009 0.719,0.033 1.079,0.129c2.045,0.548 3.26,2.653 2.712,4.698c-0.548,2.045 -2.652,3.26 -4.697,2.712c-1.385,-0.371 -2.389,-1.455 -2.721,-2.753l-4.74,2.737c1.276,2.599 1.991,5.52 1.991,8.607c-0,1.041 -0.082,2.062 -0.238,3.059c-0.21,1.333 -0.731,2.549 -1.486,3.578l4.473,2.583c0.332,-1.298 1.336,-2.382 2.721,-2.753c2.045,-0.548 4.149,0.667 4.697,2.712c0.548,2.045 -0.667,4.15 -2.712,4.698c-0.36,0.096 -0.723,0.138 -1.079,0.129c0.186,0.304 0.331,0.639 0.428,0.999c0.547,2.045 -0.668,4.15 -2.713,4.698c-2.044,0.548 -4.149,-0.668 -4.697,-2.712c-0.371,-1.385 0.066,-2.797 1.024,-3.733l-6.278,-3.624l-0.302,0.096l-0,0.001c-0,4.572 -3.706,8.278 -8.279,8.278l-10.327,0c-4.566,0 -8.269,-3.697 -8.278,-8.262l-0.473,-0.151l-6.343,3.662c0.957,0.936 1.394,2.348 1.024,3.733c-0.548,2.044 -2.653,3.26 -4.698,2.712c-2.045,-0.548 -3.26,-2.653 -2.712,-4.698c0.096,-0.36 0.241,-0.695 0.427,-0.999c-0.356,0.009 -0.718,-0.033 -1.079,-0.129c-2.045,-0.548 -3.26,-2.653 -2.712,-4.698c0.548,-2.045 2.653,-3.26 4.698,-2.712c1.384,0.371 2.388,1.455 2.72,2.753l4.626,-2.671c-0.72,-1.011 -1.216,-2.194 -1.419,-3.487c-0.007,-0.043 -0.013,-0.085 -0.018,-0.128c-0.128,-0.958 -0.203,-1.937 -0.203,-2.934c-0,-3.045 0.695,-5.928 1.937,-8.501Zm9.665,15.953c0,-0.753 -0.299,-1.475 -0.831,-2.007c-0.532,-0.532 -1.254,-0.831 -2.007,-0.831l-0.365,-0c-1.397,0 -2.586,-1.017 -2.803,-2.397c-0.097,-0.724 -0.156,-1.464 -0.156,-2.217c0,-7.817 6.347,-14.164 14.164,-14.164c7.817,0 14.163,6.347 14.163,14.164c0,0.753 -0.058,1.493 -0.172,2.214c-0.216,1.372 -1.398,2.383 -2.787,2.383c-0.12,0.017 -0.242,0.017 -0.365,0.017c-0.752,-0 -1.474,0.299 -2.006,0.831c-0.533,0.532 -0.832,1.254 -0.832,2.007l0,2.279c0,1.567 -1.27,2.838 -2.838,2.838c-2.911,-0 -7.415,-0 -10.327,-0c-1.567,-0 -2.838,-1.271 -2.838,-2.838c0,-0.741 0,-1.539 0,-2.279Zm7.705,-5.032l2.592,4.663l-5.185,-0l2.593,-4.663Zm-5.323,-8.338c1.401,0 2.539,1.138 2.539,2.539c0,1.401 -1.138,2.538 -2.539,2.538c-1.401,0 -2.538,-1.137 -2.538,-2.538c-0,-1.401 1.137,-2.539 2.538,-2.539Zm10.562,0c1.401,0 2.538,1.138 2.538,2.539c0,1.401 -1.137,2.538 -2.538,2.538c-1.401,0 -2.539,-1.137 -2.539,-2.538c0,-1.401 1.138,-2.539 2.539,-2.539Zm7.135,-50.288l-23.299,0l0,10.773c-8.575,2.313 -16.132,7.115 -21.846,13.581l66.991,0c-5.714,-6.466 -13.271,-11.268 -21.846,-13.581l0,-10.773Zm7.781,-8.355c0,-1.608 -1.306,-2.914 -2.915,-2.914l-33.031,-0c-1.609,-0 -2.915,1.306 -2.915,2.914c0,1.609 1.306,2.915 2.915,2.915l33.031,-0c1.609,-0 2.915,-1.306 2.915,-2.915Zm-7.781,-8.355l0,-7.991l-23.299,-0l0,7.991l23.299,0Z" style="fill:#6700ce;"/></svg>