<?xml version="1.0" encoding="UTF-8" standalone="no"?>
<!DOCTYPE svg PUBLIC "-//W3C//DTD SVG 1.1//EN" "http://www.w3.org/Graphics/SVG/1.1/DTD/svg11.dtd">
<svg width="100%" height="100%" viewBox="0 0 30 30" version="1.1" xmlns="http://www.w3.org/2000/svg" xmlns:xlink="http://www.w3.org/1999/xlink" xml:space="preserve" xmlns:serif="http://www.serif.com/" style="fill-rule:evenodd;clip-rule:evenodd;stroke-linejoin:round;stroke-miterlimit:2;">
    <g transform="matrix(0.5,0,0,0.5,-896.435,-320.585)">
        <g transform="matrix(2.10535,0,0,1,1145.6,165.848)">
            <g transform="matrix(0.337979,0,0,0.711565,551.509,51.6581)">
                <path d="M-681.986,671.607L-681.986,677.72C-681.986,678.823 -681.089,679.72 -679.986,679.72C-678.882,679.72 -677.986,678.823 -677.986,677.72L-677.986,671.607C-677.986,670.503 -678.882,669.607 -679.986,669.607C-681.089,669.607 -681.986,670.503 -681.986,671.607ZM-680.146,608.241C-696.327,608.241 -709.464,621.378 -709.464,637.559C-709.464,653.74 -696.327,666.877 -680.146,666.877C-663.965,666.877 -650.828,653.74 -650.828,637.559C-650.828,621.378 -663.965,608.241 -680.146,608.241ZM-680.146,612.241C-666.173,612.241 -654.828,623.586 -654.828,637.559C-654.828,651.532 -666.173,662.877 -680.146,662.877C-694.12,662.877 -705.464,651.532 -705.464,637.559C-705.464,623.586 -694.12,612.241 -680.146,612.241ZM-681.986,646.948L-681.986,658.518C-681.986,659.621 -681.089,660.518 -679.986,660.518C-678.882,660.518 -677.986,659.621 -677.986,658.518L-677.986,646.948C-677.986,645.844 -678.882,644.948 -679.986,644.948C-681.089,644.948 -681.986,645.844 -681.986,646.948ZM-680.146,632.379C-677.287,632.379 -674.966,634.7 -674.966,637.559C-674.966,640.418 -677.287,642.739 -680.146,642.739C-683.005,642.739 -685.327,640.418 -685.327,637.559C-685.327,634.7 -683.005,632.379 -680.146,632.379ZM-645.938,639.559L-639.825,639.559C-638.721,639.559 -637.825,638.663 -637.825,637.559C-637.825,636.455 -638.721,635.559 -639.825,635.559L-645.938,635.559C-647.042,635.559 -647.938,636.455 -647.938,637.559C-647.938,638.663 -647.042,639.559 -645.938,639.559ZM-714.033,635.559L-720.146,635.559C-721.25,635.559 -722.146,636.455 -722.146,637.559C-722.146,638.663 -721.25,639.559 -720.146,639.559L-714.033,639.559C-712.93,639.559 -712.033,638.663 -712.033,637.559C-712.033,636.455 -712.93,635.559 -714.033,635.559ZM-689.375,635.559L-700.944,635.559C-702.048,635.559 -702.944,636.455 -702.944,637.559C-702.944,638.663 -702.048,639.559 -700.944,639.559L-689.375,639.559C-688.271,639.559 -687.375,638.663 -687.375,637.559C-687.375,636.455 -688.271,635.559 -689.375,635.559ZM-670.596,639.559L-659.027,639.559C-657.923,639.559 -657.027,638.663 -657.027,637.559C-657.027,636.455 -657.923,635.559 -659.027,635.559L-670.596,635.559C-671.7,635.559 -672.596,636.455 -672.596,637.559C-672.596,638.663 -671.7,639.559 -670.596,639.559ZM-677.986,628.17L-677.986,616.6C-677.986,615.497 -678.882,614.6 -679.986,614.6C-681.089,614.6 -681.986,615.497 -681.986,616.6L-681.986,628.17C-681.986,629.274 -681.089,630.17 -679.986,630.17C-678.882,630.17 -677.986,629.274 -677.986,628.17ZM-677.986,603.511L-677.986,597.398C-677.986,596.295 -678.882,595.398 -679.986,595.398C-681.089,595.398 -681.986,596.295 -681.986,597.398L-681.986,603.511C-681.986,604.615 -681.089,605.511 -679.986,605.511C-678.882,605.511 -677.986,604.615 -677.986,603.511Z" style="fill:white;"/>
            </g>
        </g>
    </g>
</svg>
