<?xml version="1.0" encoding="UTF-8" standalone="no"?>
<!DOCTYPE svg PUBLIC "-//W3C//DTD SVG 1.1//EN" "http://www.w3.org/Graphics/SVG/1.1/DTD/svg11.dtd">
<svg width="100%" height="100%" viewBox="0 0 25 30" version="1.1" xmlns="http://www.w3.org/2000/svg" xmlns:xlink="http://www.w3.org/1999/xlink" xml:space="preserve" xmlns:serif="http://www.serif.com/" style="fill-rule:evenodd;clip-rule:evenodd;stroke-linejoin:round;stroke-miterlimit:2;">
    <g transform="matrix(0.5,0,0,0.5,-899.431,-260.585)">
        <g transform="matrix(2.10535,0,0,1,1145.6,165.848)">
            <g transform="matrix(1.38277,0,0,1.38277,247.947,355.323)">
                <path d="M61.195,3.577C60.953,3.164 60.634,3.002 60.33,3.144C58.104,4.126 55.782,3.125 53.917,0.387C53.565,-0.129 53.095,-0.129 52.743,0.387C50.878,3.125 48.553,4.126 46.33,3.144C46.023,3.002 45.704,3.164 45.462,3.577C45.22,3.99 45.082,4.61 45.082,5.269L45.082,21.436C45.079,27.745 46.529,33.685 48.967,37.346L52.73,42.989C53.089,43.525 53.571,43.525 53.927,42.989L57.69,37.346C60.128,33.685 61.578,27.745 61.575,21.436L61.575,5.269C61.578,4.61 61.437,3.99 61.195,3.577ZM59.514,21.436C59.517,26.344 58.389,30.96 56.493,33.808L53.328,38.566L50.163,33.808C48.268,30.96 47.143,26.344 47.143,21.436L47.143,7.767C49.305,8.155 51.47,7.096 53.328,4.746C55.187,7.096 57.352,8.155 59.514,7.767L59.514,21.436ZM58.662,21.469C58.665,25.698 57.693,29.675 56.058,32.135L53.328,36.235L53.328,7.077C53.328,7.483 56.797,10.402 58.662,9.679L58.662,21.469Z" style="fill:rgb(0,242,255);"/>
            </g>
        </g>
    </g>
</svg>
