<?xml version="1.0" encoding="UTF-8" standalone="no"?>
<!DOCTYPE svg PUBLIC "-//W3C//DTD SVG 1.1//EN" "http://www.w3.org/Graphics/SVG/1.1/DTD/svg11.dtd">
<svg width="100%" height="100%" viewBox="0 0 30 28" version="1.1" xmlns="http://www.w3.org/2000/svg" xmlns:xlink="http://www.w3.org/1999/xlink" xml:space="preserve" xmlns:serif="http://www.serif.com/" style="fill-rule:evenodd;clip-rule:evenodd;stroke-linejoin:round;stroke-miterlimit:2;">
    <g transform="matrix(0.5,0,0,0.5,-896.435,-678.796)">
        <g transform="matrix(2.10535,0,0,1,1145.6,165.848)">
            <g transform="matrix(0.0556617,0,0,0.117187,307.438,1189.28)">
                <path d="M418.703,61.57C413.461,59.84 407.805,62.688 406.074,67.934C404.344,73.176 407.191,78.832 412.434,80.563C460.023,96.27 492,140.52 492,190.668C492,237.941 463.734,280.07 419.988,297.992C419.984,297.996 419.977,298 419.969,298.004C419.961,298.008 419.953,298.008 419.945,298.012C406.039,303.789 391.688,306.598 376.07,306.598C370.551,306.598 366.07,311.074 366.07,316.598C366.07,322.121 370.551,326.598 376.07,326.598C386.434,326.598 396.34,325.535 405.957,323.375C397.453,340.137 381.586,365.715 354.703,390.957C312.727,430.367 234.844,476.363 101.68,472.629C95.828,468.215 78.766,454.074 61.902,427.965C42.785,398.371 20,346.848 20,269.465C20,191.738 26.32,139.473 39.895,104.973C52.527,72.867 71.664,55.172 101.945,47.602C148.969,35.848 168.055,41.93 175.781,49.102C183.047,55.844 185.195,68.168 182.176,85.742C178.039,109.77 171.148,124.355 160.488,131.641C149.68,139.027 133.023,140.293 109.57,135.508C100.41,133.516 89.063,130.438 79.938,127.465C74.688,125.75 69.043,128.625 67.332,133.875C65.621,139.125 68.492,144.77 73.742,146.48C81.02,148.852 89.621,151.285 97.59,153.25C98.258,178.926 104.379,257.203 153.137,292.844C140.809,329.801 144.98,356.969 145.176,358.18C145.969,363.09 150.215,366.582 155.035,366.582C155.566,366.582 156.102,366.543 156.645,366.453C162.098,365.57 165.801,360.438 164.918,354.984C164.875,354.719 160.813,328.223 174.52,292.438C174.527,292.418 174.531,292.395 174.539,292.375C174.547,292.352 174.555,292.336 174.563,292.316C186.887,258.859 209.301,230.652 241.297,208.285C243.852,227.941 250.645,246.801 261.348,263.605C263.254,266.598 266.488,268.234 269.793,268.234C271.629,268.234 273.488,267.727 275.156,266.668C279.813,263.699 281.184,257.52 278.215,252.859C266.391,234.297 260.141,212.793 260.141,190.668L260.141,190.652C260.148,140.512 292.117,96.27 339.703,80.562C344.945,78.832 347.797,73.176 346.063,67.93C344.332,62.687 338.672,59.84 333.434,61.57C279.434,79.395 242.582,128.555 240.258,184.992C203.367,208.117 176.672,237.785 160.703,273.371C125.715,243.609 119.039,182.707 117.801,157.187C140.969,160.293 158.312,157.352 171.77,148.156C187.41,137.465 196.699,119.262 201.883,89.129C206.125,64.473 201.922,46.074 189.383,34.441C172.641,18.902 142.453,16.859 97.094,28.199C60.402,37.371 36.312,59.437 21.281,97.648C6.762,134.559 -0,189.152 -0,269.465C-0,352.391 24.902,407.91 45.793,439.879C68.77,475.039 91.914,490.289 92.891,490.918C94.414,491.91 96.18,492.465 97.996,492.523C104.363,492.738 110.664,492.844 116.906,492.844C171.855,492.84 221.844,484.602 265.719,468.289C305.082,453.656 339.625,432.543 368.391,405.535C409.461,366.977 426.773,327.785 431.742,314.711C480.648,292.781 512,244.578 512,190.668C512,131.871 474.508,79.992 418.703,61.57Z" style="fill:rgb(255,121,0);"/>
            </g>
        </g>
    </g>
</svg>
