<?xml version="1.0" encoding="UTF-8" standalone="no"?><!DOCTYPE svg PUBLIC "-//W3C//DTD SVG 1.1//EN" "http://www.w3.org/Graphics/SVG/1.1/DTD/svg11.dtd"><svg width="100%" height="100%" viewBox="0 0 129 121" version="1.1" xmlns="http://www.w3.org/2000/svg" xmlns:xlink="http://www.w3.org/1999/xlink" xml:space="preserve" xmlns:serif="http://www.serif.com/" style="fill-rule:evenodd;clip-rule:evenodd;stroke-linecap:round;stroke-linejoin:round;stroke-miterlimit:1.5;"><g><circle cx="121.006" cy="77.036" r="5.57" style="fill:none;"/><clipPath id="_clip1"><circle cx="121.006" cy="77.036" r="5.57"/></clipPath><g clip-path="url(#_clip1)"><path d="M121.127,80.713c1.743,-1.126 2.972,-2.817 3.817,-4.933c0.065,2.607 -0.316,4.894 -3.817,4.933Z" style="fill:#fff;"/></g><circle cx="121.006" cy="77.036" r="5.57" style="fill:none;stroke:#87f1ff;stroke-width:3.15px;"/><circle cx="105.934" cy="56.901" r="5.57" style="fill:none;"/><clipPath id="_clip2"><circle cx="105.934" cy="56.901" r="5.57"/></clipPath><g clip-path="url(#_clip2)"><path d="M106.055,60.578c1.742,-1.126 2.972,-2.817 3.816,-4.933c0.065,2.607 -0.315,4.893 -3.816,4.933Z" style="fill:#fff;"/></g><circle cx="105.934" cy="56.901" r="5.57" style="fill:none;stroke:#87f1ff;stroke-width:3.15px;"/><circle cx="16.782" cy="96.825" r="5.57" style="fill:none;"/><clipPath id="_clip3"><circle cx="16.782" cy="96.825" r="5.57"/></clipPath><g clip-path="url(#_clip3)"><path d="M16.903,100.502c1.742,-1.126 2.971,-2.818 3.816,-4.933c0.065,2.607 -0.315,4.893 -3.816,4.933Z" style="fill:#fff;"/></g><circle cx="16.782" cy="96.825" r="5.57" style="fill:none;stroke:#87f1ff;stroke-width:3.15px;"/><circle cx="9.845" cy="64.719" r="8.269" style="fill:none;"/><clipPath id="_clip4"><circle cx="9.845" cy="64.719" r="8.269"/></clipPath><g clip-path="url(#_clip4)"><path d="M10.025,70.178c2.587,-1.672 4.411,-4.182 5.665,-7.323c0.097,3.87 -0.468,7.264 -5.665,7.323Z" style="fill:#fff;"/></g><circle cx="9.845" cy="64.719" r="8.269" style="fill:none;stroke:#87f1ff;stroke-width:3.15px;"/><circle cx="19.9" cy="30.435" r="3.165" style="fill:none;"/><clipPath id="_clip5"><circle cx="19.9" cy="30.435" r="3.165"/></clipPath><g clip-path="url(#_clip5)"><path d="M19.969,32.524c0.99,-0.639 1.688,-1.6 2.168,-2.802c0.037,1.481 -0.179,2.78 -2.168,2.802Z" style="fill:#fff;"/></g><circle cx="19.9" cy="30.435" r="3.165" style="fill:none;stroke:#87f1ff;stroke-width:3.15px;"/><circle cx="107.263" cy="30.728" r="3.165" style="fill:none;"/><clipPath id="_clip6"><circle cx="107.263" cy="30.728" r="3.165"/></clipPath><g clip-path="url(#_clip6)"><path d="M107.332,32.818c0.99,-0.64 1.688,-1.601 2.168,-2.803c0.037,1.481 -0.179,2.78 -2.168,2.803Z" style="fill:#fff;"/></g><circle cx="107.263" cy="30.728" r="3.165" style="fill:none;stroke:#87f1ff;stroke-width:3.15px;"/><circle cx="41.849" cy="36.301" r="3.165" style="fill:none;"/><clipPath id="_clip7"><circle cx="41.849" cy="36.301" r="3.165"/></clipPath><g clip-path="url(#_clip7)"><path d="M41.918,38.391c0.99,-0.64 1.688,-1.601 2.168,-2.803c0.037,1.481 -0.179,2.78 -2.168,2.803Z" style="fill:#fff;"/></g><circle cx="41.849" cy="36.301" r="3.165" style="fill:none;stroke:#87f1ff;stroke-width:3.15px;"/><circle cx="44.925" cy="4.741" r="3.165" style="fill:none;"/><clipPath id="_clip8"><circle cx="44.925" cy="4.741" r="3.165"/></clipPath><g clip-path="url(#_clip8)"><path d="M44.994,6.831c0.99,-0.64 1.688,-1.601 2.168,-2.803c0.037,1.481 -0.179,2.78 -2.168,2.803Z" style="fill:#fff;"/></g><circle cx="44.925" cy="4.741" r="3.165" style="fill:none;stroke:#87f1ff;stroke-width:3.15px;"/><circle cx="114.963" cy="10.687" r="3.165" style="fill:none;"/><clipPath id="_clip9"><circle cx="114.963" cy="10.687" r="3.165"/></clipPath><g clip-path="url(#_clip9)"><path d="M115.032,12.776c0.99,-0.639 1.689,-1.6 2.168,-2.802c0.038,1.481 -0.179,2.78 -2.168,2.802Z" style="fill:#fff;"/></g><circle cx="114.963" cy="10.687" r="3.165" style="fill:none;stroke:#87f1ff;stroke-width:3.15px;"/><circle cx="82.814" cy="11.285" r="3.165" style="fill:none;"/><clipPath id="_clip10"><circle cx="82.814" cy="11.285" r="3.165"/></clipPath><g clip-path="url(#_clip10)"><path d="M82.883,13.374c0.99,-0.64 1.688,-1.601 2.168,-2.803c0.037,1.481 -0.179,2.78 -2.168,2.803Z" style="fill:#fff;"/></g><circle cx="82.814" cy="11.285" r="3.165" style="fill:none;stroke:#87f1ff;stroke-width:3.15px;"/><path d="M64.17,10.205c-2.5,26.334 -36.497,55.305 -34.571,79.259c1.534,19.071 15.436,31.152 34.569,31.152c19.133,0 34.765,-12.019 34.765,-31.152c0,-23.322 -31.917,-53.043 -34.763,-79.259Z" style="fill:#87f1ff;"/><clipPath id="_clip11"><path d="M64.17,10.205c-2.5,26.334 -36.497,55.305 -34.571,79.259c1.534,19.071 15.436,31.152 34.569,31.152c19.133,0 34.765,-12.019 34.765,-31.152c0,-23.322 -31.917,-53.043 -34.763,-79.259Z"/></clipPath><g clip-path="url(#_clip11)"><path d="M87.069,77.865c0.355,12.276 -4.933,23.092 -14.592,32.186c16.463,-4.587 22.547,-14.886 14.592,-32.186Z" style="fill:#fff;"/></g></g></svg>