<?xml version="1.0" encoding="UTF-8" standalone="no"?><!DOCTYPE svg PUBLIC "-//W3C//DTD SVG 1.1//EN" "http://www.w3.org/Graphics/SVG/1.1/DTD/svg11.dtd"><svg width="100%" height="100%" viewBox="0 0 188 188" version="1.1" xmlns="http://www.w3.org/2000/svg" xmlns:xlink="http://www.w3.org/1999/xlink" xml:space="preserve" xmlns:serif="http://www.serif.com/" style="fill-rule:evenodd;clip-rule:evenodd;stroke-linejoin:round;stroke-miterlimit:2;"><path d="M187.5,18.75c-0,-10.348 -8.402,-18.75 -18.75,-18.75l-150,0c-10.348,0 -18.75,8.402 -18.75,18.75l-0,150c-0,10.348 8.402,18.75 18.75,18.75l150,0c10.348,0 18.75,-8.402 18.75,-18.75l-0,-150Z" style="fill:none;"/><clipPath id="_clip1"><rect x="15.046" y="31.25" width="157.407" height="125"/></clipPath><g clip-path="url(#_clip1)"><path d="M77.468,61.852l3.875,-19.343l10.884,13.778l21.171,-25.037l5.357,29.954l19.639,-5.88l-8.852,15.329l41.81,-3.713l-37.611,23.467l21.153,16.903l-23.487,6.597l22.764,39.417l-44.018,-23.694l-3.023,23.81l-17.968,-20.514l-12.375,5.343l0.065,-20.588l-0.333,-0.19c-5.426,-3.403 -9.163,-8.162 -12.973,-15.01c-8.352,1.561 -16.532,6.639 -24.787,11.987c-2.416,1.569 -5.555,1.476 -7.879,-0.227c-14.699,-10.783 -18.473,-25.19 -14.158,-42.283c0.681,-2.713 2.922,-4.745 5.685,-5.166l40.533,-6.172c3.685,-0.56 7.444,-0.402 11.046,0.459l3.482,0.773Zm17.439,9.792l0.315,0.037l0.94,0.083l1.94,0.185l0.56,0.037l0.398,0.037l1.972,0.121l1.362,0.092l0.231,0.009c1.343,0.07 2.681,0.116 4.005,0.139c1.93,0.033 3.833,0.422 5.62,1.158c2.426,0.995 4.157,2.477 5.343,4.333c0.213,0.343 0.333,0.736 0.347,1.139c0.125,3.704 0.759,24.148 0.759,24.148c0.028,1.616 -0.139,3.139 -1.5,4.074c-0.597,0.463 -1.514,0.783 -2.81,0.912c-4.588,-0.319 -8.977,-0.949 -12.384,-3.042c-2.949,-3.296 -3.246,-7.148 -1.861,-11.351l0.24,-0.329c0.111,-0.083 0.246,-0.13 0.389,-0.13c0.593,-0.009 1.625,-0.014 2.398,-0.023c0.607,-0.004 1.153,0.357 1.385,0.921c0.81,1.982 1.518,3.963 1.838,5.95c0.814,0.259 1.518,0.185 2.101,-0.218c0.195,-0.134 0.375,-0.306 0.542,-0.514c-1.556,-3.931 -1.505,-7.634 -0.032,-11.134c-4.871,0.824 -8.954,0.435 -11.63,-2.125c-0.694,0.81 -1.301,1.616 -1.815,2.426l-0.153,0.208l-0.055,0.107c-0.491,0.768 -0.898,1.537 -1.232,2.31l-0.115,0.217l-0.061,0.19c-0.328,0.759 -0.569,1.523 -0.745,2.283l-0.051,0.157l-0.028,0.231c-0.18,0.778 -0.268,1.561 -0.291,2.338l-0.01,0.065l0.014,0.162l0.014,1.13l0.153,1.217l0.009,0.125l0.01,0.047c0.143,0.787 0.347,1.574 0.615,2.361l0.06,0.227l0.065,0.148c0.278,0.759 0.616,1.523 1.014,2.282l0.088,0.199l0.134,0.218c0.399,0.741 0.861,1.477 1.375,2.218l0.121,0.199l0.449,0.532l1.592,2.051l9.704,2.69c0.273,0.074 0.491,0.287 0.565,0.56c0.079,0.273 0.005,0.569 -0.185,0.773l-2.426,2.597c-0.445,0.477 -1.065,0.746 -1.713,0.732l-1.352,-0.079l-1.454,-0.102l-1.597,-0.12l-1.074,-0.102l-1.861,-0.194l-1.412,-0.172l-2.398,-0.347l-0.148,-0.023l-1.01,-0.185l-1.662,-0.329l-1.074,-0.241l-2.009,-0.532l-1.083,-0.338l-1.005,-0.347l-1.019,-0.38l-1.194,-0.518l-0.273,-0.125c-2.32,-1.093 -4.255,-2.426 -5.972,-4.038l-0,0.065c-3.371,-3.092 -5.894,-7.217 -8.718,-12.648c-0.431,-0.815 -1.301,-1.301 -2.218,-1.241c-10.435,0.857 -20.708,6.838 -30.958,13.482c-12.143,-8.903 -15.092,-20.861 -11.532,-34.982c-0,0 29.324,-4.467 40.527,-6.171c2.801,-0.426 5.663,-0.305 8.417,0.352c7.227,1.699 14.903,3.037 22.509,3.806Z" style="fill:#fff;"/></g></svg>