<?xml version="1.0" encoding="UTF-8" standalone="no"?>
<!DOCTYPE svg PUBLIC "-//W3C//DTD SVG 1.1//EN" "http://www.w3.org/Graphics/SVG/1.1/DTD/svg11.dtd">
<svg width="100%" height="100%" viewBox="0 0 90 90" version="1.1" xmlns="http://www.w3.org/2000/svg" xmlns:xlink="http://www.w3.org/1999/xlink" xml:space="preserve" xmlns:serif="http://www.serif.com/" style="fill-rule:evenodd;clip-rule:evenodd;stroke-linejoin:round;stroke-miterlimit:2;">
    <g transform="matrix(1,0,0,1,-96.7536,-260.617)">
        <g transform="matrix(2.10535,0,0,1,35.8015,213.408)">
            <g transform="matrix(0.350342,0,0,0.737594,-159.738,-299.847)">
                <path d="M660.603,482.725C660.603,475.991 655.135,470.523 648.401,470.523L550.786,470.523C544.052,470.523 538.584,475.991 538.584,482.725L538.584,580.34C538.584,587.074 544.052,592.541 550.786,592.541L648.401,592.541C655.135,592.541 660.603,587.074 660.603,580.34L660.603,482.725Z" style="fill:none;"/>
            </g>
        </g>
        <g transform="matrix(2.10535,0,0,1,35.8015,213.408)">
            <g transform="matrix(1,0,0,1,0.218285,2.4003)">
                <g transform="matrix(0.505034,0,0,1.09024,-952.563,-203.391)">
                    <path d="M1986.63,236.243L1988.15,250.636L1991.97,243.397L1992.16,249.527L1996.04,245.25L1995.95,249.491L2001.71,241.423L1999.53,249.505L2004.75,247.702L2003.65,251.048L2012.7,248.406L2009.02,253.529L2012.64,255.479L2010.84,256.882L2018.05,259.524L2012.16,260.838L2016.39,262.973L2012.65,264.29L2018.67,266.825L2012.4,267.543L2015.05,270.984L2011.64,270.807L2013.92,275.634L2009.93,274.661L2011.31,280.347L2007.81,277.364L2009.18,283.488L2005.43,281.138L2007.98,289.128L2003.11,283.495L2003.22,287.456L1999.92,285.889L2000.61,290.088L1997.34,288.417L1998.91,293.63L1993.38,289.264L1993.18,295.405L1990.9,290.048L1989.24,295.091L1988.25,291.81L1987.21,301.618L1985.43,292.287L1983.04,294.611L1983.17,290.491L1976.92,295.086L1978.91,289.375L1974.14,290.899L1975.23,287.326L1966.75,291.644L1971.23,285.377L1966.38,285.709L1969,283.125L1961.87,282.37L1965.87,279.566L1958.19,278.792L1963.48,275.537L1958.4,275.024L1961.79,272.483L1956.62,270.715L1961.06,268.291L1952.03,266.218L1960.69,263.777L1954.92,259.896L1960.67,259.099L1957.84,254.493L1961.94,255.046L1959.15,247.301L1963.88,251.825L1964.5,248.284L1966.94,251.194L1966.95,243.156L1969.95,249.402L1970.69,245.852L1972.37,248.809L1973.2,239.927L1975.11,248.226L1977.17,245.502L1979.12,248.872L1980.06,243.821L1982.61,250.084L1983.72,245.743L1984.72,247.922L1986.63,236.243ZM1986.34,255.057C1980.6,249.901 1971.83,250.894 1967.16,254.354C1961.66,258.421 1960.97,266.539 1966.45,274.674C1969.74,279.853 1978.06,285.166 1985.07,288.625C1985.85,289.014 1986.77,289.014 1987.56,288.625C1994.58,285.159 2002.92,279.831 2006.2,274.632C2011.66,266.533 2010.96,258.42 2005.47,254.354C2000.79,250.894 1992.08,249.901 1986.34,255.057Z" style="fill:white;"/>
                </g>
                <g transform="matrix(1.4504,0,0,1.50669,-35.0756,-12.3084)">
                    <g transform="matrix(0.418268,0,-5.85458e-33,0.880601,-364.242,6.81346)">
                        <path d="M1011.01,63.188L1006.6,78.033C1002.78,75.854 1001.25,74.972 998.954,71.789C995.887,67.538 995.942,63.207 998.954,61.061C1001.97,58.916 1007.99,58.916 1011,63.207L1011.01,63.188Z" style="fill:white;"/>
                    </g>
                    <g transform="matrix(0.704952,-8.23882e-17,8.23882e-17,1.48417,-545.637,-19.7649)">
                        <path d="M857.744,53.084C855.077,50.778 851.017,50.991 848.846,52.538C846.293,54.357 845.97,57.987 848.516,61.625C850.045,63.941 853.909,66.317 857.166,67.863C857.532,68.037 857.956,68.037 858.322,67.863C861.585,66.313 865.459,63.931 866.984,61.606C869.518,57.984 869.194,54.356 866.642,52.538C864.47,50.991 860.411,50.778 857.744,53.084ZM857.744,55.081C859.773,52.19 863.831,52.19 865.86,53.635C867.889,55.081 867.889,57.972 865.86,60.864C864.44,63.032 860.787,65.201 857.744,66.646C854.7,65.201 851.048,63.032 849.628,60.864C847.599,57.972 847.599,55.081 849.628,53.635C851.657,52.19 855.715,52.19 857.744,55.081Z" style="fill:white;"/>
                    </g>
                </g>
            </g>
        </g>
    </g>
</svg>
