<?xml version="1.0" encoding="UTF-8" standalone="no"?>
<!DOCTYPE svg PUBLIC "-//W3C//DTD SVG 1.1//EN" "http://www.w3.org/Graphics/SVG/1.1/DTD/svg11.dtd">
<svg width="100%" height="100%" viewBox="0 0 90 90" version="1.1" xmlns="http://www.w3.org/2000/svg" xmlns:xlink="http://www.w3.org/1999/xlink" xml:space="preserve" xmlns:serif="http://www.serif.com/" style="fill-rule:evenodd;clip-rule:evenodd;stroke-linejoin:round;stroke-miterlimit:2;">
    <g transform="matrix(1,0,0,1,-226.754,-260.617)">
        <g transform="matrix(2.10535,0,0,1,165.801,213.408)">
            <g transform="matrix(0.350342,0,0,0.737594,-159.738,-299.847)">
                <path d="M660.603,482.725C660.603,475.991 655.135,470.523 648.401,470.523L550.786,470.523C544.052,470.523 538.584,475.991 538.584,482.725L538.584,580.34C538.584,587.074 544.052,592.541 550.786,592.541L648.401,592.541C655.135,592.541 660.603,587.074 660.603,580.34L660.603,482.725Z" style="fill:none;"/>
            </g>
        </g>
        <g transform="matrix(2.10535,0,0,1,165.801,213.408)">
            <g transform="matrix(1,0,0,1,0.094865,-16.8216)">
                <g transform="matrix(2.35448,0,0,2.35448,-35.7841,-152.319)">
                    <g transform="matrix(0.757184,-9.19266e-17,8.84926e-17,1.656,-612.938,12.1727)">
                        <path d="M857.744,53.084C855.077,50.778 851.017,50.991 848.846,52.538C846.293,54.357 845.97,57.987 848.516,61.625C850.045,63.941 853.909,66.317 857.166,67.863C857.532,68.037 857.956,68.037 858.322,67.863C861.585,66.313 865.459,63.931 866.984,61.606C869.518,57.984 869.194,54.356 866.642,52.538C864.47,50.991 860.411,50.778 857.744,53.084Z" style="fill-opacity:0.2;"/>
                    </g>
                    <g transform="matrix(0.527004,0.109046,0.0517945,-1.10953,-879.829,29.131)">
                        <path d="M1724.09,90.851C1725.21,89.987 1726.58,89.463 1727.99,89.24C1728.56,89.151 1729.13,89.112 1729.7,89.116C1730.08,89.119 1730.46,89.142 1730.83,89.187C1731.22,89.233 1731.59,89.3 1731.96,89.387C1732.53,89.524 1733.08,89.708 1733.58,89.931C1735.13,90.623 1736.24,91.686 1736.45,92.941C1736.45,92.987 1736.42,93.031 1736.38,93.04C1736.33,93.049 1736.29,93.019 1736.28,92.973C1736.06,91.974 1735.22,91.153 1734.06,90.565C1733.39,90.229 1732.62,89.973 1731.79,89.804C1731.46,89.736 1731.12,89.682 1730.78,89.641C1730.42,89.598 1730.06,89.57 1729.69,89.559C1729.14,89.543 1728.59,89.565 1728.05,89.628C1726.67,89.786 1725.32,90.21 1724.19,90.987C1724.15,91.015 1724.1,91.007 1724.07,90.969C1724.05,90.931 1724.05,90.878 1724.09,90.851Z" style="fill:white;"/>
                    </g>
                    <g transform="matrix(0.435804,-5.55112e-17,2.77556e-17,0.435804,17.8798,71.9321)">
                        <g transform="matrix(4.74241,2.67532,-0.527918,4.148,-223.857,-342.286)">
                            <path d="M65.991,58.37L65.951,56.803C65.948,56.7 65.922,56.609 65.882,56.569C65.842,56.529 65.797,56.546 65.764,56.614L65.448,57.271C65.254,57.048 65.034,56.922 64.801,56.922C64.57,56.922 64.352,57.045 64.16,57.262C64.16,57.262 63.848,56.614 63.848,56.614C63.816,56.546 63.77,56.529 63.73,56.569C63.691,56.609 63.664,56.7 63.661,56.803L63.623,58.327C63.475,58.822 63.389,59.415 63.389,60.054C63.389,61.772 64.017,63.185 64.801,63.185C65.581,63.185 66.212,61.772 66.212,60.054C66.212,59.434 66.131,58.857 65.991,58.37ZM65.88,58.465L65.838,56.82L65.464,57.596C65.27,57.341 65.043,57.194 64.801,57.194C64.561,57.194 64.336,57.337 64.143,57.587L63.774,56.82L63.734,58.424C63.588,58.886 63.503,59.447 63.503,60.054C63.503,61.629 64.083,62.913 64.801,62.913C65.516,62.913 66.099,61.629 66.099,60.054C66.099,59.465 66.018,58.919 65.88,58.465Z" style="fill:white;"/>
                        </g>
                        <g transform="matrix(0.166005,-5.57001e-17,2.85568e-17,0.363061,-92.3214,52.8245)">
                            <path d="M857.744,53.084C855.077,50.778 851.017,50.991 848.846,52.538C846.293,54.357 845.97,57.987 848.516,61.625C850.045,63.941 853.909,66.317 857.166,67.863C857.532,68.037 857.956,68.037 858.322,67.863C861.585,66.313 865.459,63.931 866.984,61.606C869.518,57.984 869.194,54.356 866.642,52.538C864.47,50.991 860.411,50.778 857.744,53.084Z" style="fill:white;"/>
                        </g>
                        <g transform="matrix(0.143764,0.174749,-0.0862234,0.31442,-63.4364,-91.5326)">
                            <path d="M857.744,53.084C855.077,50.778 851.017,50.991 848.846,52.538C846.293,54.357 845.97,57.987 848.516,61.625C850.045,63.941 853.909,66.317 857.166,67.863C857.532,68.037 857.956,68.037 858.322,67.863C861.585,66.313 865.459,63.931 866.984,61.606C869.518,57.984 869.194,54.356 866.642,52.538C864.47,50.991 860.411,50.778 857.744,53.084Z" style="fill:white;"/>
                        </g>
                        <g transform="matrix(0.458795,0.258819,0.122934,-0.965926,-753.773,-276.121)">
                            <path d="M1724.01,90.744C1725.13,89.81 1726.5,89.215 1727.95,88.938C1728.53,88.827 1729.12,88.777 1729.7,88.771C1730.1,88.768 1730.49,88.787 1730.88,88.834C1731.27,88.881 1731.66,88.955 1732.03,89.052C1732.63,89.204 1733.19,89.407 1733.7,89.655C1735.29,90.434 1736.41,91.592 1736.58,92.916C1736.6,93.033 1736.52,93.146 1736.4,93.169C1736.29,93.192 1736.17,93.115 1736.15,92.998C1735.9,92.054 1735.05,91.327 1733.92,90.809C1733.54,90.634 1733.13,90.49 1732.69,90.364C1732.08,90.188 1731.42,90.071 1730.74,89.994C1730.39,89.955 1730.04,89.92 1729.68,89.904C1729.15,89.879 1728.62,89.886 1728.09,89.93C1726.73,90.041 1725.4,90.379 1724.27,91.094C1724.17,91.164 1724.04,91.143 1723.97,91.047C1723.9,90.95 1723.92,90.815 1724.01,90.744Z" style="fill:white;"/>
                        </g>
                    </g>
                    <g transform="matrix(0.377418,-0.458761,0.103499,0.377418,5.03224,100.541)">
                        <g transform="matrix(4.74241,2.67532,-0.527918,4.148,-223.857,-342.286)">
                            <path d="M65.991,58.37L65.951,56.803C65.948,56.7 65.922,56.609 65.882,56.569C65.842,56.529 65.797,56.546 65.764,56.614L65.448,57.271C65.254,57.048 65.034,56.922 64.801,56.922C64.57,56.922 64.352,57.045 64.16,57.262C64.16,57.262 63.848,56.614 63.848,56.614C63.816,56.546 63.77,56.529 63.73,56.569C63.691,56.609 63.664,56.7 63.661,56.803L63.623,58.327C63.475,58.822 63.389,59.415 63.389,60.054C63.389,61.772 64.017,63.185 64.801,63.185C65.581,63.185 66.212,61.772 66.212,60.054C66.212,59.434 66.131,58.857 65.991,58.37ZM65.88,58.465L65.838,56.82L65.464,57.596C65.27,57.341 65.043,57.194 64.801,57.194C64.561,57.194 64.336,57.337 64.143,57.587L63.774,56.82L63.734,58.424C63.588,58.886 63.503,59.447 63.503,60.054C63.503,61.629 64.083,62.913 64.801,62.913C65.516,62.913 66.099,61.629 66.099,60.054C66.099,59.465 66.018,58.919 65.88,58.465Z" style="fill:white;"/>
                        </g>
                        <g transform="matrix(0.166005,-5.57001e-17,2.85568e-17,0.363061,-92.3214,52.8245)">
                            <path d="M857.744,53.084C855.077,50.778 851.017,50.991 848.846,52.538C846.293,54.357 845.97,57.987 848.516,61.625C850.045,63.941 853.909,66.317 857.166,67.863C857.532,68.037 857.956,68.037 858.322,67.863C861.585,66.313 865.459,63.931 866.984,61.606C869.518,57.984 869.194,54.356 866.642,52.538C864.47,50.991 860.411,50.778 857.744,53.084Z" style="fill:white;"/>
                        </g>
                        <g transform="matrix(0.143764,0.174749,-0.0862234,0.31442,-63.4364,-91.5326)">
                            <path d="M857.744,53.084C855.077,50.778 851.017,50.991 848.846,52.538C846.293,54.357 845.97,57.987 848.516,61.625C850.045,63.941 853.909,66.317 857.166,67.863C857.532,68.037 857.956,68.037 858.322,67.863C861.585,66.313 865.459,63.931 866.984,61.606C869.518,57.984 869.194,54.356 866.642,52.538C864.47,50.991 860.411,50.778 857.744,53.084Z" style="fill:white;"/>
                        </g>
                        <g transform="matrix(0.458795,0.258819,0.122934,-0.965926,-753.773,-276.121)">
                            <path d="M1724.01,90.744C1725.13,89.81 1726.5,89.215 1727.95,88.938C1728.53,88.827 1729.12,88.777 1729.7,88.771C1730.1,88.768 1730.49,88.787 1730.88,88.834C1731.27,88.881 1731.66,88.955 1732.03,89.052C1732.63,89.204 1733.19,89.407 1733.7,89.655C1735.29,90.434 1736.41,91.592 1736.58,92.916C1736.6,93.033 1736.52,93.146 1736.4,93.169C1736.29,93.192 1736.17,93.115 1736.15,92.998C1735.9,92.054 1735.05,91.327 1733.92,90.809C1733.54,90.634 1733.13,90.49 1732.69,90.364C1732.08,90.188 1731.42,90.071 1730.74,89.994C1730.39,89.955 1730.04,89.92 1729.68,89.904C1729.15,89.879 1728.62,89.886 1728.09,89.93C1726.73,90.041 1725.4,90.379 1724.27,91.094C1724.17,91.164 1724.04,91.143 1723.97,91.047C1723.9,90.95 1723.92,90.815 1724.01,90.744Z" style="fill:white;"/>
                        </g>
                    </g>
                </g>
            </g>
        </g>
    </g>
</svg>
