<?xml version="1.0" encoding="UTF-8" standalone="no"?>
<!DOCTYPE svg PUBLIC "-//W3C//DTD SVG 1.1//EN" "http://www.w3.org/Graphics/SVG/1.1/DTD/svg11.dtd">
<svg width="100%" height="100%" viewBox="0 0 90 90" version="1.1" xmlns="http://www.w3.org/2000/svg" xmlns:xlink="http://www.w3.org/1999/xlink" xml:space="preserve" xmlns:serif="http://www.serif.com/" style="fill-rule:evenodd;clip-rule:evenodd;stroke-linecap:round;stroke-linejoin:round;stroke-miterlimit:1.5;">
    <g transform="matrix(1,0,0,1,-356.754,-260.617)">
        <g transform="matrix(2.10535,0,0,1,295.801,213.408)">
            <g transform="matrix(0.350342,0,0,0.737594,-159.738,-299.847)">
                <path d="M660.603,482.725C660.603,475.991 655.135,470.523 648.401,470.523L550.786,470.523C544.052,470.523 538.584,475.991 538.584,482.725L538.584,580.34C538.584,587.074 544.052,592.541 550.786,592.541L648.401,592.541C655.135,592.541 660.603,587.074 660.603,580.34L660.603,482.725Z" style="fill:none;"/>
            </g>
        </g>
        <g transform="matrix(2.10535,0,0,1,295.801,213.408)">
            <g transform="matrix(0.280865,0,0,0.280865,-61.3969,7.80136)">
                <g transform="matrix(0.47498,0,0,1,2.93054,13.5836)">
                    <path d="M915.308,228.509C917.287,225.539 919.76,222.87 922.665,220.633C928.773,215.939 933.933,214.954 937.431,220.461C938.551,222.225 939.242,224.223 939.451,226.295C941.448,223.039 944.05,221.198 947.511,221.362C949.7,221.469 951.505,223.115 951.813,225.285C954.008,240.69 951.218,251.01 938.731,251.448C936.795,268.581 931.514,284.958 920.427,300.025C920.156,300.391 919.704,300.576 919.254,300.503C918.804,300.43 918.433,300.113 918.29,299.68C915.377,290.651 913.28,280.769 911.835,270.206C905.566,273.792 896.635,274.275 883.653,272.669C883.614,273.384 883.565,274.097 883.506,274.808C883.257,277.68 881.698,280.276 879.279,281.845C870.771,287.021 857.107,288.627 835.886,287.376C833.771,287.253 831.948,286.025 830.998,284.249C830.048,286.025 828.225,287.253 826.11,287.376C804.888,288.627 791.225,287.021 782.716,281.845C780.298,280.276 778.739,277.68 778.49,274.808C778.432,274.108 778.383,273.406 778.345,272.7C765.229,274.302 756.274,273.746 750.027,269.976C748.582,280.626 746.475,290.586 743.541,299.68C743.399,300.113 743.027,300.43 742.577,300.503C742.128,300.576 741.675,300.391 741.404,300.025C730.309,284.947 725.029,268.557 723.096,251.408C711.258,250.579 708.628,240.37 710.777,225.285C711.085,223.115 712.89,221.469 715.079,221.362C718.187,221.215 720.603,222.685 722.51,225.346C722.812,223.615 723.452,221.954 724.401,220.461C727.899,214.954 733.058,215.939 739.166,220.633C742.177,222.951 744.723,225.733 746.738,228.835C748.881,225.425 752.048,222.68 755.898,221.066C762.695,218.219 770.509,219.36 776.206,224.033C776.206,224.033 776.206,224.033 776.263,223.966C779.873,226.961 782.405,231.053 783.475,235.62C783.971,237.713 784.449,239.78 784.893,241.833C789.764,235.363 797.607,231.467 806.068,231.832C807.573,231.895 809.06,232.073 810.53,232.381C821.123,234.521 829.253,243.048 830.884,253.731C830.923,253.982 830.961,254.232 830.998,254.483C831.035,254.232 831.073,253.982 831.112,253.731C832.743,243.048 840.873,234.521 851.466,232.381C852.936,232.073 854.423,231.895 855.928,231.832C864.505,231.462 872.448,235.472 877.303,242.103C877.764,239.963 878.262,237.805 878.78,235.62C879.85,231.053 882.382,226.961 885.992,223.966C886.049,224.033 886.049,224.033 886.049,224.033C891.746,219.36 899.56,218.219 906.357,221.066C910.084,222.628 913.17,225.249 915.308,228.509Z" style="fill:white;"/>
                    <clipPath id="_clip1">
                        <path d="M915.308,228.509C917.287,225.539 919.76,222.87 922.665,220.633C928.773,215.939 933.933,214.954 937.431,220.461C938.551,222.225 939.242,224.223 939.451,226.295C941.448,223.039 944.05,221.198 947.511,221.362C949.7,221.469 951.505,223.115 951.813,225.285C954.008,240.69 951.218,251.01 938.731,251.448C936.795,268.581 931.514,284.958 920.427,300.025C920.156,300.391 919.704,300.576 919.254,300.503C918.804,300.43 918.433,300.113 918.29,299.68C915.377,290.651 913.28,280.769 911.835,270.206C905.566,273.792 896.635,274.275 883.653,272.669C883.614,273.384 883.565,274.097 883.506,274.808C883.257,277.68 881.698,280.276 879.279,281.845C870.771,287.021 857.107,288.627 835.886,287.376C833.771,287.253 831.948,286.025 830.998,284.249C830.048,286.025 828.225,287.253 826.11,287.376C804.888,288.627 791.225,287.021 782.716,281.845C780.298,280.276 778.739,277.68 778.49,274.808C778.432,274.108 778.383,273.406 778.345,272.7C765.229,274.302 756.274,273.746 750.027,269.976C748.582,280.626 746.475,290.586 743.541,299.68C743.399,300.113 743.027,300.43 742.577,300.503C742.128,300.576 741.675,300.391 741.404,300.025C730.309,284.947 725.029,268.557 723.096,251.408C711.258,250.579 708.628,240.37 710.777,225.285C711.085,223.115 712.89,221.469 715.079,221.362C718.187,221.215 720.603,222.685 722.51,225.346C722.812,223.615 723.452,221.954 724.401,220.461C727.899,214.954 733.058,215.939 739.166,220.633C742.177,222.951 744.723,225.733 746.738,228.835C748.881,225.425 752.048,222.68 755.898,221.066C762.695,218.219 770.509,219.36 776.206,224.033C776.206,224.033 776.206,224.033 776.263,223.966C779.873,226.961 782.405,231.053 783.475,235.62C783.971,237.713 784.449,239.78 784.893,241.833C789.764,235.363 797.607,231.467 806.068,231.832C807.573,231.895 809.06,232.073 810.53,232.381C821.123,234.521 829.253,243.048 830.884,253.731C830.923,253.982 830.961,254.232 830.998,254.483C831.035,254.232 831.073,253.982 831.112,253.731C832.743,243.048 840.873,234.521 851.466,232.381C852.936,232.073 854.423,231.895 855.928,231.832C864.505,231.462 872.448,235.472 877.303,242.103C877.764,239.963 878.262,237.805 878.78,235.62C879.85,231.053 882.382,226.961 885.992,223.966C886.049,224.033 886.049,224.033 886.049,224.033C891.746,219.36 899.56,218.219 906.357,221.066C910.084,222.628 913.17,225.249 915.308,228.509Z"/>
                    </clipPath>
                    <g clip-path="url(#_clip1)">
                        <path d="M719.706,271.314C725.146,264.551 730.305,263.829 735.073,271.519C737.716,269.157 740.359,269.13 743.002,271.856C742.654,264.231 743.171,257.928 748.009,258.23C750.123,258.117 752.062,259.397 752.789,261.385C754.274,264.843 756.521,266.604 759.744,266.59C769.47,266.566 779.66,266.779 778.757,270.885C778.753,270.903 778.75,270.922 778.748,270.94C778.742,270.963 776.914,285.147 776.914,285.147L747.798,315.556L731.325,303.272L719.706,271.314Z" style="fill:rgb(255,44,0);"/>
                        <g transform="matrix(3.56043,0,0,3.56043,-1341.54,-61.1709)">
                            <path d="M631.022,97.489C631.774,96.698 632.301,95.642 633.199,95C633.683,94.654 634.518,95.2 634.981,94.738C635.26,94.459 635.36,94.072 635.545,93.733C635.776,93.31 636.159,93.06 636.586,92.875C637.198,92.611 637.815,93.33 638.424,93.088C639.508,92.658 640.734,92.285 641.917,92.681C642.289,92.806 642.867,92.893 643.098,93.259C643.546,93.97 643.5,95.161 643.428,95.955C643.315,97.199 642.426,98.336 641.813,99.368C640.975,100.779 640.103,102.203 638.969,103.401C638.432,103.969 637.78,104.402 637.231,104.948C636.597,105.578 636.303,106.413 635.359,106.729C634.016,107.179 632.501,106.176 631.66,105.201C630.796,104.198 630.507,102.875 630.219,101.623C630.037,100.831 629.742,99.875 629.908,99.046C629.978,98.697 630.407,98.224 630.655,97.976C630.752,97.88 631.017,97.749 631.017,97.619" style="fill:rgb(255,44,0);"/>
                        </g>
                        <g transform="matrix(3.56043,0,0,3.56043,-1341.54,-61.1709)">
                            <path d="M608.163,80.781C612.317,87.291 610.522,96.165 610.169,102.081" style="fill:none;stroke:rgb(255,44,0);stroke-width:1px;"/>
                        </g>
                        <g transform="matrix(3.54463,-0.335133,0.335133,3.54463,-1311.68,144.5)">
                            <path d="M608.163,80.781C612.317,87.291 610.522,96.165 610.169,102.081" style="fill:none;stroke:rgb(255,44,0);stroke-width:1px;"/>
                        </g>
                        <g transform="matrix(-3.54463,-0.335133,-0.335133,3.54463,2974.07,144.5)">
                            <path d="M608.163,80.781C612.317,87.291 610.522,96.165 610.169,102.081" style="fill:none;stroke:rgb(255,44,0);stroke-width:1px;"/>
                        </g>
                        <g transform="matrix(3.51082,0.592302,-0.592302,3.51082,-1174.45,-432.872)">
                            <path d="M608.163,80.781C612.317,87.291 610.522,96.165 610.169,102.081" style="fill:none;stroke:rgb(255,44,0);stroke-width:1px;"/>
                        </g>
                        <g transform="matrix(-3.51082,0.592302,0.592302,3.51082,2836.84,-432.872)">
                            <path d="M608.163,80.781C612.317,87.291 610.522,96.165 610.169,102.081" style="fill:none;stroke:rgb(255,44,0);stroke-width:1px;"/>
                        </g>
                        <g transform="matrix(3.51082,0.592302,-0.592302,3.51082,-1149.94,-430.941)">
                            <path d="M608.163,80.781C612.317,87.291 610.522,96.165 610.169,102.081" style="fill:none;stroke:rgb(255,44,0);stroke-width:1px;"/>
                        </g>
                        <g transform="matrix(-3.51082,0.592302,0.592302,3.51082,2812.33,-430.941)">
                            <path d="M608.163,80.781C612.317,87.291 610.522,96.165 610.169,102.081" style="fill:none;stroke:rgb(255,44,0);stroke-width:1px;"/>
                        </g>
                    </g>
                    <path d="M914.973,217.874C913.191,216.525 911.226,215.386 909.108,214.499C900.288,210.803 890.205,212.056 882.578,217.717C882.184,217.931 881.805,218.188 881.446,218.485C877.95,221.385 875.214,225.058 873.435,229.185C868.194,226.079 862.048,224.441 855.625,224.717C853.738,224.796 851.875,225.021 850.032,225.406C842.359,226.962 835.699,231.144 830.998,236.963C826.296,231.143 819.637,226.962 811.964,225.406C810.121,225.021 808.258,224.796 806.371,224.717C800.033,224.445 793.965,226.036 788.769,229.063C786.99,224.989 784.272,221.358 780.809,218.485C780.45,218.188 780.071,217.931 779.677,217.717C772.05,212.056 761.967,210.803 753.147,214.499C750.935,215.426 748.889,216.627 747.045,218.055C745.934,216.973 744.755,215.949 743.509,214.99C743.508,214.989 743.507,214.988 743.505,214.987C737.888,210.67 732.552,209.063 728.218,209.76C725.124,210.258 722.199,211.759 719.725,214.788C718.174,214.347 716.514,214.165 714.742,214.249C714.739,214.249 714.736,214.25 714.733,214.25C709.133,214.523 704.515,218.733 703.727,224.285C701.208,241.967 705.193,253.856 716.717,257.45C719.236,273.907 724.924,289.644 735.668,304.246C735.673,304.252 735.678,304.259 735.683,304.266C737.539,306.77 740.636,308.03 743.713,307.533C746.79,307.036 749.333,304.864 750.306,301.903C750.31,301.891 750.314,301.879 750.318,301.867C752.562,294.913 754.346,287.474 755.732,279.621C760.432,280.601 765.997,280.855 772.629,280.402C773.896,283.405 776.041,286.003 778.84,287.819C778.898,287.857 778.957,287.893 779.015,287.929C788.344,293.604 803.259,295.855 826.526,294.485C828.108,294.392 829.616,294.019 830.999,293.413C832.379,294.019 833.887,294.392 835.47,294.485C858.737,295.855 873.652,293.604 882.98,287.929C883.039,287.893 883.098,287.857 883.155,287.819C885.96,285.999 888.109,283.395 889.374,280.384C895.927,280.848 901.444,280.629 906.114,279.708C907.498,287.529 909.278,294.938 911.514,301.867C911.518,301.879 911.522,301.891 911.526,301.903C912.499,304.864 915.041,307.036 918.118,307.533C921.195,308.03 924.292,306.77 926.148,304.266C926.153,304.259 926.158,304.252 926.163,304.246C936.867,289.698 942.553,274.024 945.088,257.634C947.833,256.841 950.131,255.581 952.048,253.976C958.449,248.62 960.843,238.185 958.863,224.284C958.076,218.733 953.458,214.523 947.857,214.25C947.854,214.25 947.851,214.249 947.848,214.249C945.845,214.154 943.98,214.398 942.254,214.973C939.75,211.82 936.77,210.269 933.613,209.76C929.279,209.063 923.943,210.67 918.326,214.987C918.325,214.988 918.323,214.989 918.322,214.99C917.147,215.895 916.029,216.858 914.973,217.874ZM915.308,228.509C917.287,225.539 919.76,222.87 922.665,220.633C928.773,215.939 933.933,214.954 937.431,220.461C938.551,222.225 939.242,224.223 939.451,226.295C941.448,223.039 944.05,221.198 947.511,221.362C949.7,221.469 951.505,223.115 951.813,225.285C954.008,240.69 951.218,251.01 938.731,251.448C936.795,268.581 931.514,284.958 920.427,300.025C920.156,300.391 919.704,300.576 919.254,300.503C918.804,300.43 918.433,300.113 918.29,299.68C915.377,290.651 913.28,280.769 911.835,270.206C905.566,273.792 896.635,274.275 883.653,272.669C883.614,273.384 883.565,274.097 883.506,274.808C883.257,277.68 881.698,280.276 879.279,281.845C870.771,287.021 857.107,288.627 835.886,287.376C833.771,287.253 831.948,286.025 830.998,284.249C830.048,286.025 828.225,287.253 826.11,287.376C804.888,288.627 791.225,287.021 782.716,281.845C780.298,280.276 778.739,277.68 778.49,274.808C778.432,274.108 778.383,273.406 778.345,272.7C765.229,274.302 756.274,273.746 750.027,269.976C748.582,280.626 746.475,290.586 743.541,299.68C743.399,300.113 743.027,300.43 742.577,300.503C742.128,300.576 741.675,300.391 741.404,300.025C730.309,284.947 725.029,268.557 723.096,251.408C711.258,250.579 708.628,240.37 710.777,225.285C711.085,223.115 712.89,221.469 715.079,221.362C718.187,221.215 720.603,222.685 722.51,225.346C722.812,223.615 723.452,221.954 724.401,220.461C727.899,214.954 733.058,215.939 739.166,220.633C742.177,222.951 744.723,225.733 746.738,228.835C748.881,225.425 752.048,222.68 755.898,221.066C762.695,218.219 770.509,219.36 776.206,224.033C776.206,224.033 776.206,224.033 776.263,223.966C779.873,226.961 782.405,231.053 783.475,235.62C783.971,237.713 784.449,239.78 784.893,241.833C789.764,235.363 797.607,231.467 806.068,231.832C807.573,231.895 809.06,232.073 810.53,232.381C821.123,234.521 829.253,243.048 830.884,253.731C830.923,253.982 830.961,254.232 830.998,254.483C831.035,254.232 831.073,253.982 831.112,253.731C832.743,243.048 840.873,234.521 851.466,232.381C852.936,232.073 854.423,231.895 855.928,231.832C864.505,231.462 872.448,235.472 877.303,242.103C877.764,239.963 878.262,237.805 878.78,235.62C879.85,231.053 882.382,226.961 885.992,223.966C886.049,224.033 886.049,224.033 886.049,224.033C891.746,219.36 899.56,218.219 906.357,221.066C910.084,222.628 913.17,225.249 915.308,228.509ZM774.964,216.965C774.516,216.723 773.959,216.748 773.269,217.128C772.58,217.508 771.759,218.242 770.782,219.419C771.89,218.084 773.382,217.257 774.964,216.965Z" style="fill:rgb(255,44,0);"/>
                </g>
                <g transform="matrix(1.69113,0,0,3.56043,-634.273,-47.5873)">
                    <path d="M636.309,110.207C636.309,110.207 634.251,113.871 634.251,115.441C634.251,116.577 635.173,117.499 636.309,117.499C637.444,117.499 638.366,116.577 638.366,115.441C638.366,113.871 636.309,110.207 636.309,110.207Z" style="fill:rgb(255,44,0);"/>
                </g>
            </g>
        </g>
    </g>
</svg>
