<?xml version="1.0" encoding="UTF-8" standalone="no"?>
<!DOCTYPE svg PUBLIC "-//W3C//DTD SVG 1.1//EN" "http://www.w3.org/Graphics/SVG/1.1/DTD/svg11.dtd">
<svg width="100%" height="100%" viewBox="0 0 90 90" version="1.1" xmlns="http://www.w3.org/2000/svg" xmlns:xlink="http://www.w3.org/1999/xlink" xml:space="preserve" xmlns:serif="http://www.serif.com/" style="fill-rule:evenodd;clip-rule:evenodd;stroke-linejoin:round;stroke-miterlimit:2;">
    <g transform="matrix(1,0,0,1,-486.754,-260.617)">
        <g transform="matrix(2.10535,0,0,1,425.801,213.408)">
            <g transform="matrix(0.350342,0,0,0.737594,-159.738,-299.847)">
                <path d="M660.603,482.725C660.603,475.991 655.135,470.523 648.401,470.523L550.786,470.523C544.052,470.523 538.584,475.991 538.584,482.725L538.584,580.34C538.584,587.074 544.052,592.541 550.786,592.541L648.401,592.541C655.135,592.541 660.603,587.074 660.603,580.34L660.603,482.725Z" style="fill:none;"/>
            </g>
        </g>
        <g transform="matrix(2.10535,0,0,1,425.801,213.408)">
            <g transform="matrix(1,0,0,1,-1.43919,1.71297)">
                <g transform="matrix(1.21521,-0.937666,0.211543,1.21521,-46.8421,49.1295)">
                    <g transform="matrix(-0.704952,-8.23882e-17,-8.23882e-17,1.48417,666.211,-14.9732)">
                        <path d="M857.744,53.084C855.077,50.778 851.017,50.991 848.846,52.538C846.293,54.357 845.97,57.987 848.516,61.625C850.045,63.941 853.909,66.317 857.166,67.863C857.532,68.037 857.956,68.037 858.322,67.863C861.585,66.313 865.459,63.931 866.984,61.606C869.518,57.984 869.194,54.356 866.642,52.538C864.47,50.991 860.411,50.778 857.744,53.084ZM857.744,55.081C859.773,52.19 863.831,52.19 865.86,53.635C867.889,55.081 867.889,57.972 865.86,60.864C864.44,63.032 860.787,65.201 857.744,66.646C854.7,65.201 851.048,63.032 849.628,60.864C847.599,57.972 847.599,55.081 849.628,53.635C851.657,52.19 855.715,52.19 857.744,55.081Z" style="fill:white;"/>
                    </g>
                    <g transform="matrix(0.437329,0,0,0.916824,-382.333,3.02083)">
                        <path d="M1014.22,86.952C1009.72,84.799 1004.41,81.615 1002.32,78.431C999.299,74.124 999.299,69.816 1002.32,67.663C1005.21,65.602 1010.87,65.513 1014,69.283L1013.2,72.06L1016.58,75.232L1013.49,79.922L1017.42,81.904L1013.59,85.022L1014.22,86.952Z" style="fill:white;"/>
                    </g>
                </g>
                <g transform="matrix(-1.21521,-0.937666,-0.211543,1.21521,150.371,72.3775)">
                    <g transform="matrix(-0.704952,-8.23882e-17,-8.23882e-17,1.48417,666.211,-14.9732)">
                        <path d="M857.744,53.084C855.077,50.778 851.017,50.991 848.846,52.538C846.293,54.357 845.97,57.987 848.516,61.625C850.045,63.941 853.909,66.317 857.166,67.863C857.532,68.037 857.956,68.037 858.322,67.863C861.585,66.313 865.459,63.931 866.984,61.606C869.518,57.984 869.194,54.356 866.642,52.538C864.47,50.991 860.411,50.778 857.744,53.084ZM857.744,55.081C859.773,52.19 863.831,52.19 865.86,53.635C867.889,55.081 867.889,57.972 865.86,60.864C864.44,63.032 860.787,65.201 857.744,66.646C854.7,65.201 851.048,63.032 849.628,60.864C847.599,57.972 847.599,55.081 849.628,53.635C851.657,52.19 855.715,52.19 857.744,55.081Z" style="fill:white;"/>
                    </g>
                    <g transform="matrix(0.437329,0,0,0.916824,-382.333,3.02083)">
                        <path d="M1014.22,86.952C1009.72,84.799 1004.41,81.615 1002.32,78.431C999.299,74.124 999.299,69.816 1002.32,67.663C1005.21,65.602 1010.87,65.513 1014,69.283L1013.2,72.06L1016.58,75.232L1013.49,79.922L1017.42,81.904L1013.59,85.022L1014.22,86.952Z" style="fill:white;"/>
                    </g>
                </g>
            </g>
        </g>
    </g>
</svg>
