<?xml version="1.0" encoding="UTF-8" standalone="no"?>
<!DOCTYPE svg PUBLIC "-//W3C//DTD SVG 1.1//EN" "http://www.w3.org/Graphics/SVG/1.1/DTD/svg11.dtd">
<svg width="100%" height="100%" viewBox="0 0 90 90" version="1.1" xmlns="http://www.w3.org/2000/svg" xmlns:xlink="http://www.w3.org/1999/xlink" xml:space="preserve" xmlns:serif="http://www.serif.com/" style="fill-rule:evenodd;clip-rule:evenodd;stroke-linejoin:round;stroke-miterlimit:2;">
    <g transform="matrix(1,0,0,1,-746.754,-260.617)">
        <g transform="matrix(2.10535,0,0,1,685.801,213.408)">
            <g transform="matrix(0.350342,0,0,0.737594,-159.738,-299.847)">
                <path d="M660.603,482.725C660.603,475.991 655.135,470.523 648.401,470.523L550.786,470.523C544.052,470.523 538.584,475.991 538.584,482.725L538.584,580.34C538.584,587.074 544.052,592.541 550.786,592.541L648.401,592.541C655.135,592.541 660.603,587.074 660.603,580.34L660.603,482.725Z" style="fill:none;"/>
            </g>
        </g>
        <g transform="matrix(2.10535,0,0,1,685.801,213.408)">
            <g transform="matrix(1,0,0,1,-0.0685526,-0.780145)">
                <g transform="matrix(1.02246,-1.24133e-16,1.19496e-16,2.23619,-826.579,-55.6587)">
                    <path d="M857.744,53.084C855.077,50.778 851.017,50.991 848.846,52.538C846.293,54.357 845.97,57.987 848.516,61.625C850.045,63.941 853.909,66.317 857.166,67.863C857.532,68.037 857.956,68.037 858.322,67.863C861.585,66.313 865.459,63.931 866.984,61.606C869.518,57.984 869.194,54.356 866.642,52.538C864.47,50.991 860.411,50.778 857.744,53.084Z" style="fill:white;"/>
                </g>
                <g transform="matrix(1,0,0,1,0.849963,29.5295)">
                    <g transform="matrix(0.47498,0,0,1,-57.5946,-359.867)">
                        <rect x="190.54" y="437.42" width="63.538" height="19.695" style="fill:none;"/>
                        <g transform="matrix(1.15046,0,0,1.15046,-100.161,-65.5282)">
                            <path d="M259.165,439.546C259.165,438.911 258.65,438.396 258.015,438.396L255.715,438.396C255.08,438.396 254.565,438.911 254.565,439.546L254.565,451.916C254.565,452.551 255.08,453.066 255.715,453.066L258.015,453.066C258.65,453.066 259.165,452.551 259.165,451.916L259.165,439.546Z" style="fill:white;"/>
                        </g>
                        <g transform="matrix(1.15046,0,0,1.15046,-92.5556,-65.5282)">
                            <path d="M259.165,439.546C259.165,438.911 258.65,438.396 258.015,438.396L255.715,438.396C255.08,438.396 254.565,438.911 254.565,439.546L254.565,451.916C254.565,452.551 255.08,453.066 255.715,453.066L258.015,453.066C258.65,453.066 259.165,452.551 259.165,451.916L259.165,439.546Z" style="fill:white;"/>
                        </g>
                        <g transform="matrix(1.15046,0,0,1.15046,-84.95,-65.5282)">
                            <path d="M259.165,439.546C259.165,438.911 258.65,438.396 258.015,438.396L255.715,438.396C255.08,438.396 254.565,438.911 254.565,439.546L254.565,451.916C254.565,452.551 255.08,453.066 255.715,453.066L258.015,453.066C258.65,453.066 259.165,452.551 259.165,451.916L259.165,439.546Z" style="fill:white;"/>
                        </g>
                        <g transform="matrix(1.15046,0,0,1.15046,-77.3444,-65.5282)">
                            <path d="M259.165,439.546C259.165,438.911 258.65,438.396 258.015,438.396L255.715,438.396C255.08,438.396 254.565,438.911 254.565,439.546L254.565,451.916C254.565,452.551 255.08,453.066 255.715,453.066L258.015,453.066C258.65,453.066 259.165,452.551 259.165,451.916L259.165,439.546Z" style="fill:white;"/>
                        </g>
                        <g transform="matrix(1.15046,0,0,1.15046,-69.7388,-65.5282)">
                            <path d="M259.165,439.546C259.165,438.911 258.65,438.396 258.015,438.396L255.715,438.396C255.08,438.396 254.565,438.911 254.565,439.546L254.565,451.916C254.565,452.551 255.08,453.066 255.715,453.066L258.015,453.066C258.65,453.066 259.165,452.551 259.165,451.916L259.165,439.546Z" style="fill:white;"/>
                        </g>
                        <g transform="matrix(1.15046,0,0,1.15046,-62.1332,-65.5282)">
                            <path d="M259.165,439.546C259.165,438.911 258.65,438.396 258.015,438.396L255.715,438.396C255.08,438.396 254.565,438.911 254.565,439.546L254.565,451.916C254.565,452.551 255.08,453.066 255.715,453.066L258.015,453.066C258.65,453.066 259.165,452.551 259.165,451.916L259.165,439.546Z" style="fill:white;"/>
                        </g>
                        <g transform="matrix(1.15046,0,0,1.15046,-54.5276,-65.5282)">
                            <path d="M259.165,439.546C259.165,438.911 258.65,438.396 258.015,438.396L255.715,438.396C255.08,438.396 254.565,438.911 254.565,439.546L254.565,451.916C254.565,452.551 255.08,453.066 255.715,453.066L258.015,453.066C258.65,453.066 259.165,452.551 259.165,451.916L259.165,439.546Z" style="fill:white;"/>
                        </g>
                        <g transform="matrix(1.15046,0,0,1.15046,-46.922,-65.5282)">
                            <path d="M259.165,439.546C259.165,438.911 258.65,438.396 258.015,438.396L255.715,438.396C255.08,438.396 254.565,438.911 254.565,439.546L254.565,451.916C254.565,452.551 255.08,453.066 255.715,453.066L258.015,453.066C258.65,453.066 259.165,452.551 259.165,451.916L259.165,439.546Z" style="fill:white;"/>
                        </g>
                        <path d="M256.078,437.42C256.078,436.316 255.182,435.42 254.078,435.42L190.54,435.42C189.435,435.42 188.54,436.316 188.54,437.42L188.54,457.116C188.54,458.22 189.435,459.116 190.54,459.116L254.078,459.116C255.182,459.116 256.078,458.22 256.078,457.116L256.078,437.42ZM254.078,437.42L190.54,437.42L190.54,457.116L254.078,457.116L254.078,437.42Z" style="fill:white;"/>
                    </g>
                    <g transform="matrix(0.47498,0,0,1,-56.9186,-357.935)">
                        <path d="M261.165,438.396C261.165,437.291 260.27,436.396 259.165,436.396L254.565,436.396C253.46,436.396 252.565,437.291 252.565,438.396L252.565,453.066C252.565,454.171 253.46,455.066 254.565,455.066L259.165,455.066C260.27,455.066 261.165,454.171 261.165,453.066L261.165,438.396ZM259.165,438.396L254.565,438.396L254.565,453.066L259.165,453.066L259.165,438.396Z" style="fill:white;"/>
                    </g>
                </g>
            </g>
        </g>
    </g>
</svg>
