<?xml version="1.0" encoding="UTF-8" standalone="no"?>
<!DOCTYPE svg PUBLIC "-//W3C//DTD SVG 1.1//EN" "http://www.w3.org/Graphics/SVG/1.1/DTD/svg11.dtd">
<svg width="100%" height="100%" viewBox="0 0 90 90" version="1.1" xmlns="http://www.w3.org/2000/svg" xmlns:xlink="http://www.w3.org/1999/xlink" xml:space="preserve" xmlns:serif="http://www.serif.com/" style="fill-rule:evenodd;clip-rule:evenodd;stroke-linejoin:round;stroke-miterlimit:2;">
    <g transform="matrix(1,0,0,1,-1006.75,-260.617)">
        <g transform="matrix(2.10535,0,0,1,945.801,213.408)">
            <g transform="matrix(0.350342,0,0,0.737594,-159.738,-299.847)">
                <path d="M660.603,482.725C660.603,475.991 655.135,470.523 648.401,470.523L550.786,470.523C544.052,470.523 538.584,475.991 538.584,482.725L538.584,580.34C538.584,587.074 544.052,592.541 550.786,592.541L648.401,592.541C655.135,592.541 660.603,587.074 660.603,580.34L660.603,482.725Z" style="fill:none;"/>
            </g>
        </g>
        <g transform="matrix(2.10535,0,0,1,945.801,213.408)">
            <g transform="matrix(1,0,0,1,-0.239822,3.05729)">
                <g>
                    <g transform="matrix(0.574743,0,0,0.574743,19.6398,62.4778)">
                        <path d="M55.877,109.463L55.958,93.617C55.96,93.121 55.771,92.713 55.535,92.708L52.535,92.64C52.341,92.636 52.175,92.905 52.121,93.277C52.11,93.357 52.103,93.442 52.103,93.53L52.022,109.375C51.733,109.369 51.496,109.857 51.493,110.465C51.49,111.074 51.722,111.572 52.011,111.579L55.865,111.666C56.103,111.671 56.306,111.342 56.372,110.886C56.386,110.788 56.394,110.684 56.394,110.576C56.397,109.968 56.166,109.469 55.877,109.463ZM52.719,106.141L52.772,95.675C52.774,95.31 52.916,95.018 53.09,95.022C53.263,95.025 53.402,95.325 53.4,95.69L53.347,106.155C53.346,106.22 53.342,106.282 53.333,106.341C53.294,106.615 53.172,106.812 53.029,106.809C52.856,106.805 52.717,106.506 52.719,106.141ZM54.082,83.457C53.277,83.439 52.604,87.446 52.584,91.319L55.499,91.385C55.519,87.512 54.887,83.475 54.082,83.457Z" style="fill:none;stroke:white;stroke-opacity:0.5;stroke-width:2.11px;"/>
                    </g>
                    <g transform="matrix(0.497742,-0.605019,0.136496,0.497742,17.4483,98.6055)">
                        <path d="M55.877,109.463L55.958,93.617C55.96,93.121 55.771,92.713 55.535,92.708L52.535,92.64C52.341,92.636 52.175,92.905 52.121,93.277C52.11,93.357 52.103,93.442 52.103,93.53L52.022,109.375C51.733,109.369 51.496,109.857 51.493,110.465C51.49,111.074 51.722,111.572 52.011,111.579L55.865,111.666C56.103,111.671 56.306,111.342 56.372,110.886C56.386,110.788 56.394,110.684 56.394,110.576C56.397,109.968 56.166,109.469 55.877,109.463ZM52.719,106.141L52.772,95.675C52.774,95.31 52.916,95.018 53.09,95.022C53.263,95.025 53.402,95.325 53.4,95.69L53.347,106.155C53.346,106.22 53.342,106.282 53.333,106.341C53.294,106.615 53.172,106.812 53.029,106.809C52.856,106.805 52.717,106.506 52.719,106.141ZM54.082,83.457C53.277,83.439 52.604,87.446 52.584,91.319L55.499,91.385C55.519,87.512 54.887,83.475 54.082,83.457Z" style="fill:none;stroke:white;stroke-opacity:0.5;stroke-width:2.11px;"/>
                    </g>
                    <g transform="matrix(0.287372,-1.04792,0.236417,0.287372,24.1304,132.2)">
                        <path d="M55.877,109.463L55.958,93.617C55.96,93.121 55.771,92.713 55.535,92.708L52.535,92.64C52.341,92.636 52.175,92.905 52.121,93.277C52.11,93.357 52.103,93.442 52.103,93.53L52.022,109.375C51.733,109.369 51.496,109.857 51.493,110.465C51.49,111.074 51.722,111.572 52.011,111.579L55.865,111.666C56.103,111.671 56.306,111.342 56.372,110.886C56.386,110.788 56.394,110.684 56.394,110.576C56.397,109.968 56.166,109.469 55.877,109.463ZM52.719,106.141L52.772,95.675C52.774,95.31 52.916,95.018 53.09,95.022C53.263,95.025 53.402,95.325 53.4,95.69L53.347,106.155C53.346,106.22 53.342,106.282 53.333,106.341C53.294,106.615 53.172,106.812 53.029,106.809C52.856,106.805 52.717,106.506 52.719,106.141ZM54.082,83.457C53.277,83.439 52.604,87.446 52.584,91.319L55.499,91.385C55.519,87.512 54.887,83.475 54.082,83.457Z" style="fill:none;stroke:white;stroke-opacity:0.5;stroke-width:2.11px;"/>
                    </g>
                    <g transform="matrix(0,-1.21004,0.272991,-2.77556e-17,38.7181,156.891)">
                        <path d="M55.877,109.463L55.958,93.617C55.96,93.121 55.771,92.713 55.535,92.708L52.535,92.64C52.341,92.636 52.175,92.905 52.121,93.277C52.11,93.357 52.103,93.442 52.103,93.53L52.022,109.375C51.733,109.369 51.496,109.857 51.493,110.465C51.49,111.074 51.722,111.572 52.011,111.579L55.865,111.666C56.103,111.671 56.306,111.342 56.372,110.886C56.386,110.788 56.394,110.684 56.394,110.576C56.397,109.968 56.166,109.469 55.877,109.463ZM52.719,106.141L52.772,95.675C52.774,95.31 52.916,95.018 53.09,95.022C53.263,95.025 53.402,95.325 53.4,95.69L53.347,106.155C53.346,106.22 53.342,106.282 53.333,106.341C53.294,106.615 53.172,106.812 53.029,106.809C52.856,106.805 52.717,106.506 52.719,106.141ZM54.082,83.457C53.277,83.439 52.604,87.446 52.584,91.319L55.499,91.385C55.519,87.512 54.887,83.475 54.082,83.457Z" style="fill:none;stroke:white;stroke-opacity:0.5;stroke-width:2.11px;"/>
                    </g>
                    <g transform="matrix(-0.287372,-1.04792,0.236417,-0.287372,56.3928,160.287)">
                        <path d="M55.877,109.463L55.958,93.617C55.96,93.121 55.771,92.713 55.535,92.708L52.535,92.64C52.341,92.636 52.175,92.905 52.121,93.277C52.11,93.357 52.103,93.442 52.103,93.53L52.022,109.375C51.733,109.369 51.496,109.857 51.493,110.465C51.49,111.074 51.722,111.572 52.011,111.579L55.865,111.666C56.103,111.671 56.306,111.342 56.372,110.886C56.386,110.788 56.394,110.684 56.394,110.576C56.397,109.968 56.166,109.469 55.877,109.463ZM52.719,106.141L52.772,95.675C52.774,95.31 52.916,95.018 53.09,95.022C53.263,95.025 53.402,95.325 53.4,95.69L53.347,106.155C53.346,106.22 53.342,106.282 53.333,106.341C53.294,106.615 53.172,106.812 53.029,106.809C52.856,106.805 52.717,106.506 52.719,106.141ZM54.082,83.457C53.277,83.439 52.604,87.446 52.584,91.319L55.499,91.385C55.519,87.512 54.887,83.475 54.082,83.457Z" style="fill:none;stroke:white;stroke-opacity:0.5;stroke-width:2.11px;"/>
                    </g>
                    <g transform="matrix(-0.497742,-0.605019,0.136496,-0.497742,72.506,144.622)">
                        <path d="M55.877,109.463L55.958,93.617C55.96,93.121 55.771,92.713 55.535,92.708L52.535,92.64C52.341,92.636 52.175,92.905 52.121,93.277C52.11,93.357 52.103,93.442 52.103,93.53L52.022,109.375C51.733,109.369 51.496,109.857 51.493,110.465C51.49,111.074 51.722,111.572 52.011,111.579L55.865,111.666C56.103,111.671 56.306,111.342 56.372,110.886C56.386,110.788 56.394,110.684 56.394,110.576C56.397,109.968 56.166,109.469 55.877,109.463ZM52.719,106.141L52.772,95.675C52.774,95.31 52.916,95.018 53.09,95.022C53.263,95.025 53.402,95.325 53.4,95.69L53.347,106.155C53.346,106.22 53.342,106.282 53.333,106.341C53.294,106.615 53.172,106.812 53.029,106.809C52.856,106.805 52.717,106.506 52.719,106.141ZM54.082,83.457C53.277,83.439 52.604,87.446 52.584,91.319L55.499,91.385C55.519,87.512 54.887,83.475 54.082,83.457Z" style="fill:none;stroke:white;stroke-opacity:0.5;stroke-width:2.11px;"/>
                    </g>
                    <g transform="matrix(-0.574743,2.2228e-16,-6.3331e-17,-0.574743,81.9176,115.825)">
                        <path d="M55.877,109.463L55.958,93.617C55.96,93.121 55.771,92.713 55.535,92.708L52.535,92.64C52.341,92.636 52.175,92.905 52.121,93.277C52.11,93.357 52.103,93.442 52.103,93.53L52.022,109.375C51.733,109.369 51.496,109.857 51.493,110.465C51.49,111.074 51.722,111.572 52.011,111.579L55.865,111.666C56.103,111.671 56.306,111.342 56.372,110.886C56.386,110.788 56.394,110.684 56.394,110.576C56.397,109.968 56.166,109.469 55.877,109.463ZM52.719,106.141L52.772,95.675C52.774,95.31 52.916,95.018 53.09,95.022C53.263,95.025 53.402,95.325 53.4,95.69L53.347,106.155C53.346,106.22 53.342,106.282 53.333,106.341C53.294,106.615 53.172,106.812 53.029,106.809C52.856,106.805 52.717,106.506 52.719,106.141ZM54.082,83.457C53.277,83.439 52.604,87.446 52.584,91.319L55.499,91.385C55.519,87.512 54.887,83.475 54.082,83.457Z" style="fill:none;stroke:white;stroke-opacity:0.5;stroke-width:2.11px;"/>
                    </g>
                    <g transform="matrix(-0.497742,0.605019,-0.136496,-0.497742,84.0518,79.2469)">
                        <path d="M55.877,109.463L55.958,93.617C55.96,93.121 55.771,92.713 55.535,92.708L52.535,92.64C52.341,92.636 52.175,92.905 52.121,93.277C52.11,93.357 52.103,93.442 52.103,93.53L52.022,109.375C51.733,109.369 51.496,109.857 51.493,110.465C51.49,111.074 51.722,111.572 52.011,111.579L55.865,111.666C56.103,111.671 56.306,111.342 56.372,110.886C56.386,110.788 56.394,110.684 56.394,110.576C56.397,109.968 56.166,109.469 55.877,109.463ZM52.719,106.141L52.772,95.675C52.774,95.31 52.916,95.018 53.09,95.022C53.263,95.025 53.402,95.325 53.4,95.69L53.347,106.155C53.346,106.22 53.342,106.282 53.333,106.341C53.294,106.615 53.172,106.812 53.029,106.809C52.856,106.805 52.717,106.506 52.719,106.141ZM54.082,83.457C53.277,83.439 52.604,87.446 52.584,91.319L55.499,91.385C55.519,87.512 54.887,83.475 54.082,83.457Z" style="fill:none;stroke:white;stroke-opacity:0.5;stroke-width:2.11px;"/>
                    </g>
                    <g transform="matrix(-0.287372,1.04792,-0.236417,-0.287372,77.2132,45.323)">
                        <path d="M55.877,109.463L55.958,93.617C55.96,93.121 55.771,92.713 55.535,92.708L52.535,92.64C52.341,92.636 52.175,92.905 52.121,93.277C52.11,93.357 52.103,93.442 52.103,93.53L52.022,109.375C51.733,109.369 51.496,109.857 51.493,110.465C51.49,111.074 51.722,111.572 52.011,111.579L55.865,111.666C56.103,111.671 56.306,111.342 56.372,110.886C56.386,110.788 56.394,110.684 56.394,110.576C56.397,109.968 56.166,109.469 55.877,109.463ZM52.719,106.141L52.772,95.675C52.774,95.31 52.916,95.018 53.09,95.022C53.263,95.025 53.402,95.325 53.4,95.69L53.347,106.155C53.346,106.22 53.342,106.282 53.333,106.341C53.294,106.615 53.172,106.812 53.029,106.809C52.856,106.805 52.717,106.506 52.719,106.141ZM54.082,83.457C53.277,83.439 52.604,87.446 52.584,91.319L55.499,91.385C55.519,87.512 54.887,83.475 54.082,83.457Z" style="fill:none;stroke:white;stroke-opacity:0.5;stroke-width:2.11px;"/>
                    </g>
                    <g transform="matrix(2.11157e-16,1.21004,-0.272991,2.38913e-16,62.4118,24.8745)">
                        <path d="M55.877,109.463L55.958,93.617C55.96,93.121 55.771,92.713 55.535,92.708L52.535,92.64C52.341,92.636 52.175,92.905 52.121,93.277C52.11,93.357 52.103,93.442 52.103,93.53L52.022,109.375C51.733,109.369 51.496,109.857 51.493,110.465C51.49,111.074 51.722,111.572 52.011,111.579L55.865,111.666C56.103,111.671 56.306,111.342 56.372,110.886C56.386,110.788 56.394,110.684 56.394,110.576C56.397,109.968 56.166,109.469 55.877,109.463ZM52.719,106.141L52.772,95.675C52.774,95.31 52.916,95.018 53.09,95.022C53.263,95.025 53.402,95.325 53.4,95.69L53.347,106.155C53.346,106.22 53.342,106.282 53.333,106.341C53.294,106.615 53.172,106.812 53.029,106.809C52.856,106.805 52.717,106.506 52.719,106.141ZM54.082,83.457C53.277,83.439 52.604,87.446 52.584,91.319L55.499,91.385C55.519,87.512 54.887,83.475 54.082,83.457Z" style="fill:none;stroke:white;stroke-opacity:0.5;stroke-width:2.11px;"/>
                    </g>
                    <g transform="matrix(0.287372,1.04792,-0.236417,0.287372,45.5595,21.015)">
                        <path d="M55.877,109.463L55.958,93.617C55.96,93.121 55.771,92.713 55.535,92.708L52.535,92.64C52.341,92.636 52.175,92.905 52.121,93.277C52.11,93.357 52.103,93.442 52.103,93.53L52.022,109.375C51.733,109.369 51.496,109.857 51.493,110.465C51.49,111.074 51.722,111.572 52.011,111.579L55.865,111.666C56.103,111.671 56.306,111.342 56.372,110.886C56.386,110.788 56.394,110.684 56.394,110.576C56.397,109.968 56.166,109.469 55.877,109.463ZM52.719,106.141L52.772,95.675C52.774,95.31 52.916,95.018 53.09,95.022C53.263,95.025 53.402,95.325 53.4,95.69L53.347,106.155C53.346,106.22 53.342,106.282 53.333,106.341C53.294,106.615 53.172,106.812 53.029,106.809C52.856,106.805 52.717,106.506 52.719,106.141ZM54.082,83.457C53.277,83.439 52.604,87.446 52.584,91.319L55.499,91.385C55.519,87.512 54.887,83.475 54.082,83.457Z" style="fill:none;stroke:white;stroke-opacity:0.5;stroke-width:2.11px;"/>
                    </g>
                    <g transform="matrix(0.497742,0.605019,-0.136496,0.497742,30.0485,35.4126)">
                        <path d="M55.877,109.463L55.958,93.617C55.96,93.121 55.771,92.713 55.535,92.708L52.535,92.64C52.341,92.636 52.175,92.905 52.121,93.277C52.11,93.357 52.103,93.442 52.103,93.53L52.022,109.375C51.733,109.369 51.496,109.857 51.493,110.465C51.49,111.074 51.722,111.572 52.011,111.579L55.865,111.666C56.103,111.671 56.306,111.342 56.372,110.886C56.386,110.788 56.394,110.684 56.394,110.576C56.397,109.968 56.166,109.469 55.877,109.463ZM52.719,106.141L52.772,95.675C52.774,95.31 52.916,95.018 53.09,95.022C53.263,95.025 53.402,95.325 53.4,95.69L53.347,106.155C53.346,106.22 53.342,106.282 53.333,106.341C53.294,106.615 53.172,106.812 53.029,106.809C52.856,106.805 52.717,106.506 52.719,106.141ZM54.082,83.457C53.277,83.439 52.604,87.446 52.584,91.319L55.499,91.385C55.519,87.512 54.887,83.475 54.082,83.457Z" style="fill:none;stroke:white;stroke-opacity:0.5;stroke-width:2.11px;"/>
                    </g>
                </g>
                <g>
                    <g transform="matrix(0.574743,0,0,0.574743,19.6398,62.4778)">
                        <path d="M55.877,109.463L55.958,93.617C55.96,93.121 55.771,92.713 55.535,92.708L52.535,92.64C52.341,92.636 52.175,92.905 52.121,93.277C52.11,93.357 52.103,93.442 52.103,93.53L52.022,109.375C51.733,109.369 51.496,109.857 51.493,110.465C51.49,111.074 51.722,111.572 52.011,111.579L55.865,111.666C56.103,111.671 56.306,111.342 56.372,110.886C56.386,110.788 56.394,110.684 56.394,110.576C56.397,109.968 56.166,109.469 55.877,109.463ZM52.719,106.141L52.772,95.675C52.774,95.31 52.916,95.018 53.09,95.022C53.263,95.025 53.402,95.325 53.4,95.69L53.347,106.155C53.346,106.22 53.342,106.282 53.333,106.341C53.294,106.615 53.172,106.812 53.029,106.809C52.856,106.805 52.717,106.506 52.719,106.141ZM54.082,83.457C53.277,83.439 52.604,87.446 52.584,91.319L55.499,91.385C55.519,87.512 54.887,83.475 54.082,83.457Z"/>
                    </g>
                    <g transform="matrix(0.497742,-0.605019,0.136496,0.497742,17.4483,98.6055)">
                        <path d="M55.877,109.463L55.958,93.617C55.96,93.121 55.771,92.713 55.535,92.708L52.535,92.64C52.341,92.636 52.175,92.905 52.121,93.277C52.11,93.357 52.103,93.442 52.103,93.53L52.022,109.375C51.733,109.369 51.496,109.857 51.493,110.465C51.49,111.074 51.722,111.572 52.011,111.579L55.865,111.666C56.103,111.671 56.306,111.342 56.372,110.886C56.386,110.788 56.394,110.684 56.394,110.576C56.397,109.968 56.166,109.469 55.877,109.463ZM52.719,106.141L52.772,95.675C52.774,95.31 52.916,95.018 53.09,95.022C53.263,95.025 53.402,95.325 53.4,95.69L53.347,106.155C53.346,106.22 53.342,106.282 53.333,106.341C53.294,106.615 53.172,106.812 53.029,106.809C52.856,106.805 52.717,106.506 52.719,106.141ZM54.082,83.457C53.277,83.439 52.604,87.446 52.584,91.319L55.499,91.385C55.519,87.512 54.887,83.475 54.082,83.457Z"/>
                    </g>
                    <g transform="matrix(0.287372,-1.04792,0.236417,0.287372,24.1304,132.2)">
                        <path d="M55.877,109.463L55.958,93.617C55.96,93.121 55.771,92.713 55.535,92.708L52.535,92.64C52.341,92.636 52.175,92.905 52.121,93.277C52.11,93.357 52.103,93.442 52.103,93.53L52.022,109.375C51.733,109.369 51.496,109.857 51.493,110.465C51.49,111.074 51.722,111.572 52.011,111.579L55.865,111.666C56.103,111.671 56.306,111.342 56.372,110.886C56.386,110.788 56.394,110.684 56.394,110.576C56.397,109.968 56.166,109.469 55.877,109.463ZM52.719,106.141L52.772,95.675C52.774,95.31 52.916,95.018 53.09,95.022C53.263,95.025 53.402,95.325 53.4,95.69L53.347,106.155C53.346,106.22 53.342,106.282 53.333,106.341C53.294,106.615 53.172,106.812 53.029,106.809C52.856,106.805 52.717,106.506 52.719,106.141ZM54.082,83.457C53.277,83.439 52.604,87.446 52.584,91.319L55.499,91.385C55.519,87.512 54.887,83.475 54.082,83.457Z"/>
                    </g>
                    <g transform="matrix(0,-1.21004,0.272991,-2.77556e-17,38.7181,156.891)">
                        <path d="M55.877,109.463L55.958,93.617C55.96,93.121 55.771,92.713 55.535,92.708L52.535,92.64C52.341,92.636 52.175,92.905 52.121,93.277C52.11,93.357 52.103,93.442 52.103,93.53L52.022,109.375C51.733,109.369 51.496,109.857 51.493,110.465C51.49,111.074 51.722,111.572 52.011,111.579L55.865,111.666C56.103,111.671 56.306,111.342 56.372,110.886C56.386,110.788 56.394,110.684 56.394,110.576C56.397,109.968 56.166,109.469 55.877,109.463ZM52.719,106.141L52.772,95.675C52.774,95.31 52.916,95.018 53.09,95.022C53.263,95.025 53.402,95.325 53.4,95.69L53.347,106.155C53.346,106.22 53.342,106.282 53.333,106.341C53.294,106.615 53.172,106.812 53.029,106.809C52.856,106.805 52.717,106.506 52.719,106.141ZM54.082,83.457C53.277,83.439 52.604,87.446 52.584,91.319L55.499,91.385C55.519,87.512 54.887,83.475 54.082,83.457Z"/>
                    </g>
                    <g transform="matrix(-0.287372,-1.04792,0.236417,-0.287372,56.3928,160.287)">
                        <path d="M55.877,109.463L55.958,93.617C55.96,93.121 55.771,92.713 55.535,92.708L52.535,92.64C52.341,92.636 52.175,92.905 52.121,93.277C52.11,93.357 52.103,93.442 52.103,93.53L52.022,109.375C51.733,109.369 51.496,109.857 51.493,110.465C51.49,111.074 51.722,111.572 52.011,111.579L55.865,111.666C56.103,111.671 56.306,111.342 56.372,110.886C56.386,110.788 56.394,110.684 56.394,110.576C56.397,109.968 56.166,109.469 55.877,109.463ZM52.719,106.141L52.772,95.675C52.774,95.31 52.916,95.018 53.09,95.022C53.263,95.025 53.402,95.325 53.4,95.69L53.347,106.155C53.346,106.22 53.342,106.282 53.333,106.341C53.294,106.615 53.172,106.812 53.029,106.809C52.856,106.805 52.717,106.506 52.719,106.141ZM54.082,83.457C53.277,83.439 52.604,87.446 52.584,91.319L55.499,91.385C55.519,87.512 54.887,83.475 54.082,83.457Z"/>
                    </g>
                    <g transform="matrix(-0.497742,-0.605019,0.136496,-0.497742,72.506,144.622)">
                        <path d="M55.877,109.463L55.958,93.617C55.96,93.121 55.771,92.713 55.535,92.708L52.535,92.64C52.341,92.636 52.175,92.905 52.121,93.277C52.11,93.357 52.103,93.442 52.103,93.53L52.022,109.375C51.733,109.369 51.496,109.857 51.493,110.465C51.49,111.074 51.722,111.572 52.011,111.579L55.865,111.666C56.103,111.671 56.306,111.342 56.372,110.886C56.386,110.788 56.394,110.684 56.394,110.576C56.397,109.968 56.166,109.469 55.877,109.463ZM52.719,106.141L52.772,95.675C52.774,95.31 52.916,95.018 53.09,95.022C53.263,95.025 53.402,95.325 53.4,95.69L53.347,106.155C53.346,106.22 53.342,106.282 53.333,106.341C53.294,106.615 53.172,106.812 53.029,106.809C52.856,106.805 52.717,106.506 52.719,106.141ZM54.082,83.457C53.277,83.439 52.604,87.446 52.584,91.319L55.499,91.385C55.519,87.512 54.887,83.475 54.082,83.457Z"/>
                    </g>
                    <g transform="matrix(-0.574743,2.2228e-16,-6.3331e-17,-0.574743,81.9176,115.825)">
                        <path d="M55.877,109.463L55.958,93.617C55.96,93.121 55.771,92.713 55.535,92.708L52.535,92.64C52.341,92.636 52.175,92.905 52.121,93.277C52.11,93.357 52.103,93.442 52.103,93.53L52.022,109.375C51.733,109.369 51.496,109.857 51.493,110.465C51.49,111.074 51.722,111.572 52.011,111.579L55.865,111.666C56.103,111.671 56.306,111.342 56.372,110.886C56.386,110.788 56.394,110.684 56.394,110.576C56.397,109.968 56.166,109.469 55.877,109.463ZM52.719,106.141L52.772,95.675C52.774,95.31 52.916,95.018 53.09,95.022C53.263,95.025 53.402,95.325 53.4,95.69L53.347,106.155C53.346,106.22 53.342,106.282 53.333,106.341C53.294,106.615 53.172,106.812 53.029,106.809C52.856,106.805 52.717,106.506 52.719,106.141ZM54.082,83.457C53.277,83.439 52.604,87.446 52.584,91.319L55.499,91.385C55.519,87.512 54.887,83.475 54.082,83.457Z"/>
                    </g>
                    <g transform="matrix(-0.497742,0.605019,-0.136496,-0.497742,84.0518,79.2469)">
                        <path d="M55.877,109.463L55.958,93.617C55.96,93.121 55.771,92.713 55.535,92.708L52.535,92.64C52.341,92.636 52.175,92.905 52.121,93.277C52.11,93.357 52.103,93.442 52.103,93.53L52.022,109.375C51.733,109.369 51.496,109.857 51.493,110.465C51.49,111.074 51.722,111.572 52.011,111.579L55.865,111.666C56.103,111.671 56.306,111.342 56.372,110.886C56.386,110.788 56.394,110.684 56.394,110.576C56.397,109.968 56.166,109.469 55.877,109.463ZM52.719,106.141L52.772,95.675C52.774,95.31 52.916,95.018 53.09,95.022C53.263,95.025 53.402,95.325 53.4,95.69L53.347,106.155C53.346,106.22 53.342,106.282 53.333,106.341C53.294,106.615 53.172,106.812 53.029,106.809C52.856,106.805 52.717,106.506 52.719,106.141ZM54.082,83.457C53.277,83.439 52.604,87.446 52.584,91.319L55.499,91.385C55.519,87.512 54.887,83.475 54.082,83.457Z"/>
                    </g>
                    <g transform="matrix(-0.287372,1.04792,-0.236417,-0.287372,77.2132,45.323)">
                        <path d="M55.877,109.463L55.958,93.617C55.96,93.121 55.771,92.713 55.535,92.708L52.535,92.64C52.341,92.636 52.175,92.905 52.121,93.277C52.11,93.357 52.103,93.442 52.103,93.53L52.022,109.375C51.733,109.369 51.496,109.857 51.493,110.465C51.49,111.074 51.722,111.572 52.011,111.579L55.865,111.666C56.103,111.671 56.306,111.342 56.372,110.886C56.386,110.788 56.394,110.684 56.394,110.576C56.397,109.968 56.166,109.469 55.877,109.463ZM52.719,106.141L52.772,95.675C52.774,95.31 52.916,95.018 53.09,95.022C53.263,95.025 53.402,95.325 53.4,95.69L53.347,106.155C53.346,106.22 53.342,106.282 53.333,106.341C53.294,106.615 53.172,106.812 53.029,106.809C52.856,106.805 52.717,106.506 52.719,106.141ZM54.082,83.457C53.277,83.439 52.604,87.446 52.584,91.319L55.499,91.385C55.519,87.512 54.887,83.475 54.082,83.457Z"/>
                    </g>
                    <g transform="matrix(2.11157e-16,1.21004,-0.272991,2.38913e-16,62.4118,24.8745)">
                        <path d="M55.877,109.463L55.958,93.617C55.96,93.121 55.771,92.713 55.535,92.708L52.535,92.64C52.341,92.636 52.175,92.905 52.121,93.277C52.11,93.357 52.103,93.442 52.103,93.53L52.022,109.375C51.733,109.369 51.496,109.857 51.493,110.465C51.49,111.074 51.722,111.572 52.011,111.579L55.865,111.666C56.103,111.671 56.306,111.342 56.372,110.886C56.386,110.788 56.394,110.684 56.394,110.576C56.397,109.968 56.166,109.469 55.877,109.463ZM52.719,106.141L52.772,95.675C52.774,95.31 52.916,95.018 53.09,95.022C53.263,95.025 53.402,95.325 53.4,95.69L53.347,106.155C53.346,106.22 53.342,106.282 53.333,106.341C53.294,106.615 53.172,106.812 53.029,106.809C52.856,106.805 52.717,106.506 52.719,106.141ZM54.082,83.457C53.277,83.439 52.604,87.446 52.584,91.319L55.499,91.385C55.519,87.512 54.887,83.475 54.082,83.457Z"/>
                    </g>
                    <g transform="matrix(0.287372,1.04792,-0.236417,0.287372,45.5595,21.015)">
                        <path d="M55.877,109.463L55.958,93.617C55.96,93.121 55.771,92.713 55.535,92.708L52.535,92.64C52.341,92.636 52.175,92.905 52.121,93.277C52.11,93.357 52.103,93.442 52.103,93.53L52.022,109.375C51.733,109.369 51.496,109.857 51.493,110.465C51.49,111.074 51.722,111.572 52.011,111.579L55.865,111.666C56.103,111.671 56.306,111.342 56.372,110.886C56.386,110.788 56.394,110.684 56.394,110.576C56.397,109.968 56.166,109.469 55.877,109.463ZM52.719,106.141L52.772,95.675C52.774,95.31 52.916,95.018 53.09,95.022C53.263,95.025 53.402,95.325 53.4,95.69L53.347,106.155C53.346,106.22 53.342,106.282 53.333,106.341C53.294,106.615 53.172,106.812 53.029,106.809C52.856,106.805 52.717,106.506 52.719,106.141ZM54.082,83.457C53.277,83.439 52.604,87.446 52.584,91.319L55.499,91.385C55.519,87.512 54.887,83.475 54.082,83.457Z"/>
                    </g>
                    <g transform="matrix(0.497742,0.605019,-0.136496,0.497742,30.0485,35.4126)">
                        <path d="M55.877,109.463L55.958,93.617C55.96,93.121 55.771,92.713 55.535,92.708L52.535,92.64C52.341,92.636 52.175,92.905 52.121,93.277C52.11,93.357 52.103,93.442 52.103,93.53L52.022,109.375C51.733,109.369 51.496,109.857 51.493,110.465C51.49,111.074 51.722,111.572 52.011,111.579L55.865,111.666C56.103,111.671 56.306,111.342 56.372,110.886C56.386,110.788 56.394,110.684 56.394,110.576C56.397,109.968 56.166,109.469 55.877,109.463ZM52.719,106.141L52.772,95.675C52.774,95.31 52.916,95.018 53.09,95.022C53.263,95.025 53.402,95.325 53.4,95.69L53.347,106.155C53.346,106.22 53.342,106.282 53.333,106.341C53.294,106.615 53.172,106.812 53.029,106.809C52.856,106.805 52.717,106.506 52.719,106.141ZM54.082,83.457C53.277,83.439 52.604,87.446 52.584,91.319L55.499,91.385C55.519,87.512 54.887,83.475 54.082,83.457Z"/>
                    </g>
                </g>
                <g transform="matrix(1,0,0,1,2.24837,-7.50918)">
                    <g transform="matrix(4.9097,0,0,4.29433,-269.663,-159.388)">
                        <path d="M65.88,58.465L65.838,56.82L65.464,57.596C65.27,57.341 65.043,57.194 64.801,57.194C64.561,57.194 64.336,57.337 64.143,57.587L63.774,56.82L63.734,58.424C63.588,58.886 63.503,59.447 63.503,60.054C63.503,61.629 64.083,62.913 64.801,62.913C65.516,62.913 66.099,61.629 66.099,60.054C66.099,59.465 66.018,58.919 65.88,58.465Z" style="fill:white;fill-opacity:0.2;"/>
                        <path d="M66.164,58.229L66.128,56.778C66.121,56.512 66.052,56.28 65.951,56.176C65.849,56.073 65.732,56.118 65.648,56.291L65.416,56.773C65.227,56.595 65.019,56.496 64.801,56.496C64.585,56.496 64.379,56.592 64.192,56.765C64.192,56.765 63.964,56.291 63.964,56.291C63.88,56.118 63.763,56.073 63.661,56.176C63.56,56.28 63.491,56.512 63.485,56.778L63.449,58.182C63.298,58.727 63.212,59.368 63.212,60.054C63.212,61.996 63.915,63.612 64.801,63.612C65.682,63.612 66.389,61.996 66.389,60.054C66.389,59.388 66.307,58.764 66.164,58.229L66.164,58.229ZM65.88,58.465L65.838,56.82L65.464,57.596C65.27,57.341 65.043,57.194 64.801,57.194C64.561,57.194 64.336,57.337 64.143,57.587L63.774,56.82L63.734,58.424C63.588,58.886 63.503,59.447 63.503,60.054C63.503,61.629 64.083,62.913 64.801,62.913C65.516,62.913 66.099,61.629 66.099,60.054C66.099,59.465 66.018,58.919 65.88,58.465Z" style="fill-opacity:0.2;"/>
                    </g>
                    <g transform="matrix(4.9097,0,0,4.29433,-269.663,-159.388)">
                        <path d="M65.975,58.384L65.935,56.806C65.932,56.718 65.909,56.64 65.876,56.605C65.842,56.571 65.803,56.586 65.775,56.644L65.45,57.317C65.256,57.09 65.035,56.962 64.801,56.962C64.568,56.962 64.35,57.087 64.158,57.308C64.158,57.308 63.837,56.644 63.837,56.644C63.81,56.586 63.771,56.571 63.737,56.605C63.703,56.64 63.68,56.718 63.678,56.806L63.639,58.34C63.491,58.831 63.406,59.42 63.406,60.054C63.406,61.751 64.027,63.146 64.801,63.146C65.571,63.146 66.195,61.751 66.195,60.054C66.195,59.439 66.114,58.866 65.975,58.384ZM65.88,58.465L65.838,56.82L65.464,57.596C65.27,57.341 65.043,57.194 64.801,57.194C64.561,57.194 64.336,57.337 64.143,57.587L63.774,56.82L63.734,58.424C63.588,58.886 63.503,59.447 63.503,60.054C63.503,61.629 64.083,62.913 64.801,62.913C65.516,62.913 66.099,61.629 66.099,60.054C66.099,59.465 66.018,58.919 65.88,58.465Z"/>
                    </g>
                    <g transform="matrix(0.47498,0,0,1,-56.5987,-175.155)">
                        <path d="M223.465,272.279C223.477,272.009 223.639,271.768 223.885,271.655C224.13,271.543 224.418,271.577 224.631,271.744C226.063,272.824 227.456,274.077 227.562,275.302C227.579,275.542 227.493,275.778 227.326,275.952C227.16,276.126 226.927,276.221 226.686,276.214C224.585,276.209 223.267,275.304 223.465,272.279Z"/>
                    </g>
                    <g transform="matrix(0.0928915,0,0,0.277693,28.0686,28.5883)">
                        <path d="M223.465,272.279C223.477,272.009 223.639,271.768 223.885,271.655C224.13,271.543 224.418,271.577 224.631,271.744C226.063,272.824 227.456,274.077 227.562,275.302C227.579,275.542 227.493,275.778 227.326,275.952C227.16,276.126 226.927,276.221 226.686,276.214C224.585,276.209 223.267,275.304 223.465,272.279Z"/>
                    </g>
                    <g transform="matrix(-0.47498,0,0,1,153.904,-175.155)">
                        <path d="M223.465,272.279C223.477,272.009 223.639,271.768 223.885,271.655C224.13,271.543 224.418,271.577 224.631,271.744C226.063,272.824 227.456,274.077 227.562,275.302C227.579,275.542 227.493,275.778 227.326,275.952C227.16,276.126 226.927,276.221 226.686,276.214C224.585,276.209 223.267,275.304 223.465,272.279Z"/>
                    </g>
                    <g transform="matrix(-0.0928915,0,0,0.277693,69.2364,28.5883)">
                        <path d="M223.465,272.279C223.477,272.009 223.639,271.768 223.885,271.655C224.13,271.543 224.418,271.577 224.631,271.744C226.063,272.824 227.456,274.077 227.562,275.302C227.579,275.542 227.493,275.778 227.326,275.952C227.16,276.126 226.927,276.221 226.686,276.214C224.585,276.209 223.267,275.304 223.465,272.279Z"/>
                    </g>
                </g>
            </g>
        </g>
    </g>
</svg>
