<?xml version="1.0" encoding="UTF-8" standalone="no"?>
<!DOCTYPE svg PUBLIC "-//W3C//DTD SVG 1.1//EN" "http://www.w3.org/Graphics/SVG/1.1/DTD/svg11.dtd">
<svg width="100%" height="100%" viewBox="0 0 90 90" version="1.1" xmlns="http://www.w3.org/2000/svg" xmlns:xlink="http://www.w3.org/1999/xlink" xml:space="preserve" xmlns:serif="http://www.serif.com/" style="fill-rule:evenodd;clip-rule:evenodd;stroke-linecap:round;stroke-linejoin:round;stroke-miterlimit:1.5;">
    <g transform="matrix(1,0,0,1,-1136.75,-260.617)">
        <g transform="matrix(2.10535,0,0,1,1075.8,213.408)">
            <g transform="matrix(0.350342,0,0,0.737594,-159.738,-299.847)">
                <path d="M660.603,482.725C660.603,475.991 655.135,470.523 648.401,470.523L550.786,470.523C544.052,470.523 538.584,475.991 538.584,482.725L538.584,580.34C538.584,587.074 544.052,592.541 550.786,592.541L648.401,592.541C655.135,592.541 660.603,587.074 660.603,580.34L660.603,482.725Z" style="fill:none;"/>
            </g>
        </g>
        <g transform="matrix(2.10535,0,0,1,1075.8,213.408)">
            <g transform="matrix(1,0,0,1,0.758896,-0.111913)">
                <g transform="matrix(0.311604,0,0,0.656037,-159.927,-28.3244)">
                    <path d="M664.187,146.177L667.839,132.112L671.578,139.149L676.765,125.364L680.642,136.989L695.151,126.675L692.361,135.254L710.541,134.707L703.868,139.585L720.211,143.112L706.394,150.551L718.801,156.753L705.22,159.154L712.894,167.385L700.906,168.589L710.882,172.469L707.462,176.121L713.66,178.463L710.566,180.033L723.231,186.876L717.003,191.84L719.489,194.861L712.649,195.898L713.533,202.507L706.389,199.576L707.103,206.403L700.803,208.981L711.715,215.305L703.284,218.701L708.69,224.348L702.419,223.283L708.198,238.923L696.189,235.401L695.47,239.698L689.706,235.301L685.598,240.771L683.012,236.066L675.242,242.435L671.858,233.801L664.247,234.878L660.338,223.397L657.864,226.619L656.025,220.379L654.66,222.722L645.154,209.059L677.766,230.723L696.495,228.258L688.536,210.275L653.119,196.374L665.738,196.865L692.119,199.274L705.865,188.632L691.69,176.698L666.175,178.832L652.809,179.032L690.168,164.639L697.059,147.168L678.157,145.187L645.587,166.051L650.224,154.548L652.098,156.237L655.036,150.626L657.254,152.404L661.564,143.372L664.187,146.177Z" style="fill:white;stroke:rgb(255,173,49);stroke-width:3.05px;"/>
                </g>
                <g transform="matrix(0.311604,0,0,0.656037,-159.927,-28.3244)">
                    <path d="M639.107,197.11L639.737,197.474L639.912,197.169L639.916,197.17C639.916,197.17 639.927,199.169 639.936,200.951C639.94,201.672 640.23,202.363 640.743,202.87C640.783,202.91 640.824,202.949 640.867,202.985L639.23,205.821L640.847,206.755C641.743,207.272 642.89,206.964 643.407,206.069L644.806,203.645L649.139,203.622L647.496,206.468L678.378,228.354L693.755,226.505L687.677,212.262L663.848,201.319L674.158,201.939L689.885,209.162C690.31,209.353 690.648,209.696 690.832,210.128L698.175,227.327C698.407,227.865 698.367,228.485 698.071,228.997C697.785,229.506 697.265,229.842 696.677,229.921L678.108,232.153C677.651,232.207 677.188,232.095 676.801,231.825L645.31,209.502C643.573,210.911 641.065,211.2 638.982,209.998L635.736,208.124C634.85,207.604 634.545,206.467 635.053,205.573L637.86,200.71L633.056,197.936C633.749,197.648 634.413,197.279 635.04,196.812L639.107,197.11ZM653.708,201.22L677.957,215.22C678.853,215.737 679.158,216.875 678.64,217.771C678.123,218.667 676.976,218.974 676.081,218.457L650.017,203.409C651.409,202.916 652.843,202.212 653.708,201.22ZM708.556,187.961C708.556,187.37 708.28,186.813 707.81,186.464L692.852,175.24C692.476,174.958 692.012,174.83 691.549,174.877L653.116,178.464C652.316,176.375 650.295,174.864 647.877,174.864L644.142,174.864C643.108,174.864 642.268,175.703 642.268,176.738L642.268,182.353L633.691,182.346L633.147,181.802C630.957,179.613 627.397,179.613 625.208,181.802L623.018,183.992C620.828,186.182 620.828,189.741 623.018,191.931L625.208,194.121C627.397,196.31 630.957,196.31 633.147,194.121L633.698,193.57L642.268,193.57L642.268,199.185C642.275,200.213 643.108,201.046 644.135,201.052L647.883,201.052C650.288,201.052 652.316,199.548 653.116,197.459L691.549,201.046C692.019,201.086 692.476,200.952 692.845,200.676L707.81,189.459C708.28,189.097 708.562,188.546 708.556,187.961ZM647.877,197.311L646.009,197.311L646.009,178.612L647.883,178.605C648.918,178.605 649.751,179.438 649.751,180.472L649.751,195.437C649.751,196.472 648.911,197.311 647.877,197.311ZM691.179,197.251L653.492,193.738L653.492,189.829L684.241,189.829C685.275,189.829 686.115,188.989 686.115,187.955C686.115,186.92 685.282,186.087 684.248,186.087L653.485,186.087L653.492,182.185L691.186,178.665L703.572,187.961L691.179,197.251ZM630.5,191.474C629.775,192.2 628.579,192.2 627.854,191.474L625.664,189.285C624.932,188.553 624.939,187.364 625.664,186.638L627.854,184.449C628.586,183.716 629.768,183.716 630.5,184.449L631.044,184.993L631.051,190.924L630.5,191.474ZM634.792,189.829L634.786,186.087L642.268,186.087L642.275,189.829L634.792,189.829ZM633.03,177.805L637.86,175.016L635.053,170.153C634.545,169.26 634.85,168.122 635.736,167.602L638.982,165.728C641.065,164.526 643.573,164.815 645.31,166.224L676.801,143.902C677.188,143.632 677.651,143.52 678.108,143.573L696.677,145.805C697.265,145.884 697.785,146.22 698.071,146.729C698.367,147.241 698.407,147.862 698.175,148.399L690.832,165.598C690.648,166.031 690.31,166.373 689.885,166.564L674.158,173.787L663.848,174.407L687.677,163.465L693.755,149.221L678.378,147.373L647.496,169.259L649.139,172.104L644.806,172.081L643.407,169.658C642.89,168.762 641.743,168.455 640.847,168.972L639.23,169.905L640.881,172.765L640.743,172.856C640.23,173.364 639.94,174.054 639.936,174.776C639.927,176.557 639.916,178.557 639.916,178.557L639.912,178.557L639.737,178.253L639.107,178.616L635.04,178.914C634.408,178.443 633.738,178.073 633.03,177.805ZM650.001,172.327L676.081,157.27C676.976,156.752 678.123,157.06 678.64,157.956C679.158,158.851 678.853,159.989 677.957,160.506L653.664,174.532C652.828,173.512 651.397,172.806 650.001,172.327Z" style="fill:white;fill-rule:nonzero;stroke:rgb(255,143,0);stroke-width:1.52px;stroke-linecap:butt;stroke-miterlimit:2;"/>
                </g>
            </g>
        </g>
    </g>
</svg>
