<?xml version="1.0" encoding="UTF-8" standalone="no"?>
<!DOCTYPE svg PUBLIC "-//W3C//DTD SVG 1.1//EN" "http://www.w3.org/Graphics/SVG/1.1/DTD/svg11.dtd">
<svg width="100%" height="100%" viewBox="0 0 90 90" version="1.1" xmlns="http://www.w3.org/2000/svg" xmlns:xlink="http://www.w3.org/1999/xlink" xml:space="preserve" xmlns:serif="http://www.serif.com/" style="fill-rule:evenodd;clip-rule:evenodd;stroke-linecap:round;stroke-linejoin:round;stroke-miterlimit:1.5;">
    <g transform="matrix(1,0,0,1,-1266.75,-260.617)">
        <g transform="matrix(2.10535,0,0,1,1205.8,213.408)">
            <g transform="matrix(0.350342,0,0,0.737594,-159.738,-299.847)">
                <path d="M660.603,482.725C660.603,475.991 655.135,470.523 648.401,470.523L550.786,470.523C544.052,470.523 538.584,475.991 538.584,482.725L538.584,580.34C538.584,587.074 544.052,592.541 550.786,592.541L648.401,592.541C655.135,592.541 660.603,587.074 660.603,580.34L660.603,482.725Z" style="fill:none;"/>
            </g>
        </g>
        <g transform="matrix(2.10535,0,0,1,1205.8,213.408)">
            <g transform="matrix(1,0,0,1,-1.72497,6.07195)">
                <g transform="matrix(1,-2.22045e-16,-2.77556e-17,1,6.05778,3.86429)">
                    <g transform="matrix(0.224631,0,0,0.472927,31.0038,57.7571)">
                        <path d="M72.25,122.57C60.32,122.57 42.68,122.23 27.33,119.3C6.83,115.39 5.3,107.34 5.49,99.43C5.65,92.7 8.73,70.17 11.77,60.95C16.37,47.01 23.4,33.15 27.68,27.19C33.55,19.02 48.43,5.89 63.39,5.44L63.53,5.44C65.51,5.44 67.48,6.74 68.66,8.83L74.51,19.15C75.91,21.63 75.88,24.68 74.43,27.12C73.24,29.12 69.78,29.66 69.75,29.67L67,30.07L68.85,32.16C68.84,32.16 69.46,33.14 68,35.26C66.7,37.15 64.17,38.06 60.28,38.06C56.63,38.06 52.47,37.23 49.13,36.57C48.93,36.53 48.72,36.51 48.51,36.51C47.27,36.51 45.99,37.2 44.83,38.5C43.33,40.17 38.6,46.96 40.52,64.17C41.47,72.71 38.64,80.4 38.61,80.48L37.42,83.66L40.57,82.4C40.6,82.38 45.4,80.5 52,80.5L52.7,80.5L53.15,79.96C53.29,79.79 67.09,63.48 85,63.48C96.7,63.48 107.9,68.22 114.96,76.16C119.94,81.76 122.27,88.39 121.51,94.82C118.57,119.8 95,122.5 85,122.5C83.6,122.5 81.96,122.51 80.13,122.53C77.8,122.55 75.15,122.57 72.25,122.57Z" style="fill:none;fill-rule:nonzero;"/>
                        <clipPath id="_clip1">
                            <path d="M72.25,122.57C60.32,122.57 42.68,122.23 27.33,119.3C6.83,115.39 5.3,107.34 5.49,99.43C5.65,92.7 8.73,70.17 11.77,60.95C16.37,47.01 23.4,33.15 27.68,27.19C33.55,19.02 48.43,5.89 63.39,5.44L63.53,5.44C65.51,5.44 67.48,6.74 68.66,8.83L74.51,19.15C75.91,21.63 75.88,24.68 74.43,27.12C73.24,29.12 69.78,29.66 69.75,29.67L67,30.07L68.85,32.16C68.84,32.16 69.46,33.14 68,35.26C66.7,37.15 64.17,38.06 60.28,38.06C56.63,38.06 52.47,37.23 49.13,36.57C48.93,36.53 48.72,36.51 48.51,36.51C47.27,36.51 45.99,37.2 44.83,38.5C43.33,40.17 38.6,46.96 40.52,64.17C41.47,72.71 38.64,80.4 38.61,80.48L37.42,83.66L40.57,82.4C40.6,82.38 45.4,80.5 52,80.5L52.7,80.5L53.15,79.96C53.29,79.79 67.09,63.48 85,63.48C96.7,63.48 107.9,68.22 114.96,76.16C119.94,81.76 122.27,88.39 121.51,94.82C118.57,119.8 95,122.5 85,122.5C83.6,122.5 81.96,122.51 80.13,122.53C77.8,122.55 75.15,122.57 72.25,122.57Z" clip-rule="nonzero"/>
                        </clipPath>
                        <g clip-path="url(#_clip1)">
                            <g transform="matrix(2.11449,2.23008e-16,1.23561e-16,2.11449,-1492.72,-133.151)">
                                <path d="M738.16,76.392C735.084,76.809 733.074,76.182 732.172,75.2C730.919,73.835 732.22,72.281 735.593,72.726C735.766,72.758 735.932,72.643 735.963,72.47C735.995,72.297 735.88,72.131 735.706,72.099C734.054,71.716 732.805,71.856 731.967,72.235C731.338,72.52 730.933,72.961 730.709,73.45C730.354,74.224 730.497,75.166 731.159,76.044C732.152,77.359 734.499,78.531 738.333,78.384C738.883,78.337 739.291,77.851 739.243,77.302C739.195,76.752 738.71,76.344 738.16,76.392Z" style="fill:white;"/>
                            </g>
                            <g transform="matrix(2.11449,2.23008e-16,1.23561e-16,2.11449,-1492.72,-133.151)">
                                <path d="M723.36,101.29C721.9,103.243 721.092,105.159 720.828,107.08C720.546,109.133 720.858,111.163 721.64,113.188C721.694,113.355 721.874,113.447 722.041,113.393C722.209,113.339 722.301,113.16 722.247,112.992C721.744,111.063 721.65,109.178 722.122,107.333C722.541,105.697 723.435,104.121 724.891,102.576C725.246,102.153 725.191,101.522 724.769,101.167C724.346,100.812 723.715,100.867 723.36,101.29Z" style="fill:white;"/>
                            </g>
                            <g transform="matrix(2.11449,2.23008e-16,1.23561e-16,2.11449,-1492.72,-133.151)">
                                <path d="M728.859,79.499C727.726,79.386 726.822,79.095 726.167,78.547C725.408,77.913 724.958,77.041 724.833,75.946C724.83,75.77 724.686,75.63 724.51,75.632C724.334,75.634 724.193,75.779 724.195,75.955C724.074,77.329 724.452,78.5 725.223,79.468C725.932,80.358 727.013,81.009 728.462,81.459C729.002,81.569 729.531,81.219 729.64,80.678C729.75,80.137 729.4,79.609 728.859,79.499Z" style="fill:white;"/>
                            </g>
                            <g transform="matrix(2.11449,2.23008e-16,1.23561e-16,2.11449,-1492.72,-133.151)">
                                <path d="M731.775,106.646C732.31,108.833 733.428,110.672 734.925,112.158C735.586,112.814 736.324,113.388 737.118,113.889C738.163,114.548 739.308,115.067 740.506,115.444C741.295,115.693 742.11,115.877 742.935,115.987C743.756,116.096 744.589,116.131 745.417,116.099C746.664,116.052 747.899,115.859 749.084,115.52C750.283,115.177 751.429,114.697 752.48,114.063C754.044,113.118 755.392,111.868 756.401,110.295C756.482,110.186 756.459,110.032 756.35,109.952C756.242,109.871 756.088,109.894 756.007,110.002C754.149,112.199 751.533,113.45 748.718,113.952C747.632,114.145 746.52,114.217 745.403,114.191C744.667,114.174 743.932,114.106 743.203,114.006C742.472,113.905 741.748,113.771 741.038,113.587C739.96,113.309 738.919,112.931 737.938,112.441C735.43,111.188 733.334,109.252 732.243,106.496C732.201,106.367 732.063,106.296 731.934,106.338C731.805,106.379 731.734,106.517 731.775,106.646Z" style="fill:white;"/>
                            </g>
                        </g>
                    </g>
                    <g transform="matrix(0.224631,0,0,0.472927,31.0038,57.7571)">
                        <path d="M63.54,6.95C64.96,6.95 66.46,7.98 67.37,9.58L73.22,19.9C74.36,21.91 74.33,24.39 73.16,26.37C72.59,27.33 70.66,28.03 69.56,28.2L64.03,28.98L67.47,32.86C67.46,33.06 67.35,33.57 66.77,34.41C65.78,35.84 63.6,36.57 60.28,36.57C56.78,36.57 52.7,35.76 49.43,35.11C49.13,35.05 48.82,35.02 48.52,35.02C47.35,35.02 45.56,35.45 43.72,37.51C39.45,42.28 37.7,52.31 39.03,64.34C39.93,72.47 37.23,79.89 37.2,79.96L34.84,86.27L41.12,83.8C41.15,83.77 45.72,82 52,82L53.41,82L54.31,80.92C54.44,80.76 67.83,64.98 85.01,64.98C96.29,64.98 107.07,69.53 113.85,77.16C118.54,82.44 120.74,88.65 120.03,94.65C118.94,103.89 114.83,110.83 107.8,115.3C100.36,120.01 91.3,121 85,121C83.6,121 81.96,121.01 80.12,121.03C77.79,121.05 75.14,121.07 72.26,121.07C60.39,121.07 42.84,120.73 27.62,117.83C18.65,116.12 12.83,113.53 9.8,109.92C7.19,106.81 6.92,103.06 7,99.47C7.16,92.81 10.2,70.53 13.21,61.43C17.6,48.13 24.64,34.03 28.92,28.08C34.62,20.14 49.04,7.39 63.45,6.96L63.54,6.95M63.54,3.95L63.36,3.95C47.55,4.42 32.26,18.26 26.48,26.32C22.07,32.47 14.94,46.62 10.36,60.48C7.34,69.64 4.17,92.25 4,99.39C3.79,108.12 5.85,116.72 27.06,120.77C42.15,123.65 59.53,124.07 72.26,124.07C77.43,124.07 81.83,124 85,124C102,124 120.39,117.21 123,95C125,78 107,61.98 85,61.98C66.15,61.98 52,79 52,79C45,79 40,81 40,81C40,81 43,73 42,64C40.01,46.06 45.4,38.01 48.51,38.01C48.62,38.01 48.73,38.02 48.84,38.04C52.3,38.73 56.5,39.56 60.28,39.56C64.06,39.56 67.42,38.73 69.23,36.11C71.48,32.86 69.97,31.16 69.97,31.16C69.97,31.16 74.14,30.57 75.73,27.89C77.46,24.98 77.5,21.36 75.83,18.41L69.97,8.09C68.64,5.74 66.23,3.95 63.54,3.95Z" style="fill:white;fill-rule:nonzero;"/>
                    </g>
                </g>
                <g transform="matrix(0.524636,0,0,1.12633,-2246.72,-1475.71)">
                    <path d="M4397.72,1372.34L4392.76,1379.84L4395.04,1381.87L4392.34,1387.56L4398.57,1381.47L4396.11,1378.39L4397.72,1372.34Z" style="fill:none;stroke:white;stroke-width:0.9px;"/>
                </g>
                <g transform="matrix(0.320154,0,0,0.68733,-1371.22,-853.119)">
                    <path d="M4397.72,1372.34L4392.76,1379.84L4395.04,1381.87L4392.34,1387.56L4398.57,1381.47L4396.11,1378.39L4397.72,1372.34Z" style="fill:none;stroke:white;stroke-width:1.47px;"/>
                </g>
                <g transform="matrix(0.320154,0,0,0.68733,-1351.74,-891.127)">
                    <path d="M4397.72,1372.34L4392.76,1379.84L4395.04,1381.87L4392.34,1387.56L4398.57,1381.47L4396.11,1378.39L4397.72,1372.34Z" style="fill:none;stroke:white;stroke-width:1.47px;"/>
                </g>
                <g transform="matrix(0.287781,0,0,0.617831,-1218.96,-795.88)">
                    <path d="M4397.72,1372.34L4392.76,1379.84L4395.04,1381.87L4392.34,1387.56L4398.57,1381.47L4396.11,1378.39L4397.72,1372.34Z" style="fill:none;stroke:white;stroke-width:1.63px;"/>
                </g>
                <g transform="matrix(0.490454,0,0,1.05294,-2089.58,-1393.02)">
                    <path d="M4397.72,1372.34L4392.76,1379.84L4395.04,1381.87L4392.34,1387.56L4398.57,1381.47L4396.11,1378.39L4397.72,1372.34Z" style="fill:none;stroke:white;stroke-width:0.96px;"/>
                </g>
                <g transform="matrix(0.490454,0,0,1.05294,-2088.21,-1353.35)">
                    <path d="M4397.72,1372.34L4392.76,1379.84L4395.04,1381.87L4392.34,1387.56L4398.57,1381.47L4396.11,1378.39L4397.72,1372.34Z" style="fill:none;stroke:white;stroke-width:0.96px;"/>
                </g>
                <g transform="matrix(0.747481,0,0,1.60475,-3247.96,-2147.01)">
                    <path d="M4397.72,1372.34L4392.76,1379.84L4395.04,1381.87L4392.34,1387.56L4398.57,1381.47L4396.11,1378.39L4397.72,1372.34Z" style="fill:none;stroke:white;stroke-width:0.63px;"/>
                </g>
            </g>
        </g>
    </g>
</svg>
