<?xml version="1.0" encoding="UTF-8" standalone="no"?>
<!DOCTYPE svg PUBLIC "-//W3C//DTD SVG 1.1//EN" "http://www.w3.org/Graphics/SVG/1.1/DTD/svg11.dtd">
<svg width="100%" height="100%" viewBox="0 0 90 90" version="1.1" xmlns="http://www.w3.org/2000/svg" xmlns:xlink="http://www.w3.org/1999/xlink" xml:space="preserve" xmlns:serif="http://www.serif.com/" style="fill-rule:evenodd;clip-rule:evenodd;stroke-linejoin:round;stroke-miterlimit:2;">
    <g transform="matrix(1,0,0,1,-1396.75,-260.617)">
        <g transform="matrix(2.10535,0,0,1,1335.8,213.408)">
            <g transform="matrix(0.350342,0,0,0.737594,-159.738,-299.847)">
                <path d="M660.603,482.725C660.603,475.991 655.135,470.523 648.401,470.523L550.786,470.523C544.052,470.523 538.584,475.991 538.584,482.725L538.584,580.34C538.584,587.074 544.052,592.541 550.786,592.541L648.401,592.541C655.135,592.541 660.603,587.074 660.603,580.34L660.603,482.725Z" style="fill:none;"/>
            </g>
        </g>
        <g transform="matrix(2.10535,0,0,1,1335.8,213.408)">
            <g transform="matrix(1,0,0,1,0.513962,1.22203)">
                <g transform="matrix(0.223893,0,0,0.223893,-27.8572,-34.3712)">
                    <path d="M358.433,470.659C359.916,461.142 362.27,454.901 365.219,451.17C368.2,447.399 371.847,446.161 376.035,447.153C383.497,448.92 392.867,457.974 403.012,470.331C404.147,471.713 404.535,474.774 403.879,477.163C403.222,479.552 401.768,480.369 400.634,478.987C391.164,467.453 382.469,458.739 375.504,457.09C372.477,456.374 369.82,457.016 367.665,459.741C365.564,462.399 363.999,467.011 362.945,473.79C367.387,477.338 371.663,482.164 375.78,488.212L372.06,511.407C381.571,527.743 387.649,552.615 387.649,580.453C387.649,629.619 368.689,669.536 345.337,669.536C321.984,669.536 303.024,629.619 303.024,580.453C303.024,534.173 319.823,496.089 341.273,491.779L345.319,466.556C349.839,466.781 354.209,468.162 358.433,470.659ZM345.337,501.371C366.068,501.371 382.899,536.806 382.899,580.453C382.899,624.1 366.068,659.536 345.337,659.536C324.605,659.536 307.774,624.1 307.774,580.453C307.774,536.806 324.605,501.371 345.337,501.371ZM346.89,513.313C341.067,512.905 336.031,514.252 331.67,517.503C329.941,518.792 328.346,520.438 326.856,522.343C325.294,524.34 323.863,526.665 322.58,529.321C321.555,531.443 320.624,533.783 319.807,536.333C318.642,539.968 317.678,543.981 316.913,548.361C316.219,552.333 315.674,556.55 315.309,561.097C314.831,567.064 314.645,573.417 314.691,580.343C314.663,580.995 314.892,581.573 315.202,581.631C315.511,581.69 315.786,581.209 315.814,580.557C316.658,571.293 317.937,563.328 319.489,556.22C320.511,551.54 321.702,547.402 323.02,543.596C323.922,540.991 324.893,538.589 325.934,536.33C327.242,533.494 328.642,530.874 330.233,528.588C331.786,526.357 333.456,524.349 335.309,522.623C338.686,519.477 342.506,517.073 346.952,515.683C347.263,515.646 347.501,515.086 347.484,514.432C347.466,513.778 347.2,513.277 346.89,513.313ZM399.783,490.043L399.783,508.463C399.783,511.223 400.847,513.463 402.158,513.463C403.469,513.463 404.533,511.223 404.533,508.463L404.533,490.043C404.533,487.283 403.469,485.043 402.158,485.043C400.847,485.043 399.783,487.283 399.783,490.043ZM346.348,491.397L348.66,476.978C356.278,478.483 363.413,483.704 370.106,492.336L370.106,492.337L368.031,505.273C361.736,496.828 354.313,491.791 346.348,491.397ZM395.302,482.189L389.115,495.215C388.188,497.166 388.188,500.334 389.115,502.286C390.042,504.237 391.547,504.237 392.474,502.286L398.66,489.261C399.587,487.309 399.587,484.141 398.66,482.189C397.733,480.238 396.228,480.238 395.302,482.189ZM405.59,488.924L411.776,501.949C412.703,503.9 414.208,503.9 415.135,501.949C416.062,499.998 416.062,496.829 415.135,494.878L408.948,481.853C408.022,479.902 406.517,479.902 405.59,481.853C404.663,483.804 404.663,486.973 405.59,488.924ZM409.32,479.489L418.069,479.489C419.38,479.489 420.444,477.248 420.444,474.489C420.444,471.729 419.38,469.489 418.069,469.489L409.32,469.489C408.009,469.489 406.945,471.729 406.945,474.489C406.945,477.248 408.009,479.489 409.32,479.489ZM408.789,467.264L414.975,454.239C415.902,452.287 415.902,449.119 414.975,447.167C414.048,445.216 412.543,445.216 411.617,447.167L405.43,460.193C404.503,462.144 404.503,465.312 405.43,467.264C406.357,469.215 407.862,469.215 408.789,467.264ZM404.307,459.41L404.307,440.99C404.307,438.231 403.243,435.99 401.932,435.99C400.621,435.99 399.557,438.231 399.557,440.99L399.557,459.41C399.557,462.17 400.621,464.41 401.932,464.41C403.243,464.41 404.307,462.17 404.307,459.41Z" style="fill:white;"/>
                </g>
                <g transform="matrix(0.546497,0,0,0.546497,21.2728,53.08)">
                    <g transform="matrix(4.74241,2.67532,-0.527918,4.148,-223.857,-342.286)">
                        <path d="M66.088,58.29L66.05,56.789C66.045,56.595 65.995,56.424 65.921,56.349C65.846,56.273 65.76,56.306 65.699,56.433L65.431,56.99C65.239,56.793 65.026,56.683 64.801,56.683C64.578,56.683 64.367,56.79 64.177,56.982C64.177,56.982 63.913,56.433 63.913,56.433C63.852,56.306 63.766,56.273 63.692,56.349C63.617,56.424 63.567,56.595 63.562,56.789L63.525,58.245C63.376,58.768 63.29,59.388 63.29,60.054C63.29,61.897 63.96,63.424 64.801,63.424C65.638,63.424 66.311,61.897 66.311,60.054C66.311,59.408 66.23,58.804 66.088,58.29L66.088,58.29ZM65.88,58.465L65.838,56.82L65.464,57.596C65.27,57.341 65.043,57.194 64.801,57.194C64.561,57.194 64.336,57.337 64.143,57.587L63.774,56.82L63.734,58.424C63.588,58.886 63.503,59.447 63.503,60.054C63.503,61.629 64.083,62.913 64.801,62.913C65.516,62.913 66.099,61.629 66.099,60.054C66.099,59.465 66.018,58.919 65.88,58.465Z" style="fill:white;"/>
                    </g>
                    <g transform="matrix(0.458795,0.258819,-0.122934,0.965926,-731.465,-451.407)">
                        <path d="M1724.03,92.2C1725.27,91.525 1726.46,91.146 1727.62,90.914C1727.94,90.85 1728.26,90.806 1728.57,90.766C1729.05,90.705 1729.51,90.699 1729.98,90.695C1730.57,90.69 1731.15,90.702 1731.74,90.793C1732.14,90.855 1732.53,90.918 1732.94,91.023C1733.91,91.276 1734.9,91.634 1735.91,92.198C1736.1,92.331 1736.35,92.293 1736.48,92.113C1736.62,91.934 1736.58,91.679 1736.4,91.546C1735.75,90.913 1735.11,90.389 1734.43,89.942C1733.93,89.609 1733.42,89.348 1732.89,89.125C1732.33,88.885 1731.76,88.719 1731.18,88.611C1730.78,88.537 1730.38,88.501 1729.97,88.5C1729.67,88.499 1729.37,88.52 1729.07,88.565C1728.39,88.665 1727.72,88.836 1727.06,89.121C1725.84,89.647 1724.69,90.454 1723.55,91.544C1723.37,91.676 1723.33,91.93 1723.46,92.111C1723.59,92.292 1723.85,92.332 1724.03,92.2Z" style="fill:white;"/>
                    </g>
                </g>
                <g transform="matrix(0.411344,-0.5,0.23749,0.866025,-327.088,441.718)">
                    <path d="M857.744,52.252C854.842,50.109 850.722,50.4 848.467,52.006C845.661,54.006 845.181,57.988 847.973,61.987C849.559,64.381 853.526,66.857 856.886,68.453C857.429,68.711 858.059,68.711 858.602,68.453C861.966,66.855 865.939,64.375 867.521,61.977C870.307,57.992 869.828,54.006 867.02,52.006C864.766,50.4 860.645,50.109 857.744,52.252ZM857.744,55.081C859.773,52.19 863.831,52.19 865.86,53.635C867.889,55.081 867.889,57.972 865.86,60.864C864.44,63.032 860.787,65.201 857.744,66.646C854.7,65.201 851.048,63.032 849.628,60.864C847.599,57.972 847.599,55.081 849.628,53.635C851.657,52.19 855.715,52.19 857.744,55.081Z" style="fill:white;"/>
                </g>
                <g transform="matrix(0.411344,0.5,-0.23749,0.866025,-301.835,-359.97)">
                    <path d="M857.744,52.252C854.842,50.109 850.722,50.4 848.467,52.006C845.661,54.006 845.181,57.988 847.973,61.987C849.559,64.381 853.526,66.857 856.886,68.453C857.429,68.711 858.059,68.711 858.602,68.453C861.966,66.855 865.939,64.375 867.521,61.977C870.307,57.992 869.828,54.006 867.02,52.006C864.766,50.4 860.645,50.109 857.744,52.252ZM857.744,55.081C859.773,52.19 863.831,52.19 865.86,53.635C867.889,55.081 867.889,57.972 865.86,60.864C864.44,63.032 860.787,65.201 857.744,66.646C854.7,65.201 851.048,63.032 849.628,60.864C847.599,57.972 847.599,55.081 849.628,53.635C851.657,52.19 855.715,52.19 857.744,55.081Z" style="fill:white;"/>
                </g>
                <g transform="matrix(0.335861,-0.707107,0.335861,0.707107,-244.876,682.139)">
                    <path d="M857.744,52.252C854.842,50.109 850.722,50.4 848.467,52.006C845.661,54.006 845.181,57.988 847.973,61.987C849.559,64.381 853.526,66.857 856.886,68.453C857.429,68.711 858.059,68.711 858.602,68.453C861.966,66.855 865.939,64.375 867.521,61.977C870.307,57.992 869.828,54.006 867.02,52.006C864.766,50.4 860.645,50.109 857.744,52.252ZM857.744,55.081C859.773,52.19 863.831,52.19 865.86,53.635C867.889,55.081 867.889,57.972 865.86,60.864C864.44,63.032 860.787,65.201 857.744,66.646C854.7,65.201 851.048,63.032 849.628,60.864C847.599,57.972 847.599,55.081 849.628,53.635C851.657,52.19 855.715,52.19 857.744,55.081Z" style="fill:white;"/>
                </g>
            </g>
        </g>
    </g>
</svg>
