<?xml version="1.0" encoding="UTF-8" standalone="no"?>
<!DOCTYPE svg PUBLIC "-//W3C//DTD SVG 1.1//EN" "http://www.w3.org/Graphics/SVG/1.1/DTD/svg11.dtd">
<svg width="100%" height="100%" viewBox="0 0 90 90" version="1.1" xmlns="http://www.w3.org/2000/svg" xmlns:xlink="http://www.w3.org/1999/xlink" xml:space="preserve" xmlns:serif="http://www.serif.com/" style="fill-rule:evenodd;clip-rule:evenodd;stroke-linecap:round;stroke-linejoin:round;stroke-miterlimit:1.5;">
    <g transform="matrix(1,0,0,1,-1526.75,-260.617)">
        <g transform="matrix(2.10535,0,0,1,1465.8,213.408)">
            <g transform="matrix(0.350342,0,0,0.737594,-159.738,-299.847)">
                <path d="M660.603,482.725C660.603,475.991 655.135,470.523 648.401,470.523L550.786,470.523C544.052,470.523 538.584,475.991 538.584,482.725L538.584,580.34C538.584,587.074 544.052,592.541 550.786,592.541L648.401,592.541C655.135,592.541 660.603,587.074 660.603,580.34L660.603,482.725Z" style="fill:none;"/>
            </g>
        </g>
        <g transform="matrix(2.10535,0,0,1,1465.8,213.408)">
            <g transform="matrix(1,0,0,1,-1.81778,6.42267)">
                <g transform="matrix(4.9097,0,0,4.29433,-266.289,-166.893)">
                    <path d="M65.88,58.465L65.838,56.82L65.464,57.596C65.27,57.341 65.043,57.194 64.801,57.194C64.561,57.194 64.336,57.337 64.143,57.587L63.774,56.82L63.734,58.424C63.588,58.886 63.503,59.447 63.503,60.054C63.503,61.629 64.083,62.913 64.801,62.913C65.516,62.913 66.099,61.629 66.099,60.054C66.099,59.465 66.018,58.919 65.88,58.465Z" style="fill:white;fill-opacity:0.2;"/>
                    <path d="M66.164,58.229L66.128,56.778C66.121,56.512 66.052,56.28 65.951,56.176C65.849,56.073 65.732,56.118 65.648,56.291L65.416,56.773C65.227,56.595 65.019,56.496 64.801,56.496C64.585,56.496 64.379,56.592 64.192,56.765C64.192,56.765 63.964,56.291 63.964,56.291C63.88,56.118 63.763,56.073 63.661,56.176C63.56,56.28 63.491,56.512 63.485,56.778L63.449,58.182C63.298,58.727 63.212,59.368 63.212,60.054C63.212,61.996 63.915,63.612 64.801,63.612C65.682,63.612 66.389,61.996 66.389,60.054C66.389,59.388 66.307,58.764 66.164,58.229L66.164,58.229ZM65.88,58.465L65.838,56.82L65.464,57.596C65.27,57.341 65.043,57.194 64.801,57.194C64.561,57.194 64.336,57.337 64.143,57.587L63.774,56.82L63.734,58.424C63.588,58.886 63.503,59.447 63.503,60.054C63.503,61.629 64.083,62.913 64.801,62.913C65.516,62.913 66.099,61.629 66.099,60.054C66.099,59.465 66.018,58.919 65.88,58.465Z" style="fill:rgb(255,253,0);fill-opacity:0.2;"/>
                </g>
                <g transform="matrix(4.9097,0,0,4.29433,-266.289,-166.893)">
                    <path d="M65.975,58.384L65.935,56.806C65.932,56.718 65.909,56.64 65.876,56.605C65.842,56.571 65.803,56.586 65.775,56.644L65.45,57.317C65.256,57.09 65.035,56.962 64.801,56.962C64.568,56.962 64.35,57.087 64.158,57.308C64.158,57.308 63.837,56.644 63.837,56.644C63.81,56.586 63.771,56.571 63.737,56.605C63.703,56.64 63.68,56.718 63.678,56.806L63.639,58.34C63.491,58.831 63.406,59.42 63.406,60.054C63.406,61.751 64.027,63.146 64.801,63.146C65.571,63.146 66.195,61.751 66.195,60.054C66.195,59.439 66.114,58.866 65.975,58.384ZM65.88,58.465L65.838,56.82L65.464,57.596C65.27,57.341 65.043,57.194 64.801,57.194C64.561,57.194 64.336,57.337 64.143,57.587L63.774,56.82L63.734,58.424C63.588,58.886 63.503,59.447 63.503,60.054C63.503,61.629 64.083,62.913 64.801,62.913C65.516,62.913 66.099,61.629 66.099,60.054C66.099,59.465 66.018,58.919 65.88,58.465Z" style="fill:white;"/>
                </g>
                <g transform="matrix(-0.47498,0,0,-1,873.78,185.772)">
                    <path d="M1724.01,92.269C1724.04,91.584 1724.63,91.013 1725.49,90.551C1726,90.278 1726.6,90.058 1727.27,89.883C1727.86,89.728 1728.5,89.622 1729.16,89.551C1730,89.461 1730.87,89.435 1731.73,89.52C1733.04,89.648 1734.31,89.997 1735.36,90.705C1735.47,90.791 1735.64,90.767 1735.72,90.651C1735.81,90.536 1735.78,90.373 1735.67,90.287C1734.6,89.415 1733.26,88.882 1731.85,88.647C1730.92,88.493 1729.97,88.465 1729.06,88.557C1728.46,88.617 1727.89,88.735 1727.34,88.888C1726.75,89.056 1726.19,89.271 1725.7,89.523C1724.31,90.243 1723.44,91.243 1723.49,92.271C1723.49,92.415 1723.61,92.531 1723.75,92.531C1723.89,92.53 1724.01,92.413 1724.01,92.269Z" style="fill:white;"/>
                </g>
                <g transform="matrix(0.524636,0,0,1.12633,-2242.27,-1479.73)">
                    <path d="M4397.72,1372.34L4392.76,1379.84L4395.04,1381.87L4392.34,1387.56L4398.57,1381.47L4396.11,1378.39L4397.72,1372.34Z" style="fill:none;stroke:white;stroke-width:0.9px;"/>
                </g>
                <g transform="matrix(-0.0828619,0.651069,0.315344,0.177894,-31.5191,-3009.17)">
                    <path d="M4397.72,1372.34L4392.76,1379.84L4395.04,1381.87L4392.34,1387.56L4398.57,1381.47L4396.11,1378.39L4397.72,1372.34Z" style="fill:none;stroke:white;stroke-width:1.47px;"/>
                </g>
                <g transform="matrix(0.320154,0,0,0.68733,-1348.07,-885.055)">
                    <path d="M4397.72,1372.34L4392.76,1379.84L4395.04,1381.87L4392.34,1387.56L4398.57,1381.47L4396.11,1378.39L4397.72,1372.34Z" style="fill:none;stroke:white;stroke-width:1.47px;"/>
                </g>
                <g transform="matrix(1.36297,0,0,1.36297,-34.7892,-28.5533)">
                    <path d="M62.442,109.649L66.385,109.649C66.647,109.649 66.86,109.201 66.86,108.649C66.86,108.097 66.647,107.649 66.385,107.649L62.442,107.649C62.179,107.649 61.967,108.097 61.967,108.649C61.967,109.201 62.179,109.649 62.442,109.649ZM60.71,109.649L60.969,109.649C61.231,109.649 61.444,109.201 61.444,108.649C61.444,108.097 61.231,107.649 60.969,107.649L60.71,107.649C60.448,107.649 60.235,108.097 60.235,108.649C60.235,109.201 60.448,109.649 60.71,109.649ZM62.442,106.573L66.385,106.573C66.647,106.573 66.86,106.125 66.86,105.573C66.86,105.021 66.647,104.573 66.385,104.573L62.442,104.573C62.179,104.573 61.967,105.021 61.967,105.573C61.967,106.125 62.179,106.573 62.442,106.573ZM60.71,106.573L60.969,106.573C61.231,106.573 61.444,106.125 61.444,105.573C61.444,105.021 61.231,104.573 60.969,104.573L60.71,104.573C60.448,104.573 60.235,105.021 60.235,105.573C60.235,106.125 60.448,106.573 60.71,106.573ZM62.442,103.497L66.385,103.497C66.647,103.497 66.86,103.049 66.86,102.497C66.86,101.945 66.647,101.497 66.385,101.497L62.442,101.497C62.179,101.497 61.967,101.945 61.967,102.497C61.967,103.049 62.179,103.497 62.442,103.497ZM60.71,103.497L60.969,103.497C61.231,103.497 61.444,103.049 61.444,102.497C61.444,101.945 61.231,101.497 60.969,101.497L60.71,101.497C60.448,101.497 60.235,101.945 60.235,102.497C60.235,103.049 60.448,103.497 60.71,103.497Z" style="fill:white;"/>
                </g>
                <g transform="matrix(-0.287781,0,0,0.617831,1311.16,-788.23)">
                    <path d="M4397.72,1372.34L4392.76,1379.84L4395.04,1381.87L4392.34,1387.56L4398.57,1381.47L4396.11,1378.39L4397.72,1372.34Z" style="fill:none;stroke:white;stroke-width:1.63px;"/>
                </g>
                <g transform="matrix(0.45562,-0.3822,0.185117,0.97816,-2205.76,388.281)">
                    <path d="M4397.72,1372.34L4392.76,1379.84L4395.04,1381.87L4392.34,1387.56L4398.57,1381.47L4396.11,1378.39L4397.72,1372.34Z" style="fill:none;stroke:white;stroke-width:0.96px;"/>
                </g>
                <g transform="matrix(-0.242948,0.896992,-0.434456,-0.52158,1730,-3107.2)">
                    <path d="M4397.72,1372.34L4392.76,1379.84L4395.04,1381.87L4392.34,1387.56L4398.57,1381.47L4396.11,1378.39L4397.72,1372.34Z" style="fill:none;stroke:white;stroke-width:0.96px;"/>
                </g>
                <g transform="matrix(3.00316e-17,1.03258,-0.500127,6.44742e-17,754.998,-4437.21)">
                    <path d="M4397.72,1372.34L4392.76,1379.84L4395.04,1381.87L4392.34,1387.56L4398.57,1381.47L4396.11,1378.39L4397.72,1372.34Z" style="fill:none;stroke:white;stroke-width:0.96px;"/>
                </g>
                <g transform="matrix(0.13124,0.994924,0.481889,-0.281756,-1200.51,-3868.51)">
                    <path d="M4397.72,1372.34L4392.76,1379.84L4395.04,1381.87L4392.34,1387.56L4398.57,1381.47L4396.11,1378.39L4397.72,1372.34Z" style="fill:none;stroke:white;stroke-width:0.96px;"/>
                </g>
                <g transform="matrix(-0.695673,0.575682,0.27883,1.49352,2712.35,-4517.61)">
                    <path d="M4397.72,1372.34L4392.76,1379.84L4395.04,1381.87L4392.34,1387.56L4398.57,1381.47L4396.11,1378.39L4397.72,1372.34Z" style="fill:none;stroke:white;stroke-width:0.63px;"/>
                </g>
            </g>
        </g>
    </g>
</svg>
