<?xml version="1.0" encoding="UTF-8" standalone="no"?>
<!DOCTYPE svg PUBLIC "-//W3C//DTD SVG 1.1//EN" "http://www.w3.org/Graphics/SVG/1.1/DTD/svg11.dtd">
<svg width="100%" height="100%" viewBox="0 0 90 90" version="1.1" xmlns="http://www.w3.org/2000/svg" xmlns:xlink="http://www.w3.org/1999/xlink" xml:space="preserve" xmlns:serif="http://www.serif.com/" style="fill-rule:evenodd;clip-rule:evenodd;stroke-linecap:round;stroke-linejoin:round;stroke-miterlimit:1.5;">
    <g transform="matrix(1,0,0,1,-1656.75,-260.617)">
        <g transform="matrix(2.10535,0,0,1,1595.63,212.155)">
            <g transform="matrix(0.350342,0,0,0.737594,-159.656,-298.593)">
                <path d="M660.603,482.725C660.603,475.991 655.135,470.523 648.401,470.523L550.786,470.523C544.052,470.523 538.584,475.991 538.584,482.725L538.584,580.34C538.584,587.074 544.052,592.541 550.786,592.541L648.401,592.541C655.135,592.541 660.603,587.074 660.603,580.34L660.603,482.725Z" style="fill:none;"/>
            </g>
        </g>
        <g transform="matrix(2.10535,0,0,1,1595.63,212.155)">
            <g transform="matrix(1,0,0,1,1.27173,-1.7589)">
                <g transform="matrix(0.311604,0,0,0.656037,-159.927,-28.3244)">
                    <path d="M690.168,164.639L702.142,160.478L700.906,168.589L713.112,167.812L707.462,176.121L718.635,175.326L714.733,180.033L730.433,186.891L717.003,191.84L725.709,198.746L714.334,197.402L715.6,203.616L708.418,201.893L711.768,211.656L700.803,208.981L699.418,216.162L688.536,210.275L653.119,196.374L665.738,196.865L692.119,199.274L705.865,188.632L691.69,176.698L666.175,178.832L652.809,179.032L690.168,164.639Z" style="fill:white;stroke:rgb(255,173,49);stroke-width:3.05px;"/>
                </g>
                <g transform="matrix(0.311604,0,0,0.656037,-159.927,-28.3244)">
                    <path d="M708.556,187.961C708.556,187.37 708.28,186.813 707.81,186.464L692.852,175.24C692.476,174.958 692.012,174.83 691.549,174.877L653.116,178.464C652.316,176.375 650.295,174.864 647.877,174.864L644.142,174.864C643.108,174.864 642.268,175.703 642.268,176.738L642.268,182.353L633.691,182.346L633.147,181.802C630.957,179.613 627.397,179.613 625.208,181.802L623.018,183.992C620.828,186.182 620.828,189.741 623.018,191.931L625.208,194.121C627.397,196.31 630.957,196.31 633.147,194.121L633.698,193.57L642.268,193.57L642.268,199.185C642.275,200.213 643.108,201.046 644.135,201.052L647.883,201.052C650.288,201.052 652.316,199.548 653.116,197.459L691.549,201.046C692.019,201.086 692.476,200.952 692.845,200.676L707.81,189.459C708.28,189.097 708.562,188.546 708.556,187.961ZM647.877,197.311L646.009,197.311L646.009,178.612L647.883,178.605C648.918,178.605 649.751,179.438 649.751,180.472L649.751,195.437C649.751,196.472 648.911,197.311 647.877,197.311ZM691.179,197.251L653.492,193.738L653.492,189.829L684.241,189.829C685.275,189.829 686.115,188.989 686.115,187.955C686.115,186.92 685.282,186.087 684.248,186.087L653.485,186.087L653.492,182.185L691.186,178.665L703.572,187.961L691.179,197.251ZM630.5,191.474C629.775,192.2 628.579,192.2 627.854,191.474L625.664,189.285C624.932,188.553 624.939,187.364 625.664,186.638L627.854,184.449C628.586,183.716 629.768,183.716 630.5,184.449L631.044,184.993L631.051,190.924L630.5,191.474ZM634.792,189.829L634.786,186.087L642.268,186.087L642.275,189.829L634.792,189.829Z" style="fill:white;fill-rule:nonzero;stroke:rgb(255,143,0);stroke-width:1.52px;stroke-linecap:butt;stroke-miterlimit:2;"/>
                </g>
                <g transform="matrix(0.47498,0,0,1,-236.449,-356.918)">
                    <path d="M612.729,435.671C612.729,435.671 612.305,435.463 611.389,435.204C611.006,435.096 610.577,434.994 610.049,434.911C609.717,434.859 609.361,434.824 608.977,434.807C608.477,434.785 607.938,434.808 607.369,434.819C604.885,434.87 601.824,434.991 598.794,435.108C592.271,435.361 585.931,435.671 585.931,435.671C585.931,435.671 592.271,435.982 598.794,436.235C601.824,436.352 604.885,436.472 607.369,436.524C607.938,436.535 608.477,436.558 608.977,436.536C609.361,436.519 609.717,436.484 610.049,436.432C610.577,436.349 611.006,436.247 611.389,436.139C612.305,435.88 612.729,435.671 612.729,435.671Z" style="fill:white;"/>
                </g>
                <g transform="matrix(0.47498,0,0,1,-244.054,-353.052)">
                    <path d="M612.729,435.671C612.729,435.671 612.482,435.481 611.797,435.202C611.529,435.093 611.246,434.994 610.866,434.907C610.635,434.855 610.389,434.82 610.12,434.802C609.773,434.78 609.397,434.801 609.001,434.812C607.271,434.861 605.144,434.977 603.034,435.09C598.49,435.335 594.084,435.637 594.084,435.637C594.084,435.637 598.488,435.956 603.032,436.217C605.141,436.338 607.268,436.462 608.998,436.517C609.394,436.529 609.769,436.552 610.117,436.531C610.386,436.514 610.632,436.48 610.863,436.429C611.243,436.344 611.527,436.246 611.795,436.137C612.481,435.861 612.729,435.671 612.729,435.671Z" style="fill:white;"/>
                </g>
                <g transform="matrix(0.47498,0,0,1,-243.574,-328.649)">
                    <path d="M612.729,435.671C612.729,435.671 612.482,435.481 611.797,435.202C611.529,435.093 611.246,434.994 610.866,434.907C610.635,434.855 610.389,434.82 610.12,434.802C609.773,434.78 609.397,434.801 609.001,434.812C607.271,434.861 605.144,434.977 603.034,435.09C598.49,435.335 594.084,435.637 594.084,435.637C594.084,435.637 598.488,435.956 603.032,436.217C605.141,436.338 607.268,436.462 608.998,436.517C609.394,436.529 609.769,436.552 610.117,436.531C610.386,436.514 610.632,436.48 610.863,436.429C611.243,436.344 611.527,436.246 611.795,436.137C612.481,435.861 612.729,435.671 612.729,435.671Z" style="fill:white;"/>
                </g>
                <g transform="matrix(0.47498,0,0,1,-251.588,-333.335)">
                    <path d="M612.729,435.671C612.729,435.671 612.482,435.481 611.797,435.202C611.529,435.093 611.246,434.994 610.866,434.907C610.635,434.855 610.389,434.82 610.12,434.802C609.773,434.78 609.397,434.801 609.001,434.812C607.271,434.861 605.144,434.977 603.034,435.09C598.49,435.335 594.084,435.637 594.084,435.637C594.084,435.637 598.488,435.956 603.032,436.217C605.141,436.338 607.268,436.462 608.998,436.517C609.394,436.529 609.769,436.552 610.117,436.531C610.386,436.514 610.632,436.48 610.863,436.429C611.243,436.344 611.527,436.246 611.795,436.137C612.481,435.861 612.729,435.671 612.729,435.671Z" style="fill:white;"/>
                </g>
                <g transform="matrix(0.47498,0,0,1,-252.997,-348.308)">
                    <path d="M612.729,435.671C612.729,435.671 612.585,435.504 612.012,435.203C611.803,435.093 611.601,434.999 611.296,434.91C611.119,434.858 610.932,434.823 610.723,434.806C610.456,434.784 610.167,434.806 609.863,434.817C608.531,434.868 606.898,434.986 605.276,435.103C601.776,435.354 598.396,435.661 598.396,435.661C598.396,435.661 601.776,435.974 605.275,436.23C606.897,436.348 608.53,436.469 609.861,436.522C610.166,436.533 610.455,436.556 610.721,436.534C610.931,436.517 611.118,436.482 611.295,436.431C611.601,436.342 611.802,436.248 612.012,436.139C612.585,435.838 612.729,435.671 612.729,435.671Z" style="fill:white;"/>
                </g>
                <g transform="matrix(0.47498,0,0,1,-238.915,-324.622)">
                    <path d="M612.729,435.671C612.729,435.671 612.208,435.458 611.15,435.204C610.701,435.096 610.187,434.993 609.571,434.911C609.18,434.859 608.759,434.824 608.308,434.807C607.719,434.785 607.084,434.808 606.414,434.819C603.488,434.87 599.879,434.991 596.31,435.108C588.626,435.361 581.154,435.671 581.154,435.671C581.154,435.671 588.626,435.982 596.31,436.235C599.879,436.352 603.488,436.472 606.414,436.524C607.084,436.535 607.719,436.558 608.308,436.536C608.759,436.519 609.18,436.484 609.571,436.432C610.187,436.35 610.701,436.247 611.15,436.139C612.208,435.885 612.729,435.671 612.729,435.671Z" style="fill:white;"/>
                </g>
            </g>
        </g>
    </g>
</svg>
