<?xml version="1.0" encoding="UTF-8" standalone="no"?>
<!DOCTYPE svg PUBLIC "-//W3C//DTD SVG 1.1//EN" "http://www.w3.org/Graphics/SVG/1.1/DTD/svg11.dtd">
<svg width="100%" height="100%" viewBox="0 0 90 90" version="1.1" xmlns="http://www.w3.org/2000/svg" xmlns:xlink="http://www.w3.org/1999/xlink" xml:space="preserve" xmlns:serif="http://www.serif.com/" style="fill-rule:evenodd;clip-rule:evenodd;stroke-linecap:round;stroke-linejoin:bevel;stroke-miterlimit:1.5;">
    <g transform="matrix(1,0,0,1,-94.589,-443.51)">
        <g transform="matrix(2.10535,0,0,1,33.6369,396.301)">
            <g transform="matrix(0.350342,0,0,0.737594,-159.738,-299.847)">
                <path d="M660.603,482.725C660.603,475.991 655.135,470.523 648.401,470.523L550.786,470.523C544.052,470.523 538.584,475.991 538.584,482.725L538.584,580.34C538.584,587.074 544.052,592.541 550.786,592.541L648.401,592.541C655.135,592.541 660.603,587.074 660.603,580.34L660.603,482.725Z" style="fill:none;"/>
            </g>
        </g>
        <g transform="matrix(2.10535,0,0,1,33.6369,396.301)">
            <g transform="matrix(1,0,0,1,2.28775,1.04529)">
                <g transform="matrix(-1,0,0,1,97.6468,1.79825)">
                    <g transform="matrix(-0.47498,0,0,1,541.747,-32.8323)">
                        <rect x="1016.47" y="86.604" width="16.465" height="14.988" style="fill:none;"/>
                        <clipPath id="_clip1">
                            <rect x="1016.47" y="86.604" width="16.465" height="14.988"/>
                        </clipPath>
                        <g clip-path="url(#_clip1)">
                            <g transform="matrix(-0.880601,0,1.2326e-32,0.880601,1907.43,39.6458)">
                                <path d="M1011.01,80.366L1011,80.372C1006.48,78.226 1001.06,75.008 998.954,71.789C995.942,67.498 995.942,63.207 998.954,61.061C1001.97,58.916 1007.99,58.916 1011,63.207L1011.01,63.188L1011.01,80.366Z" style="fill:white;"/>
                            </g>
                        </g>
                    </g>
                    <g transform="matrix(0.704952,-8.23882e-17,8.23882e-17,1.48417,-545.637,-19.7649)">
                        <path d="M857.744,53.084C855.077,50.778 851.017,50.991 848.846,52.538C846.293,54.357 845.97,57.987 848.516,61.625C850.045,63.941 853.909,66.317 857.166,67.863C857.532,68.037 857.956,68.037 858.322,67.863C861.585,66.313 865.459,63.931 866.984,61.606C869.518,57.984 869.194,54.356 866.642,52.538C864.47,50.991 860.411,50.778 857.744,53.084ZM857.744,55.081C859.773,52.19 863.831,52.19 865.86,53.635C867.889,55.081 867.889,57.972 865.86,60.864C864.44,63.032 860.787,65.201 857.744,66.646C854.7,65.201 851.048,63.032 849.628,60.864C847.599,57.972 847.599,55.081 849.628,53.635C851.657,52.19 855.715,52.19 857.744,55.081Z" style="fill:white;"/>
                    </g>
                </g>
                <g transform="matrix(1,-4.44089e-16,-1.38778e-16,-1,-6.18358,169.747)">
                    <g transform="matrix(3.2761e-18,-0.112642,0.323257,4.1673e-17,40.8201,123.265)">
                        <path d="M329.777,79.724L329.777,66.311L330.138,66.311L330.138,62.765L392.087,73.018L330.138,83.271L330.138,79.724L329.777,79.724Z" style="fill:white;"/>
                    </g>
                    <g transform="matrix(0.47498,0,0,1,-119.909,0)">
                        <path d="M371.468,103.046C380.934,102.339 388.04,97.328 388.04,86.375" style="fill:none;stroke:white;stroke-width:6px;"/>
                    </g>
                </g>
                <g transform="matrix(0.805362,0,0,0.805362,7.29971,22.2983)">
                    <g transform="matrix(0.28139,-0.592426,0.269787,0.567996,-85.3166,245.775)">
                        <path d="M350.601,97.76C350.601,95.898 349.152,94.386 347.367,94.386L320.101,94.386C318.316,94.386 316.867,95.898 316.867,97.76L316.867,124.748C316.867,126.61 318.316,128.121 320.101,128.121L347.367,128.121C349.152,128.121 350.601,126.61 350.601,124.748L350.601,97.76Z" style="fill:none;stroke:white;stroke-width:3.03px;stroke-linejoin:round;"/>
                    </g>
                    <g transform="matrix(0.527875,-0.297789,0.0671829,0.527875,5.80038,84.831)">
                        <g transform="matrix(4.74241,2.67532,-0.527918,4.148,-223.857,-342.286)">
                            <path d="M66.139,58.25L66.101,56.781C66.095,56.541 66.033,56.329 65.941,56.235C65.848,56.141 65.742,56.182 65.666,56.339L65.421,56.847C65.231,56.662 65.021,56.56 64.801,56.56C64.582,56.56 64.375,56.659 64.187,56.839C64.187,56.839 63.947,56.339 63.947,56.339C63.871,56.182 63.764,56.141 63.672,56.235C63.579,56.329 63.517,56.541 63.511,56.781L63.475,58.203C63.325,58.741 63.239,59.375 63.239,60.054C63.239,61.962 63.931,63.548 64.801,63.548C65.667,63.548 66.362,61.962 66.362,60.054C66.362,59.394 66.281,58.777 66.138,58.249L66.139,58.25ZM65.88,58.465L65.838,56.82L65.464,57.596C65.27,57.341 65.043,57.194 64.801,57.194C64.561,57.194 64.336,57.337 64.143,57.587L63.774,56.82L63.734,58.424C63.588,58.886 63.503,59.447 63.503,60.054C63.503,61.629 64.083,62.913 64.801,62.913C65.516,62.913 66.099,61.629 66.099,60.054C66.099,59.465 66.018,58.919 65.88,58.465Z" style="fill:white;"/>
                        </g>
                        <g transform="matrix(0.458795,0.258819,0.122934,-0.965926,-753.773,-276.121)">
                            <path d="M1723.49,91.465C1724.62,90.316 1725.76,89.472 1726.99,88.904C1727.66,88.595 1728.35,88.416 1729.04,88.305C1729.35,88.256 1729.66,88.23 1729.97,88.235C1730.74,88.247 1731.51,88.377 1732.25,88.632C1732.9,88.855 1733.53,89.145 1734.14,89.541C1734.95,90.061 1735.7,90.683 1736.46,91.467C1736.68,91.633 1736.73,91.948 1736.56,92.172C1736.4,92.395 1736.08,92.442 1735.86,92.277C1734.83,91.747 1733.84,91.44 1732.86,91.215C1732.47,91.123 1732.08,91.079 1731.69,91.026C1731.11,90.948 1730.55,90.955 1729.98,90.96C1729.53,90.965 1729.08,90.959 1728.62,91.01C1728.31,91.045 1728,91.076 1727.69,91.13C1726.52,91.331 1725.34,91.646 1724.09,92.279C1723.86,92.443 1723.55,92.393 1723.38,92.169C1723.22,91.944 1723.27,91.628 1723.49,91.465Z" style="fill:white;"/>
                        </g>
                    </g>
                </g>
                <g transform="matrix(0.805362,0,0,0.805362,27.0515,22.2983)">
                    <g transform="matrix(0.28139,-0.592426,0.269787,0.567996,-85.3166,245.775)">
                        <path d="M350.601,97.76C350.601,95.898 349.152,94.386 347.367,94.386L320.101,94.386C318.316,94.386 316.867,95.898 316.867,97.76L316.867,124.748C316.867,126.61 318.316,128.121 320.101,128.121L347.367,128.121C349.152,128.121 350.601,126.61 350.601,124.748L350.601,97.76Z" style="fill:none;stroke:white;stroke-width:3.03px;stroke-linejoin:round;"/>
                    </g>
                    <g transform="matrix(0.527875,-0.297789,0.0671829,0.527875,5.80038,84.831)">
                        <g transform="matrix(4.74241,2.67532,-0.527918,4.148,-223.857,-342.286)">
                            <path d="M66.139,58.25L66.101,56.781C66.095,56.541 66.033,56.329 65.941,56.235C65.848,56.141 65.742,56.182 65.666,56.339L65.421,56.847C65.231,56.662 65.021,56.56 64.801,56.56C64.582,56.56 64.375,56.659 64.187,56.839C64.187,56.839 63.947,56.339 63.947,56.339C63.871,56.182 63.764,56.141 63.672,56.235C63.579,56.329 63.517,56.541 63.511,56.781L63.475,58.203C63.325,58.741 63.239,59.375 63.239,60.054C63.239,61.962 63.931,63.548 64.801,63.548C65.667,63.548 66.362,61.962 66.362,60.054C66.362,59.394 66.281,58.777 66.138,58.249L66.139,58.25ZM65.88,58.465L65.838,56.82L65.464,57.596C65.27,57.341 65.043,57.194 64.801,57.194C64.561,57.194 64.336,57.337 64.143,57.587L63.774,56.82L63.734,58.424C63.588,58.886 63.503,59.447 63.503,60.054C63.503,61.629 64.083,62.913 64.801,62.913C65.516,62.913 66.099,61.629 66.099,60.054C66.099,59.465 66.018,58.919 65.88,58.465Z" style="fill:white;"/>
                        </g>
                        <g transform="matrix(0.458795,0.258819,0.122934,-0.965926,-753.773,-276.121)">
                            <path d="M1723.49,91.465C1724.62,90.316 1725.76,89.472 1726.99,88.904C1727.66,88.595 1728.35,88.416 1729.04,88.305C1729.35,88.256 1729.66,88.23 1729.97,88.235C1730.74,88.247 1731.51,88.377 1732.25,88.632C1732.9,88.855 1733.53,89.145 1734.14,89.541C1734.95,90.061 1735.7,90.683 1736.46,91.467C1736.68,91.633 1736.73,91.948 1736.56,92.172C1736.4,92.395 1736.08,92.442 1735.86,92.277C1734.83,91.747 1733.84,91.44 1732.86,91.215C1732.47,91.123 1732.08,91.079 1731.69,91.026C1731.11,90.948 1730.55,90.955 1729.98,90.96C1729.53,90.965 1729.08,90.959 1728.62,91.01C1728.31,91.045 1728,91.076 1727.69,91.13C1726.52,91.331 1725.34,91.646 1724.09,92.279C1723.86,92.443 1723.55,92.393 1723.38,92.169C1723.22,91.944 1723.27,91.628 1723.49,91.465Z" style="fill:white;"/>
                        </g>
                    </g>
                </g>
            </g>
        </g>
    </g>
</svg>
