<?xml version="1.0" encoding="UTF-8" standalone="no"?>
<!DOCTYPE svg PUBLIC "-//W3C//DTD SVG 1.1//EN" "http://www.w3.org/Graphics/SVG/1.1/DTD/svg11.dtd">
<svg width="100%" height="100%" viewBox="0 0 90 90" version="1.1" xmlns="http://www.w3.org/2000/svg" xmlns:xlink="http://www.w3.org/1999/xlink" xml:space="preserve" xmlns:serif="http://www.serif.com/" style="fill-rule:evenodd;clip-rule:evenodd;stroke-linecap:round;stroke-linejoin:round;stroke-miterlimit:1.5;">
    <g transform="matrix(1,0,0,1,-224.589,-443.51)">
        <g transform="matrix(2.10535,0,0,1,163.465,395.048)">
            <g transform="matrix(0.350342,0,0,0.737594,-159.656,-298.593)">
                <path d="M660.603,482.725C660.603,475.991 655.135,470.523 648.401,470.523L550.786,470.523C544.052,470.523 538.584,475.991 538.584,482.725L538.584,580.34C538.584,587.074 544.052,592.541 550.786,592.541L648.401,592.541C655.135,592.541 660.603,587.074 660.603,580.34L660.603,482.725Z" style="fill:none;"/>
            </g>
        </g>
        <g transform="matrix(2.10535,0,0,1,163.465,395.048)">
            <g transform="matrix(0.120304,0,0,0.123226,-0.783973,13.3502)">
                <g transform="matrix(0.47498,0,0,1,0,0)">
                    <path d="M692.484,856.956C681.168,830.273 663.39,824.703 644.186,823.792C664.311,809.102 684.436,803.394 704.56,818.602C712.828,801.511 712.382,784.832 697.844,768.819C720.612,778.046 734.107,783.661 748.047,798.043" style="fill:none;stroke:white;stroke-width:16.42px;"/>
                </g>
                <g transform="matrix(-0.47498,0,0,1,851.024,0)">
                    <path d="M692.484,856.956C681.168,830.273 663.39,824.703 644.186,823.792C664.311,809.102 684.436,803.394 704.56,818.602C712.828,801.511 712.382,784.832 697.844,768.819C712.407,774.721 718.389,778.114 729.385,786.098" style="fill:none;stroke:white;stroke-width:16.42px;"/>
                </g>
                <g transform="matrix(0.47498,0,0,1,0,0)">
                    <path d="M873.101,427.129C871.127,430.386 870.363,434.254 871.017,438.062C871.878,443.084 875.105,447.421 879.73,449.774L884.661,452.282C884.661,452.282 866.132,457.291 866.132,457.291C861.625,458.509 857.853,461.523 855.739,465.595L842.505,491.085C842.505,491.085 832.336,461.529 832.336,461.529C832.336,461.529 826.185,427.958 826.185,427.958C825.197,422.565 821.488,418.022 816.322,415.879C811.157,413.736 805.233,414.282 800.569,417.331C800.569,417.331 795.25,420.828 791.353,424.226C756.022,455.034 733.65,500.355 733.65,550.866C733.65,550.866 733.65,753.534 733.65,753.534C733.65,756.358 734.405,759.134 735.84,761.586L750.969,787.437C750.969,787.437 741.531,793.135 741.531,793.135C736.632,796.093 733.65,801.316 733.65,806.939L733.65,857.987C733.65,866.951 741.093,874.217 750.275,874.217L1054.12,874.217C1063.3,874.217 1070.74,866.951 1070.74,857.987L1070.74,672.817C1070.74,667.655 1068.23,662.801 1063.97,659.742L1053.31,652.089C1053.31,652.089 1066.42,638.004 1066.42,638.004C1069.2,635.016 1070.74,631.125 1070.74,627.088C1070.74,627.088 1070.74,550.866 1070.74,550.866C1070.74,457.954 995.109,382.713 902.197,382.713C889.34,382.713 876.817,384.155 864.781,386.881C856.114,388.845 849.524,391.248 849.524,391.248C842.638,393.743 838.245,400.352 838.717,407.508C839.189,414.663 844.414,420.668 851.57,422.28L873.101,427.129ZM1054.12,550.866C1054.12,467.018 986.045,398.944 902.197,398.944C890.632,398.944 879.366,400.239 868.538,402.692C861.024,404.394 855.307,406.465 855.307,406.465L904.683,417.585L887.413,435.381L929.769,456.93L870.568,472.933L839.386,532.992L816.187,465.563L809.82,430.816C809.82,430.816 805.55,433.608 802.427,436.331C770.477,464.191 750.275,505.188 750.275,550.866L750.275,753.534L773.37,792.996L750.275,806.939L750.275,857.987L1054.12,857.987L1054.12,672.817L1028.61,654.496L1054.12,627.088L1054.12,550.866Z" style="fill:white;"/>
                </g>
                <g transform="matrix(0.47498,0,0,1,0,8.81724)">
                    <rect x="646.041" y="857.679" width="493.518" height="34.798" style="fill:none;stroke:white;stroke-width:16.42px;"/>
                </g>
                <g transform="matrix(1,0,0,1,3.14278,0)">
                    <path d="M410.28,814.905L408.031,814.905C405.477,814.905 403.028,817.04 401.223,820.841C399.417,824.643 398.403,829.798 398.403,835.174L398.403,857.679C398.403,859.335 399.041,860.679 399.828,860.679C400.614,860.679 401.253,859.335 401.253,857.679L401.253,835.174C401.253,831.39 401.967,827.76 403.238,825.084C404.509,822.408 406.233,820.905 408.031,820.905C420.56,820.905 444.326,820.905 456.855,820.905C460.599,820.905 463.633,827.293 463.633,835.174C463.633,835.174 463.633,858.485 463.633,858.485C463.633,860.141 464.272,861.485 465.058,861.485C465.845,861.485 466.483,860.141 466.483,858.485C466.483,858.485 466.483,846.219 466.483,835.174C466.483,823.98 462.173,814.905 456.855,814.905L455.582,814.905C455.64,814.596 455.668,814.264 455.668,813.918L455.668,737.994C461.725,703.06 461.361,692.707 459.916,651.995C459.916,651.995 469.77,596.976 469.77,596.976C470.472,593.057 470.554,588.766 470.004,584.741C470.004,584.741 470.004,584.741 470.004,584.741C469.309,579.656 467.422,575.681 465.007,574.215C462.592,572.75 459.99,574 458.116,577.526C457.976,577.789 457.846,578.035 457.726,578.26C457.057,579.519 456.504,581.026 456.095,582.707C456.095,582.707 447.759,616.952 447.759,616.952C447.759,616.952 451.292,567.142 451.292,567.142C451.542,563.624 451.303,560.029 450.605,556.789C450.605,556.789 450.605,556.788 450.605,556.788C449.24,550.454 446.383,546.119 443.098,545.395C439.812,544.672 436.591,547.669 434.633,553.271C434.572,553.446 434.511,553.619 434.452,553.789C433.144,557.532 432.262,561.857 431.874,566.432C431.874,566.432 428.733,603.504 428.733,603.504C428.733,603.504 428.057,571.728 428.057,571.728C427.971,567.699 427.232,563.855 425.963,560.834L425.963,560.834C424.307,556.893 421.864,554.834 419.374,555.281C416.884,555.727 414.641,558.627 413.326,563.101C413.254,563.345 413.184,563.585 413.114,563.821C411.893,567.973 411.237,572.751 411.218,577.634C411.218,577.634 410.885,659.626 410.885,659.626C410.885,659.626 410.461,659.653 410.461,659.653C408.505,659.778 406.585,658.525 405.005,656.093C402.808,652.711 399.781,648.051 397.612,644.713C395.663,641.712 393.446,639.567 391.095,638.406C390.627,638.175 390.127,637.928 389.607,637.672C387.041,636.405 384.348,638.068 382.514,642.052C380.68,646.036 379.974,651.755 380.656,657.114L380.656,657.117C381.321,662.35 382.834,666.931 384.933,670.066C391.811,680.36 397.235,693.363 401.209,709.052C401.524,710.302 401.952,711.417 402.468,712.333L402.47,712.335C402.493,712.424 402.695,713.175 403.062,713.428L403.063,713.43C407.111,721.235 409.479,732.208 409.591,743.812C409.591,743.813 409.591,743.813 409.591,743.814L410.28,814.905ZM452.903,814.905C452.846,814.596 452.818,814.264 452.818,813.918L452.818,737.463C452.818,737.111 452.847,736.762 452.905,736.431C458.907,701.931 458.479,692.04 457.051,651.781C457.035,651.345 457.065,650.908 457.138,650.499C457.138,650.499 464.484,609.484 467.104,594.859C467.589,592.15 467.646,589.183 467.265,586.4C467.265,586.4 467.265,586.4 467.265,586.4C466.842,583.299 465.69,580.874 464.218,579.981C462.745,579.087 461.158,579.85 460.015,582L459.625,582.734C459.217,583.501 458.88,584.419 458.631,585.444C456.272,595.136 446.336,635.956 446.336,635.956C446.017,637.264 445.296,637.894 444.632,637.444C443.967,636.995 443.555,635.598 443.658,634.145C443.658,634.145 447.351,582.089 448.474,566.256C448.642,563.881 448.481,561.455 448.01,559.268C448.01,559.268 448.009,559.267 448.009,559.267C447.063,554.873 445.08,551.865 442.801,551.363C440.522,550.861 438.287,552.94 436.929,556.827C436.929,556.827 436.748,557.345 436.748,557.345C435.698,560.347 434.991,563.817 434.68,567.486L429.285,631.14C429.158,632.645 428.513,633.707 427.789,633.606C427.064,633.505 426.492,632.274 426.459,630.747C426.459,630.747 425.533,587.203 425.21,571.996C425.154,569.339 424.666,566.802 423.829,564.81C423.829,564.81 423.829,564.809 423.828,564.809C422.77,562.29 421.208,560.973 419.616,561.259C418.024,561.545 416.59,563.399 415.749,566.259C415.677,566.503 415.607,566.743 415.537,566.979C414.591,570.197 414.083,573.901 414.067,577.685L413.735,659.638C421.088,660.361 427.149,664.347 431.525,672.432C436.202,681.073 439.019,694.437 439.32,713.91C439.345,715.565 438.728,716.953 437.942,717.006C437.156,717.06 436.497,715.76 436.472,714.106C436.203,696.711 433.823,684.661 429.645,676.942C425.449,669.189 419.501,665.849 412.298,665.538L410.547,665.65C407.957,665.816 405.415,664.157 403.323,660.937C403.323,660.937 395.93,649.556 395.93,649.556C394.289,647.03 392.424,645.225 390.445,644.248C389.976,644.017 389.476,643.77 388.957,643.513C387.366,642.728 385.697,643.759 384.561,646.228C383.424,648.697 382.986,652.242 383.409,655.563C383.409,655.563 383.409,655.565 383.409,655.565C383.903,659.448 385.025,662.846 386.582,665.172C386.582,665.173 386.583,665.173 386.583,665.174C393.827,676.015 399.538,689.707 403.724,706.229L403.902,706.831C404.168,707.18 404.307,707.743 404.307,707.744C404.307,707.744 404.307,707.745 404.307,707.745C409.344,716.713 412.306,729.806 412.44,743.689L413.131,814.905L452.903,814.905ZM403.062,713.428C403.398,713.662 403.873,713.476 404.476,711.972C403.975,713.22 403.095,713.395 402.494,712.376L402.468,712.327L402.47,712.335L402.494,712.376L403.062,713.428Z" style="fill:white;stroke:white;stroke-width:5.02px;stroke-linecap:butt;stroke-miterlimit:2;"/>
                </g>
            </g>
        </g>
    </g>
</svg>
