<?xml version="1.0" encoding="UTF-8" standalone="no"?>
<!DOCTYPE svg PUBLIC "-//W3C//DTD SVG 1.1//EN" "http://www.w3.org/Graphics/SVG/1.1/DTD/svg11.dtd">
<svg width="100%" height="100%" viewBox="0 0 90 90" version="1.1" xmlns="http://www.w3.org/2000/svg" xmlns:xlink="http://www.w3.org/1999/xlink" xml:space="preserve" xmlns:serif="http://www.serif.com/" style="fill-rule:evenodd;clip-rule:evenodd;stroke-linecap:round;stroke-linejoin:bevel;stroke-miterlimit:1.5;">
    <g transform="matrix(1,0,0,1,-354.589,-443.51)">
        <g transform="matrix(2.10535,0,0,1,293.637,396.301)">
            <g transform="matrix(0.350342,0,0,0.737594,-159.738,-299.847)">
                <path d="M660.603,482.725C660.603,475.991 655.135,470.523 648.401,470.523L550.786,470.523C544.052,470.523 538.584,475.991 538.584,482.725L538.584,580.34C538.584,587.074 544.052,592.541 550.786,592.541L648.401,592.541C655.135,592.541 660.603,587.074 660.603,580.34L660.603,482.725Z" style="fill:none;"/>
            </g>
        </g>
        <g transform="matrix(2.10535,0,0,1,293.637,396.301)">
            <g transform="matrix(1,0,0,1,-0.179159,-0.193542)">
                <g transform="matrix(1,0,0,1,1.2656,45.7232)">
                    <g transform="matrix(0.418268,0,-5.85458e-33,0.880601,-364.242,6.81346)">
                        <path d="M1011.01,80.366L1011,80.372C1006.48,78.226 1001.06,75.008 998.954,71.789C995.942,67.498 995.942,63.207 998.954,61.061C1001.97,58.916 1007.99,58.916 1011,63.207L1011.01,63.188L1011.01,80.366Z" style="fill:white;"/>
                    </g>
                    <g transform="matrix(0.704952,-8.23882e-17,8.23882e-17,1.48417,-545.637,-19.7649)">
                        <path d="M857.744,53.084C855.077,50.778 851.017,50.991 848.846,52.538C846.293,54.357 845.97,57.987 848.516,61.625C850.045,63.941 853.909,66.317 857.166,67.863C857.532,68.037 857.956,68.037 858.322,67.863C861.585,66.313 865.459,63.931 866.984,61.606C869.518,57.984 869.194,54.356 866.642,52.538C864.47,50.991 860.411,50.778 857.744,53.084ZM857.744,55.081C859.773,52.19 863.831,52.19 865.86,53.635C867.889,55.081 867.889,57.972 865.86,60.864C864.44,63.032 860.787,65.201 857.744,66.646C854.7,65.201 851.048,63.032 849.628,60.864C847.599,57.972 847.599,55.081 849.628,53.635C851.657,52.19 855.715,52.19 857.744,55.081Z" style="fill:white;"/>
                    </g>
                    <g transform="matrix(-0.418268,0,5.85458e-33,0.880601,482.235,6.81346)">
                        <path d="M1011.01,80.366L1011,80.372C1006.48,78.226 1001.06,75.008 998.954,71.789C995.942,67.498 995.942,63.207 998.954,61.061C1001.97,58.916 1007.99,58.916 1011,63.207L1011.01,63.188L1011.01,80.366Z" style="fill:white;"/>
                    </g>
                </g>
                <g transform="matrix(-1,0,0,1,99.7429,4.16001)">
                    <g transform="matrix(-0.47498,0,0,1,541.747,-32.8323)">
                        <rect x="1016.47" y="86.604" width="16.465" height="14.988" style="fill:none;"/>
                        <clipPath id="_clip1">
                            <rect x="1016.47" y="86.604" width="16.465" height="14.988"/>
                        </clipPath>
                        <g clip-path="url(#_clip1)">
                            <g transform="matrix(-0.880601,0,1.2326e-32,0.880601,1907.43,39.6458)">
                                <path d="M1011.01,80.366L1011,80.372C1006.48,78.226 1001.06,75.008 998.954,71.789C995.942,67.498 995.942,63.207 998.954,61.061C1001.97,58.916 1007.99,58.916 1011,63.207L1011.01,63.188L1011.01,80.366Z" style="fill:white;"/>
                            </g>
                        </g>
                    </g>
                    <g transform="matrix(0.704952,-8.23882e-17,8.23882e-17,1.48417,-545.637,-19.7649)">
                        <path d="M857.744,53.084C855.077,50.778 851.017,50.991 848.846,52.538C846.293,54.357 845.97,57.987 848.516,61.625C850.045,63.941 853.909,66.317 857.166,67.863C857.532,68.037 857.956,68.037 858.322,67.863C861.585,66.313 865.459,63.931 866.984,61.606C869.518,57.984 869.194,54.356 866.642,52.538C864.47,50.991 860.411,50.778 857.744,53.084ZM857.744,55.081C859.773,52.19 863.831,52.19 865.86,53.635C867.889,55.081 867.889,57.972 865.86,60.864C864.44,63.032 860.787,65.201 857.744,66.646C854.7,65.201 851.048,63.032 849.628,60.864C847.599,57.972 847.599,55.081 849.628,53.635C851.657,52.19 855.715,52.19 857.744,55.081Z" style="fill:white;"/>
                    </g>
                </g>
                <g transform="matrix(-1,0,0,1,102.738,1.16677)">
                    <g transform="matrix(-1,-4.44089e-16,1.38778e-16,-1,105.324,171.441)">
                        <g transform="matrix(3.2761e-18,-0.112642,0.323257,4.1673e-17,40.8201,123.265)">
                            <path d="M329.777,79.724L329.777,66.311L330.138,66.311L330.138,62.765L392.087,73.018L330.138,83.271L330.138,79.724L329.777,79.724Z" style="fill:white;"/>
                        </g>
                        <g transform="matrix(0.47498,0,0,1,-119.909,0)">
                            <path d="M371.468,103.046C380.934,102.339 388.04,97.328 388.04,86.375" style="fill:none;stroke:white;stroke-width:6px;"/>
                        </g>
                    </g>
                    <g transform="matrix(1,7.01921e-16,-1.96946e-16,1,-0.900545,14.0116)">
                        <g transform="matrix(3.2761e-18,-0.112642,0.323257,4.1673e-17,40.8201,123.265)">
                            <path d="M329.777,79.724L329.777,66.311L330.138,66.311L330.138,62.765L392.087,73.018L330.138,83.271L330.138,79.724L329.777,79.724Z" style="fill:white;"/>
                        </g>
                        <g transform="matrix(0.47498,0,0,1,-119.909,0)">
                            <path d="M371.468,103.046C380.934,102.339 388.04,97.328 388.04,86.375" style="fill:none;stroke:white;stroke-width:6px;"/>
                        </g>
                    </g>
                </g>
            </g>
        </g>
    </g>
</svg>
