<?xml version="1.0" encoding="UTF-8" standalone="no"?>
<!DOCTYPE svg PUBLIC "-//W3C//DTD SVG 1.1//EN" "http://www.w3.org/Graphics/SVG/1.1/DTD/svg11.dtd">
<svg width="100%" height="100%" viewBox="0 0 90 90" version="1.1" xmlns="http://www.w3.org/2000/svg" xmlns:xlink="http://www.w3.org/1999/xlink" xml:space="preserve" xmlns:serif="http://www.serif.com/" style="fill-rule:evenodd;clip-rule:evenodd;stroke-linecap:round;stroke-linejoin:bevel;stroke-miterlimit:1.5;">
    <g transform="matrix(1,0,0,1,-614.589,-443.51)">
        <g transform="matrix(2.10535,0,0,1,553.637,396.301)">
            <g transform="matrix(0.350342,0,0,0.737594,-159.738,-299.847)">
                <path d="M660.603,482.725C660.603,475.991 655.135,470.523 648.401,470.523L550.786,470.523C544.052,470.523 538.584,475.991 538.584,482.725L538.584,580.34C538.584,587.074 544.052,592.541 550.786,592.541L648.401,592.541C655.135,592.541 660.603,587.074 660.603,580.34L660.603,482.725Z" style="fill:none;"/>
            </g>
        </g>
        <g transform="matrix(2.10535,0,0,1,553.637,396.301)">
            <g transform="matrix(1,0,0,1,2.68937,1.98658)">
                <g transform="matrix(0.733835,-1.43022,-0.322667,-0.733835,35.6327,214.032)">
                    <g transform="matrix(3.2761e-18,-0.112642,0.323257,4.1673e-17,40.8201,123.265)">
                        <path d="M329.777,79.724L329.777,66.311L330.138,66.311L330.138,62.765L392.087,73.018L330.138,83.271L330.138,79.724L329.777,79.724Z" style="fill:white;"/>
                    </g>
                    <g transform="matrix(0.47498,0,0,1,-119.909,0)">
                        <path d="M371.468,103.046C380.934,102.339 388.04,97.328 388.04,86.375" style="fill:none;stroke:white;stroke-width:6px;"/>
                    </g>
                </g>
                <g transform="matrix(-3.33067e-16,2.10535,0.47498,2.77556e-16,15.1056,-19.1172)">
                    <g transform="matrix(3.2761e-18,-0.112642,0.323257,4.1673e-17,40.8201,123.265)">
                        <path d="M329.777,79.724L329.777,66.311L330.138,66.311L330.138,62.765L392.087,73.018L330.138,83.271L330.138,79.724L329.777,79.724Z" style="fill:white;"/>
                    </g>
                    <g transform="matrix(0.47498,0,0,1,-119.909,0)">
                        <path d="M371.468,103.046C380.934,102.339 388.04,97.328 388.04,86.375" style="fill:none;stroke:white;stroke-width:6px;"/>
                    </g>
                </g>
                <g transform="matrix(0.713679,0,0,0.713679,16.7365,35.0582)">
                    <g transform="matrix(0.28139,-0.592426,0.269787,0.567996,-85.3166,245.775)">
                        <path d="M350.601,97.76C350.601,95.898 349.152,94.386 347.367,94.386L320.101,94.386C318.316,94.386 316.867,95.898 316.867,97.76L316.867,124.748C316.867,126.61 318.316,128.121 320.101,128.121L347.367,128.121C349.152,128.121 350.601,126.61 350.601,124.748L350.601,97.76Z" style="fill:none;stroke:white;stroke-width:3.41px;stroke-linejoin:round;"/>
                    </g>
                    <g transform="matrix(0.527875,-0.297789,0.0671829,0.527875,5.80038,84.831)">
                        <g transform="matrix(4.74241,2.67532,-0.527918,4.148,-223.857,-342.286)">
                            <path d="M66.172,58.224L66.135,56.776C66.128,56.505 66.058,56.266 65.954,56.16C65.849,56.054 65.729,56.1 65.644,56.278L65.415,56.753C65.226,56.576 65.018,56.478 64.801,56.478C64.585,56.478 64.38,56.573 64.194,56.745C64.194,56.745 63.969,56.278 63.969,56.278C63.883,56.1 63.763,56.054 63.659,56.16C63.554,56.266 63.484,56.505 63.477,56.776L63.442,58.176C63.291,58.723 63.205,59.366 63.205,60.054C63.205,62.005 63.911,63.629 64.801,63.629C65.687,63.629 66.396,62.005 66.396,60.054C66.396,59.386 66.315,58.76 66.172,58.224ZM65.88,58.465L65.838,56.82L65.464,57.596C65.27,57.341 65.043,57.194 64.801,57.194C64.561,57.194 64.336,57.337 64.143,57.587L63.774,56.82L63.734,58.424C63.588,58.886 63.503,59.447 63.503,60.054C63.503,61.629 64.083,62.913 64.801,62.913C65.516,62.913 66.099,61.629 66.099,60.054C66.099,59.465 66.018,58.919 65.88,58.465Z" style="fill:white;"/>
                        </g>
                        <g transform="matrix(0.458795,0.258819,0.122934,-0.965926,-753.773,-276.121)">
                            <path d="M1723.45,91.412C1724.2,90.601 1724.95,89.968 1725.75,89.421C1726.14,89.156 1726.54,88.951 1726.94,88.761C1727.62,88.444 1728.32,88.252 1729.03,88.134C1729.34,88.082 1729.66,88.054 1729.97,88.06C1730.75,88.074 1731.53,88.209 1732.29,88.478C1732.94,88.713 1733.58,89.012 1734.19,89.426C1735,89.969 1735.75,90.604 1736.5,91.415C1736.75,91.602 1736.8,91.958 1736.61,92.21C1736.43,92.463 1736.07,92.516 1735.82,92.329C1734.78,91.821 1733.8,91.548 1732.82,91.342C1732.42,91.258 1732.04,91.228 1731.65,91.18C1731.09,91.111 1730.54,91.129 1729.98,91.135C1729.54,91.14 1729.1,91.126 1728.65,91.172C1728.35,91.203 1728.05,91.225 1727.73,91.273C1726.57,91.454 1725.39,91.725 1724.12,92.331C1723.87,92.516 1723.52,92.461 1723.33,92.207C1723.14,91.953 1723.2,91.597 1723.45,91.412Z" style="fill:white;"/>
                        </g>
                    </g>
                </g>
                <g transform="matrix(0.120038,0,0,0.120038,-7.76268,13.17)">
                    <path d="M358.433,470.659C359.916,461.142 362.27,454.901 365.219,451.17C368.2,447.399 371.847,446.161 376.035,447.153C383.497,448.92 392.867,457.974 403.012,470.331C404.147,471.713 404.535,474.774 403.879,477.163C403.222,479.552 401.768,480.369 400.634,478.987C391.164,467.453 382.469,458.739 375.504,457.09C372.477,456.374 369.82,457.016 367.665,459.741C365.564,462.399 363.999,467.011 362.945,473.79C367.387,477.338 371.663,482.164 375.78,488.212L372.06,511.407C381.571,527.743 387.649,552.615 387.649,580.453C387.649,629.619 368.689,669.536 345.337,669.536C321.984,669.536 303.024,629.619 303.024,580.453C303.024,534.173 319.823,496.089 341.273,491.779L345.319,466.556C349.839,466.781 354.209,468.162 358.433,470.659ZM345.337,501.371C366.068,501.371 382.899,536.806 382.899,580.453C382.899,624.1 366.068,659.536 345.337,659.536C324.605,659.536 307.774,624.1 307.774,580.453C307.774,536.806 324.605,501.371 345.337,501.371ZM346.89,513.313C341.067,512.905 336.031,514.252 331.67,517.503C329.941,518.792 328.346,520.438 326.856,522.343C325.294,524.34 323.863,526.665 322.58,529.321C321.555,531.443 320.624,533.783 319.807,536.333C318.642,539.968 317.678,543.981 316.913,548.361C316.219,552.333 315.674,556.55 315.309,561.097C314.831,567.064 314.645,573.417 314.691,580.343C314.663,580.995 314.892,581.573 315.202,581.631C315.511,581.69 315.786,581.209 315.814,580.557C316.658,571.293 317.937,563.328 319.489,556.22C320.511,551.54 321.702,547.402 323.02,543.596C323.922,540.991 324.893,538.589 325.934,536.33C327.242,533.494 328.642,530.874 330.233,528.588C331.786,526.357 333.456,524.349 335.309,522.623C338.686,519.477 342.506,517.073 346.952,515.683C347.263,515.646 347.501,515.086 347.484,514.432C347.466,513.778 347.2,513.277 346.89,513.313ZM399.783,490.043L399.783,508.463C399.783,511.223 400.847,513.463 402.158,513.463C403.469,513.463 404.533,511.223 404.533,508.463L404.533,490.043C404.533,487.283 403.469,485.043 402.158,485.043C400.847,485.043 399.783,487.283 399.783,490.043ZM346.348,491.397L348.66,476.978C356.278,478.483 363.413,483.704 370.106,492.336L370.106,492.337L368.031,505.273C361.736,496.828 354.313,491.791 346.348,491.397ZM395.302,482.189L389.115,495.215C388.188,497.166 388.188,500.334 389.115,502.286C390.042,504.237 391.547,504.237 392.474,502.286L398.66,489.261C399.587,487.309 399.587,484.141 398.66,482.189C397.733,480.238 396.228,480.238 395.302,482.189ZM405.59,488.924L411.776,501.949C412.703,503.9 414.208,503.9 415.135,501.949C416.062,499.998 416.062,496.829 415.135,494.878L408.948,481.853C408.022,479.902 406.517,479.902 405.59,481.853C404.663,483.804 404.663,486.973 405.59,488.924ZM409.32,479.489L418.069,479.489C419.38,479.489 420.444,477.248 420.444,474.489C420.444,471.729 419.38,469.489 418.069,469.489L409.32,469.489C408.009,469.489 406.945,471.729 406.945,474.489C406.945,477.248 408.009,479.489 409.32,479.489ZM408.789,467.264L414.975,454.239C415.902,452.287 415.902,449.119 414.975,447.167C414.048,445.216 412.543,445.216 411.617,447.167L405.43,460.193C404.503,462.144 404.503,465.312 405.43,467.264C406.357,469.215 407.862,469.215 408.789,467.264ZM404.307,459.41L404.307,440.99C404.307,438.231 403.243,435.99 401.932,435.99C400.621,435.99 399.557,438.231 399.557,440.99L399.557,459.41C399.557,462.17 400.621,464.41 401.932,464.41C403.243,464.41 404.307,462.17 404.307,459.41Z" style="fill:white;"/>
                </g>
                <g transform="matrix(-0.335861,-0.707107,-0.335861,0.707107,370.006,645.106)">
                    <path d="M857.744,55.081C859.773,52.19 863.831,52.19 865.86,53.635C867.889,55.081 867.889,57.972 865.86,60.864C864.44,63.032 860.787,65.201 857.744,66.646C854.7,65.201 851.048,63.032 849.628,60.864C847.599,57.972 847.599,55.081 849.628,53.635C851.657,52.19 855.715,52.19 857.744,55.081Z" style="fill:none;stroke:white;stroke-width:2px;stroke-linejoin:round;"/>
                </g>
            </g>
        </g>
    </g>
</svg>
