<?xml version="1.0" encoding="UTF-8" standalone="no"?>
<!DOCTYPE svg PUBLIC "-//W3C//DTD SVG 1.1//EN" "http://www.w3.org/Graphics/SVG/1.1/DTD/svg11.dtd">
<svg width="100%" height="100%" viewBox="0 0 90 90" version="1.1" xmlns="http://www.w3.org/2000/svg" xmlns:xlink="http://www.w3.org/1999/xlink" xml:space="preserve" xmlns:serif="http://www.serif.com/" style="fill-rule:evenodd;clip-rule:evenodd;stroke-linejoin:round;stroke-miterlimit:2;">
    <g transform="matrix(1,0,0,1,-1016.33,-76.5417)">
        <g transform="matrix(2.10535,0,0,1,955.382,29.3332)">
            <g transform="matrix(0.350342,0,0,0.737594,-159.738,-299.847)">
                <path d="M660.603,482.725C660.603,475.991 655.135,470.523 648.401,470.523L550.786,470.523C544.052,470.523 538.584,475.991 538.584,482.725L538.584,580.34C538.584,587.074 544.052,592.541 550.786,592.541L648.401,592.541C655.135,592.541 660.603,587.074 660.603,580.34L660.603,482.725Z" style="fill:none;"/>
            </g>
        </g>
        <g transform="matrix(2.10535,0,0,1,955.382,29.3332)">
            <g transform="matrix(0.47498,0,0,1,-453.787,-29.3332)">
                <path d="M1032,97.348L1034.79,100.139C1034.83,100.195 1034.87,100.248 1034.92,100.298C1034.97,100.348 1035.03,100.392 1035.08,100.43L1038.07,103.417C1038.11,103.474 1038.15,103.527 1038.2,103.577C1038.25,103.627 1038.31,103.67 1038.36,103.708L1040.15,105.495L1039.97,105.677C1039.13,106.509 1038.66,107.636 1038.66,108.812C1038.64,110.903 1039.2,112.461 1040.29,113.448C1040.71,113.835 1041.37,113.82 1041.77,113.414L1043.37,111.813L1084.51,152.948C1084.7,153.142 1084.96,153.255 1085.24,153.263L1093.01,153.482C1093.31,153.49 1093.6,153.373 1093.81,153.159C1094.02,152.945 1094.13,152.652 1094.12,152.353L1093.75,144.73C1093.73,144.463 1093.62,144.21 1093.43,144.021L1052.3,102.887L1054.2,100.987C1054.43,100.758 1054.54,100.437 1054.51,100.114C1054.47,99.792 1054.3,99.501 1054.03,99.324C1052.91,98.596 1051.57,98.148 1050,97.989C1048.66,97.846 1047.33,98.317 1046.38,99.27C1046.25,99.395 1046.12,99.53 1045.97,99.672L1044.19,97.884C1044.15,97.828 1044.1,97.774 1044.06,97.725C1044.01,97.675 1043.95,97.631 1043.89,97.593L1040.91,94.605C1040.87,94.549 1040.83,94.496 1040.78,94.446C1040.73,94.396 1040.67,94.352 1040.62,94.314L1037.8,91.496C1037.91,90.522 1037.6,89.507 1036.85,88.76C1035.56,87.467 1033.46,87.467 1032.16,88.76C1032.16,88.76 1029.2,91.723 1029.2,91.723C1027.91,93.016 1027.91,95.116 1029.2,96.41C1029.96,97.173 1031.01,97.486 1032,97.348ZM1061.83,130.753L1060.3,129.23L1038.7,150.834C1038.7,150.834 1032.65,151.129 1032.65,151.129C1032.65,151.129 1032.83,144.944 1032.83,144.944L1054.42,123.349L1052.9,121.826L1031,143.724C1030.81,143.919 1030.69,144.18 1030.68,144.455L1030.47,152.231C1030.46,152.531 1030.58,152.821 1030.79,153.031C1031,153.241 1031.3,153.352 1031.6,153.337L1039.22,152.965C1039.49,152.952 1039.74,152.84 1039.93,152.651L1061.83,130.753ZM1044.89,110.291L1085.73,151.122C1085.73,151.122 1091.91,151.296 1091.91,151.296C1091.91,151.296 1091.62,145.25 1091.62,145.25L1050.78,104.409L1048.57,106.619L1086.37,144.419C1086.79,144.839 1086.79,145.522 1086.37,145.942C1085.95,146.362 1085.26,146.362 1084.84,145.942L1047.04,108.142L1044.89,110.291ZM1058.09,127.021L1056.57,125.498L1038.01,144.062C1037.59,144.482 1037.59,145.164 1038.01,145.584C1038.43,146.005 1039.11,146.005 1039.53,145.584L1058.09,127.021ZM1062.52,112.202L1064.05,113.724L1073.66,104.112L1075.81,106.262L1066.19,115.874L1067.72,117.396L1077.33,107.784L1079.54,109.994L1069.93,119.606L1071.45,121.129L1081.06,111.517L1082.96,113.416C1083.19,113.645 1083.51,113.759 1083.83,113.726C1084.16,113.692 1084.45,113.514 1084.62,113.243C1085.35,112.127 1085.8,110.785 1085.96,109.22C1086.1,107.88 1085.63,106.547 1084.68,105.594C1084.55,105.469 1084.42,105.334 1084.28,105.192L1086.06,103.404C1086.12,103.366 1086.17,103.323 1086.22,103.273C1086.27,103.223 1086.32,103.17 1086.36,103.114L1089.34,100.126C1089.4,100.088 1089.45,100.044 1089.5,99.994C1089.55,99.944 1089.6,99.891 1089.63,99.835L1092.45,97.016C1093.43,97.131 1094.44,96.816 1095.19,96.069C1096.48,94.776 1096.48,92.675 1095.19,91.382C1095.19,91.382 1092.22,88.419 1092.22,88.419C1090.93,87.126 1088.83,87.126 1087.54,88.419C1086.78,89.182 1086.46,90.227 1086.6,91.22L1083.81,94.01C1083.75,94.048 1083.7,94.092 1083.65,94.142C1083.6,94.192 1083.56,94.245 1083.52,94.301L1080.53,97.289C1080.47,97.327 1080.42,97.371 1080.37,97.421C1080.32,97.47 1080.28,97.524 1080.24,97.58L1078.45,99.367L1078.27,99.185C1077.44,98.353 1076.31,97.883 1075.14,97.878C1073.04,97.858 1071.49,98.418 1070.5,99.504C1070.11,99.929 1070.13,100.583 1070.53,100.99L1072.13,102.59L1062.52,112.202ZM1050.02,102.122L1051.62,100.525C1051.06,100.328 1050.44,100.198 1049.78,100.131C1049.78,100.13 1049.78,100.13 1049.78,100.13C1049.08,100.056 1048.39,100.299 1047.9,100.793C1047.9,100.793 1047.9,100.793 1047.9,100.793C1046.25,102.44 1043.04,105.653 1041.49,107.2C1041.49,107.2 1041.49,107.2 1041.49,107.2C1041.06,107.631 1040.82,108.214 1040.81,108.824C1040.81,108.826 1040.81,108.828 1040.81,108.83C1040.81,109.683 1040.9,110.414 1041.14,110.997L1050.02,102.122ZM1081.83,109.236L1083.42,110.833C1083.62,110.274 1083.75,109.662 1083.82,109C1083.82,108.998 1083.82,108.996 1083.82,108.994C1083.89,108.301 1083.65,107.61 1083.15,107.117C1083.15,107.117 1083.15,107.117 1083.15,107.116C1081.51,105.467 1078.29,102.254 1076.75,100.707C1076.75,100.707 1076.75,100.707 1076.75,100.707C1076.32,100.276 1075.73,100.033 1075.12,100.031C1075.12,100.031 1075.12,100.031 1075.12,100.031C1074.27,100.023 1073.53,100.115 1072.95,100.361L1081.83,109.236ZM1044.48,101.166L1043.31,99.995L1040.47,102.829L1041.64,104C1042.54,103.104 1043.55,102.09 1044.48,101.166ZM1082.78,103.697L1083.95,102.525L1081.12,99.691L1079.95,100.862C1080.84,101.758 1081.86,102.772 1082.78,103.697ZM1037.19,99.551L1038.95,101.307L1041.79,98.472L1040.03,96.716L1037.19,99.551ZM1084.4,96.412L1082.64,98.168L1085.48,101.003L1087.23,99.247L1084.4,96.412ZM1033.97,96.327L1035.67,98.028L1038.51,95.193L1036.81,93.493L1033.97,96.327ZM1087.62,93.189L1085.92,94.889L1088.75,97.724L1090.45,96.023L1087.62,93.189ZM1035.21,90.402C1035.6,90.789 1035.6,91.418 1035.21,91.805C1035.21,91.805 1032.25,94.768 1032.25,94.768C1031.86,95.155 1031.23,95.155 1030.84,94.768C1030.46,94.381 1030.46,93.752 1030.84,93.365C1030.84,93.365 1033.81,90.402 1033.81,90.402C1034.19,90.015 1034.82,90.015 1035.21,90.402ZM1093.55,94.427C1093.16,94.814 1092.53,94.814 1092.14,94.427C1092.14,94.427 1089.18,91.464 1089.18,91.464C1088.79,91.077 1088.79,90.448 1089.18,90.061C1089.57,89.674 1090.2,89.674 1090.58,90.061C1090.58,90.061 1093.55,93.024 1093.55,93.024C1093.93,93.411 1093.93,94.04 1093.55,94.427Z" style="fill:white;"/>
            </g>
        </g>
    </g>
</svg>
