<?xml version="1.0" encoding="UTF-8" standalone="no"?>
<!DOCTYPE svg PUBLIC "-//W3C//DTD SVG 1.1//EN" "http://www.w3.org/Graphics/SVG/1.1/DTD/svg11.dtd">
<svg width="100%" height="100%" viewBox="0 0 90 90" version="1.1" xmlns="http://www.w3.org/2000/svg" xmlns:xlink="http://www.w3.org/1999/xlink" xml:space="preserve" xmlns:serif="http://www.serif.com/" style="fill-rule:evenodd;clip-rule:evenodd;stroke-linejoin:round;stroke-miterlimit:2;">
    <g transform="matrix(1,0,0,1,-93.9739,-621.394)">
        <g transform="matrix(2.10535,0,0,1,33.0218,574.186)">
            <g transform="matrix(0.350342,0,0,0.737594,-159.738,-299.847)">
                <path d="M660.603,482.725C660.603,475.991 655.135,470.523 648.401,470.523L550.786,470.523C544.052,470.523 538.584,475.991 538.584,482.725L538.584,580.34C538.584,587.074 544.052,592.541 550.786,592.541L648.401,592.541C655.135,592.541 660.603,587.074 660.603,580.34L660.603,482.725Z" style="fill:none;"/>
            </g>
        </g>
        <g transform="matrix(2.10535,0,0,1,33.0218,574.186)">
            <g transform="matrix(1,0,0,1,-0.925665,2.48133)">
                <g transform="matrix(1.29762,0,0,1.29762,-15.6945,-22.3083)">
                    <g transform="matrix(1.08607,-1.26929e-16,1.26929e-16,2.28655,-879.998,-49.9047)">
                        <path d="M857.744,53.084C855.077,50.778 851.017,50.991 848.846,52.538C846.293,54.357 845.97,57.987 848.516,61.625C850.045,63.941 853.909,66.317 857.166,67.863C857.532,68.037 857.956,68.037 858.322,67.863C861.585,66.313 865.459,63.931 866.984,61.606C869.518,57.984 869.194,54.356 866.642,52.538C864.47,50.991 860.411,50.778 857.744,53.084ZM857.744,55.081C859.773,52.19 863.831,52.19 865.86,53.635C867.889,55.081 867.889,57.972 865.86,60.864C864.44,63.032 860.787,65.201 857.744,66.646C854.7,65.201 851.048,63.032 849.628,60.864C847.599,57.972 847.599,55.081 849.628,53.635C851.657,52.19 855.715,52.19 857.744,55.081Z" style="fill:white;"/>
                    </g>
                    <path d="M50.736,104.667C50.51,105.821 50.482,106.986 50.538,108.155C50.961,107.339 51.251,106.343 51.443,105.212L50.736,104.667ZM52.446,104.667C52.672,105.821 52.699,106.986 52.644,108.155C52.221,107.339 51.93,106.343 51.739,105.212L52.446,104.667ZM54.002,103.041C54.315,104.1 54.433,105.24 54.469,106.413C53.989,105.754 53.624,104.872 53.347,103.822L54.002,103.041ZM49.179,103.041C48.866,104.1 48.749,105.24 48.713,106.413C49.193,105.754 49.557,104.872 49.835,103.822L49.179,103.041ZM47.639,101.128C47.28,102.122 47.112,103.233 47.024,104.394C47.532,103.832 47.934,103.025 48.256,102.035L47.639,101.128ZM55.543,101.128C55.902,102.122 56.069,103.233 56.157,104.394C55.65,103.832 55.248,103.025 54.925,102.035L55.543,101.128ZM46.086,99.089C45.709,100.052 45.521,101.149 45.411,102.301C45.929,101.782 46.346,101.009 46.687,100.046L46.086,99.089ZM57.095,99.089C57.472,100.052 57.661,101.149 57.77,102.301C57.253,101.782 56.836,101.009 56.495,100.046L57.095,99.089ZM44.573,96.923C44.178,97.854 43.97,98.935 43.839,100.077C44.366,99.601 44.796,98.863 45.155,97.929L44.573,96.923ZM58.609,96.923C59.003,97.854 59.212,98.935 59.343,100.077C58.816,99.601 58.385,98.863 58.027,97.929L58.609,96.923ZM43.221,94.445C42.809,95.342 42.58,96.405 42.428,97.535C42.963,97.103 43.408,96.402 43.783,95.498L43.221,94.445ZM59.961,94.445C60.373,95.342 60.601,96.405 60.754,97.535C60.218,97.103 59.774,96.402 59.398,95.498L59.961,94.445ZM61.145,91.965C61.642,92.646 61.978,93.574 62.246,94.605C61.678,94.435 61.171,93.96 60.709,93.256L61.145,91.965ZM42.036,91.965C41.54,92.646 41.204,93.574 40.936,94.605C41.503,94.435 42.011,93.96 42.473,93.256L42.036,91.965ZM41.159,88.907C40.634,89.488 40.259,90.345 39.946,91.319C40.519,91.262 41.045,90.889 41.536,90.279L41.159,88.907ZM62.023,88.907C62.547,89.488 62.923,90.345 63.236,91.319C62.663,91.262 62.137,90.889 61.645,90.279L62.023,88.907ZM62.76,85.689C63.308,86.164 63.72,86.944 64.075,87.851C63.502,87.907 62.962,87.64 62.445,87.13L62.76,85.689ZM40.422,85.689C39.873,86.164 39.462,86.944 39.107,87.851C39.679,87.907 40.22,87.64 40.736,87.13L40.422,85.689ZM63.351,82.341C63.918,82.705 64.363,83.4 64.756,84.234C64.189,84.403 63.638,84.243 63.102,83.837L63.351,82.341ZM39.831,82.341C39.264,82.705 38.819,83.4 38.425,84.234C38.993,84.403 39.543,84.243 40.08,83.837L39.831,82.341ZM39.742,79C39.149,79.013 38.629,79.415 38.139,79.98C38.661,80.48 39.21,80.654 39.78,80.583L39.742,79ZM63.44,79C64.033,79.013 64.553,79.415 65.042,79.98C64.52,80.48 63.971,80.654 63.402,80.583L63.44,79ZM63.077,75.743C63.648,75.402 64.2,75.479 64.746,75.73C64.312,76.52 63.809,77.013 63.253,77.284L63.077,75.743ZM40.104,75.743C39.534,75.402 38.981,75.479 38.436,75.73C38.869,76.52 39.373,77.013 39.929,77.284L40.104,75.743ZM62.293,72.833C62.794,72.168 63.334,71.912 63.891,71.829C63.581,72.844 63.165,73.617 62.668,74.208L62.293,72.833ZM40.889,72.833C40.388,72.168 39.847,71.912 39.29,71.829C39.6,72.844 40.017,73.617 40.514,74.208L40.889,72.833ZM61.149,70.51C61.541,69.573 62.025,69.006 62.548,68.595C62.387,69.754 62.091,70.743 61.694,71.605L61.149,70.51ZM42.032,70.51C41.641,69.573 41.157,69.006 40.634,68.595C40.795,69.754 41.091,70.743 41.488,71.605L42.032,70.51ZM52.586,70.316C52.304,69.218 52.219,68.066 52.217,66.891C52.677,67.61 53.016,68.537 53.262,69.62L52.586,70.316ZM50.596,70.316C50.878,69.218 50.962,68.066 50.965,66.891C50.504,67.61 50.166,68.537 49.919,69.62L50.596,70.316ZM59.741,68.96C59.991,67.829 60.379,66.997 60.826,66.292C60.826,67.499 60.675,68.624 60.41,69.687L59.741,68.96ZM43.441,68.96C43.191,67.829 42.803,66.997 42.356,66.292C42.355,67.499 42.506,68.624 42.772,69.687L43.441,68.96ZM49.44,69.075C49.656,67.913 49.672,66.747 49.605,65.58C49.19,66.414 48.909,67.422 48.728,68.561L49.44,69.075ZM53.741,69.075C53.526,67.913 53.51,66.747 53.576,65.58C53.991,66.414 54.272,67.422 54.453,68.561L53.741,69.075ZM48.186,68.464C48.331,67.254 48.279,66.093 48.144,64.953C47.781,65.888 47.562,66.962 47.449,68.139L48.186,68.464ZM54.996,68.464C54.85,67.254 54.903,66.093 55.038,64.953C55.4,65.888 55.62,66.962 55.733,68.139L54.996,68.464ZM58.241,68.16C58.329,66.926 58.59,65.898 58.924,64.955C59.087,66.113 59.093,67.282 58.981,68.46L58.241,68.16ZM44.94,68.16C44.852,66.926 44.591,65.898 44.258,64.955C44.095,66.113 44.089,67.282 44.201,68.46L44.94,68.16ZM46.643,67.892C46.634,66.644 46.441,65.551 46.17,64.523C45.935,65.624 45.855,66.781 45.891,67.98L46.643,67.892ZM56.539,67.892C56.547,66.644 56.741,65.551 57.011,64.523C57.246,65.624 57.327,66.781 57.291,67.98L56.539,67.892Z" style="fill:white;"/>
                </g>
                <g transform="matrix(1.00641,0,0,1.00641,-0.670818,2.85476)">
                    <g transform="matrix(1.08607,-1.26929e-16,1.26929e-16,2.28655,-879.998,-49.9047)">
                        <path d="M857.744,53.084C855.077,50.778 851.017,50.991 848.846,52.538C846.293,54.357 845.97,57.987 848.516,61.625C850.045,63.941 853.909,66.317 857.166,67.863C857.532,68.037 857.956,68.037 858.322,67.863C861.585,66.313 865.459,63.931 866.984,61.606C869.518,57.984 869.194,54.356 866.642,52.538C864.47,50.991 860.411,50.778 857.744,53.084ZM857.744,55.081C859.773,52.19 863.831,52.19 865.86,53.635C867.889,55.081 867.889,57.972 865.86,60.864C864.44,63.032 860.787,65.201 857.744,66.646C854.7,65.201 851.048,63.032 849.628,60.864C847.599,57.972 847.599,55.081 849.628,53.635C851.657,52.19 855.715,52.19 857.744,55.081Z" style="fill:white;"/>
                    </g>
                    <path d="M50.736,104.667C50.51,105.821 50.482,106.986 50.538,108.155C50.961,107.339 51.251,106.343 51.443,105.212L50.736,104.667ZM52.446,104.667C52.672,105.821 52.699,106.986 52.644,108.155C52.221,107.339 51.93,106.343 51.739,105.212L52.446,104.667ZM54.002,103.041C54.315,104.1 54.433,105.24 54.469,106.413C53.989,105.754 53.624,104.872 53.347,103.822L54.002,103.041ZM49.179,103.041C48.866,104.1 48.749,105.24 48.713,106.413C49.193,105.754 49.557,104.872 49.835,103.822L49.179,103.041ZM47.639,101.128C47.28,102.122 47.112,103.233 47.024,104.394C47.532,103.832 47.934,103.025 48.256,102.035L47.639,101.128ZM55.543,101.128C55.902,102.122 56.069,103.233 56.157,104.394C55.65,103.832 55.248,103.025 54.925,102.035L55.543,101.128ZM46.086,99.089C45.709,100.052 45.521,101.149 45.411,102.301C45.929,101.782 46.346,101.009 46.687,100.046L46.086,99.089ZM57.095,99.089C57.472,100.052 57.661,101.149 57.77,102.301C57.253,101.782 56.836,101.009 56.495,100.046L57.095,99.089ZM44.573,96.923C44.178,97.854 43.97,98.935 43.839,100.077C44.366,99.601 44.796,98.863 45.155,97.929L44.573,96.923ZM58.609,96.923C59.003,97.854 59.212,98.935 59.343,100.077C58.816,99.601 58.385,98.863 58.027,97.929L58.609,96.923ZM43.221,94.445C42.809,95.342 42.58,96.405 42.428,97.535C42.963,97.103 43.408,96.402 43.783,95.498L43.221,94.445ZM59.961,94.445C60.373,95.342 60.601,96.405 60.754,97.535C60.218,97.103 59.774,96.402 59.398,95.498L59.961,94.445ZM61.145,91.965C61.642,92.646 61.978,93.574 62.246,94.605C61.678,94.435 61.171,93.96 60.709,93.256L61.145,91.965ZM42.036,91.965C41.54,92.646 41.204,93.574 40.936,94.605C41.503,94.435 42.011,93.96 42.473,93.256L42.036,91.965ZM41.159,88.907C40.634,89.488 40.259,90.345 39.946,91.319C40.519,91.262 41.045,90.889 41.536,90.279L41.159,88.907ZM62.023,88.907C62.547,89.488 62.923,90.345 63.236,91.319C62.663,91.262 62.137,90.889 61.645,90.279L62.023,88.907ZM62.76,85.689C63.308,86.164 63.72,86.944 64.075,87.851C63.502,87.907 62.962,87.64 62.445,87.13L62.76,85.689ZM40.422,85.689C39.873,86.164 39.462,86.944 39.107,87.851C39.679,87.907 40.22,87.64 40.736,87.13L40.422,85.689ZM63.351,82.341C63.918,82.705 64.363,83.4 64.756,84.234C64.189,84.403 63.638,84.243 63.102,83.837L63.351,82.341ZM39.831,82.341C39.264,82.705 38.819,83.4 38.425,84.234C38.993,84.403 39.543,84.243 40.08,83.837L39.831,82.341ZM39.742,79C39.149,79.013 38.629,79.415 38.139,79.98C38.661,80.48 39.21,80.654 39.78,80.583L39.742,79ZM63.44,79C64.033,79.013 64.553,79.415 65.042,79.98C64.52,80.48 63.971,80.654 63.402,80.583L63.44,79ZM63.077,75.743C63.648,75.402 64.2,75.479 64.746,75.73C64.312,76.52 63.809,77.013 63.253,77.284L63.077,75.743ZM40.104,75.743C39.534,75.402 38.981,75.479 38.436,75.73C38.869,76.52 39.373,77.013 39.929,77.284L40.104,75.743ZM62.293,72.833C62.794,72.168 63.334,71.912 63.891,71.829C63.581,72.844 63.165,73.617 62.668,74.208L62.293,72.833ZM40.889,72.833C40.388,72.168 39.847,71.912 39.29,71.829C39.6,72.844 40.017,73.617 40.514,74.208L40.889,72.833ZM61.149,70.51C61.541,69.573 62.025,69.006 62.548,68.595C62.387,69.754 62.091,70.743 61.694,71.605L61.149,70.51ZM42.032,70.51C41.641,69.573 41.157,69.006 40.634,68.595C40.795,69.754 41.091,70.743 41.488,71.605L42.032,70.51ZM52.586,70.316C52.304,69.218 52.219,68.066 52.217,66.891C52.677,67.61 53.016,68.537 53.262,69.62L52.586,70.316ZM50.596,70.316C50.878,69.218 50.962,68.066 50.965,66.891C50.504,67.61 50.166,68.537 49.919,69.62L50.596,70.316ZM59.741,68.96C59.991,67.829 60.379,66.997 60.826,66.292C60.826,67.499 60.675,68.624 60.41,69.687L59.741,68.96ZM43.441,68.96C43.191,67.829 42.803,66.997 42.356,66.292C42.355,67.499 42.506,68.624 42.772,69.687L43.441,68.96ZM49.44,69.075C49.656,67.913 49.672,66.747 49.605,65.58C49.19,66.414 48.909,67.422 48.728,68.561L49.44,69.075ZM53.741,69.075C53.526,67.913 53.51,66.747 53.576,65.58C53.991,66.414 54.272,67.422 54.453,68.561L53.741,69.075ZM48.186,68.464C48.331,67.254 48.279,66.093 48.144,64.953C47.781,65.888 47.562,66.962 47.449,68.139L48.186,68.464ZM54.996,68.464C54.85,67.254 54.903,66.093 55.038,64.953C55.4,65.888 55.62,66.962 55.733,68.139L54.996,68.464ZM58.241,68.16C58.329,66.926 58.59,65.898 58.924,64.955C59.087,66.113 59.093,67.282 58.981,68.46L58.241,68.16ZM44.94,68.16C44.852,66.926 44.591,65.898 44.258,64.955C44.095,66.113 44.089,67.282 44.201,68.46L44.94,68.16ZM46.643,67.892C46.634,66.644 46.441,65.551 46.17,64.523C45.935,65.624 45.855,66.781 45.891,67.98L46.643,67.892ZM56.539,67.892C56.547,66.644 56.741,65.551 57.011,64.523C57.246,65.624 57.327,66.781 57.291,67.98L56.539,67.892Z" style="fill:white;"/>
                </g>
            </g>
        </g>
    </g>
</svg>
