<?xml version="1.0" encoding="UTF-8" standalone="no"?>
<!DOCTYPE svg PUBLIC "-//W3C//DTD SVG 1.1//EN" "http://www.w3.org/Graphics/SVG/1.1/DTD/svg11.dtd">
<svg width="100%" height="100%" viewBox="0 0 90 90" version="1.1" xmlns="http://www.w3.org/2000/svg" xmlns:xlink="http://www.w3.org/1999/xlink" xml:space="preserve" xmlns:serif="http://www.serif.com/" style="fill-rule:evenodd;clip-rule:evenodd;stroke-linejoin:round;stroke-miterlimit:2;">
    <g transform="matrix(1,0,0,1,-1264.62,-805.709)">
        <g transform="matrix(2.10535,0,0,1,1203.66,758.5)">
            <g transform="matrix(0.350342,0,0,0.737594,-159.738,-299.847)">
                <path d="M660.603,482.725C660.603,475.991 655.135,470.523 648.401,470.523L550.786,470.523C544.052,470.523 538.584,475.991 538.584,482.725L538.584,580.34C538.584,587.074 544.052,592.541 550.786,592.541L648.401,592.541C655.135,592.541 660.603,587.074 660.603,580.34L660.603,482.725Z" style="fill:none;"/>
            </g>
        </g>
        <g transform="matrix(2.10535,0,0,1,1203.66,758.5)">
            <g transform="matrix(1,0,0,1,-2.95707,5.84635)">
                <g transform="matrix(1,0,0,1,0.693689,9.11749)">
                    <g transform="matrix(4.9097,0,0,4.29433,-266.289,-177.268)">
                        <path d="M66.07,58.305L66.031,56.792C66.027,56.615 65.981,56.46 65.913,56.391C65.845,56.322 65.767,56.352 65.712,56.467L65.434,57.043C65.242,56.842 65.027,56.729 64.801,56.729C64.576,56.729 64.364,56.839 64.174,57.035C64.174,57.035 63.901,56.467 63.901,56.467C63.845,56.352 63.767,56.322 63.699,56.391C63.631,56.46 63.586,56.615 63.581,56.792L63.544,58.26C63.395,58.778 63.309,59.394 63.309,60.054C63.309,61.874 63.971,63.379 64.801,63.379C65.627,63.379 66.292,61.874 66.292,60.054C66.292,59.413 66.211,58.814 66.07,58.305ZM65.88,58.465L65.838,56.82L65.464,57.596C65.27,57.341 65.043,57.194 64.801,57.194C64.561,57.194 64.336,57.337 64.143,57.587L63.774,56.82L63.734,58.424C63.588,58.886 63.503,59.447 63.503,60.054C63.503,61.629 64.083,62.913 64.801,62.913C65.516,62.913 66.099,61.629 66.099,60.054C66.099,59.465 66.018,58.919 65.88,58.465Z" style="fill:rgb(94,94,94);"/>
                    </g>
                    <g transform="matrix(0.47498,0,5.85458e-33,1,-770.015,-6.07195)">
                        <path d="M1724.01,92.17C1725.24,91.48 1726.43,91.077 1727.6,90.834C1727.92,90.766 1728.24,90.718 1728.56,90.676C1729.03,90.612 1729.51,90.601 1729.98,90.597C1730.57,90.593 1731.16,90.61 1731.76,90.707C1732.16,90.772 1732.56,90.842 1732.97,90.952C1733.94,91.215 1734.92,91.593 1735.94,92.169C1736.1,92.29 1736.33,92.256 1736.45,92.092C1736.58,91.928 1736.54,91.696 1736.38,91.575C1735.24,90.505 1734.09,89.719 1732.87,89.203C1732.31,88.967 1731.74,88.809 1731.16,88.705C1730.77,88.634 1730.37,88.599 1729.97,88.598C1729.67,88.597 1729.38,88.618 1729.08,88.66C1728.41,88.756 1727.74,88.925 1727.08,89.201C1725.87,89.712 1724.72,90.505 1723.57,91.573C1723.41,91.693 1723.37,91.925 1723.49,92.09C1723.61,92.254 1723.84,92.291 1724.01,92.17Z" style="fill:rgb(100,100,100);"/>
                    </g>
                </g>
                <g transform="matrix(6.6427e-17,2.28396,-0.37604,4.84774e-17,71.7008,-2119.53)">
                    <path d="M966.977,89.707L966.977,85.271L978.456,85.271L978.456,81.152L980.653,87.489L978.456,93.826L978.456,89.707L966.977,89.707Z" style="fill-opacity:0.2;"/>
                    <path d="M966.101,89.707C966.101,91.102 966.493,92.233 966.977,92.233L977.581,92.233C977.581,92.233 977.581,93.826 977.581,93.826C977.581,94.848 977.794,95.769 978.121,96.16C978.448,96.551 978.825,96.335 979.075,95.613L981.272,89.276C981.614,88.289 981.614,86.689 981.272,85.703L979.075,79.366C978.825,78.643 978.448,78.427 978.121,78.818C977.794,79.209 977.581,80.13 977.581,81.152L977.581,82.745C977.581,82.745 966.977,82.745 966.977,82.745C966.493,82.745 966.101,83.876 966.101,85.271L966.101,89.707ZM966.977,89.707L966.977,85.271L978.456,85.271L978.456,81.152L980.653,87.489L978.456,93.826L978.456,89.707L966.977,89.707Z" style="fill:white;fill-opacity:0.2;"/>
                </g>
                <g transform="matrix(3.96958e-17,1.36486,-0.47498,6.12323e-17,80.3379,-1268.46)">
                    <path d="M966.977,89.707L966.977,85.271L976.01,85.271L976.01,81.152L980.653,87.489L976.01,93.826L976.01,89.707L966.977,89.707Z" style="fill-opacity:0.2;"/>
                    <path d="M965.511,89.707C965.511,90.812 966.167,91.707 966.977,91.707L974.545,91.707C974.545,91.707 974.545,93.826 974.545,93.826C974.545,94.635 974.902,95.364 975.449,95.674C975.997,95.984 976.627,95.812 977.046,95.24L981.689,88.903C982.261,88.122 982.261,86.856 981.689,86.075L977.046,79.738C976.627,79.166 975.997,78.995 975.449,79.304C974.902,79.614 974.545,80.343 974.545,81.152L974.545,83.271C974.545,83.271 966.977,83.271 966.977,83.271C966.167,83.271 965.511,84.167 965.511,85.271L965.511,89.707ZM966.977,89.707L966.977,85.271L976.01,85.271L976.01,81.152L980.653,87.489L976.01,93.826L976.01,89.707L966.977,89.707Z" style="fill:white;fill-opacity:0.2;"/>
                </g>
                <g transform="matrix(4.574e-17,1.57268,-0.6808,8.77658e-17,126.04,-1469.35)">
                    <path d="M966.977,89.707L966.977,85.271L974.877,85.271L974.877,81.152L980.653,87.489L974.877,93.826L974.877,89.707L966.977,89.707Z" style="fill-opacity:0.2;"/>
                    <path d="M965.705,89.707C965.705,90.478 966.274,91.103 966.977,91.103L973.606,91.103C973.606,91.103 973.606,93.826 973.606,93.826C973.606,94.391 973.916,94.899 974.391,95.115C974.866,95.331 975.413,95.212 975.777,94.813L981.552,88.476C982.049,87.931 982.049,87.047 981.552,86.503L975.777,80.166C975.413,79.766 974.866,79.647 974.391,79.863C973.916,80.079 973.606,80.588 973.606,81.152L973.606,83.876C973.606,83.876 966.977,83.876 966.977,83.876C966.274,83.876 965.705,84.501 965.705,85.271L965.705,89.707ZM966.977,89.707L966.977,85.271L974.877,85.271L974.877,81.152L980.653,87.489L974.877,93.826L974.877,89.707L966.977,89.707Z" style="fill:white;fill-opacity:0.2;"/>
                </g>
                <g transform="matrix(6.26435e-17,2.15387,-0.547552,7.0588e-17,114.719,-1998.19)">
                    <path d="M966.977,89.707L966.977,85.271L977.261,85.271L977.261,81.152L980.653,87.489L977.261,93.826L977.261,89.707L966.977,89.707Z" style="fill-opacity:0.2;"/>
                    <path d="M966.048,89.707C966.048,90.665 966.464,91.442 966.977,91.442L976.333,91.442C976.333,91.442 976.333,93.826 976.333,93.826C976.333,94.528 976.559,95.161 976.906,95.429C977.253,95.698 977.652,95.549 977.918,95.053L981.31,88.716C981.672,88.038 981.672,86.94 981.31,86.262L977.918,79.925C977.652,79.429 977.253,79.281 976.906,79.549C976.559,79.818 976.333,80.451 976.333,81.152L976.333,83.536C976.333,83.536 966.977,83.536 966.977,83.536C966.464,83.536 966.048,84.313 966.048,85.271L966.048,89.707ZM966.977,89.707L966.977,85.271L977.261,85.271L977.261,81.152L980.653,87.489L977.261,93.826L977.261,89.707L966.977,89.707Z" style="fill:white;fill-opacity:0.2;"/>
                </g>
                <g transform="matrix(3.31847e-17,1.14099,-0.47498,6.12323e-17,94.3534,-993.752)">
                    <path d="M966.977,89.707L966.977,85.271L975.099,85.271L975.099,81.152L980.653,87.489L975.099,93.826L975.099,89.707L966.977,89.707Z" style="fill-opacity:0.2;"/>
                    <path d="M965.224,89.707C965.224,90.812 966.009,91.707 966.977,91.707L973.346,91.707C973.346,91.707 973.346,93.826 973.346,93.826C973.346,94.635 973.773,95.364 974.428,95.674C975.083,95.984 975.837,95.812 976.338,95.24L981.892,88.903C982.577,88.122 982.577,86.856 981.892,86.075L976.338,79.738C975.837,79.166 975.083,78.995 974.428,79.304C973.773,79.614 973.346,80.343 973.346,81.152L973.346,83.271C973.346,83.271 966.977,83.271 966.977,83.271C966.009,83.271 965.224,84.167 965.224,85.271L965.224,89.707ZM966.977,89.707L966.977,85.271L975.099,85.271L975.099,81.152L980.653,87.489L975.099,93.826L975.099,89.707L966.977,89.707Z" style="fill:white;fill-opacity:0.2;"/>
                </g>
                <g transform="matrix(4.74274e-17,1.6307,-0.47498,6.12323e-17,94.0888,-1529.29)">
                    <path d="M966.977,89.707L966.977,85.271L976.767,85.271L976.767,81.152L980.653,87.489L976.767,93.826L976.767,89.707L966.977,89.707Z" style="fill-opacity:0.2;"/>
                    <path d="M965.75,89.707C965.75,90.812 966.299,91.707 966.977,91.707L975.54,91.707C975.54,91.707 975.54,93.826 975.54,93.826C975.54,94.635 975.839,95.364 976.298,95.674C976.756,95.984 977.283,95.812 977.634,95.24L981.52,88.903C981.999,88.122 981.999,86.856 981.52,86.075L977.634,79.738C977.283,79.166 976.756,78.995 976.298,79.304C975.839,79.614 975.54,80.343 975.54,81.152L975.54,83.271C975.54,83.271 966.977,83.271 966.977,83.271C966.299,83.271 965.75,84.167 965.75,85.271L965.75,89.707ZM966.977,89.707L966.977,85.271L976.767,85.271L976.767,81.152L980.653,87.489L976.767,93.826L976.767,89.707L966.977,89.707Z" style="fill:white;fill-opacity:0.2;"/>
                </g>
            </g>
        </g>
    </g>
</svg>
