<?xml version="1.0" encoding="UTF-8" standalone="no"?>
<!DOCTYPE svg PUBLIC "-//W3C//DTD SVG 1.1//EN" "http://www.w3.org/Graphics/SVG/1.1/DTD/svg11.dtd">
<svg width="100%" height="100%" viewBox="0 0 90 90" version="1.1" xmlns="http://www.w3.org/2000/svg" xmlns:xlink="http://www.w3.org/1999/xlink" xml:space="preserve" xmlns:serif="http://www.serif.com/" style="fill-rule:evenodd;clip-rule:evenodd;stroke-linejoin:round;stroke-miterlimit:2;">
    <g transform="matrix(1,0,0,1,-483.974,-621.394)">
        <g transform="matrix(2.10535,0,0,1,423.022,574.186)">
            <g transform="matrix(0.350342,0,0,0.737594,-159.738,-299.847)">
                <path d="M660.603,482.725C660.603,475.991 655.135,470.523 648.401,470.523L550.786,470.523C544.052,470.523 538.584,475.991 538.584,482.725L538.584,580.34C538.584,587.074 544.052,592.541 550.786,592.541L648.401,592.541C655.135,592.541 660.603,587.074 660.603,580.34L660.603,482.725Z" style="fill:none;"/>
            </g>
        </g>
        <g transform="matrix(2.10535,0,0,1,423.022,574.186)">
            <g transform="matrix(0.0880287,0,0,0.185331,-28.2248,10.0614)">
                <path d="M876.567,628.171C843.341,626.434 792.773,616.446 774.53,554.933C766.789,529.023 769.853,501.084 783.024,477.467C802.467,442.806 828.317,406.622 780.4,390.004C791.127,371.62 815.153,373.157 840.386,376.503C804.794,314.494 865.124,223.635 942.463,270.04C911.584,272.975 902.645,297.44 913.086,320.952C926.511,351.183 968.143,385.655 995.905,432.259C1014.31,463.158 1014.66,493.389 1014.21,516.94C1013.01,578.284 961.311,619.945 907.25,627.352C901.665,628.541 895.766,629.175 889.585,629.174C884.964,629.174 880.626,628.827 876.567,628.171ZM907.25,627.352C959.591,616.21 983.779,556.278 949.595,513.768C941.237,534.652 925.157,543.33 898.935,535.975C938.769,496.968 919.516,456.15 881.215,420.736C898.851,451.994 878.826,487.236 842.353,516.67C815.804,538.095 815.251,618.273 876.567,628.171C880.955,628.401 885.042,628.486 888.712,628.528C894.875,628.597 901.08,628.198 907.25,627.352Z" style="fill:rgb(255,89,49);"/>
            </g>
        </g>
    </g>
</svg>
