<?xml version="1.0" encoding="UTF-8" standalone="no"?>
<!DOCTYPE svg PUBLIC "-//W3C//DTD SVG 1.1//EN" "http://www.w3.org/Graphics/SVG/1.1/DTD/svg11.dtd">
<svg width="100%" height="100%" viewBox="0 0 90 90" version="1.1" xmlns="http://www.w3.org/2000/svg" xmlns:xlink="http://www.w3.org/1999/xlink" xml:space="preserve" xmlns:serif="http://www.serif.com/" style="fill-rule:evenodd;clip-rule:evenodd;stroke-linecap:round;stroke-linejoin:round;stroke-miterlimit:1.5;">
    <g transform="matrix(1,0,0,1,-613.974,-621.394)">
        <g transform="matrix(2.10535,0,0,1,553.022,574.186)">
            <g transform="matrix(0.350342,0,0,0.737594,-159.738,-299.847)">
                <path d="M660.603,482.725C660.603,475.991 655.135,470.523 648.401,470.523L550.786,470.523C544.052,470.523 538.584,475.991 538.584,482.725L538.584,580.34C538.584,587.074 544.052,592.541 550.786,592.541L648.401,592.541C655.135,592.541 660.603,587.074 660.603,580.34L660.603,482.725Z" style="fill:none;"/>
            </g>
        </g>
        <g transform="matrix(2.10535,0,0,1,553.022,574.186)">
            <g transform="matrix(1,0,0,1,-0.473897,2.29126)">
                <g transform="matrix(0.893701,0,-5.55112e-17,1.88156,-492.136,-24.4699)">
                    <circle cx="626.705" cy="66.168" r="1.878" style="fill:none;"/>
                    <clipPath id="_clip1">
                        <circle cx="626.705" cy="66.168" r="1.878"/>
                    </clipPath>
                    <g clip-path="url(#_clip1)">
                        <g transform="matrix(0.638803,0,0,0.638803,225.065,22.7069)">
                            <path d="M628.802,69.975C629.722,69.381 630.371,68.488 630.816,67.372C630.851,68.747 630.65,69.954 628.802,69.975Z" style="fill:white;"/>
                        </g>
                    </g>
                    <path d="M626.705,63.758C625.375,63.758 624.295,64.838 624.295,66.168C624.295,67.497 625.375,68.577 626.705,68.577C628.034,68.577 629.114,67.497 629.114,66.168C629.114,64.838 628.034,63.758 626.705,63.758ZM626.705,64.29C627.741,64.29 628.583,65.131 628.583,66.168C628.583,67.204 627.741,68.045 626.705,68.045C625.668,68.045 624.827,67.204 624.827,66.168C624.827,65.131 625.668,64.29 626.705,64.29Z" style="fill:white;"/>
                </g>
                <g transform="matrix(0.893701,0,0,1.88156,-496.677,-37.2417)">
                    <circle cx="626.705" cy="66.168" r="1.878" style="fill:none;"/>
                    <clipPath id="_clip2">
                        <circle cx="626.705" cy="66.168" r="1.878"/>
                    </clipPath>
                    <g clip-path="url(#_clip2)">
                        <g transform="matrix(0.638803,0,0,0.638803,225.065,22.7069)">
                            <path d="M628.802,69.975C629.722,69.381 630.371,68.488 630.816,67.372C630.851,68.747 630.65,69.954 628.802,69.975Z" style="fill:white;"/>
                        </g>
                    </g>
                    <path d="M626.705,63.758C625.375,63.758 624.295,64.838 624.295,66.168C624.295,67.497 625.375,68.577 626.705,68.577C628.034,68.577 629.114,67.497 629.114,66.168C629.114,64.838 628.034,63.758 626.705,63.758ZM626.705,64.29C627.741,64.29 628.583,65.131 628.583,66.168C628.583,67.204 627.741,68.045 626.705,68.045C625.668,68.045 624.827,67.204 624.827,66.168C624.827,65.131 625.668,64.29 626.705,64.29Z" style="fill:white;"/>
                </g>
                <g transform="matrix(0.893701,0,0,1.88156,-523.537,-11.9181)">
                    <circle cx="626.705" cy="66.168" r="1.878" style="fill:none;"/>
                    <clipPath id="_clip3">
                        <circle cx="626.705" cy="66.168" r="1.878"/>
                    </clipPath>
                    <g clip-path="url(#_clip3)">
                        <g transform="matrix(0.638803,0,0,0.638803,225.065,22.7069)">
                            <path d="M628.802,69.975C629.722,69.381 630.371,68.488 630.816,67.372C630.851,68.747 630.65,69.954 628.802,69.975Z" style="fill:white;"/>
                        </g>
                    </g>
                    <path d="M626.705,63.758C625.375,63.758 624.295,64.838 624.295,66.168C624.295,67.497 625.375,68.577 626.705,68.577C628.034,68.577 629.114,67.497 629.114,66.168C629.114,64.838 628.034,63.758 626.705,63.758ZM626.705,64.29C627.741,64.29 628.583,65.131 628.583,66.168C628.583,67.204 627.741,68.045 626.705,68.045C625.668,68.045 624.827,67.204 624.827,66.168C624.827,65.131 625.668,64.29 626.705,64.29Z" style="fill:white;"/>
                </g>
                <g transform="matrix(1.32668,0,0,2.79312,-796.974,-92.5984)">
                    <circle cx="626.705" cy="66.168" r="1.878" style="fill:none;"/>
                    <clipPath id="_clip4">
                        <circle cx="626.705" cy="66.168" r="1.878"/>
                    </clipPath>
                    <g clip-path="url(#_clip4)">
                        <g transform="matrix(0.638803,0,0,0.638803,225.065,22.7069)">
                            <path d="M628.802,69.975C629.722,69.381 630.371,68.488 630.816,67.372C630.851,68.747 630.65,69.954 628.802,69.975Z" style="fill:white;"/>
                        </g>
                    </g>
                    <path d="M626.705,63.932C625.471,63.932 624.469,64.934 624.469,66.168C624.469,67.402 625.471,68.403 626.705,68.403C627.939,68.403 628.941,67.402 628.941,66.168C628.941,64.934 627.939,63.932 626.705,63.932ZM626.705,64.29C627.741,64.29 628.583,65.131 628.583,66.168C628.583,67.204 627.741,68.045 626.705,68.045C625.668,68.045 624.827,67.204 624.827,66.168C624.827,65.131 625.668,64.29 626.705,64.29Z" style="fill:white;"/>
                </g>
                <g transform="matrix(0.507787,0,0,1.06907,-280.743,-0.268883)">
                    <circle cx="626.705" cy="66.168" r="1.878" style="fill:none;"/>
                    <clipPath id="_clip5">
                        <circle cx="626.705" cy="66.168" r="1.878"/>
                    </clipPath>
                    <g clip-path="url(#_clip5)">
                        <g transform="matrix(0.638803,0,0,0.638803,225.065,22.7069)">
                            <path d="M628.802,69.975C629.722,69.381 630.371,68.488 630.816,67.372C630.851,68.747 630.65,69.954 628.802,69.975Z" style="fill:white;"/>
                        </g>
                    </g>
                    <path d="M626.705,63.354C625.152,63.354 623.892,64.615 623.892,66.168C623.892,67.72 625.152,68.981 626.705,68.981C628.257,68.981 629.518,67.72 629.518,66.168C629.518,64.615 628.257,63.354 626.705,63.354ZM626.705,64.29C627.741,64.29 628.583,65.131 628.583,66.168C628.583,67.204 627.741,68.045 626.705,68.045C625.668,68.045 624.827,67.204 624.827,66.168C624.827,65.131 625.668,64.29 626.705,64.29Z" style="fill:white;"/>
                </g>
                <g transform="matrix(0.507787,0,0,1.06907,-254.422,-0.0828653)">
                    <circle cx="626.705" cy="66.168" r="1.878" style="fill:none;"/>
                    <clipPath id="_clip6">
                        <circle cx="626.705" cy="66.168" r="1.878"/>
                    </clipPath>
                    <g clip-path="url(#_clip6)">
                        <g transform="matrix(0.638803,0,0,0.638803,225.065,22.7069)">
                            <path d="M628.802,69.975C629.722,69.381 630.371,68.488 630.816,67.372C630.851,68.747 630.65,69.954 628.802,69.975Z" style="fill:white;"/>
                        </g>
                    </g>
                    <path d="M626.705,63.354C625.152,63.354 623.892,64.615 623.892,66.168C623.892,67.72 625.152,68.981 626.705,68.981C628.257,68.981 629.518,67.72 629.518,66.168C629.518,64.615 628.257,63.354 626.705,63.354ZM626.705,64.29C627.741,64.29 628.583,65.131 628.583,66.168C628.583,67.204 627.741,68.045 626.705,68.045C625.668,68.045 624.827,67.204 624.827,66.168C624.827,65.131 625.668,64.29 626.705,64.29Z" style="fill:white;"/>
                </g>
                <g transform="matrix(0.507787,0,0,1.06907,-274.13,3.45201)">
                    <circle cx="626.705" cy="66.168" r="1.878" style="fill:none;"/>
                    <clipPath id="_clip7">
                        <circle cx="626.705" cy="66.168" r="1.878"/>
                    </clipPath>
                    <g clip-path="url(#_clip7)">
                        <g transform="matrix(0.638803,0,0,0.638803,225.065,22.7069)">
                            <path d="M628.802,69.975C629.722,69.381 630.371,68.488 630.816,67.372C630.851,68.747 630.65,69.954 628.802,69.975Z" style="fill:white;"/>
                        </g>
                    </g>
                    <path d="M626.705,63.354C625.152,63.354 623.892,64.615 623.892,66.168C623.892,67.72 625.152,68.981 626.705,68.981C628.257,68.981 629.518,67.72 629.518,66.168C629.518,64.615 628.257,63.354 626.705,63.354ZM626.705,64.29C627.741,64.29 628.583,65.131 628.583,66.168C628.583,67.204 627.741,68.045 626.705,68.045C625.668,68.045 624.827,67.204 624.827,66.168C624.827,65.131 625.668,64.29 626.705,64.29Z" style="fill:white;"/>
                </g>
                <g transform="matrix(0.507787,0,0,1.06907,-273.203,-16.5666)">
                    <circle cx="626.705" cy="66.168" r="1.878" style="fill:none;"/>
                    <clipPath id="_clip8">
                        <circle cx="626.705" cy="66.168" r="1.878"/>
                    </clipPath>
                    <g clip-path="url(#_clip8)">
                        <g transform="matrix(0.638803,0,0,0.638803,225.065,22.7069)">
                            <path d="M628.802,69.975C629.722,69.381 630.371,68.488 630.816,67.372C630.851,68.747 630.65,69.954 628.802,69.975Z" style="fill:white;"/>
                        </g>
                    </g>
                    <path d="M626.705,63.354C625.152,63.354 623.892,64.615 623.892,66.168C623.892,67.72 625.152,68.981 626.705,68.981C628.257,68.981 629.518,67.72 629.518,66.168C629.518,64.615 628.257,63.354 626.705,63.354ZM626.705,64.29C627.741,64.29 628.583,65.131 628.583,66.168C628.583,67.204 627.741,68.045 626.705,68.045C625.668,68.045 624.827,67.204 624.827,66.168C624.827,65.131 625.668,64.29 626.705,64.29Z" style="fill:white;"/>
                </g>
                <g transform="matrix(0.507787,0,0,1.06907,-252.102,-12.7952)">
                    <circle cx="626.705" cy="66.168" r="1.878" style="fill:none;"/>
                    <clipPath id="_clip9">
                        <circle cx="626.705" cy="66.168" r="1.878"/>
                    </clipPath>
                    <g clip-path="url(#_clip9)">
                        <g transform="matrix(0.638803,0,0,0.638803,225.065,22.7069)">
                            <path d="M628.802,69.975C629.722,69.381 630.371,68.488 630.816,67.372C630.851,68.747 630.65,69.954 628.802,69.975Z" style="fill:white;"/>
                        </g>
                    </g>
                    <path d="M626.705,63.354C625.152,63.354 623.892,64.615 623.892,66.168C623.892,67.72 625.152,68.981 626.705,68.981C628.257,68.981 629.518,67.72 629.518,66.168C629.518,64.615 628.257,63.354 626.705,63.354ZM626.705,64.29C627.741,64.29 628.583,65.131 628.583,66.168C628.583,67.204 627.741,68.045 626.705,68.045C625.668,68.045 624.827,67.204 624.827,66.168C624.827,65.131 625.668,64.29 626.705,64.29Z" style="fill:white;"/>
                </g>
                <g transform="matrix(0.507787,0,0,1.06907,-261.788,-12.4162)">
                    <circle cx="626.705" cy="66.168" r="1.878" style="fill:none;"/>
                    <clipPath id="_clip10">
                        <circle cx="626.705" cy="66.168" r="1.878"/>
                    </clipPath>
                    <g clip-path="url(#_clip10)">
                        <g transform="matrix(0.638803,0,0,0.638803,225.065,22.7069)">
                            <path d="M628.802,69.975C629.722,69.381 630.371,68.488 630.816,67.372C630.851,68.747 630.65,69.954 628.802,69.975Z" style="fill:white;"/>
                        </g>
                    </g>
                    <path d="M626.705,63.354C625.152,63.354 623.892,64.615 623.892,66.168C623.892,67.72 625.152,68.981 626.705,68.981C628.257,68.981 629.518,67.72 629.518,66.168C629.518,64.615 628.257,63.354 626.705,63.354ZM626.705,64.29C627.741,64.29 628.583,65.131 628.583,66.168C628.583,67.204 627.741,68.045 626.705,68.045C625.668,68.045 624.827,67.204 624.827,66.168C624.827,65.131 625.668,64.29 626.705,64.29Z" style="fill:white;"/>
                </g>
                <g transform="matrix(0.47498,0,0,1,-239.265,3.72841)">
                    <path d="M610.746,53.908C609.16,70.612 587.596,88.989 588.818,104.183C589.79,116.28 598.609,123.942 610.745,123.942C622.881,123.942 632.796,116.319 632.796,104.183C632.796,89.389 612.551,70.537 610.746,53.908Z" style="fill:none;"/>
                    <clipPath id="_clip11">
                        <path d="M610.746,53.908C609.16,70.612 587.596,88.989 588.818,104.183C589.79,116.28 598.609,123.942 610.745,123.942C622.881,123.942 632.796,116.319 632.796,104.183C632.796,89.389 612.551,70.537 610.746,53.908Z"/>
                    </clipPath>
                    <g clip-path="url(#_clip11)">
                        <path d="M625.271,96.826C625.496,104.612 622.142,111.472 616.016,117.241C626.457,114.331 630.317,107.799 625.271,96.826Z" style="fill:white;"/>
                    </g>
                    <path d="M610.746,53.908C609.16,70.612 587.596,88.989 588.818,104.183C589.79,116.28 598.609,123.942 610.745,123.942C622.881,123.942 632.796,116.319 632.796,104.183C632.796,89.389 612.551,70.537 610.746,53.908Z" style="fill:none;stroke:white;stroke-width:2px;"/>
                </g>
            </g>
        </g>
    </g>
</svg>
