<?xml version="1.0" encoding="UTF-8" standalone="no"?>
<!DOCTYPE svg PUBLIC "-//W3C//DTD SVG 1.1//EN" "http://www.w3.org/Graphics/SVG/1.1/DTD/svg11.dtd">
<svg width="100%" height="100%" viewBox="0 0 90 90" version="1.1" xmlns="http://www.w3.org/2000/svg" xmlns:xlink="http://www.w3.org/1999/xlink" xml:space="preserve" xmlns:serif="http://www.serif.com/" style="fill-rule:evenodd;clip-rule:evenodd;stroke-linejoin:round;stroke-miterlimit:2;">
    <g transform="matrix(1,0,0,1,-743.974,-621.394)">
        <g transform="matrix(2.10535,0,0,1,683.022,574.186)">
            <g transform="matrix(0.350342,0,0,0.737594,-159.738,-299.847)">
                <path d="M660.603,482.725C660.603,475.991 655.135,470.523 648.401,470.523L550.786,470.523C544.052,470.523 538.584,475.991 538.584,482.725L538.584,580.34C538.584,587.074 544.052,592.541 550.786,592.541L648.401,592.541C655.135,592.541 660.603,587.074 660.603,580.34L660.603,482.725Z" style="fill:none;"/>
            </g>
        </g>
        <g transform="matrix(2.10535,0,0,1,683.022,574.186)">
            <g transform="matrix(1,0,0,1,-0.757245,-1.86519)">
                <g transform="matrix(0.47498,0,0,1,-423.015,-173.202)">
                    <path d="M990.084,304.65L1006.64,277.023L996.649,276.996L1010.75,257.019L999.424,256.941L1015.74,229.901L989.044,230.145L973.738,266.303L986.723,266.234L979.836,285.454L993.226,285.676L990.084,304.65Z" style="fill:white;"/>
                </g>
                <g transform="matrix(0.155639,0,0,0.327676,-92.2777,15.1093)">
                    <path d="M990.084,304.65L1006.64,277.023L996.649,276.996L1010.75,257.019L999.424,256.941L1015.74,229.901L989.044,230.145L973.738,266.303L986.723,266.234L979.836,285.454L993.226,285.676L990.084,304.65Z" style="fill:white;"/>
                </g>
                <g transform="matrix(0.0509992,0,0,0.107371,-13.3056,88.441)">
                    <path d="M990.084,304.65L1006.64,277.023L996.649,276.996L1010.75,257.019L999.424,256.941L1015.74,229.901L989.044,230.145L973.738,266.303L986.723,266.234L979.836,285.454L993.226,285.676L990.084,304.65Z" style="fill:white;"/>
                </g>
            </g>
        </g>
    </g>
</svg>
