<?xml version="1.0" encoding="UTF-8" standalone="no"?>
<!DOCTYPE svg PUBLIC "-//W3C//DTD SVG 1.1//EN" "http://www.w3.org/Graphics/SVG/1.1/DTD/svg11.dtd">
<svg width="100%" height="100%" viewBox="0 0 90 90" version="1.1" xmlns="http://www.w3.org/2000/svg" xmlns:xlink="http://www.w3.org/1999/xlink" xml:space="preserve" xmlns:serif="http://www.serif.com/" style="fill-rule:evenodd;clip-rule:evenodd;stroke-linecap:round;stroke-linejoin:round;stroke-miterlimit:1.5;">
    <g transform="matrix(1,0,0,1,-94.6165,-805.709)">
        <g transform="matrix(2.10535,0,0,1,33.6643,758.5)">
            <g transform="matrix(0.350342,0,0,0.737594,-159.738,-299.847)">
                <path d="M660.603,482.725C660.603,475.991 655.135,470.523 648.401,470.523L550.786,470.523C544.052,470.523 538.584,475.991 538.584,482.725L538.584,580.34C538.584,587.074 544.052,592.541 550.786,592.541L648.401,592.541C655.135,592.541 660.603,587.074 660.603,580.34L660.603,482.725Z" style="fill:none;"/>
            </g>
        </g>
        <g transform="matrix(2.10535,0,0,1,33.6643,758.5)">
            <g transform="matrix(1,0,0,1,-1.72107,13.5383)">
                <g transform="matrix(0.524636,0,0,1.12633,-2242.27,-1479.73)">
                    <path d="M4397.72,1372.34L4392.76,1379.84L4395.04,1381.87L4392.34,1387.56L4398.57,1381.47L4396.11,1378.39L4397.72,1372.34Z" style="fill:none;stroke:white;stroke-width:0.9px;"/>
                </g>
                <g transform="matrix(-0.0828619,0.651069,0.315344,0.177894,-27.7313,-3002.03)">
                    <path d="M4397.72,1372.34L4392.76,1379.84L4395.04,1381.87L4392.34,1387.56L4398.57,1381.47L4396.11,1378.39L4397.72,1372.34Z" style="fill:none;stroke:white;stroke-width:1.47px;"/>
                </g>
                <g transform="matrix(0.0828619,0.651069,-0.315344,0.177894,131.586,-3002.03)">
                    <path d="M4397.72,1372.34L4392.76,1379.84L4395.04,1381.87L4392.34,1387.56L4398.57,1381.47L4396.11,1378.39L4397.72,1372.34Z" style="fill:none;stroke:white;stroke-width:1.47px;"/>
                </g>
                <g transform="matrix(0.320154,0,0,0.68733,-1348.07,-885.055)">
                    <path d="M4397.72,1372.34L4392.76,1379.84L4395.04,1381.87L4392.34,1387.56L4398.57,1381.47L4396.11,1378.39L4397.72,1372.34Z" style="fill:none;stroke:white;stroke-width:1.47px;"/>
                </g>
                <g transform="matrix(-0.287781,0,0,0.617831,1311.16,-788.23)">
                    <path d="M4397.72,1372.34L4392.76,1379.84L4395.04,1381.87L4392.34,1387.56L4398.57,1381.47L4396.11,1378.39L4397.72,1372.34Z" style="fill:none;stroke:white;stroke-width:1.63px;"/>
                </g>
                <g transform="matrix(0.45562,-0.3822,0.185117,0.97816,-2205.76,388.281)">
                    <path d="M4397.72,1372.34L4392.76,1379.84L4395.04,1381.87L4392.34,1387.56L4398.57,1381.47L4396.11,1378.39L4397.72,1372.34Z" style="fill:none;stroke:white;stroke-width:0.96px;"/>
                </g>
                <g transform="matrix(-5.85338e-17,-2.01257,-0.47498,6.12323e-17,93.9217,2050.8)">
                    <path d="M966.977,91.707C966.428,91.707 965.983,90.812 965.983,89.707L965.983,85.271C965.983,84.167 966.428,83.271 966.977,83.271L976.51,83.271C976.51,83.271 976.51,81.152 976.51,81.152C976.51,80.343 976.753,79.614 977.124,79.304C977.495,78.995 977.923,79.166 978.207,79.738L981.356,86.075C981.744,86.856 981.744,88.122 981.356,88.903L978.207,95.24C977.923,95.812 977.495,95.984 977.124,95.674C976.753,95.364 976.51,94.635 976.51,93.826L976.51,91.707C976.51,91.707 966.977,91.707 966.977,91.707ZM966.977,89.707L966.977,85.271L977.504,85.271L977.504,81.152L980.653,87.489L977.504,93.826L977.504,89.707L966.977,89.707Z" style="fill:white;"/>
                </g>
                <g transform="matrix(0.384356,0.641409,-0.310665,0.825165,-1195.49,-3867.06)">
                    <path d="M4397.72,1372.34L4392.76,1379.84L4395.04,1381.87L4392.34,1387.56L4398.57,1381.47L4396.11,1378.39L4397.72,1372.34Z" style="fill:none;stroke:white;stroke-width:0.96px;"/>
                </g>
                <g transform="matrix(-0.282723,0.843753,0.40867,0.606971,718.593,-4453.54)">
                    <path d="M4397.72,1372.34L4392.76,1379.84L4395.04,1381.87L4392.34,1387.56L4398.57,1381.47L4396.11,1378.39L4397.72,1372.34Z" style="fill:none;stroke:white;stroke-width:0.96px;"/>
                </g>
                <g transform="matrix(-0.695673,0.575682,0.27883,1.49352,2712.35,-4517.61)">
                    <path d="M4397.72,1372.34L4392.76,1379.84L4395.04,1381.87L4392.34,1387.56L4398.57,1381.47L4396.11,1378.39L4397.72,1372.34Z" style="fill:none;stroke:white;stroke-width:0.63px;"/>
                </g>
            </g>
        </g>
    </g>
</svg>
