<?xml version="1.0" encoding="UTF-8" standalone="no"?>
<!DOCTYPE svg PUBLIC "-//W3C//DTD SVG 1.1//EN" "http://www.w3.org/Graphics/SVG/1.1/DTD/svg11.dtd">
<svg width="100%" height="100%" viewBox="0 0 90 90" version="1.1" xmlns="http://www.w3.org/2000/svg" xmlns:xlink="http://www.w3.org/1999/xlink" xml:space="preserve" xmlns:serif="http://www.serif.com/" style="fill-rule:evenodd;clip-rule:evenodd;stroke-linejoin:round;stroke-miterlimit:2;">
    <g transform="matrix(1,0,0,1,-354.616,-805.709)">
        <g transform="matrix(2.10535,0,0,1,293.664,758.5)">
            <g transform="matrix(0.350342,0,0,0.737594,-159.738,-299.847)">
                <path d="M660.603,482.725C660.603,475.991 655.135,470.523 648.401,470.523L550.786,470.523C544.052,470.523 538.584,475.991 538.584,482.725L538.584,580.34C538.584,587.074 544.052,592.541 550.786,592.541L648.401,592.541C655.135,592.541 660.603,587.074 660.603,580.34L660.603,482.725Z" style="fill:none;"/>
            </g>
        </g>
        <g transform="matrix(2.10535,0,0,1,293.664,758.5)">
            <g transform="matrix(0.0516922,0,0,0.10883,37.0919,64.3479)">
                <g>
                    <g>
                        <g>
                            <g>
                                <g>
                                    <g>
                                        <g>
                                            <path d="M466.395,88.411C395.95,69.109 325.091,39.054 261.478,1.496C258.099,-0.499 253.906,-0.499 250.528,1.496C185.08,40.133 118.05,68.562 45.605,88.411C40.925,89.692 37.681,93.946 37.681,98.799L37.681,208.845C37.681,322.168 89.96,397.18 133.818,440.151C181.034,486.416 236.034,512.001 256.003,512.001C275.97,512.001 330.97,486.416 378.186,440.151C422.043,397.181 474.319,322.169 474.319,208.845L474.319,98.798C474.319,93.946 471.075,89.692 466.395,88.411ZM452.779,208.844C452.779,314.687 404.018,384.682 363.11,424.764C316.679,470.259 267.036,490.459 256.003,490.459C244.97,490.459 195.324,470.259 148.892,424.764C107.985,384.681 59.222,314.687 59.222,208.844L59.222,106.974C128.5,87.304 193.018,59.853 256.005,23.25C317.419,58.882 385.156,87.698 452.779,106.97L452.779,208.844Z" style="fill:white;fill-rule:nonzero;"/>
                                            <path d="M160.538,105.769C158.358,100.234 152.105,97.515 146.569,99.696C127.329,107.277 107.581,114.255 87.874,120.437C83.383,121.847 80.327,126.007 80.327,130.713L80.327,172.304C80.327,178.252 85.15,183.074 91.097,183.074C97.044,183.074 101.867,178.252 101.867,172.304L101.867,138.584C119.546,132.864 137.206,126.537 154.465,119.736C160,117.557 162.719,111.304 160.538,105.769Z" style="fill:white;fill-rule:nonzero;"/>
                                            <path d="M180.997,107.812C182.442,107.812 183.909,107.521 185.316,106.907L185.514,106.821C190.963,104.433 193.417,98.09 191.029,92.643C188.639,87.194 182.26,84.729 176.817,87.115L176.643,87.19C171.191,89.571 168.729,95.909 171.11,101.359C172.877,105.405 176.842,107.812 180.997,107.812Z" style="fill:white;fill-rule:nonzero;"/>
                                            <path d="M384.322,347.283C379.345,344.03 372.671,345.429 369.414,350.408C360.539,363.992 350.127,377 338.463,389.067C328.871,398.989 318.477,408.237 307.57,416.552C302.841,420.158 301.931,426.916 305.536,431.647C307.657,434.426 310.864,435.888 314.108,435.888C316.386,435.888 318.681,435.169 320.631,433.681C332.396,424.71 343.606,414.737 353.948,404.039C366.559,390.995 377.829,376.915 387.447,362.19C390.702,357.21 389.301,350.536 384.322,347.283Z" style="fill:white;fill-rule:nonzero;"/>
                                            <path d="M282.558,433.443L281.94,433.807C276.793,436.788 275.034,443.376 278.014,448.523C280.011,451.973 283.626,453.899 287.345,453.899C289.175,453.899 291.033,453.432 292.73,452.447L293.443,452.028C298.576,449.022 300.3,442.425 297.294,437.292C294.286,432.161 287.688,430.44 282.558,433.443Z" style="fill:white;fill-rule:nonzero;"/>
                                            <path d="M182.589,234.019C175.976,227.405 167.181,223.765 157.827,223.765C148.473,223.765 139.677,227.406 133.061,234.019C119.408,247.675 119.408,269.895 133.061,283.55L196.657,347.144C203.271,353.756 212.066,357.397 221.421,357.397C230.776,357.397 239.571,353.756 246.186,347.142L378.947,214.38C392.599,200.721 392.599,178.504 378.945,164.853C372.331,158.239 363.536,154.599 354.18,154.599C344.825,154.599 336.03,158.24 329.415,164.853L221.42,272.848L182.589,234.019ZM344.647,180.085C347.192,177.54 350.579,176.139 354.181,176.139C357.785,176.139 361.169,177.54 363.716,180.085C368.971,185.34 368.971,193.894 363.714,199.151L230.955,331.911C228.41,334.456 225.023,335.857 221.421,335.857C217.819,335.857 214.432,334.456 211.886,331.911L148.292,268.319C143.035,263.062 143.035,254.508 148.29,249.253C150.836,246.708 154.223,245.305 157.826,245.305C161.429,245.305 164.814,246.706 167.359,249.251L213.804,295.697C215.825,297.716 218.563,298.851 221.42,298.851C224.277,298.851 227.015,297.717 229.034,295.697L344.647,180.085Z" style="fill:white;fill-rule:nonzero;"/>
                                        </g>
                                    </g>
                                </g>
                            </g>
                        </g>
                    </g>
                </g>
            </g>
        </g>
    </g>
</svg>
