<?xml version="1.0" encoding="UTF-8" standalone="no"?>
<!DOCTYPE svg PUBLIC "-//W3C//DTD SVG 1.1//EN" "http://www.w3.org/Graphics/SVG/1.1/DTD/svg11.dtd">
<svg width="100%" height="100%" viewBox="0 0 90 90" version="1.1" xmlns="http://www.w3.org/2000/svg" xmlns:xlink="http://www.w3.org/1999/xlink" xml:space="preserve" xmlns:serif="http://www.serif.com/" style="fill-rule:evenodd;clip-rule:evenodd;stroke-linejoin:round;stroke-miterlimit:2;">
    <g transform="matrix(1,0,0,1,-614.616,-805.709)">
        <g transform="matrix(2.10535,0,0,1,553.492,757.247)">
            <g transform="matrix(0.350342,0,0,0.737594,-159.656,-298.593)">
                <path d="M660.603,482.725C660.603,475.991 655.135,470.523 648.401,470.523L550.786,470.523C544.052,470.523 538.584,475.991 538.584,482.725L538.584,580.34C538.584,587.074 544.052,592.541 550.786,592.541L648.401,592.541C655.135,592.541 660.603,587.074 660.603,580.34L660.603,482.725Z" style="fill:none;"/>
            </g>
        </g>
        <g transform="matrix(2.10535,0,0,1,553.492,757.247)">
            <g transform="matrix(-0.857648,-1.87613e-16,0,1.81279,50.4067,93.4619)">
                <g transform="matrix(1,0,0,1,-17,-13.5)">
                    <clipPath id="_clip1">
                        <rect x="0" y="0" width="34" height="27"/>
                    </clipPath>
                    <g clip-path="url(#_clip1)">
                        <path d="M13.483,6.61L14.32,2.432L16.671,5.408L21.244,0L22.401,6.47L26.643,5.2L24.731,8.511L33.762,7.709L25.638,12.778L30.207,16.429L25.134,17.854L30.051,26.368L20.543,21.25L19.89,26.393L16.009,21.962L13.336,23.116L13.35,18.669L13.278,18.628C12.106,17.893 11.299,16.865 10.476,15.386C8.672,15.723 6.905,16.82 5.122,17.975C4.6,18.314 3.922,18.294 3.42,17.926C0.245,15.597 -0.57,12.485 0.362,8.793C0.509,8.207 0.993,7.768 1.59,7.677L10.345,6.344C11.141,6.223 11.953,6.257 12.731,6.443L13.483,6.61ZM17.25,8.725L17.318,8.733L17.521,8.751L17.94,8.791L18.061,8.799L18.147,8.807L18.573,8.833L18.867,8.853L18.917,8.855C19.207,8.87 19.496,8.88 19.782,8.885C20.199,8.892 20.61,8.976 20.996,9.135C21.52,9.35 21.894,9.67 22.15,10.071C22.196,10.145 22.222,10.23 22.225,10.317C22.252,11.117 22.389,15.533 22.389,15.533C22.395,15.882 22.359,16.211 22.065,16.413C21.936,16.513 21.738,16.582 21.458,16.61C20.467,16.541 19.519,16.405 18.783,15.953C18.146,15.241 18.082,14.409 18.381,13.501L18.433,13.43C18.457,13.412 18.486,13.402 18.517,13.402C18.645,13.4 18.868,13.399 19.035,13.397C19.166,13.396 19.284,13.474 19.334,13.596C19.509,14.024 19.662,14.452 19.731,14.881C19.907,14.937 20.059,14.921 20.185,14.834C20.227,14.805 20.266,14.768 20.302,14.723C19.966,13.874 19.977,13.074 20.295,12.318C19.243,12.496 18.361,12.412 17.783,11.859C17.633,12.034 17.502,12.208 17.391,12.383L17.358,12.428L17.346,12.451C17.24,12.617 17.152,12.783 17.08,12.95L17.055,12.997L17.042,13.038C16.971,13.202 16.919,13.367 16.881,13.531L16.87,13.565L16.864,13.615C16.825,13.783 16.806,13.952 16.801,14.12L16.799,14.134L16.802,14.169L16.805,14.413L16.838,14.676L16.84,14.703L16.842,14.713C16.873,14.883 16.917,15.053 16.975,15.223L16.988,15.272L17.002,15.304C17.062,15.468 17.135,15.633 17.221,15.797L17.24,15.84L17.269,15.887C17.355,16.047 17.455,16.206 17.566,16.366L17.592,16.409L17.689,16.524L18.033,16.967L20.129,17.548C20.188,17.564 20.235,17.61 20.251,17.669C20.268,17.728 20.252,17.792 20.211,17.836L19.687,18.397C19.591,18.5 19.457,18.558 19.317,18.555L19.025,18.538L18.711,18.516L18.366,18.49L18.134,18.468L17.732,18.426L17.427,18.389L16.909,18.314L16.877,18.309L16.659,18.269L16.3,18.198L16.068,18.146L15.634,18.031L15.4,17.958L15.183,17.883L14.963,17.801L14.705,17.689L14.646,17.662C14.145,17.426 13.727,17.138 13.356,16.79L13.356,16.804C12.628,16.136 12.083,15.245 11.473,14.072C11.38,13.896 11.192,13.791 10.994,13.804C8.74,13.989 6.521,15.281 4.307,16.716C1.684,14.793 1.047,12.21 1.816,9.16C1.816,9.16 8.15,8.195 10.57,7.827C11.175,7.735 11.793,7.761 12.388,7.903C13.949,8.27 15.607,8.559 17.25,8.725Z" style="fill:rgb(15,0,45);"/>
                    </g>
                </g>
            </g>
        </g>
    </g>
</svg>
