<?xml version="1.0" encoding="UTF-8" standalone="no"?>
<!DOCTYPE svg PUBLIC "-//W3C//DTD SVG 1.1//EN" "http://www.w3.org/Graphics/SVG/1.1/DTD/svg11.dtd">
<svg width="100%" height="100%" viewBox="0 0 90 90" version="1.1" xmlns="http://www.w3.org/2000/svg" xmlns:xlink="http://www.w3.org/1999/xlink" xml:space="preserve" xmlns:serif="http://www.serif.com/" style="fill-rule:evenodd;clip-rule:evenodd;stroke-linecap:round;stroke-linejoin:round;stroke-miterlimit:1.5;">
    <g transform="matrix(1,0,0,1,-874.616,-805.709)">
        <g transform="matrix(2.10535,0,0,1,813.664,758.5)">
            <g transform="matrix(0.350342,0,0,0.737594,-159.738,-299.847)">
                <path d="M660.603,482.725C660.603,475.991 655.135,470.523 648.401,470.523L550.786,470.523C544.052,470.523 538.584,475.991 538.584,482.725L538.584,580.34C538.584,587.074 544.052,592.541 550.786,592.541L648.401,592.541C655.135,592.541 660.603,587.074 660.603,580.34L660.603,482.725Z" style="fill:none;"/>
            </g>
        </g>
        <g transform="matrix(2.10535,0,0,1,813.664,758.5)">
            <g transform="matrix(1,0,0,1,0.159828,1.83689)">
                <g transform="matrix(1.00612,-2.11825,0.477889,1.00612,-39.5119,120.16)">
                    <g>
                        <g transform="matrix(4.74241,2.67532,-0.527918,4.148,-223.857,-342.286)">
                            <path d="M65.96,58.396L65.919,56.808C65.918,56.734 65.898,56.668 65.87,56.639C65.841,56.61 65.808,56.623 65.785,56.671L65.453,57.361C65.259,57.13 65.036,56.998 64.801,56.998C64.567,56.998 64.347,57.126 64.155,57.352C64.155,57.352 63.828,56.671 63.828,56.671C63.804,56.623 63.771,56.61 63.743,56.639C63.714,56.668 63.695,56.734 63.693,56.808L63.654,58.353C63.506,58.84 63.421,59.424 63.421,60.054C63.421,61.732 64.036,63.109 64.801,63.109C65.563,63.109 66.18,61.732 66.18,60.054C66.18,59.443 66.099,58.874 65.96,58.396ZM65.88,58.465L65.838,56.82L65.464,57.596C65.27,57.341 65.043,57.194 64.801,57.194C64.561,57.194 64.336,57.337 64.143,57.587L63.774,56.82L63.734,58.424C63.588,58.886 63.503,59.447 63.503,60.054C63.503,61.629 64.083,62.913 64.801,62.913C65.516,62.913 66.099,61.629 66.099,60.054C66.099,59.465 66.018,58.919 65.88,58.465Z" style="fill:white;"/>
                        </g>
                        <g transform="matrix(0.458795,0.258819,-0.122934,0.965926,-731.465,-451.407)">
                            <path d="M1723.88,91.998C1725.09,91.209 1726.28,90.679 1727.45,90.361C1727.95,90.224 1728.46,90.128 1728.96,90.073C1729.3,90.037 1729.64,90.02 1729.98,90.019C1730.32,90.018 1730.66,90.033 1731,90.067C1731.5,90.118 1732,90.209 1732.51,90.345C1733.68,90.66 1734.87,91.2 1736.06,91.997C1736.13,92.048 1736.23,92.034 1736.28,91.965C1736.33,91.895 1736.32,91.798 1736.25,91.746C1735.09,90.794 1733.92,90.097 1732.72,89.668C1732.18,89.475 1731.64,89.34 1731.1,89.259C1730.72,89.204 1730.35,89.175 1729.98,89.176C1729.6,89.177 1729.23,89.207 1728.85,89.264C1728.31,89.345 1727.77,89.479 1727.23,89.673C1726.04,90.101 1724.87,90.798 1723.7,91.746C1723.63,91.796 1723.61,91.894 1723.66,91.964C1723.72,92.033 1723.81,92.048 1723.88,91.998Z" style="fill:white;"/>
                        </g>
                    </g>
                </g>
                <g transform="matrix(0.643649,-1.35511,0.307726,0.647872,-182.08,223.597)">
                    <g transform="matrix(0.162476,0,0,0.342069,116.203,148.577)">
                        <path d="M697.742,262.332C639.261,262.332 591.725,309.754 591.725,368.234C591.725,426.715 639.262,474.137 697.742,474.137C756.223,474.137 803.759,426.715 803.759,368.234C803.759,309.754 756.223,262.332 697.742,262.332L697.742,262.332ZM697.742,279.815C746.542,279.815 786.161,319.434 786.161,368.234C786.161,417.034 746.542,456.653 697.742,456.653C648.942,456.653 609.323,417.034 609.323,368.234C609.323,319.434 648.942,279.815 697.742,279.815Z" style="fill:white;"/>
                    </g>
                    <g transform="matrix(0.47498,0,0,1,0,0)">
                        <path d="M453.079,274.539L513.57,274.539" style="fill:none;stroke:white;stroke-width:6px;"/>
                    </g>
                </g>
            </g>
        </g>
    </g>
</svg>
