<?xml version="1.0" encoding="UTF-8" standalone="no"?>
<!DOCTYPE svg PUBLIC "-//W3C//DTD SVG 1.1//EN" "http://www.w3.org/Graphics/SVG/1.1/DTD/svg11.dtd">
<svg width="100%" height="100%" viewBox="0 0 90 90" version="1.1" xmlns="http://www.w3.org/2000/svg" xmlns:xlink="http://www.w3.org/1999/xlink" xml:space="preserve" xmlns:serif="http://www.serif.com/" style="fill-rule:evenodd;clip-rule:evenodd;stroke-linejoin:round;stroke-miterlimit:2;">
    <g transform="matrix(1,0,0,1,-1134.62,-805.709)">
        <g transform="matrix(2.10535,0,0,1,1073.66,758.5)">
            <g transform="matrix(0.350342,0,0,0.737594,-159.738,-299.847)">
                <path d="M660.603,482.725C660.603,475.991 655.135,470.523 648.401,470.523L550.786,470.523C544.052,470.523 538.584,475.991 538.584,482.725L538.584,580.34C538.584,587.074 544.052,592.541 550.786,592.541L648.401,592.541C655.135,592.541 660.603,587.074 660.603,580.34L660.603,482.725Z" style="fill:none;"/>
            </g>
        </g>
        <g transform="matrix(2.10535,0,0,1,1073.66,758.5)">
            <g transform="matrix(1,0,0,1,2.46817,-17.5391)">
                <g transform="matrix(1.24287,-0.701139,0.158181,1.24287,-22.1272,47.4141)">
                    <g>
                        <g transform="matrix(4.74241,2.67532,-0.527918,4.148,-223.857,-342.286)">
                            <path d="M65.968,58.389L65.928,56.807C65.926,56.724 65.905,56.652 65.873,56.62C65.841,56.588 65.805,56.602 65.779,56.656L65.451,57.336C65.257,57.107 65.036,56.977 64.801,56.977C64.568,56.977 64.349,57.104 64.157,57.327C64.157,57.327 63.833,56.656 63.833,56.656C63.807,56.602 63.771,56.588 63.739,56.62C63.708,56.652 63.686,56.724 63.684,56.807L63.645,58.346C63.498,58.835 63.412,59.422 63.412,60.054C63.412,61.743 64.031,63.13 64.801,63.13C65.568,63.13 66.189,61.743 66.189,60.054C66.189,59.44 66.108,58.869 65.968,58.389ZM65.88,58.465L65.838,56.82L65.464,57.596C65.27,57.341 65.043,57.194 64.801,57.194C64.561,57.194 64.336,57.337 64.143,57.587L63.774,56.82L63.734,58.424C63.588,58.886 63.503,59.447 63.503,60.054C63.503,61.629 64.083,62.913 64.801,62.913C65.516,62.913 66.099,61.629 66.099,60.054C66.099,59.465 66.018,58.919 65.88,58.465Z" style="fill:white;"/>
                        </g>
                        <g transform="matrix(0.458795,0.258819,0.122934,-0.965926,-753.773,-276.121)">
                            <path d="M1724.04,90.78C1725.16,89.869 1726.53,89.297 1727.97,89.038C1728.54,88.935 1729.12,88.888 1729.7,88.886C1730.09,88.885 1730.48,88.905 1730.86,88.951C1731.25,88.998 1731.64,89.07 1732.01,89.163C1732.6,89.311 1733.15,89.507 1733.66,89.747C1735.24,90.496 1736.35,91.624 1736.53,92.924C1736.55,93.017 1736.49,93.108 1736.4,93.126C1736.3,93.144 1736.21,93.083 1736.19,92.99C1735.95,92.028 1735.11,91.268 1733.97,90.728C1733.58,90.546 1733.16,90.394 1732.72,90.262C1732.1,90.079 1731.44,89.955 1730.75,89.877C1730.4,89.837 1730.04,89.804 1729.68,89.789C1729.15,89.767 1728.61,89.779 1728.07,89.829C1726.71,89.956 1725.37,90.323 1724.24,91.058C1724.17,91.114 1724.06,91.098 1724,91.021C1723.95,90.944 1723.96,90.836 1724.04,90.78Z" style="fill:white;"/>
                        </g>
                    </g>
                </g>
                <g transform="matrix(1.24287,-0.701139,0.158181,1.24287,-27.6082,47.4141)">
                    <g>
                        <g transform="matrix(4.74241,2.67532,-0.527918,4.148,-223.857,-342.286)">
                            <path d="M64.418,57.417C64.395,57.434 64.373,57.452 64.351,57.472C64.335,57.487 64.318,57.502 64.302,57.518C64.281,57.465 64.227,57.333 64.167,57.192C64.147,57.143 64.125,57.093 64.104,57.046C64.027,56.877 63.958,56.735 63.958,56.735C63.944,56.707 63.925,56.7 63.909,56.716C63.893,56.733 63.882,56.771 63.881,56.813L63.841,58.383C63.769,58.619 63.712,58.879 63.672,59.157C63.632,59.44 63.61,59.741 63.61,60.054C63.61,60.816 63.739,61.516 63.954,62.043C64.059,62.3 64.183,62.522 64.325,62.677C64.366,62.722 64.409,62.76 64.453,62.792C64.552,62.862 64.656,62.899 64.764,62.911C64.77,62.913 64.776,62.902 64.777,62.887C64.778,62.871 64.773,62.857 64.767,62.855C64.665,62.801 64.571,62.716 64.48,62.617C64.44,62.575 64.402,62.529 64.365,62.481C64.236,62.32 64.119,62.123 64.022,61.884C63.824,61.397 63.702,60.757 63.701,60.054C63.701,59.766 63.721,59.489 63.758,59.228C63.796,58.962 63.853,58.714 63.924,58.49C63.929,58.473 63.932,58.452 63.933,58.43L63.968,57.052C63.991,57.099 64.018,57.152 64.046,57.207C64.069,57.251 64.092,57.295 64.115,57.337C64.202,57.494 64.281,57.63 64.281,57.63C64.288,57.646 64.299,57.648 64.308,57.637C64.327,57.607 64.346,57.578 64.366,57.55C64.386,57.522 64.406,57.495 64.427,57.47C64.433,57.464 64.436,57.447 64.433,57.433C64.431,57.418 64.424,57.411 64.418,57.417Z" style="fill:white;"/>
                        </g>
                        <g transform="matrix(4.74241,2.67532,-0.527918,4.148,-227.317,-344.238)">
                            <path d="M64.418,57.417C64.395,57.434 64.373,57.452 64.351,57.472C64.335,57.487 64.318,57.502 64.302,57.518C64.281,57.465 64.227,57.333 64.167,57.192C64.147,57.143 64.125,57.093 64.104,57.046C64.027,56.877 63.958,56.735 63.958,56.735C63.944,56.707 63.925,56.7 63.909,56.716C63.893,56.733 63.882,56.771 63.881,56.813L63.841,58.383C63.769,58.619 63.712,58.879 63.672,59.157C63.632,59.44 63.61,59.741 63.61,60.054C63.61,60.816 63.739,61.516 63.954,62.043C64.059,62.3 64.183,62.522 64.325,62.677C64.366,62.722 64.409,62.76 64.453,62.792C64.552,62.862 64.656,62.899 64.764,62.911C64.77,62.913 64.776,62.902 64.777,62.887C64.778,62.871 64.773,62.857 64.767,62.855C64.665,62.801 64.571,62.716 64.48,62.617C64.44,62.575 64.402,62.529 64.365,62.481C64.236,62.32 64.119,62.123 64.022,61.884C63.824,61.397 63.702,60.757 63.701,60.054C63.701,59.766 63.721,59.489 63.758,59.228C63.796,58.962 63.853,58.714 63.924,58.49C63.929,58.473 63.932,58.452 63.933,58.43L63.968,57.052C63.991,57.099 64.018,57.152 64.046,57.207C64.069,57.251 64.092,57.295 64.115,57.337C64.202,57.494 64.281,57.63 64.281,57.63C64.288,57.646 64.299,57.648 64.308,57.637C64.327,57.607 64.346,57.578 64.366,57.55C64.386,57.522 64.406,57.495 64.427,57.47C64.433,57.464 64.436,57.447 64.433,57.433C64.431,57.418 64.424,57.411 64.418,57.417Z" style="fill:white;"/>
                        </g>
                        <g transform="matrix(4.74241,2.67532,-0.527918,4.148,-231.005,-346.319)">
                            <path d="M64.418,57.417C64.395,57.434 64.373,57.452 64.351,57.472C64.335,57.487 64.318,57.502 64.302,57.518C64.281,57.465 64.227,57.333 64.167,57.192C64.147,57.143 64.125,57.093 64.104,57.046C64.027,56.877 63.958,56.735 63.958,56.735C63.944,56.707 63.925,56.7 63.909,56.716C63.893,56.733 63.882,56.771 63.881,56.813L63.841,58.383C63.769,58.619 63.712,58.879 63.672,59.157C63.632,59.44 63.61,59.741 63.61,60.054C63.61,60.816 63.739,61.516 63.954,62.043C64.059,62.3 64.183,62.522 64.325,62.677C64.366,62.722 64.409,62.76 64.453,62.792C64.552,62.862 64.656,62.899 64.764,62.911C64.77,62.913 64.776,62.902 64.777,62.887C64.778,62.871 64.773,62.857 64.767,62.855C64.665,62.801 64.571,62.716 64.48,62.617C64.44,62.575 64.402,62.529 64.365,62.481C64.236,62.32 64.119,62.123 64.022,61.884C63.824,61.397 63.702,60.757 63.701,60.054C63.701,59.766 63.721,59.489 63.758,59.228C63.796,58.962 63.853,58.714 63.924,58.49C63.929,58.473 63.932,58.452 63.933,58.43L63.968,57.052C63.991,57.099 64.018,57.152 64.046,57.207C64.069,57.251 64.092,57.295 64.115,57.337C64.202,57.494 64.281,57.63 64.281,57.63C64.288,57.646 64.299,57.648 64.308,57.637C64.327,57.607 64.346,57.578 64.366,57.55C64.386,57.522 64.406,57.495 64.427,57.47C64.433,57.464 64.436,57.447 64.433,57.433C64.431,57.418 64.424,57.411 64.418,57.417Z" style="fill:white;"/>
                        </g>
                    </g>
                </g>
            </g>
        </g>
    </g>
</svg>
