<?xml version="1.0" encoding="UTF-8" standalone="no"?>
<!DOCTYPE svg PUBLIC "-//W3C//DTD SVG 1.1//EN" "http://www.w3.org/Graphics/SVG/1.1/DTD/svg11.dtd">
<svg width="100%" height="100%" viewBox="0 0 90 90" version="1.1" xmlns="http://www.w3.org/2000/svg" xmlns:xlink="http://www.w3.org/1999/xlink" xml:space="preserve" xmlns:serif="http://www.serif.com/" style="fill-rule:evenodd;clip-rule:evenodd;stroke-linejoin:round;stroke-miterlimit:2;">
    <g transform="matrix(1,0,0,1,-485.037,-76.5417)">
        <g transform="matrix(2.10535,0,0,1,424.085,29.3332)">
            <g transform="matrix(0.350342,0,0,0.737594,-159.738,-299.847)">
                <path d="M660.603,482.725C660.603,475.991 655.135,470.523 648.401,470.523L550.786,470.523C544.052,470.523 538.584,475.991 538.584,482.725L538.584,580.34C538.584,587.074 544.052,592.541 550.786,592.541L648.401,592.541C655.135,592.541 660.603,587.074 660.603,580.34L660.603,482.725Z" style="fill:none;"/>
            </g>
        </g>
        <g transform="matrix(2.10535,0,0,1,424.085,29.3332)">
            <g transform="matrix(0.0631479,0,0,0.132949,-16.696,-88.3444)">
                <path d="M924.46,1436.57L924.459,1436.02C924.459,1436.2 924.459,1436.38 924.46,1436.57ZM1184.21,1496.81C1181.1,1504.11 1177.44,1511.16 1173.25,1517.89C1173.34,1517.74 1173.43,1517.59 1173.52,1517.44L1236.17,1580.09C1236.17,1580.09 1282.13,1581.39 1282.13,1581.39C1282.13,1581.39 1279.94,1536.46 1279.94,1536.46L1195.76,1452.28L1195.7,1452.79C1194.71,1461.95 1192.91,1470.96 1190.34,1479.7L1240.93,1530.29C1244.06,1533.41 1244.06,1538.48 1240.93,1541.6C1237.81,1544.72 1232.74,1544.72 1229.62,1541.6L1184.39,1496.38L1184.21,1496.81ZM925.275,1452.04C925.275,1452.04 843.123,1534.19 843.123,1534.19C843.123,1534.19 841.829,1580.15 841.829,1580.15C841.829,1580.15 886.754,1577.95 886.754,1577.95L947.431,1517.28L947.23,1516.95C943.085,1510.18 939.465,1503.1 936.405,1495.77L936.317,1495.56L892.927,1538.95C889.805,1542.07 884.736,1542.07 881.614,1538.95C878.491,1535.83 878.491,1530.76 881.614,1527.63L930.451,1478.8L930.398,1478.61C927.932,1469.97 926.208,1461.08 925.275,1452.04ZM1162.59,1436.02C1162.64,1474.71 1144.02,1511.11 1112.75,1533.57L1060.53,1571.09L1008.31,1533.57C977.035,1511.11 958.464,1474.71 958.464,1436.02L958.464,1328.24C994.138,1331.3 1029.86,1322.95 1060.53,1304.41C1091.19,1322.95 1126.92,1331.3 1162.59,1328.24L1162.59,1436.02ZM956.36,1530.24L956.376,1530.27L956.36,1530.24ZM956.05,1529.84L956.065,1529.86L956.05,1529.84ZM1166.12,1528.36L1166.08,1528.41L1166.11,1528.38L1166.12,1528.36ZM1166.43,1527.94L1166.38,1528.01L1166.41,1527.97L1166.43,1527.94ZM1166.74,1527.51L1166.68,1527.6L1166.71,1527.56L1166.74,1527.51ZM1167.05,1527.1L1166.99,1527.17L1167.01,1527.15L1167.05,1527.1ZM1167.34,1526.69L1167.3,1526.75L1167.31,1526.74L1167.34,1526.69ZM1168.79,1524.65L1168.74,1524.72L1168.78,1524.66L1168.79,1524.65ZM1169.1,1524.21L1169.02,1524.32L1169.07,1524.25L1169.1,1524.21ZM1169.4,1523.77L1169.32,1523.89L1169.36,1523.83L1169.4,1523.77ZM1169.69,1523.34L1169.61,1523.46L1169.65,1523.41L1169.69,1523.34ZM1169.99,1522.91L1169.91,1523.02L1169.93,1522.99L1169.99,1522.91ZM1170.27,1522.5L1170.21,1522.58L1170.22,1522.57L1170.27,1522.5ZM1171.35,1520.86L1171.29,1520.95L1171.34,1520.87L1171.35,1520.86ZM1171.64,1520.41L1171.55,1520.55L1171.62,1520.45L1171.64,1520.41ZM1171.94,1519.96L1171.83,1520.12L1171.9,1520.02L1171.94,1519.96ZM1172.23,1519.5L1172.12,1519.68L1172.17,1519.59L1172.23,1519.5ZM1172.52,1519.05L1172.4,1519.24L1172.44,1519.16L1172.52,1519.05ZM1172.81,1518.59L1172.68,1518.79L1172.72,1518.74L1172.81,1518.59ZM1173.11,1518.11L1172.97,1518.34L1172.99,1518.31L1173.11,1518.11ZM947.962,1518.13L947.972,1518.15L947.962,1518.13ZM947.691,1517.7L947.703,1517.72L947.691,1517.7ZM1184.61,1495.87L1184.6,1495.88L1184.61,1495.87ZM1184.83,1495.35L1184.81,1495.38L1184.83,1495.35ZM1185.04,1494.84L1185.02,1494.88L1185.04,1494.84ZM1185.25,1494.32L1185.23,1494.37L1185.25,1494.32ZM1185.45,1493.81L1185.43,1493.86L1185.45,1493.82L1185.45,1493.81ZM1185.66,1493.29L1185.64,1493.35L1185.65,1493.31L1185.66,1493.29ZM1185.87,1492.77L1185.84,1492.84L1185.86,1492.79L1185.87,1492.77ZM1186.07,1492.26L1186.04,1492.32L1186.06,1492.28L1186.07,1492.26ZM1186.27,1491.74L1186.24,1491.81L1186.26,1491.76L1186.27,1491.74ZM1186.47,1491.22L1186.44,1491.29L1186.46,1491.25L1186.47,1491.22ZM1186.66,1490.7L1186.64,1490.77L1186.65,1490.73L1186.66,1490.7ZM1186.86,1490.18L1186.83,1490.25L1186.85,1490.21L1186.86,1490.18ZM1187.05,1489.66L1187.03,1489.73L1187.04,1489.69L1187.05,1489.66ZM1187.24,1489.13L1187.22,1489.21L1187.23,1489.17L1187.24,1489.13ZM1187.43,1488.61L1187.41,1488.69L1187.42,1488.65L1187.43,1488.61ZM1187.62,1488.09L1187.59,1488.16L1187.61,1488.13L1187.62,1488.09ZM1187.81,1487.56L1187.78,1487.64L1187.79,1487.61L1187.81,1487.56ZM1187.99,1487.04L1187.96,1487.11L1187.97,1487.09L1187.99,1487.04ZM1188.17,1486.52L1188.15,1486.59L1188.15,1486.56L1188.17,1486.52ZM1188.35,1485.99L1188.33,1486.06L1188.34,1486.04L1188.35,1485.99ZM1188.53,1485.46L1188.51,1485.54L1188.51,1485.52L1188.53,1485.46ZM1188.71,1484.94L1188.68,1485.01L1188.69,1484.99L1188.71,1484.94ZM1188.88,1484.41L1188.86,1484.48L1188.86,1484.46L1188.88,1484.41ZM1189.05,1483.88L1189.03,1483.95L1189.03,1483.94L1189.05,1483.88ZM1189.22,1483.35L1189.2,1483.42L1189.2,1483.41L1189.22,1483.35ZM1189.39,1482.82L1189.37,1482.89L1189.37,1482.88L1189.39,1482.82ZM1189.56,1482.29L1189.54,1482.36L1189.56,1482.29ZM1189.72,1481.76L1189.7,1481.83L1189.72,1481.76ZM1189.89,1481.23L1189.87,1481.3L1189.89,1481.23ZM1190.05,1480.69L1190.03,1480.77L1190.05,1480.69ZM1190.22,1480.13L1190.19,1480.23L1190.22,1480.13ZM1195.81,1451.74L1195.79,1451.93L1195.81,1451.77L1195.81,1451.74ZM1195.87,1451.19L1195.84,1451.42L1195.86,1451.27L1195.87,1451.19ZM1195.92,1450.65L1195.89,1450.9L1195.91,1450.77L1195.92,1450.65ZM1195.97,1450.1L1195.94,1450.36L1195.95,1450.26L1195.97,1450.1ZM1196.02,1449.55L1195.99,1449.83L1196,1449.76L1196.02,1449.55ZM925.039,1449.55L925.043,1449.6L925.037,1449.52L925.039,1449.55ZM1196.07,1448.96L1196.04,1449.29L1196.04,1449.25L1196.07,1448.96ZM924.996,1449.05L925.001,1449.11L924.992,1449L924.996,1449.05ZM1196.13,1448.22L1196.09,1448.75C1196.1,1448.57 1196.11,1448.4 1196.13,1448.22ZM924.955,1448.55L924.959,1448.59L924.95,1448.48L924.955,1448.55ZM924.916,1448.06L924.918,1448.07L924.911,1447.99L924.916,1448.06ZM1196.17,1447.68L1196.14,1448.02L1196.16,1447.73L1196.17,1447.68ZM1196.21,1447.13L1196.19,1447.45L1196.2,1447.23L1196.21,1447.13ZM1196.25,1446.58L1196.23,1446.9L1196.24,1446.72L1196.25,1446.58ZM924.808,1446.56L924.813,1446.63L924.808,1446.55L924.808,1446.56ZM1196.28,1446.03L1196.26,1446.35L1196.27,1446.21L1196.28,1446.03ZM924.775,1446.06L924.784,1446.19L924.772,1446.01L924.775,1446.06ZM1196.32,1445.47L1196.3,1445.8L1196.3,1445.71L1196.32,1445.47ZM924.744,1445.56L924.752,1445.68L924.739,1445.47L924.744,1445.56ZM1196.35,1444.86L1196.33,1445.26L1196.33,1445.2L1196.35,1444.86ZM924.715,1445.06L924.72,1445.15L924.707,1444.92L924.715,1445.06ZM1196.39,1444.17L1196.36,1444.71C1196.37,1444.53 1196.38,1444.35 1196.39,1444.17ZM924.687,1444.56L924.69,1444.62L924.677,1444.38L924.687,1444.56ZM924.66,1444.06L924.662,1444.09L924.648,1443.81L924.66,1444.06ZM1196.42,1443.62L1196.4,1444.03L1196.41,1443.67L1196.42,1443.62ZM1196.44,1443.07L1196.43,1443.42L1196.44,1443.17L1196.44,1443.07ZM924.612,1443.06L924.629,1443.41L924.612,1443.04L924.612,1443.06ZM1196.47,1442.52L1196.45,1442.85L1196.46,1442.66L1196.47,1442.52ZM924.591,1442.56L924.601,1442.8L924.588,1442.49L924.591,1442.56ZM1196.49,1441.97L1196.48,1442.3L1196.48,1442.15L1196.49,1441.97ZM924.571,1442.05L924.579,1442.25L924.567,1441.94L924.571,1442.05ZM1196.51,1441.4L1196.5,1441.75L1196.5,1441.64L1196.51,1441.4ZM924.553,1441.55L924.558,1441.7L924.547,1441.39L924.553,1441.55ZM1196.53,1440.81L1196.52,1441.2L1196.52,1441.13L1196.53,1440.81ZM924.536,1441.05L924.54,1441.15L924.53,1440.83L924.536,1441.05ZM1196.55,1440.1L1196.53,1440.65C1196.54,1440.47 1196.54,1440.28 1196.55,1440.1ZM924.521,1440.55L924.523,1440.61L924.513,1440.24L924.521,1440.55ZM924.496,1439.53C924.5,1439.71 924.504,1439.89 924.508,1440.07L924.496,1439.53ZM1196.56,1439.55L1196.55,1440.02L1196.56,1439.6L1196.56,1439.55ZM924.486,1439.04L924.493,1439.39L924.485,1438.98L924.486,1439.04ZM1196.57,1439L1196.56,1439.36L1196.57,1439.09L1196.57,1439ZM1196.58,1438.45L1196.58,1438.79L1196.58,1438.58L1196.58,1438.45ZM924.477,1438.54L924.481,1438.78L924.476,1438.43L924.477,1438.54ZM1196.59,1437.9L1196.58,1438.23L1196.59,1438.07L1196.59,1437.9ZM924.47,1438.04L924.473,1438.22L924.469,1437.88L924.47,1438.04ZM1196.59,1437.33L1196.59,1437.67L1196.59,1437.56L1196.59,1437.33ZM924.465,1437.53L924.467,1437.66L924.464,1437.32L924.465,1437.53ZM1196.6,1436.75L1196.59,1437.12L1196.6,1437.04L1196.6,1436.75ZM924.462,1437.03L924.462,1437.11L924.461,1436.75L924.462,1437.03ZM929.766,1296.05L929.715,1296.1L929.793,1296.03L929.766,1296.05ZM929.899,1295.93L929.865,1295.96L929.963,1295.87L929.899,1295.93ZM1191.12,1295.89L1191.18,1295.95L1191.17,1295.94L1191.12,1295.89ZM930.177,1295.67C930.125,1295.72 930.072,1295.77 930.021,1295.82L930.177,1295.67ZM1190.9,1295.69L1191.01,1295.79L1190.93,1295.72L1190.9,1295.69ZM1190.7,1295.52L1190.85,1295.65L1190.81,1295.62L1190.7,1295.52ZM930.31,1295.56L930.211,1295.64L930.342,1295.53L930.31,1295.56ZM1190.53,1295.37L1190.69,1295.51L1190.57,1295.41L1190.53,1295.37ZM930.45,1295.44L930.396,1295.48L930.515,1295.38L930.45,1295.44ZM931.357,1294.72C931.146,1294.87 930.938,1295.03 930.734,1295.2L930.566,1295.34C930.621,1295.29 930.678,1295.25 930.734,1295.2C930.938,1295.03 931.146,1294.87 931.357,1294.72ZM1190.32,1295.2L1190.49,1295.34L1190.45,1295.3L1190.32,1295.2ZM982.377,1294.36L948.763,1260.75L932.794,1276.71L948.561,1292.48L947.791,1292.34C959.273,1294.51 970.896,1295.17 982.377,1294.36ZM1137.6,1294.28C1149.06,1295.18 1160.67,1294.62 1172.16,1292.55L1190.2,1274.51L1173.78,1258.09L1137.6,1294.28ZM983.001,1294.32L982.377,1294.36L983.103,1294.31L983.439,1294.28L983.001,1294.32ZM1188.97,1294.2L1189.08,1294.28L1188.97,1294.2L1188.86,1294.13L1188.97,1294.2ZM1136.26,1294.17C1136.55,1294.19 1136.83,1294.21 1137.12,1294.24L1136.98,1294.23C1136.77,1294.21 1136.56,1294.19 1136.36,1294.17L1136.26,1294.17ZM984.17,1294.22L983.728,1294.26L983.964,1294.24L984.17,1294.22ZM984.871,1294.16L984.466,1294.2L984.824,1294.17L985.228,1294.13L984.871,1294.16ZM1135.4,1294.09L1135.71,1294.12L1135.14,1294.06L1135.4,1294.09ZM985.958,1294.06L985.529,1294.1L985.684,1294.09L985.958,1294.06ZM933.734,1293.24C933.248,1293.49 932.772,1293.76 932.309,1294.06C932.839,1293.72 933.386,1293.41 933.946,1293.13L933.734,1293.24ZM1134.54,1294L1135.07,1294.05L1134.5,1294L1133.9,1293.94L1134.54,1294ZM986.698,1293.99L986.272,1294.03L986.543,1294L986.698,1293.99ZM987.359,1293.92L987.027,1293.95L987.401,1293.91L987.738,1293.88L987.359,1293.92ZM1133.68,1293.91L1133.88,1293.93L1133.36,1293.88L1133.68,1293.91ZM1132.83,1293.82L1133.16,1293.86L1132.65,1293.8L1132.83,1293.82ZM988.483,1293.79L988.065,1293.84L988.259,1293.82L988.483,1293.79ZM1131.97,1293.72L1132.6,1293.79L1132.03,1293.73L1131.59,1293.67L1131.97,1293.72ZM989.221,1293.7L988.809,1293.75L989.116,1293.72L989.35,1293.69L989.221,1293.7ZM1131.11,1293.61L1131.34,1293.64L1130.88,1293.58L1131.11,1293.61ZM990.267,1293.57L989.851,1293.63L989.972,1293.61L990.267,1293.57ZM1130.26,1293.5L1130.61,1293.55L1130.18,1293.49L1129.81,1293.44L1130.26,1293.5ZM991.009,1293.48L990.591,1293.53L990.827,1293.5L991.009,1293.48ZM991.699,1293.38L991.333,1293.43L991.682,1293.38L992.051,1293.33L991.699,1293.38ZM1129.4,1293.38L1129.55,1293.4L1129.12,1293.34L1129.4,1293.38ZM1128.55,1293.26L1128.81,1293.3L1128.39,1293.24L1128.55,1293.26ZM992.795,1293.22L992.368,1293.29L992.536,1293.26L992.795,1293.22ZM1127.7,1293.13L1128.07,1293.19L1127.73,1293.14L1127.36,1293.08L1127.7,1293.13ZM993.532,1293.11L993.1,1293.18L993.389,1293.13L993.532,1293.11ZM1187.1,1293.13L1186.9,1293.03L1186.68,1292.93C1186.82,1293 1186.96,1293.06 1187.1,1293.13ZM994.169,1293.01L993.791,1293.07L994.241,1293L994.593,1292.94L994.169,1293.01ZM1126.85,1293L1127.03,1293.03L1126.62,1292.96L1126.85,1293ZM1125.99,1292.86L1126.3,1292.91L1125.89,1292.84L1125.65,1292.8L1125.99,1292.86ZM995.319,1292.82L994.869,1292.9L995.092,1292.86L995.319,1292.82ZM996.017,1292.7L995.579,1292.78L995.942,1292.72L996.578,1292.61L996.017,1292.7ZM1125.14,1292.72L1125.27,1292.74L1124.84,1292.66L1125.14,1292.72ZM1124.3,1292.57L1124.54,1292.61L1124.11,1292.53L1124.3,1292.57ZM997.12,1292.51L996.636,1292.6L996.792,1292.57L997.12,1292.51ZM1172.65,1292.46L1172.16,1292.55L1172.6,1292.47L1172.88,1292.42L1172.65,1292.46ZM935.91,1292.32L935.688,1292.39C935.557,1292.44 935.428,1292.49 935.299,1292.54C935.502,1292.46 935.705,1292.39 935.91,1292.32ZM1123.45,1292.41L1123.84,1292.48L1123.44,1292.41L1123.02,1292.33L1123.45,1292.41ZM997.837,1292.38L997.347,1292.47L997.64,1292.41L997.837,1292.38ZM998.474,1292.26L997.969,1292.35L998.487,1292.25L998.996,1292.15L998.474,1292.26ZM1173.56,1292.29L1173.3,1292.34L1173.47,1292.31L1173.56,1292.29ZM947.637,1292.31L947.674,1292.31L946.999,1292.18L947.637,1292.31ZM1122.6,1292.25L1122.79,1292.29L1122.32,1292.2L1122.6,1292.25ZM1185.04,1292.28L1184.93,1292.24L1185.04,1292.28ZM1174.42,1292.12L1174.24,1292.16L1174.33,1292.14L1174.42,1292.12ZM1120.49,1291.83L1121,1291.93C1121.21,1291.98 1121.41,1292.02 1121.61,1292.06L1122.09,1292.15C1121.56,1292.05 1121.02,1291.94 1120.49,1291.83ZM946.775,1292.14L946.795,1292.14L946.155,1292.02L946.775,1292.14ZM999.637,1292.03L999.11,1292.13L999.334,1292.09L999.637,1292.03ZM1000.92,1291.76C1000.72,1291.8 1000.51,1291.85 1000.31,1291.89L1000.18,1291.92C1000.46,1291.86 1000.74,1291.8 1001.02,1291.74L1000.92,1291.76ZM1175.26,1291.95L1175.15,1291.98L1175.19,1291.97L1175.26,1291.95ZM945.923,1291.97L945.054,1291.79C945.344,1291.85 945.634,1291.91 945.923,1291.97ZM1183.11,1291.75C1183.41,1291.81 1183.7,1291.88 1184,1291.96C1183.78,1291.9 1183.56,1291.85 1183.34,1291.8L1183.11,1291.75ZM1120.07,1291.74L1120.35,1291.8L1119.81,1291.68L1120.07,1291.74ZM938.811,1291.59C938.54,1291.64 938.27,1291.68 938.002,1291.74C938.271,1291.68 938.54,1291.63 938.811,1291.59ZM1118.38,1291.37C1118.66,1291.43 1118.94,1291.5 1119.22,1291.56L1119.18,1291.55C1118.98,1291.5 1118.78,1291.46 1118.58,1291.41L1118.38,1291.37ZM1028.37,1282.82C1027.89,1283.04 1027.42,1283.25 1026.94,1283.46L976.493,1233.02L960.076,1249.43L1002.14,1291.5L1001.56,1291.62C1010.75,1289.64 1019.74,1286.69 1028.37,1282.82ZM1182.18,1291.58L1182.27,1291.6L1182.18,1291.58L1182.1,1291.57L1182.18,1291.58ZM939.354,1291.52C939.276,1291.53 939.197,1291.54 939.119,1291.55C939.197,1291.54 939.276,1291.53 939.354,1291.52ZM1181.25,1291.47C1181.35,1291.48 1181.44,1291.49 1181.55,1291.5C1181.45,1291.49 1181.35,1291.48 1181.25,1291.47ZM1178.89,1291.41C1178.58,1291.42 1178.27,1291.45 1177.96,1291.48C1178.27,1291.45 1178.58,1291.42 1178.89,1291.41ZM939.826,1291.47C939.982,1291.45 940.139,1291.44 940.296,1291.43L940.06,1291.44L939.826,1291.47ZM942.524,1291.43L942.673,1291.44L942.524,1291.43ZM1179.38,1291.39C1179.89,1291.38 1180.41,1291.4 1180.91,1291.44C1180.4,1291.4 1179.89,1291.38 1179.38,1291.39ZM941.72,1291.39L941.803,1291.39L941.72,1291.39L941.698,1291.39L941.72,1291.39ZM1117.97,1291.28L1162.47,1246.78L1146.5,1230.81L1093.95,1283.36L1093.57,1283.19C1101.45,1286.66 1109.62,1289.37 1117.97,1291.28ZM1093,1282.95L1093.28,1283.07L1092.99,1282.94L1092.74,1282.83L1093,1282.95ZM1028.85,1282.61L1028.38,1282.82L1028.89,1282.59L1029.28,1282.41L1028.85,1282.61ZM1092.21,1282.59L1092.4,1282.68L1092.07,1282.53L1092.21,1282.59ZM1030.28,1281.95L1030.73,1281.74C1030.28,1281.95 1029.82,1282.16 1029.37,1282.37L1029.81,1282.17C1029.96,1282.1 1030.12,1282.02 1030.28,1281.95ZM1091.42,1282.23L1091.54,1282.28L1091.23,1282.14L1091.42,1282.23ZM970.862,1216.02L982.727,1204.15C978.575,1202.69 974.03,1201.73 969.109,1201.22C969.096,1201.22 969.082,1201.22 969.068,1201.22C963.913,1200.67 958.784,1202.48 955.118,1206.14C955.117,1206.14 955.115,1206.14 955.114,1206.15C942.861,1218.38 918.984,1242.26 907.495,1253.75C907.495,1253.75 907.495,1253.75 907.495,1253.75C904.293,1256.95 902.486,1261.29 902.469,1265.81C902.469,1265.83 902.469,1265.85 902.469,1265.86C902.408,1272.2 903.09,1277.63 904.918,1281.96L904.917,1281.96L970.836,1216.04L970.862,1216.02ZM1090.63,1281.86L1090.83,1281.95L1090.61,1281.85L1090.47,1281.79L1090.63,1281.86ZM1031.23,1281.5L1030.83,1281.69L1031.25,1281.49L1031.62,1281.32L1031.23,1281.5ZM1089.85,1281.49L1090,1281.57L1089.73,1281.44L1089.85,1281.49ZM1032.65,1280.82L1033.07,1280.61C1032.63,1280.83 1032.2,1281.04 1031.76,1281.25L1032.18,1281.05C1032.34,1280.97 1032.49,1280.89 1032.65,1280.82ZM1089.07,1281.12L1089.15,1281.16L1088.91,1281.04L1089.07,1281.12ZM1088.29,1280.74L1088.43,1280.81L1088.24,1280.71L1088.21,1280.7L1088.29,1280.74ZM1207.2,1268.88L1219.06,1280.74C1220.53,1276.59 1221.49,1272.04 1221.99,1267.12C1221.99,1267.11 1221.99,1267.1 1222,1267.08C1222.55,1261.93 1220.74,1256.8 1217.07,1253.13C1217.07,1253.13 1217.07,1253.13 1217.07,1253.13C1204.83,1240.88 1180.96,1217 1169.47,1205.51C1169.47,1205.51 1169.47,1205.51 1169.47,1205.51C1166.27,1202.31 1161.93,1200.5 1157.4,1200.48C1157.39,1200.48 1157.37,1200.48 1157.35,1200.48C1151.02,1200.42 1145.58,1201.1 1141.25,1202.93L1141.25,1202.93L1207.17,1268.85L1207.2,1268.88ZM1033.59,1280.35L1033.23,1280.53L1033.6,1280.35L1033.95,1280.17L1033.59,1280.35ZM1087.51,1280.35L1087.63,1280.41L1087.4,1280.3L1087.51,1280.35ZM1035,1279.64L1035.4,1279.43C1034.97,1279.65 1034.55,1279.87 1034.12,1280.09L1034.53,1279.88C1034.69,1279.8 1034.84,1279.72 1035,1279.64ZM1086.73,1279.96L1086.8,1279.99L1086.59,1279.89L1086.73,1279.96ZM1085.95,1279.56L1086.09,1279.63L1085.91,1279.53L1085.95,1279.56ZM1035.93,1279.15L1035.6,1279.33L1035.92,1279.16L1036.25,1278.98L1035.93,1279.15ZM1085.18,1279.16L1085.3,1279.22L1085.08,1279.1L1085.18,1279.16ZM1036.86,1278.66L1036.46,1278.87L1036.69,1278.75L1036.86,1278.66ZM1084.41,1278.75L1084.47,1278.78L1084.28,1278.68L1084.41,1278.75ZM1037.33,1278.41L1037.05,1278.56L1037.46,1278.34L1037.7,1278.21L1037.33,1278.41ZM1083.64,1278.34L1083.78,1278.41L1083.59,1278.31L1083.64,1278.34ZM1038.25,1277.91L1037.94,1278.08L1038.22,1277.92L1038.52,1277.76L1038.25,1277.91ZM1082.88,1277.92L1083,1277.98L1082.76,1277.86L1082.88,1277.92ZM1039.15,1277.41L1038.79,1277.61L1038.99,1277.5L1039.15,1277.41ZM1082.12,1277.5L1082.18,1277.53L1081.96,1277.41L1082.12,1277.5ZM1039.63,1277.14L1039.54,1277.19L1039.75,1277.07L1039.97,1276.94L1039.63,1277.14ZM1081.36,1277.07L1081.52,1277.16L1081.28,1277.03L1081.36,1277.07ZM1040.55,1276.61L1040.27,1276.78L1040.51,1276.64L1040.75,1276.5L1040.55,1276.61ZM1080.6,1276.64L1080.72,1276.71L1080.45,1276.56L1080.6,1276.64ZM1041.41,1276.12L1041.09,1276.3L1041.26,1276.2L1041.41,1276.12ZM1079.84,1276.2L1079.99,1276.29L1079.9,1276.23L1079.64,1276.08L1079.84,1276.2ZM929.704,1208.92L921.003,1200.21L899.942,1221.28L908.641,1229.97C915.3,1223.32 922.835,1215.78 929.704,1208.92ZM1214.3,1227.72L1223,1219.02L1201.94,1197.96L1193.24,1206.65C1199.9,1213.31 1207.43,1220.85 1214.3,1227.72ZM875.581,1196.91L888.629,1209.96L909.689,1188.9L896.642,1175.85L875.581,1196.91ZM1226.3,1173.6L1213.25,1186.64L1234.31,1207.7L1247.36,1194.66L1226.3,1173.6ZM851.632,1172.96L864.268,1185.6L885.328,1164.54L872.693,1151.9L851.632,1172.96ZM1250.25,1149.65L1237.61,1162.28L1258.67,1183.34L1271.31,1170.71L1250.25,1149.65ZM860.831,1128.94C863.707,1131.82 863.707,1136.49 860.831,1139.36C860.831,1139.36 838.817,1161.38 838.817,1161.38C835.941,1164.25 831.271,1164.25 828.395,1161.38C825.519,1158.5 825.519,1153.83 828.395,1150.95C828.395,1150.95 850.409,1128.94 850.409,1128.94C853.285,1126.07 857.955,1126.07 860.831,1128.94ZM1294.27,1158.85C1291.4,1161.72 1286.73,1161.72 1283.85,1158.85C1283.85,1158.85 1261.84,1136.83 1261.84,1136.83C1258.96,1133.95 1258.96,1129.29 1261.84,1126.41C1264.71,1123.53 1269.38,1123.53 1272.26,1126.41C1272.26,1126.41 1294.27,1148.42 1294.27,1148.42C1297.15,1151.3 1297.15,1155.97 1294.27,1158.85ZM1196.6,1436.57L1196.6,1436.53L1196.6,1436.02L1196.6,1436.57ZM924.459,1308.54L924.459,1430.22L829.559,1525.12C828.114,1526.57 827.276,1528.51 827.219,1530.56L825.592,1588.33C825.529,1590.56 826.399,1592.71 827.991,1594.27C829.583,1595.83 831.753,1596.66 833.979,1596.55L890.618,1593.78C892.603,1593.69 894.48,1592.86 895.885,1591.45L956.678,1530.66C965.668,1542.3 976.371,1552.71 988.572,1561.47L1050.66,1605.96C1056.58,1610.19 1064.53,1610.19 1070.4,1605.96L1132.48,1561.47C1144.63,1552.75 1155.3,1542.39 1164.26,1530.81L1227.11,1593.66C1228.56,1595.1 1230.5,1595.94 1232.54,1596L1290.32,1597.62C1292.55,1597.69 1294.7,1596.82 1296.26,1595.22C1297.82,1593.63 1298.64,1591.46 1298.53,1589.24L1295.77,1532.6C1295.67,1530.61 1294.84,1528.74 1293.44,1527.33L1196.6,1430.49L1196.6,1308.54C1196.64,1303.78 1194.69,1299.28 1191.29,1296.05L1201.51,1285.82L1215.63,1299.93C1217.33,1301.64 1219.71,1302.48 1222.11,1302.23C1224.51,1301.98 1226.67,1300.67 1227.99,1298.65C1233.39,1290.35 1236.72,1280.38 1237.91,1268.76C1238.97,1258.8 1235.47,1248.9 1228.39,1241.82C1227.45,1240.89 1226.46,1239.89 1225.4,1238.83L1238.68,1225.55C1239.1,1225.27 1239.5,1224.94 1239.87,1224.57C1240.24,1224.2 1240.56,1223.81 1240.85,1223.39L1263.05,1201.19C1263.46,1200.9 1263.86,1200.58 1264.23,1200.21C1264.6,1199.84 1264.92,1199.44 1265.21,1199.03L1286.15,1178.08C1293.38,1178.94 1300.93,1176.59 1306.48,1171.05C1316.09,1161.44 1316.09,1145.83 1306.48,1136.22C1306.48,1136.22 1284.46,1114.21 1284.46,1114.21C1274.85,1104.6 1259.25,1104.6 1249.64,1114.21C1243.97,1119.88 1241.64,1127.64 1242.66,1135.02L1221.93,1155.75C1221.51,1156.03 1221.12,1156.36 1220.75,1156.73C1220.38,1157.1 1220.05,1157.49 1219.77,1157.91L1197.57,1180.11C1197.15,1180.39 1196.76,1180.72 1196.39,1181.09C1196.02,1181.46 1195.69,1181.86 1195.41,1182.27L1182.13,1195.55L1180.78,1194.19C1174.6,1188.01 1166.23,1184.52 1157.49,1184.48C1141.95,1184.34 1130.38,1188.5 1123.04,1196.56C1120.16,1199.72 1120.28,1204.59 1123.3,1207.61L1135.19,1219.5L1078.99,1275.7L1079.29,1275.88C1076.21,1274.06 1073.19,1272.12 1070.24,1270.05C1064.42,1265.98 1056.68,1265.98 1050.86,1270.05C1047.95,1272.1 1044.96,1274.02 1041.92,1275.82C1041.92,1275.82 987.807,1221.7 987.807,1221.7L1001.92,1207.59C1003.62,1205.88 1004.47,1203.5 1004.22,1201.1C1003.97,1198.7 1002.65,1196.55 1000.63,1195.23C992.34,1189.82 982.37,1186.5 970.746,1185.31C960.789,1184.25 950.886,1187.75 943.804,1194.83C942.872,1195.76 941.872,1196.76 940.816,1197.81L927.534,1184.53C927.252,1184.11 926.926,1183.72 926.557,1183.35C926.187,1182.98 925.791,1182.65 925.373,1182.37L903.173,1160.17C902.891,1159.75 902.565,1159.36 902.196,1158.99C901.826,1158.62 901.43,1158.29 901.012,1158.01L880.068,1137.07C880.925,1129.83 878.579,1122.29 873.032,1116.74C863.422,1107.13 847.818,1107.13 838.207,1116.74C838.207,1116.74 816.193,1138.75 816.193,1138.75C806.583,1148.36 806.583,1163.97 816.193,1173.58C821.864,1179.25 829.623,1181.57 837.005,1180.55L857.737,1201.28C858.019,1201.7 858.345,1202.1 858.714,1202.47C859.083,1202.84 859.48,1203.16 859.898,1203.44L882.098,1225.64C882.38,1226.06 882.706,1226.46 883.075,1226.83C883.444,1227.2 883.841,1227.52 884.259,1227.81L897.533,1241.08L896.181,1242.43C890,1248.61 886.51,1256.99 886.47,1265.73C886.324,1281.27 890.486,1292.84 898.55,1300.17C901.71,1303.05 906.571,1302.94 909.592,1299.92L921.481,1288.03L929.634,1296.18C926.321,1299.4 924.459,1303.84 924.459,1308.54ZM936.359,1292.17L936.134,1292.24C936.466,1292.13 936.801,1292.03 937.139,1291.94C936.877,1292.01 936.617,1292.09 936.359,1292.17ZM944.342,1291.65C944.5,1291.67 944.659,1291.71 944.817,1291.74L944.579,1291.69L944.342,1291.65ZM943.389,1291.51C943.548,1291.53 943.707,1291.55 943.865,1291.57L943.627,1291.54C943.468,1291.52 943.309,1291.5 943.15,1291.48L943.389,1291.51Z" style="fill:white;"/>
            </g>
        </g>
    </g>
</svg>
