<?xml version="1.0" encoding="UTF-8" standalone="no"?>
<!DOCTYPE svg PUBLIC "-//W3C//DTD SVG 1.1//EN" "http://www.w3.org/Graphics/SVG/1.1/DTD/svg11.dtd">
<svg width="100%" height="100%" viewBox="0 0 90 90" version="1.1" xmlns="http://www.w3.org/2000/svg" xmlns:xlink="http://www.w3.org/1999/xlink" xml:space="preserve" xmlns:serif="http://www.serif.com/" style="fill-rule:evenodd;clip-rule:evenodd;stroke-linejoin:round;stroke-miterlimit:2;">
    <g transform="matrix(1,0,0,1,-624.296,-76.5417)">
        <g transform="matrix(2.10535,0,0,1,563.344,29.3332)">
            <g transform="matrix(0.350342,0,0,0.737594,-159.738,-299.847)">
                <path d="M660.603,482.725C660.603,475.991 655.135,470.523 648.401,470.523L550.786,470.523C544.052,470.523 538.584,475.991 538.584,482.725L538.584,580.34C538.584,587.074 544.052,592.541 550.786,592.541L648.401,592.541C655.135,592.541 660.603,587.074 660.603,580.34L660.603,482.725Z" style="fill:none;"/>
            </g>
        </g>
        <g transform="matrix(2.10535,0,0,1,563.344,29.3332)">
            <g transform="matrix(0.47498,0,0,1,6.98887,-83.0546)">
                <text x="67.576px" y="172.294px" style="font-family:'Arial-Black', 'Arial Black', sans-serif;font-weight:900;font-size:20px;fill:white;">END</text>
                <text x="50.53px" y="192.294px" style="font-family:'Arial-Black', 'Arial Black', sans-serif;font-weight:900;font-size:20px;fill:white;">R<tspan x="65.745px 82.405px " y="192.294px 192.294px ">OU</tspan>ND</text>
            </g>
        </g>
    </g>
</svg>
