<?xml version="1.0" encoding="UTF-8" standalone="no"?>
<!DOCTYPE svg PUBLIC "-//W3C//DTD SVG 1.1//EN" "http://www.w3.org/Graphics/SVG/1.1/DTD/svg11.dtd">
<svg width="100%" height="100%" viewBox="0 0 90 90" version="1.1" xmlns="http://www.w3.org/2000/svg" xmlns:xlink="http://www.w3.org/1999/xlink" xml:space="preserve" xmlns:serif="http://www.serif.com/" style="fill-rule:evenodd;clip-rule:evenodd;stroke-linecap:round;stroke-linejoin:bevel;stroke-miterlimit:1.5;">
    <g transform="matrix(1,0,0,1,-97.8298,-989.362)">
        <g transform="matrix(2.10535,0,0,1,36.8777,942.153)">
            <g transform="matrix(0.350342,0,0,0.737594,-159.738,-299.847)">
                <path d="M660.603,482.725C660.603,475.991 655.135,470.523 648.401,470.523L550.786,470.523C544.052,470.523 538.584,475.991 538.584,482.725L538.584,580.34C538.584,587.074 544.052,592.541 550.786,592.541L648.401,592.541C655.135,592.541 660.603,587.074 660.603,580.34L660.603,482.725Z" style="fill:none;"/>
            </g>
        </g>
        <g transform="matrix(2.10535,0,0,1,36.8777,942.153)">
            <g transform="matrix(1,0,0,1,0.105821,-17.0134)">
                <g transform="matrix(0.707107,-1.48871,-0.335861,-0.707107,38.0116,246.934)">
                    <g transform="matrix(3.2761e-18,-0.112642,0.323257,4.1673e-17,40.8201,123.265)">
                        <path d="M329.777,79.724L329.777,66.311L330.138,66.311L330.138,62.765L392.087,73.018L330.138,83.271L330.138,79.724L329.777,79.724Z" style="fill:white;"/>
                    </g>
                    <g transform="matrix(0.47498,0,0,1,-119.909,0)">
                        <path d="M371.468,103.046C380.934,102.339 388.04,97.328 388.04,86.375" style="fill:none;stroke:white;stroke-width:6px;"/>
                    </g>
                </g>
                <g transform="matrix(-0.5,1.82329,0.411344,0.5,42.302,-32.8079)">
                    <g transform="matrix(3.2761e-18,-0.112642,0.323257,4.1673e-17,40.8201,123.265)">
                        <path d="M329.777,79.724L329.777,66.311L330.138,66.311L330.138,62.765L392.087,73.018L330.138,83.271L330.138,79.724L329.777,79.724Z" style="fill:white;"/>
                    </g>
                    <g transform="matrix(0.47498,0,0,1,-119.909,0)">
                        <path d="M371.468,103.046C380.934,102.339 388.04,97.328 388.04,86.375" style="fill:none;stroke:white;stroke-width:6px;"/>
                    </g>
                </g>
                <g transform="matrix(0.579442,-0.326879,0.0737458,0.579442,0.500529,74.1621)">
                    <g>
                        <g transform="matrix(1,0,0,1,0.56163,-4.41289)">
                            <g transform="matrix(4.74241,2.67532,-0.527918,4.148,-223.857,-342.286)">
                                <path d="M66.07,58.305L66.031,56.792C66.027,56.615 65.981,56.46 65.913,56.391C65.845,56.322 65.767,56.352 65.712,56.467L65.434,57.043C65.242,56.842 65.027,56.729 64.801,56.729C64.576,56.729 64.364,56.839 64.174,57.035C64.174,57.035 63.901,56.467 63.901,56.467C63.845,56.352 63.767,56.322 63.699,56.391C63.631,56.46 63.586,56.615 63.581,56.792L63.544,58.26C63.395,58.778 63.309,59.394 63.309,60.054C63.309,61.874 63.971,63.379 64.801,63.379C65.627,63.379 66.292,61.874 66.292,60.054C66.292,59.413 66.211,58.814 66.07,58.305ZM65.88,58.465L65.838,56.82L65.464,57.596C65.27,57.341 65.043,57.194 64.801,57.194C64.561,57.194 64.336,57.337 64.143,57.587L63.774,56.82L63.734,58.424C63.588,58.886 63.503,59.447 63.503,60.054C63.503,61.629 64.083,62.913 64.801,62.913C65.516,62.913 66.099,61.629 66.099,60.054C66.099,59.465 66.018,58.919 65.88,58.465Z" style="fill:white;"/>
                            </g>
                            <g transform="matrix(0.458795,0.258819,0.122934,-0.965926,-753.773,-276.121)">
                                <path d="M1723.57,91.573C1724.72,90.505 1725.87,89.712 1727.08,89.2C1727.74,88.925 1728.41,88.756 1729.08,88.66C1729.38,88.618 1729.67,88.597 1729.97,88.598C1730.37,88.599 1730.77,88.633 1731.16,88.705C1731.74,88.808 1732.31,88.967 1732.87,89.203C1734.09,89.719 1735.24,90.505 1736.38,91.575C1736.54,91.696 1736.58,91.928 1736.45,92.092C1736.33,92.256 1736.1,92.29 1735.94,92.169C1734.92,91.593 1733.94,91.215 1732.97,90.952C1732.56,90.842 1732.16,90.772 1731.76,90.708C1731.16,90.611 1730.57,90.593 1729.98,90.598C1729.51,90.601 1729.03,90.612 1728.56,90.676C1728.24,90.718 1727.92,90.766 1727.6,90.834C1726.43,91.078 1725.24,91.48 1724.01,92.17C1723.84,92.291 1723.61,92.255 1723.49,92.09C1723.37,91.925 1723.41,91.693 1723.57,91.573Z" style="fill:white;"/>
                            </g>
                        </g>
                        <g transform="matrix(0.50485,0.2848,-0.135274,1.06289,71.3751,-390.248)">
                            <path d="M74.678,435.887C70.465,432.852 64.543,433.287 61.291,435.604C57.205,438.515 56.478,444.315 60.547,450.138C62.827,453.58 68.538,457.152 73.378,459.451C74.201,459.842 75.155,459.842 75.978,459.451C80.823,457.15 86.542,453.571 88.822,450.118C92.878,444.31 92.15,438.514 88.065,435.604C84.813,433.287 78.89,432.852 74.678,435.887ZM74.678,440.143C77.585,436 83.4,436 86.307,438.072C89.214,440.143 89.214,444.286 86.307,448.429C84.272,451.536 79.039,454.643 74.678,456.715C70.317,454.643 65.084,451.536 63.049,448.429C60.142,444.286 60.142,440.143 63.049,438.072C65.956,436 71.771,436 74.678,440.143Z" style="fill:white;"/>
                        </g>
                        <g transform="matrix(0.50485,0.2848,-0.135274,1.06289,115.579,-365.312)">
                            <path d="M74.678,435.887C70.465,432.852 64.543,433.287 61.291,435.604C57.205,438.515 56.478,444.315 60.547,450.138C62.827,453.58 68.538,457.152 73.378,459.451C74.201,459.842 75.155,459.842 75.978,459.451C80.823,457.15 86.542,453.571 88.822,450.118C92.878,444.31 92.15,438.514 88.065,435.604C84.813,433.287 78.89,432.852 74.678,435.887ZM74.678,440.143C77.585,436 83.4,436 86.307,438.072C89.214,440.143 89.214,444.286 86.307,448.429C84.272,451.536 79.039,454.643 74.678,456.715C70.317,454.643 65.084,451.536 63.049,448.429C60.142,444.286 60.142,440.143 63.049,438.072C65.956,436 71.771,436 74.678,440.143Z" style="fill:white;"/>
                        </g>
                        <g transform="matrix(1.00963,0,-1.38778e-17,1.00963,44.3024,19.4902)">
                            <g>
                                <g transform="matrix(4.74241,2.67532,-0.527918,4.148,-223.857,-342.286)">
                                    <path d="M66.068,58.307L66.029,56.792C66.025,56.617 65.98,56.463 65.912,56.395C65.845,56.327 65.768,56.356 65.713,56.471L65.435,57.048C65.242,56.846 65.027,56.733 64.801,56.733C64.576,56.733 64.364,56.843 64.174,57.04C64.174,57.04 63.899,56.471 63.899,56.471C63.844,56.356 63.767,56.327 63.7,56.395C63.633,56.463 63.587,56.617 63.583,56.792L63.546,58.262C63.397,58.779 63.311,59.394 63.311,60.054C63.311,61.871 63.972,63.374 64.801,63.374C65.626,63.374 66.29,61.871 66.29,60.054C66.29,59.413 66.209,58.815 66.068,58.307ZM65.88,58.465L65.838,56.82L65.464,57.596C65.27,57.341 65.043,57.194 64.801,57.194C64.561,57.194 64.336,57.337 64.143,57.587L63.774,56.82L63.734,58.424C63.588,58.886 63.503,59.447 63.503,60.054C63.503,61.629 64.083,62.913 64.801,62.913C65.516,62.913 66.099,61.629 66.099,60.054C66.099,59.465 66.018,58.919 65.88,58.465Z" style="fill:white;"/>
                                </g>
                                <g transform="matrix(0.458795,0.258819,-0.122934,0.965926,-731.465,-451.407)">
                                    <path d="M1724.01,92.168C1725.24,91.475 1726.43,91.071 1727.59,90.826C1727.92,90.758 1728.24,90.71 1728.55,90.667C1729.03,90.603 1729.51,90.592 1729.98,90.588C1730.57,90.583 1731.16,90.602 1731.76,90.699C1732.16,90.764 1732.56,90.835 1732.97,90.945C1733.94,91.21 1734.93,91.589 1735.94,92.166C1736.1,92.286 1736.33,92.252 1736.45,92.09C1736.57,91.927 1736.54,91.698 1736.38,91.578C1735.24,90.51 1734.08,89.725 1732.86,89.211C1732.31,88.976 1731.74,88.817 1731.16,88.714C1730.77,88.643 1730.37,88.608 1729.97,88.607C1729.67,88.607 1729.38,88.627 1729.08,88.67C1728.41,88.765 1727.74,88.933 1727.08,89.208C1725.87,89.718 1724.72,90.51 1723.57,91.576C1723.41,91.695 1723.38,91.924 1723.49,92.088C1723.61,92.251 1723.84,92.287 1724.01,92.168Z" style="fill:white;"/>
                                </g>
                            </g>
                        </g>
                    </g>
                </g>
            </g>
        </g>
    </g>
</svg>
