<?xml version="1.0" encoding="UTF-8" standalone="no"?>
<!DOCTYPE svg PUBLIC "-//W3C//DTD SVG 1.1//EN" "http://www.w3.org/Graphics/SVG/1.1/DTD/svg11.dtd">
<svg width="100%" height="100%" viewBox="0 0 90 90" version="1.1" xmlns="http://www.w3.org/2000/svg" xmlns:xlink="http://www.w3.org/1999/xlink" xml:space="preserve" xmlns:serif="http://www.serif.com/" style="fill-rule:evenodd;clip-rule:evenodd;stroke-linecap:round;stroke-linejoin:bevel;stroke-miterlimit:1.5;">
    <g transform="matrix(1,0,0,1,-227.83,-989.362)">
        <g transform="matrix(2.10535,0,0,1,166.878,942.153)">
            <g transform="matrix(0.350342,0,0,0.737594,-159.738,-299.847)">
                <path d="M660.603,482.725C660.603,475.991 655.135,470.523 648.401,470.523L550.786,470.523C544.052,470.523 538.584,475.991 538.584,482.725L538.584,580.34C538.584,587.074 544.052,592.541 550.786,592.541L648.401,592.541C655.135,592.541 660.603,587.074 660.603,580.34L660.603,482.725Z" style="fill:none;"/>
            </g>
        </g>
        <g transform="matrix(2.10535,0,0,1,166.878,942.153)">
            <g transform="matrix(1,0,0,1,0.641702,-17.0134)">
                <g transform="matrix(0.707107,-1.48871,-0.335861,-0.707107,38.0116,246.934)">
                    <g transform="matrix(3.2761e-18,-0.112642,0.323257,4.1673e-17,40.8201,123.265)">
                        <path d="M329.777,79.724L329.777,66.311L330.138,66.311L330.138,62.765L392.087,73.018L330.138,83.271L330.138,79.724L329.777,79.724Z" style="fill:white;"/>
                    </g>
                    <g transform="matrix(0.47498,0,0,1,-119.909,0)">
                        <path d="M371.468,103.046C380.934,102.339 388.04,97.328 388.04,86.375" style="fill:none;stroke:white;stroke-width:6px;"/>
                    </g>
                </g>
                <g transform="matrix(-0.5,1.82329,0.411344,0.5,42.302,-32.8079)">
                    <g transform="matrix(3.2761e-18,-0.112642,0.323257,4.1673e-17,40.8201,123.265)">
                        <path d="M329.777,79.724L329.777,66.311L330.138,66.311L330.138,62.765L392.087,73.018L330.138,83.271L330.138,79.724L329.777,79.724Z" style="fill:white;"/>
                    </g>
                    <g transform="matrix(0.47498,0,0,1,-119.909,0)">
                        <path d="M371.468,103.046C380.934,102.339 388.04,97.328 388.04,86.375" style="fill:none;stroke:white;stroke-width:6px;"/>
                    </g>
                </g>
                <g transform="matrix(0.585024,-0.330028,0.0744563,0.585024,27.6085,73.7146)">
                    <g>
                        <g transform="matrix(4.74241,2.67532,-0.527918,4.148,-223.857,-342.286)">
                            <path d="M66.068,58.307L66.029,56.792C66.025,56.617 65.98,56.463 65.912,56.395C65.845,56.327 65.768,56.356 65.713,56.471L65.435,57.048C65.242,56.846 65.027,56.733 64.801,56.733C64.576,56.733 64.364,56.843 64.174,57.04C64.174,57.04 63.899,56.471 63.899,56.471C63.844,56.356 63.767,56.327 63.7,56.395C63.633,56.463 63.587,56.617 63.583,56.792L63.546,58.262C63.397,58.779 63.311,59.394 63.311,60.054C63.311,61.871 63.972,63.374 64.801,63.374C65.626,63.374 66.29,61.871 66.29,60.054C66.29,59.413 66.209,58.815 66.068,58.307ZM65.88,58.465L65.838,56.82L65.464,57.596C65.27,57.341 65.043,57.194 64.801,57.194C64.561,57.194 64.336,57.337 64.143,57.587L63.774,56.82L63.734,58.424C63.588,58.886 63.503,59.447 63.503,60.054C63.503,61.629 64.083,62.913 64.801,62.913C65.516,62.913 66.099,61.629 66.099,60.054C66.099,59.465 66.018,58.919 65.88,58.465Z" style="fill:white;"/>
                        </g>
                        <g transform="matrix(0.458795,0.258819,-0.122934,0.965926,-731.465,-451.407)">
                            <path d="M1724.01,92.168C1725.24,91.475 1726.43,91.071 1727.59,90.826C1727.92,90.758 1728.24,90.71 1728.55,90.667C1729.03,90.603 1729.51,90.592 1729.98,90.588C1730.57,90.583 1731.16,90.602 1731.76,90.699C1732.16,90.764 1732.56,90.835 1732.97,90.945C1733.94,91.21 1734.93,91.589 1735.94,92.166C1736.1,92.286 1736.33,92.252 1736.45,92.09C1736.57,91.927 1736.54,91.698 1736.38,91.578C1735.24,90.51 1734.08,89.725 1732.86,89.211C1732.31,88.976 1731.74,88.817 1731.16,88.714C1730.77,88.643 1730.37,88.608 1729.97,88.607C1729.67,88.607 1729.38,88.627 1729.08,88.67C1728.41,88.765 1727.74,88.933 1727.08,89.208C1725.87,89.718 1724.72,90.51 1723.57,91.576C1723.41,91.695 1723.38,91.924 1723.49,92.088C1723.61,92.251 1723.84,92.287 1724.01,92.168Z" style="fill:white;"/>
                        </g>
                    </g>
                </g>
                <g transform="matrix(0.579442,-0.326879,0.0737458,0.579442,0.500529,74.1621)">
                    <g>
                        <g transform="matrix(4.74241,2.67532,-0.527918,4.148,-223.857,-342.286)">
                            <path d="M66.07,58.305L66.031,56.792C66.027,56.615 65.981,56.46 65.913,56.391C65.845,56.322 65.767,56.352 65.712,56.467L65.434,57.043C65.242,56.842 65.027,56.729 64.801,56.729C64.576,56.729 64.364,56.839 64.174,57.035C64.174,57.035 63.901,56.467 63.901,56.467C63.845,56.352 63.767,56.322 63.699,56.391C63.631,56.46 63.586,56.615 63.581,56.792L63.544,58.26C63.395,58.778 63.309,59.394 63.309,60.054C63.309,61.874 63.971,63.379 64.801,63.379C65.627,63.379 66.292,61.874 66.292,60.054C66.292,59.413 66.211,58.814 66.07,58.305ZM65.88,58.465L65.838,56.82L65.464,57.596C65.27,57.341 65.043,57.194 64.801,57.194C64.561,57.194 64.336,57.337 64.143,57.587L63.774,56.82L63.734,58.424C63.588,58.886 63.503,59.447 63.503,60.054C63.503,61.629 64.083,62.913 64.801,62.913C65.516,62.913 66.099,61.629 66.099,60.054C66.099,59.465 66.018,58.919 65.88,58.465Z" style="fill:white;"/>
                        </g>
                        <g transform="matrix(0.458795,0.258819,0.122934,-0.965926,-753.773,-276.121)">
                            <path d="M1723.57,91.573C1724.72,90.505 1725.87,89.712 1727.08,89.2C1727.74,88.925 1728.41,88.756 1729.08,88.66C1729.38,88.618 1729.67,88.597 1729.97,88.598C1730.37,88.599 1730.77,88.633 1731.16,88.705C1731.74,88.808 1732.31,88.967 1732.87,89.203C1734.09,89.719 1735.24,90.505 1736.38,91.575C1736.54,91.696 1736.58,91.928 1736.45,92.092C1736.33,92.256 1736.1,92.29 1735.94,92.169C1734.92,91.593 1733.94,91.215 1732.97,90.952C1732.56,90.842 1732.16,90.772 1731.76,90.708C1731.16,90.611 1730.57,90.593 1729.98,90.598C1729.51,90.601 1729.03,90.612 1728.56,90.676C1728.24,90.718 1727.92,90.766 1727.6,90.834C1726.43,91.078 1725.24,91.48 1724.01,92.17C1723.84,92.291 1723.61,92.255 1723.49,92.09C1723.37,91.925 1723.41,91.693 1723.57,91.573Z" style="fill:white;"/>
                        </g>
                    </g>
                </g>
                <g transform="matrix(1.3761,0,0,1.3761,-24.0619,-23.3679)">
                    <path d="M62.442,109.649L66.385,109.649C66.647,109.649 66.86,109.201 66.86,108.649C66.86,108.097 66.647,107.649 66.385,107.649L62.442,107.649C62.179,107.649 61.967,108.097 61.967,108.649C61.967,109.201 62.179,109.649 62.442,109.649ZM60.71,109.649L60.969,109.649C61.231,109.649 61.444,109.201 61.444,108.649C61.444,108.097 61.231,107.649 60.969,107.649L60.71,107.649C60.448,107.649 60.235,108.097 60.235,108.649C60.235,109.201 60.448,109.649 60.71,109.649ZM62.442,106.573L66.385,106.573C66.647,106.573 66.86,106.125 66.86,105.573C66.86,105.021 66.647,104.573 66.385,104.573L62.442,104.573C62.179,104.573 61.967,105.021 61.967,105.573C61.967,106.125 62.179,106.573 62.442,106.573ZM60.71,106.573L60.969,106.573C61.231,106.573 61.444,106.125 61.444,105.573C61.444,105.021 61.231,104.573 60.969,104.573L60.71,104.573C60.448,104.573 60.235,105.021 60.235,105.573C60.235,106.125 60.448,106.573 60.71,106.573ZM62.442,103.497L66.385,103.497C66.647,103.497 66.86,103.049 66.86,102.497C66.86,101.945 66.647,101.497 66.385,101.497L62.442,101.497C62.179,101.497 61.967,101.945 61.967,102.497C61.967,103.049 62.179,103.497 62.442,103.497ZM60.71,103.497L60.969,103.497C61.231,103.497 61.444,103.049 61.444,102.497C61.444,101.945 61.231,101.497 60.969,101.497L60.71,101.497C60.448,101.497 60.235,101.945 60.235,102.497C60.235,103.049 60.448,103.497 60.71,103.497Z" style="fill:white;"/>
                </g>
                <g transform="matrix(1.36297,0,0,1.36297,-50.6769,-21.9941)">
                    <path d="M62.442,109.649L66.385,109.649C66.647,109.649 66.86,109.201 66.86,108.649C66.86,108.097 66.647,107.649 66.385,107.649L62.442,107.649C62.179,107.649 61.967,108.097 61.967,108.649C61.967,109.201 62.179,109.649 62.442,109.649ZM60.71,109.649L60.969,109.649C61.231,109.649 61.444,109.201 61.444,108.649C61.444,108.097 61.231,107.649 60.969,107.649L60.71,107.649C60.448,107.649 60.235,108.097 60.235,108.649C60.235,109.201 60.448,109.649 60.71,109.649ZM62.442,106.573L66.385,106.573C66.647,106.573 66.86,106.125 66.86,105.573C66.86,105.021 66.647,104.573 66.385,104.573L62.442,104.573C62.179,104.573 61.967,105.021 61.967,105.573C61.967,106.125 62.179,106.573 62.442,106.573ZM60.71,106.573L60.969,106.573C61.231,106.573 61.444,106.125 61.444,105.573C61.444,105.021 61.231,104.573 60.969,104.573L60.71,104.573C60.448,104.573 60.235,105.021 60.235,105.573C60.235,106.125 60.448,106.573 60.71,106.573ZM62.442,103.497L66.385,103.497C66.647,103.497 66.86,103.049 66.86,102.497C66.86,101.945 66.647,101.497 66.385,101.497L62.442,101.497C62.179,101.497 61.967,101.945 61.967,102.497C61.967,103.049 62.179,103.497 62.442,103.497ZM60.71,103.497L60.969,103.497C61.231,103.497 61.444,103.049 61.444,102.497C61.444,101.945 61.231,101.497 60.969,101.497L60.71,101.497C60.448,101.497 60.235,101.945 60.235,102.497C60.235,103.049 60.448,103.497 60.71,103.497Z" style="fill:white;"/>
                </g>
            </g>
        </g>
    </g>
</svg>
