<?xml version="1.0" encoding="UTF-8" standalone="no"?>
<!DOCTYPE svg PUBLIC "-//W3C//DTD SVG 1.1//EN" "http://www.w3.org/Graphics/SVG/1.1/DTD/svg11.dtd">
<svg width="100%" height="100%" viewBox="0 0 90 90" version="1.1" xmlns="http://www.w3.org/2000/svg" xmlns:xlink="http://www.w3.org/1999/xlink" xml:space="preserve" xmlns:serif="http://www.serif.com/" style="fill-rule:evenodd;clip-rule:evenodd;stroke-linecap:round;stroke-linejoin:round;stroke-miterlimit:1.5;">
    <g transform="matrix(1,0,0,1,-354.833,-76.5417)">
        <g transform="matrix(2.10535,0,0,1,293.881,29.3332)">
            <g transform="matrix(0.350342,0,0,0.737594,-159.738,-299.847)">
                <path d="M660.603,482.725C660.603,475.991 655.135,470.523 648.401,470.523L550.786,470.523C544.052,470.523 538.584,475.991 538.584,482.725L538.584,580.34C538.584,587.074 544.052,592.541 550.786,592.541L648.401,592.541C655.135,592.541 660.603,587.074 660.603,580.34L660.603,482.725Z" style="fill:none;"/>
            </g>
        </g>
        <g transform="matrix(2.10535,0,0,1,293.881,29.3332)">
            <g transform="matrix(1,0,0,1,0.600535,4.42635)">
                <g transform="matrix(1,0,0,1,1.16163,-3.8107)">
                    <g transform="matrix(0.28139,-0.592426,0.269787,0.567996,-85.3166,245.775)">
                        <path d="M350.601,97.76C350.601,95.898 349.152,94.386 347.367,94.386L320.101,94.386C318.316,94.386 316.867,95.898 316.867,97.76L316.867,124.748C316.867,126.61 318.316,128.121 320.101,128.121L347.367,128.121C349.152,128.121 350.601,126.61 350.601,124.748L350.601,97.76Z" style="fill:none;stroke:white;stroke-width:2.44px;"/>
                    </g>
                    <g transform="matrix(0.527875,-0.297789,0.0671829,0.527875,5.80038,84.831)">
                        <g transform="matrix(4.74241,2.67532,-0.527918,4.148,-223.857,-342.286)">
                            <path d="M66.088,58.29L66.05,56.789C66.045,56.595 65.995,56.424 65.921,56.349C65.846,56.273 65.76,56.306 65.699,56.433L65.431,56.99C65.239,56.793 65.026,56.683 64.801,56.683C64.578,56.683 64.367,56.79 64.177,56.982C64.177,56.982 63.913,56.433 63.913,56.433C63.852,56.306 63.766,56.273 63.692,56.349C63.617,56.424 63.567,56.595 63.562,56.789L63.525,58.245C63.376,58.768 63.29,59.388 63.29,60.054C63.29,61.897 63.96,63.424 64.801,63.424C65.638,63.424 66.311,61.897 66.311,60.054C66.311,59.408 66.23,58.804 66.088,58.29L66.088,58.29ZM65.88,58.465L65.838,56.82L65.464,57.596C65.27,57.341 65.043,57.194 64.801,57.194C64.561,57.194 64.336,57.337 64.143,57.587L63.774,56.82L63.734,58.424C63.588,58.886 63.503,59.447 63.503,60.054C63.503,61.629 64.083,62.913 64.801,62.913C65.516,62.913 66.099,61.629 66.099,60.054C66.099,59.465 66.018,58.919 65.88,58.465Z" style="fill:white;"/>
                        </g>
                        <g transform="matrix(0.458795,0.258819,0.122934,-0.965926,-753.773,-276.121)">
                            <path d="M1723.55,91.544C1724.69,90.454 1725.84,89.647 1727.06,89.121C1727.72,88.836 1728.39,88.665 1729.07,88.565C1729.37,88.52 1729.67,88.499 1729.97,88.5C1730.38,88.501 1730.78,88.537 1731.18,88.611C1731.76,88.719 1732.33,88.885 1732.89,89.125C1733.42,89.348 1733.93,89.609 1734.43,89.942C1735.11,90.389 1735.75,90.913 1736.4,91.546C1736.58,91.679 1736.62,91.934 1736.48,92.113C1736.35,92.293 1736.1,92.331 1735.91,92.198C1734.9,91.634 1733.91,91.276 1732.94,91.023C1732.53,90.918 1732.14,90.855 1731.74,90.793C1731.15,90.702 1730.57,90.69 1729.98,90.695C1729.51,90.699 1729.05,90.705 1728.57,90.766C1728.26,90.806 1727.94,90.85 1727.62,90.914C1726.46,91.146 1725.27,91.525 1724.03,92.2C1723.85,92.332 1723.59,92.292 1723.46,92.111C1723.33,91.93 1723.37,91.676 1723.55,91.544Z" style="fill:white;"/>
                        </g>
                    </g>
                </g>
                <g transform="matrix(0.725473,0,0,0.725473,32.6963,-14.7495)">
                    <g transform="matrix(0.335861,-0.707107,0.335861,0.707107,-110.846,268.571)">
                        <path d="M350.601,97.76C350.601,95.898 349.09,94.386 347.228,94.386L320.24,94.386C318.378,94.386 316.867,95.898 316.867,97.76L316.867,124.748C316.867,126.61 318.378,128.121 320.24,128.121L347.228,128.121C349.09,128.121 350.601,126.61 350.601,124.748L350.601,97.76Z" style="fill:none;stroke:white;stroke-width:2.76px;"/>
                    </g>
                    <g transform="matrix(0.727629,-0.410476,0.0926057,0.727629,-6.2558,74.7516)">
                        <g transform="matrix(4.74241,2.67532,-0.527918,4.148,-223.857,-342.286)">
                            <path d="M66.088,58.29L66.05,56.789C66.045,56.595 65.995,56.424 65.921,56.349C65.846,56.273 65.76,56.306 65.699,56.433L65.431,56.99C65.239,56.793 65.026,56.683 64.801,56.683C64.578,56.683 64.367,56.79 64.177,56.982C64.177,56.982 63.913,56.433 63.913,56.433C63.852,56.306 63.766,56.273 63.692,56.349C63.617,56.424 63.567,56.595 63.562,56.789L63.525,58.245C63.376,58.768 63.29,59.388 63.29,60.054C63.29,61.897 63.96,63.424 64.801,63.424C65.638,63.424 66.311,61.897 66.311,60.054C66.311,59.408 66.23,58.804 66.088,58.29L66.088,58.29ZM65.88,58.465L65.838,56.82L65.464,57.596C65.27,57.341 65.043,57.194 64.801,57.194C64.561,57.194 64.336,57.337 64.143,57.587L63.774,56.82L63.734,58.424C63.588,58.886 63.503,59.447 63.503,60.054C63.503,61.629 64.083,62.913 64.801,62.913C65.516,62.913 66.099,61.629 66.099,60.054C66.099,59.465 66.018,58.919 65.88,58.465Z" style="fill:white;"/>
                        </g>
                        <g transform="matrix(0.458795,0.258819,0.122934,-0.965926,-753.773,-276.121)">
                            <path d="M1723.55,91.544C1724.69,90.454 1725.84,89.647 1727.06,89.121C1727.72,88.836 1728.39,88.665 1729.07,88.565C1729.37,88.52 1729.67,88.499 1729.97,88.5C1730.38,88.501 1730.78,88.537 1731.18,88.611C1731.76,88.719 1732.33,88.885 1732.89,89.125C1733.42,89.348 1733.93,89.609 1734.43,89.942C1735.11,90.389 1735.75,90.913 1736.4,91.546C1736.58,91.679 1736.62,91.934 1736.48,92.113C1736.35,92.293 1736.1,92.331 1735.91,92.198C1734.9,91.634 1733.91,91.276 1732.94,91.023C1732.53,90.918 1732.14,90.855 1731.74,90.793C1731.15,90.702 1730.57,90.69 1729.98,90.695C1729.51,90.699 1729.05,90.705 1728.57,90.766C1728.26,90.806 1727.94,90.85 1727.62,90.914C1726.46,91.146 1725.27,91.525 1724.03,92.2C1723.85,92.332 1723.59,92.292 1723.46,92.111C1723.33,91.93 1723.37,91.676 1723.55,91.544Z" style="fill:white;"/>
                        </g>
                    </g>
                </g>
                <g transform="matrix(1,-1.17094e-16,-5.29091e-17,1,-1.90872,11.1616)">
                    <g transform="matrix(3.2761e-18,-0.112642,0.323257,4.1673e-17,40.8201,123.265)">
                        <path d="M329.777,79.724L329.777,66.311L330.138,66.311L330.138,62.765L392.087,73.018L330.138,83.271L330.138,79.724L329.777,79.724Z" style="fill:white;"/>
                    </g>
                    <g transform="matrix(0.47498,0,0,1,-119.909,0)">
                        <path d="M371.468,103.046C380.934,102.339 388.04,97.328 388.04,86.375" style="fill:none;stroke:white;stroke-width:6px;stroke-linejoin:bevel;"/>
                    </g>
                </g>
                <g transform="matrix(-1,3.74925e-16,-5.25917e-18,-1,103.77,160.405)">
                    <g transform="matrix(3.2761e-18,-0.112642,0.323257,4.1673e-17,40.8201,123.265)">
                        <path d="M329.777,79.724L329.777,66.311L330.138,66.311L330.138,62.765L392.087,73.018L330.138,83.271L330.138,79.724L329.777,79.724Z" style="fill:white;"/>
                    </g>
                    <g transform="matrix(0.47498,0,0,1,-119.909,0)">
                        <path d="M371.468,103.046C380.934,102.339 388.04,97.328 388.04,86.375" style="fill:none;stroke:white;stroke-width:6px;stroke-linejoin:bevel;"/>
                    </g>
                </g>
            </g>
        </g>
    </g>
</svg>
