<?xml version="1.0" encoding="UTF-8" standalone="no"?><!DOCTYPE svg PUBLIC "-//W3C//DTD SVG 1.1//EN" "http://www.w3.org/Graphics/SVG/1.1/DTD/svg11.dtd"><svg width="100%" height="100%" viewBox="0 0 24 26" version="1.1" xmlns="http://www.w3.org/2000/svg" xmlns:xlink="http://www.w3.org/1999/xlink" xml:space="preserve" xmlns:serif="http://www.serif.com/" style="fill-rule:evenodd;clip-rule:evenodd;stroke-linejoin:round;stroke-miterlimit:2;"><path d="M11.686,1.803c0.552,-0 9.399,5.108 9.676,5.586c0.276,0.478 0.276,10.695 -0,11.173c-0.277,0.478 -9.124,5.586 -9.676,5.586c-0.552,0 -9.4,-5.108 -9.676,-5.586c-0.276,-0.478 -0.276,-10.695 -0,-11.173c0.276,-0.478 9.124,-5.586 9.676,-5.586Z" style="fill-opacity:0.8;"/><path d="M11.686,0.803c-0.11,-0 -0.403,0.048 -0.81,0.232c-0.833,0.377 -2.744,1.426 -4.632,2.516c-1.887,1.089 -3.751,2.22 -4.494,2.753c-0.363,0.26 -0.551,0.49 -0.606,0.585c-0.055,0.095 -0.16,0.373 -0.204,0.818c-0.09,0.909 -0.137,3.089 -0.137,5.268c-0,2.18 0.047,4.36 0.137,5.269c0.044,0.445 0.149,0.723 0.204,0.818c0.055,0.095 0.243,0.325 0.606,0.585c0.743,0.533 2.607,1.664 4.494,2.753c1.888,1.09 3.799,2.139 4.632,2.516c0.407,0.184 0.7,0.232 0.81,0.232c0.11,0 0.402,-0.048 0.81,-0.232c0.832,-0.377 2.743,-1.426 4.631,-2.516c1.888,-1.089 3.752,-2.22 4.494,-2.753c0.363,-0.26 0.552,-0.49 0.607,-0.585c0.055,-0.095 0.159,-0.373 0.203,-0.818c0.09,-0.909 0.138,-3.089 0.138,-5.269c-0,-2.179 -0.048,-4.359 -0.138,-5.268c-0.044,-0.445 -0.148,-0.723 -0.203,-0.818c-0.055,-0.095 -0.244,-0.325 -0.607,-0.585c-0.742,-0.533 -2.606,-1.664 -4.494,-2.753c-1.888,-1.09 -3.799,-2.139 -4.631,-2.516c-0.408,-0.184 -0.7,-0.232 -0.81,-0.232Zm-0,1c0.552,-0 9.399,5.108 9.676,5.586c0.276,0.478 0.276,10.695 -0,11.173c-0.277,0.478 -9.124,5.586 -9.676,5.586c-0.552,0 -9.4,-5.108 -9.676,-5.586c-0.276,-0.478 -0.276,-10.695 -0,-11.173c0.276,-0.478 9.124,-5.586 9.676,-5.586Z" style="fill:#fff;"/></svg>