<?xml version="1.0" encoding="UTF-8" standalone="no"?><!DOCTYPE svg PUBLIC "-//W3C//DTD SVG 1.1//EN" "http://www.w3.org/Graphics/SVG/1.1/DTD/svg11.dtd"><svg width="100%" height="100%" viewBox="0 0 13 15" version="1.1" xmlns="http://www.w3.org/2000/svg" xmlns:xlink="http://www.w3.org/1999/xlink" xml:space="preserve" xmlns:serif="http://www.serif.com/" style="fill-rule:evenodd;clip-rule:evenodd;stroke-linejoin:round;stroke-miterlimit:2;"><g><g><path d="M6.495,0l6.495,3.75l0,7.5l-6.495,3.75l-6.495,-3.75l0,-7.5l6.495,-3.75Z" style="fill:#fff;"/><path d="M6.495,0l6.495,3.75l0,7.5l-6.495,3.75l-6.495,-3.75l0,-7.5l6.495,-3.75Z" style="fill:#fff;"/><path d="M0,11.25l0,-7.5l6.495,-3.75l6.495,3.75" style="fill:#fff;fill-opacity:0.15;"/><path d="M12.99,11.25l-6.495,3.75l-6.495,-3.75l0,-7.5l12.99,7.5Z" style="fill:#fff;fill-opacity:0.15;"/><path d="M6.495,0l6.495,3.75l0,7.5l-6.495,3.75l0,-15Z" style="fill:#fff;fill-opacity:0.15;"/></g><g><g><path d="M6.495,0.592l5.983,3.454l-0,6.908l-5.983,3.454l-5.982,-3.454l-0,-6.908l5.982,-3.454Z" style="fill:#00c0ff;"/><path d="M6.495,0.592l5.983,3.454l-0,6.908l-5.983,3.454l-5.982,-3.454l-0,-6.908l5.982,-3.454Zm0,1.064l5.062,2.922c-0,-0 -0,5.844 -0,5.844c-0,0 -5.062,2.922 -5.062,2.922c0,0 -5.061,-2.922 -5.061,-2.922c-0,0 -0,-5.844 -0,-5.844l5.061,-2.922Z" style="fill-opacity:0.1;"/><path d="M0.513,10.954l-0,-6.908l5.982,-3.454l5.983,3.454" style="fill-opacity:0.15;"/><path d="M12.478,10.954l-5.983,3.454l-5.982,-3.454l-0,-6.908l11.965,6.908Z" style="fill-opacity:0.15;"/><path d="M6.495,0.592l5.983,3.454l-0,6.908l-5.983,3.454l0,-13.816Z" style="fill-opacity:0.15;"/></g></g></g></svg>