<?xml version="1.0" encoding="UTF-8" standalone="no"?><!DOCTYPE svg PUBLIC "-//W3C//DTD SVG 1.1//EN" "http://www.w3.org/Graphics/SVG/1.1/DTD/svg11.dtd"><svg width="100%" height="100%" viewBox="0 0 6 5" version="1.1" xmlns="http://www.w3.org/2000/svg" xmlns:xlink="http://www.w3.org/1999/xlink" xml:space="preserve" xmlns:serif="http://www.serif.com/" style="fill-rule:evenodd;clip-rule:evenodd;stroke-linejoin:round;stroke-miterlimit:2;"><g><path d="M3.583,4.014c0.855,0 1.55,-0.695 1.55,-1.55c0,-0.855 -0.695,-1.55 -1.55,-1.55c-0.855,-0 -1.55,0.695 -1.55,1.55c-0,0.855 0.695,1.55 1.55,1.55Zm-1.154,-1.633l-0.228,-0c0.019,-0.319 0.147,-0.61 0.347,-0.835l0.16,0.16c0.016,0.017 0.037,0.025 0.059,0.025c0.021,-0 0.042,-0.008 0.058,-0.025c0.033,-0.032 0.033,-0.085 0,-0.117l-0.16,-0.16c0.225,-0.2 0.516,-0.328 0.835,-0.347l-0,0.228c-0,0.045 0.037,0.083 0.083,0.083c0.046,-0 0.083,-0.038 0.083,-0.083l-0,-0.228c0.319,0.019 0.61,0.147 0.835,0.347l-0.161,0.16c-0.032,0.032 -0.032,0.085 0,0.117c0.017,0.017 0.038,0.025 0.059,0.025c0.021,-0 0.043,-0.008 0.059,-0.025l0.16,-0.16c0.2,0.225 0.327,0.516 0.346,0.835l-0.227,-0c-0.046,-0 -0.083,0.037 -0.083,0.083c0,0.046 0.037,0.083 0.083,0.083l0.227,-0c-0.019,0.319 -0.146,0.61 -0.346,0.835l-0.16,-0.161c-0.033,-0.032 -0.085,-0.032 -0.118,0c-0.032,0.033 -0.032,0.085 0,0.118l0.161,0.16c-0.226,0.2 -0.516,0.327 -0.835,0.346l-0,-0.227c-0,-0.046 -0.037,-0.083 -0.083,-0.083c-0.046,0 -0.083,0.037 -0.083,0.083l-0,0.227c-0.319,-0.019 -0.61,-0.146 -0.835,-0.346l0.16,-0.16c0.033,-0.033 0.033,-0.085 0,-0.118c-0.032,-0.032 -0.085,-0.032 -0.117,0l-0.16,0.161c-0.2,-0.225 -0.328,-0.516 -0.347,-0.835l0.228,-0c0.045,-0 0.083,-0.037 0.083,-0.083c-0,-0.046 -0.038,-0.083 -0.083,-0.083Z" style="fill:#fff;fill-rule:nonzero;"/><path d="M4.59,4.062c-0.301,0.19 -0.649,0.291 -1.007,0.291c-1.042,-0 -1.889,-0.848 -1.889,-1.889c-0,-0.422 0.136,-0.821 0.393,-1.154c0.028,-0.036 0.021,-0.088 -0.015,-0.116c-0.036,-0.028 -0.089,-0.021 -0.117,0.015c-0.279,0.362 -0.427,0.796 -0.427,1.255c-0,1.133 0.922,2.055 2.055,2.055c0.389,-0 0.768,-0.109 1.096,-0.316c0.038,-0.025 0.05,-0.076 0.025,-0.115c-0.024,-0.039 -0.075,-0.05 -0.114,-0.026Z" style="fill:#fff;fill-rule:nonzero;"/><path d="M4.084,0.471l-0,-0.315c-0,-0.086 -0.07,-0.156 -0.156,-0.156l-0.69,0c-0.086,0 -0.156,0.07 -0.156,0.156l-0,0.315c-0.33,0.082 -0.637,0.246 -0.892,0.482c-0.033,0.031 -0.036,0.083 -0.004,0.117c0.031,0.034 0.083,0.036 0.117,0.005c0.349,-0.323 0.804,-0.5 1.28,-0.5c1.041,-0 1.889,0.847 1.889,1.889c-0,0.534 -0.228,1.046 -0.626,1.404c-0.034,0.031 -0.037,0.083 -0.006,0.118c0.016,0.018 0.039,0.027 0.062,0.027c0.019,0 0.039,-0.007 0.055,-0.021c0.433,-0.39 0.681,-0.947 0.681,-1.528c-0,-0.961 -0.662,-1.769 -1.554,-1.993Zm-0.836,-0.035l0,-0.27l0.67,0l-0,0.27c-0.109,-0.018 -0.221,-0.027 -0.335,-0.027c-0.113,-0 -0.225,0.009 -0.335,0.027Z" style="fill:#fff;fill-rule:nonzero;"/><path d="M3.583,2.522c0.031,0 0.058,-0.017 0.072,-0.043l0.287,-0.286c0.032,-0.032 0.032,-0.085 -0,-0.117c-0.033,-0.033 -0.085,-0.033 -0.118,-0l-0.158,0.158l-0,-0.404c-0,-0.046 -0.037,-0.084 -0.083,-0.084c-0.046,0 -0.083,0.038 -0.083,0.084l-0,0.609c-0,0.046 0.037,0.083 0.083,0.083Z" style="fill:#fff;fill-rule:nonzero;"/><path d="M1.226,2.483c-0,-0.046 -0.038,-0.083 -0.084,-0.083l-1.059,-0c-0.046,-0 -0.083,0.037 -0.083,0.083c0,0.045 0.037,0.083 0.083,0.083l1.059,-0c0.046,-0 0.084,-0.038 0.084,-0.083Z" style="fill:#fff;fill-rule:nonzero;"/><path d="M0.414,2.082l0.839,-0c0.046,-0 0.083,-0.037 0.083,-0.083c0,-0.046 -0.037,-0.083 -0.083,-0.083l-0.839,-0c-0.046,-0 -0.083,0.037 -0.083,0.083c0,0.046 0.037,0.083 0.083,0.083Z" style="fill:#fff;fill-rule:nonzero;"/><path d="M1.364,1.432l-0.688,0c-0.046,0 -0.083,0.037 -0.083,0.083c-0,0.046 0.037,0.083 0.083,0.083l0.688,0c0.046,0 0.083,-0.037 0.083,-0.083c-0,-0.046 -0.037,-0.083 -0.083,-0.083Z" style="fill:#fff;fill-rule:nonzero;"/><path d="M1.336,2.929c0,-0.046 -0.037,-0.083 -0.083,-0.083l-0.839,-0c-0.046,-0 -0.083,0.037 -0.083,0.083c0,0.046 0.037,0.083 0.083,0.083l0.839,-0c0.046,-0 0.083,-0.037 0.083,-0.083Z" style="fill:#fff;fill-rule:nonzero;"/><path d="M1.364,3.329l-0.688,0c-0.046,0 -0.083,0.038 -0.083,0.083c-0,0.046 0.037,0.083 0.083,0.083l0.688,0c0.046,0 0.083,-0.037 0.083,-0.083c-0,-0.045 -0.037,-0.083 -0.083,-0.083Z" style="fill:#fff;fill-rule:nonzero;"/></g></svg>