<?xml version="1.0" encoding="UTF-8" standalone="no"?><!DOCTYPE svg PUBLIC "-//W3C//DTD SVG 1.1//EN" "http://www.w3.org/Graphics/SVG/1.1/DTD/svg11.dtd"><svg width="100%" height="100%" viewBox="0 0 30 30" version="1.1" xmlns="http://www.w3.org/2000/svg" xmlns:xlink="http://www.w3.org/1999/xlink" xml:space="preserve" xmlns:serif="http://www.serif.com/" style="fill-rule:evenodd;clip-rule:evenodd;stroke-linejoin:round;stroke-miterlimit:2;"><path d="M21.401,3.866c-1.961,-1.241 -4.285,-1.958 -6.775,-1.958c-7.02,-0 -12.718,5.698 -12.718,12.718c-0,6.544 4.953,11.941 11.311,12.641c0.524,0.058 0.902,0.529 0.844,1.052c-0.058,0.524 -0.529,0.902 -1.052,0.844c-7.314,-0.805 -13.011,-7.011 -13.011,-14.537c0,-8.072 6.554,-14.626 14.626,-14.626c3.018,0 5.824,0.916 8.153,2.487l1.534,-1.533l1.085,5.66l-5.66,-1.086l1.663,-1.662Zm-3.058,22.925c-0.56,0.172 -1.137,0.305 -1.727,0.398c-0.52,0.082 -0.876,0.57 -0.794,1.09c0.082,0.52 0.57,0.876 1.09,0.794c0.68,-0.106 1.343,-0.26 1.988,-0.457c0.504,-0.154 0.788,-0.688 0.634,-1.191c-0.154,-0.504 -0.688,-0.788 -1.191,-0.634Zm4.62,-2.565c-0.446,0.388 -0.919,0.745 -1.416,1.069c-0.441,0.287 -0.566,0.878 -0.279,1.319c0.287,0.442 0.878,0.567 1.319,0.28c0.572,-0.372 1.115,-0.782 1.628,-1.228c0.397,-0.345 0.439,-0.948 0.094,-1.346c-0.345,-0.397 -0.948,-0.439 -1.346,-0.094Zm3.187,-4.218c-0.252,0.538 -0.54,1.056 -0.862,1.55c-0.288,0.441 -0.163,1.032 0.278,1.319c0.441,0.288 1.033,0.163 1.32,-0.278c0.37,-0.568 0.702,-1.163 0.992,-1.781c0.223,-0.477 0.018,-1.046 -0.459,-1.269c-0.477,-0.223 -1.045,-0.017 -1.269,0.459Zm-12.46,-13.394l0,8.527c0,0.214 0.085,0.419 0.236,0.571l4.646,4.645c0.315,0.315 0.826,0.315 1.141,0c0.314,-0.315 0.314,-0.826 -0,-1.14l-4.41,-4.41c0,0 0,-8.193 0,-8.193c0,-0.445 -0.361,-0.807 -0.806,-0.807c-0.445,0 -0.807,0.362 -0.807,0.807Zm13.652,8.247c-0.011,0.6 -0.064,1.19 -0.155,1.767c-0.082,0.52 0.273,1.009 0.793,1.091c0.52,0.083 1.009,-0.273 1.091,-0.793c0.105,-0.663 0.166,-1.341 0.178,-2.03c0.01,-0.527 -0.41,-0.962 -0.936,-0.971c-0.527,-0.01 -0.962,0.41 -0.971,0.936Zm-1,-5.189c0.229,0.541 0.422,1.1 0.575,1.676c0.135,0.509 0.658,0.812 1.167,0.676c0.509,-0.135 0.812,-0.658 0.676,-1.167c-0.176,-0.663 -0.398,-1.307 -0.662,-1.929c-0.205,-0.485 -0.766,-0.712 -1.25,-0.506c-0.485,0.205 -0.712,0.765 -0.506,1.25Z" style="fill:#fff;"/></svg>